<?xml version="1.0" encoding="utf-8"?>
<!-- Generator: Adobe Illustrator 26.4.1, SVG Export Plug-In . SVG Version: 6.00 Build 0)  -->
<svg version="1.1" id="katman_1" xmlns="http://www.w3.org/2000/svg" xmlns:xlink="http://www.w3.org/1999/xlink" x="0px" y="0px"
	 viewBox="0 0 511 511" style="enable-background:new 0 0 511 511;" xml:space="preserve">
<path style="fill:#E3E3E3;" d="M255.5,511C396.6,511,511,396.6,511,255.5S396.6,0,255.5,0S0,114.4,0,255.5C0,396.6,114.4,511,255.5,511z"/>
<linearGradient id="SVGID_1_" gradientUnits="userSpaceOnUse" x1="320.2117" y1="2014.28" x2="438.6515" y2="2133.9614" gradientTransform="matrix(1 0 0 1 -20.9449 -1831.6378)">
	<stop  offset="0.21" style="stop-color:#F15A24"/>
	<stop  offset="0.6841" style="stop-color:#FBB03B"/>
</linearGradient>
<path style="fill:url(#SVGID_1_);" d="M344.3,169.1c-19.3,0-40.3,10.5-62.6,31.1c-10.5,9.7-19.7,20.3-26.5,28.6c0,0,10.8,12.4,22.6,25.7
	c6.5-8.1,15.6-19,26.3-28.9c19.7-18.4,32.6-22.2,40.1-22.2c27.7,0,50.3,23.3,50.3,52c0,28.4-22.5,51.7-50.3,52
	c-1.3,0-2.9-0.2-4.8-0.6c8.1,3.7,16.9,6.4,25,6.4c50.8,0,60.9-35.1,61.4-37.6c1.4-6.4,2.3-13.2,2.3-20.1
	C428.1,207.9,390.5,169.1,344.3,169.1z"/>
<linearGradient id="SVGID_00000123415286252230076630000007395768615748947860_" gradientUnits="userSpaceOnUse" x1="232.6589" y1="2160.0146" x2="114.2188" y2="2040.3334" gradientTransform="matrix(1 0 0 1 -20.9449 -1831.6378)">
	<stop  offset="0.21" style="stop-color:#ED1E79"/>
	<stop  offset="0.8929" style="stop-color:#522785"/>
</linearGradient>
<path style="fill:url(#SVGID_00000123415286252230076630000007395768615748947860_);" d="M166.7,341.9c19.3,0,40.3-10.5,62.6-31.1
	c10.5-9.7,19.7-20.3,26.5-28.6c0,0-10.8-12.4-22.6-25.7c-6.5,8.1-15.6,19-26.3,28.9c-19.7,18.3-32.7,22.2-40.1,22.2
	c-27.7,0-50.3-23.3-50.3-52c0-28.4,22.5-51.7,50.3-52c1.3,0,2.9,0.2,4.8,0.6c-8.1-3.7-16.9-6.4-25-6.4c-50.8-0.1-60.9,35-61.4,37.6
	c-1.4,6.4-2.3,13.2-2.3,20.1C82.8,303,120.3,341.9,166.7,341.9z"/>
<path style="fill-rule:evenodd;clip-rule:evenodd;fill:#29ABE2;" d="M205.4,226.5c-5.6-5.4-32.7-27.4-58.7-28.2c-46.4-1.2-60,32.5-61.2,36.8c9-37.7,42.1-65.8,81.4-66
	c32.1,0,64.5,31.4,88.5,59.8l0.1-0.1c0,0,10.8,12.4,22.6,25.7c0,0,13.5,15.9,27.7,29.8c5.6,5.4,32.6,27.1,58.6,27.9
	c47.7,1.3,60.9-34.2,61.5-36.9c-8.8,38-42,66.2-81.5,66.4c-32.1,0-64.5-31.4-88.6-59.8c0,0.1-0.1,0.1-0.1,0.2
	c0,0-10.8-12.4-22.6-25.7C233.2,256.4,219.7,240.4,205.4,226.5z M85.4,235.5c0-0.1,0-0.2,0.1-0.3C85.4,235.3,85.4,235.4,85.4,235.5z
	"/>
</svg>
