<?xml version="1.0" standalone="no"?>
<!DOCTYPE svg PUBLIC "-//W3C//DTD SVG 1.1//EN" "http://www.w3.org/Graphics/SVG/1.1/DTD/svg11.dtd" >
<svg xmlns="http://www.w3.org/2000/svg" xmlns:xlink="http://www.w3.org/1999/xlink" version="1.1">
<metadata>
Created by FontForge 20170812 at Tue Jan  2 23:57:45 2018
 By www-data
c 2015, Copyright by Lineto. All rights reserved.
</metadata>
<defs>
<font id="CircularSpotifyText-LightItalic" horiz-adv-x="565" >
  <font-face 
    font-family="Circular Std"
    font-weight="300"
    font-style="italic"
    font-stretch="normal"
    units-per-em="1000"
    panose-1="2 11 4 4 2 1 1 2 1 2"
    ascent="750"
    descent="-250"
    x-height="477"
    cap-height="709"
    bbox="-248 -378 4910 1033"
    underline-thickness="50"
    underline-position="-75"
    slope="-12"
    stemh="45"
    stemv="53"
    unicode-range="U+000D-FEFF"
  />
<missing-glyph horiz-adv-x="710" 
d="M122 0v709h494v-709h-494zM173 51h392v607h-392v-607z" />
    <glyph glyph-name=".notdef" horiz-adv-x="710" 
d="M122 0v709h494v-709h-494zM173 51h392v607h-392v-607z" />
    <glyph glyph-name="Eth" unicode="&#xd0;" horiz-adv-x="698" 
d="M261 0h-220l72 337h-77l11 54h77l68 318h189c167 0 285 -103 285 -274c0 -252 -177 -435 -405 -435zM118 57h144c158 0 339 128 339 375c0 146 -96 220 -229 220h-128l-55 -261h149l-11 -54h-150z" />
    <glyph glyph-name="eth" unicode="&#xf0;" horiz-adv-x="560" 
d="M540 625l-105 -39c43 -65 71 -149 71 -246c0 -199 -97 -353 -261 -353c-126 0 -212 91 -212 208c0 158 119 267 248 267c75 0 141 -32 167 -97c-5 78 -29 145 -70 199l-132 -49l-16 43l115 43c-33 34 -74 60 -120 78l27 47c57 -23 112 -58 151 -102l119 44zM436 260
c0 91 -66 150 -153 150c-92 0 -189 -76 -189 -214c0 -88 66 -155 152 -155c99 0 190 87 190 219z" />
    <glyph glyph-name="Lslash" unicode="&#x141;" horiz-adv-x="536" 
d="M461 0h-414l66 311l-101 -40l12 56l101 41l73 341h64l-67 -313l185 75l-12 -57l-185 -75l-59 -280h350z" />
    <glyph glyph-name="lslash" unicode="&#x142;" horiz-adv-x="300" 
d="M117 0h-61l69 328l-107 -43l12 57l107 44l72 336h61l-66 -309l112 45l-12 -57l-112 -46z" />
    <glyph glyph-name="Scaron" unicode="&#x160;" horiz-adv-x="574" 
d="M491 878h62l-137 -119h-81l-82 119h52l76 -83zM269 44c97 0 167 57 167 139c0 52 -26 93 -93 123l-102 47c-74 33 -121 87 -121 169c0 119 106 200 224 200c158 0 219 -105 221 -198l-61 -12c0 69 -40 154 -165 154c-79 0 -155 -55 -155 -135c0 -57 29 -94 83 -118
l102 -47c88 -40 133 -98 133 -175c0 -117 -99 -204 -234 -204c-151 0 -237 94 -237 216c0 10 0 19 3 37l63 11c-3 -14 -3 -25 -3 -39c0 -92 56 -168 175 -168z" />
    <glyph glyph-name="scaron" unicode="&#x161;" horiz-adv-x="431" 
d="M386 676h58l-137 -138h-78l-77 138h51l71 -99zM65 153c0 -64 41 -114 118 -114c60 0 103 36 103 86c0 34 -22 58 -59 75l-69 32c-52 23 -85 60 -85 115c0 76 65 143 164 143c114 0 160 -79 162 -140l-56 -15c-2 50 -33 104 -111 104c-54 0 -100 -37 -100 -83
c0 -32 15 -54 56 -73l69 -31c57 -26 90 -68 90 -120c0 -72 -58 -145 -166 -145c-112 0 -171 73 -171 152c0 7 1 13 2 17l55 13c-1 -4 -2 -11 -2 -16z" />
    <glyph glyph-name="Yacute" unicode="&#xdd;" horiz-adv-x="590" 
d="M270 311l-156 398h67l132 -341l257 341h75l-312 -404l-64 -305h-65zM556 878l-151 -119h-64l128 119h87z" />
    <glyph glyph-name="yacute" unicode="&#xfd;" horiz-adv-x="472" 
d="M48 -190h-70l178 265l-118 402h65l96 -343l220 343h71zM434 677l-155 -140h-55l124 140h86z" />
    <glyph glyph-name="Thorn" unicode="&#xde;" horiz-adv-x="583" 
d="M368 505h-156l-62 -293h156c113 0 197 72 197 178c0 69 -48 115 -135 115zM104 0h-64l150 709h65l-31 -146h158c115 0 186 -73 186 -169c0 -141 -115 -239 -262 -239h-168z" />
    <glyph glyph-name="thorn" unicode="&#xfe;" horiz-adv-x="567" 
d="M-22 -190l194 912h61l-67 -313c32 43 91 80 164 80c119 0 182 -88 182 -201c0 -170 -108 -300 -246 -300c-95 0 -148 62 -165 113l-62 -291h-61zM312 435c-108 0 -186 -114 -186 -237c0 -93 49 -156 136 -156c99 0 188 99 188 237c0 92 -50 156 -138 156z" />
    <glyph glyph-name="Zcaron" unicode="&#x17d;" horiz-adv-x="601" 
d="M515 878h62l-137 -119h-81l-82 119h52l76 -83zM495 0h-519l14 64l573 587h-438l12 58h517l-14 -63l-574 -587h441z" />
    <glyph glyph-name="zcaron" unicode="&#x17e;" horiz-adv-x="458" 
d="M389 676h58l-137 -138h-78l-77 138h51l71 -99zM358 0h-381l11 54l374 368h-284l11 55h362l-10 -55l-375 -367h303z" />
    <glyph glyph-name="onehalf" unicode="&#xbd;" horiz-adv-x="810" 
d="M105 0h-61l599 709h61zM631 368c78 0 120 -49 120 -102c0 -57 -41 -99 -97 -123l-77 -34c-36 -15 -57 -38 -65 -65h210l-10 -44h-268c11 63 42 117 111 148l72 32c45 20 72 44 73 83c0 33 -25 63 -71 63c-50 0 -86 -37 -86 -92c0 -1 0 -5 1 -7l-48 1c0 5 -1 10 -1 15
c2 71 55 125 136 125zM103 603l8 39c47 3 84 29 102 67h49l-78 -363h-52l63 288c-21 -17 -55 -28 -92 -31z" />
    <glyph glyph-name="onequarter" unicode="&#xbc;" horiz-adv-x="767" 
d="M96 0h-61l599 709h61zM386 83l11 55l222 225h62l-50 -236h67l-9 -44h-67l-18 -83h-50l18 83h-186zM580 127l39 177l-175 -177h136zM105 603l8 39c47 3 84 29 102 67h49l-78 -363h-52l63 288c-21 -17 -55 -28 -92 -31z" />
    <glyph glyph-name="onesuperior" unicode="&#xb9;" horiz-adv-x="214" 
d="M93 603l8 39c47 3 84 29 102 67h49l-78 -363h-52l63 288c-21 -17 -55 -28 -92 -31z" />
    <glyph glyph-name="threequarters" unicode="&#xbe;" horiz-adv-x="857" 
d="M220 529c-7 0 -16 -1 -22 -2l-17 42l139 95h-186l9 45h248l-11 -57l-132 -86c54 -4 100 -42 100 -99c0 -68 -55 -128 -142 -128c-77 0 -131 48 -131 110c0 5 0 11 1 16l49 7c-1 -5 -1 -9 -1 -14c0 -44 36 -75 83 -75c50 0 89 36 89 82c0 42 -36 64 -76 64zM182 0h-61
l598 709h61zM475 83l11 55l222 225h62l-50 -236h67l-9 -44h-67l-18 -83h-50l18 83h-186zM669 127l39 177l-175 -177h136z" />
    <glyph glyph-name="threesuperior" unicode="&#xb3;" horiz-adv-x="347" 
d="M192 527l-17 42l139 95h-186l9 45h248l-11 -57l-132 -86c54 -1 100 -42 100 -99c0 -68 -55 -128 -142 -128c-77 0 -131 48 -131 110c0 5 0 11 1 16l49 7c-1 -5 -1 -9 -1 -14c0 -44 36 -75 83 -75c50 0 89 36 89 82c0 42 -36 64 -76 64c-7 0 -16 -1 -22 -2z" />
    <glyph glyph-name="twosuperior" unicode="&#xb2;" horiz-adv-x="345" 
d="M168 494l72 32c44 20 72 44 72 83c0 33 -24 62 -70 62c-50 0 -85 -36 -85 -90c0 -3 0 -6 1 -10l-49 3c-1 4 -1 7 -1 10c0 74 52 130 136 130c78 0 120 -49 120 -102c0 -57 -41 -98 -97 -122l-78 -35c-35 -15 -56 -38 -64 -65h210l-10 -44h-268c11 64 42 117 111 148z" />
    <glyph glyph-name="brokenbar" unicode="&#xa6;" horiz-adv-x="214" 
d="M153 378h-53l84 400h54zM43 -141h-54l85 400h54z" />
    <glyph glyph-name="minus" unicode="&#x2212;" horiz-adv-x="582" 
d="M511 323h-421v50h421v-50z" />
    <glyph glyph-name="multiply" unicode="&#xd7;" horiz-adv-x="592" 
d="M488 125l-179 186l-178 -185l-36 36l178 186l-177 184l36 37l177 -184l178 184l36 -36l-179 -185l180 -186z" />
    <glyph glyph-name="space" unicode=" " horiz-adv-x="259" 
 />
    <glyph glyph-name="exclam" unicode="!" horiz-adv-x="225" 
d="M70 189l92 520h78l-127 -520h-43zM18 39c0 31 23 57 55 57c26 0 43 -21 43 -45c0 -31 -25 -55 -54 -55c-26 0 -44 19 -44 43z" />
    <glyph glyph-name="quotedbl" unicode="&#x22;" horiz-adv-x="317" 
d="M120 488l6 166v9c2 39 24 54 48 54s38 -16 38 -38c0 -13 -6 -31 -12 -47l-58 -144h-22zM253 488l7 166v9c1 39 24 54 47 54c24 0 39 -16 39 -38c0 -13 -6 -31 -12 -47l-58 -144h-23z" />
    <glyph glyph-name="numbersign" unicode="#" horiz-adv-x="708" 
d="M381 0l41 207h-175l-41 -207h-54l41 207h-148v50h158l38 192h-146v49h156l43 211h53l-42 -211h174l43 211h54l-42 -211h156v-49h-167l-37 -192h154v-50h-165l-40 -207h-54zM295 449l-38 -192h174l39 192h-175z" />
    <glyph glyph-name="dollar" unicode="$" horiz-adv-x="550" 
d="M255 409l21 -10l54 256h-6c-76 0 -152 -52 -152 -131c0 -57 29 -89 83 -115zM253 54c96 0 167 56 167 137c0 49 -25 92 -92 120l-19 8zM218 -113h-50l24 119c-103 21 -163 97 -163 195c0 16 1 30 4 46l57 10c-3 -14 -5 -29 -5 -43c0 -69 34 -136 118 -155l60 281l-36 16
c-74 33 -115 84 -115 161c0 129 117 192 229 192l22 103h50l-23 -110c105 -23 147 -105 149 -184l-56 -12c0 59 -29 122 -104 142l-57 -270l30 -14c85 -40 129 -90 129 -167c0 -113 -94 -196 -224 -197h-15z" />
    <glyph glyph-name="percent" unicode="%" horiz-adv-x="840" 
d="M104 0l598 709h63l-598 -709h-63zM263 717c81 0 139 -61 139 -138c0 -91 -77 -169 -169 -169c-81 0 -139 60 -139 137c0 89 74 170 169 170zM238 460c60 0 110 53 110 117c0 51 -35 90 -90 90c-60 0 -110 -54 -110 -117c0 -51 36 -90 90 -90zM636 299
c80 0 139 -60 139 -137c0 -91 -77 -170 -170 -170c-80 0 -138 60 -138 137c0 89 74 170 169 170zM610 42c61 0 111 53 111 117c0 52 -36 90 -90 90c-60 0 -110 -54 -110 -117c0 -51 35 -90 89 -90z" />
    <glyph glyph-name="ampersand" unicode="&#x26;" horiz-adv-x="643" 
d="M552 0h-72l-65 97l-3 -3c-69 -63 -132 -101 -206 -101c-111 0 -177 81 -177 169c0 102 73 159 164 210l26 14l-24 36c-21 32 -43 74 -43 122c0 110 88 178 182 178s155 -65 155 -144c0 -90 -68 -141 -132 -176l-55 -31l126 -189l185 166l-20 -88l-133 -124zM92 164
c0 -62 47 -114 120 -114c58 0 115 41 167 88l5 4l-134 200l-45 -25c-64 -36 -113 -79 -113 -153zM271 415l62 33c60 33 95 73 95 127s-40 92 -99 92c-60 0 -117 -49 -117 -119c0 -31 12 -61 30 -89z" />
    <glyph glyph-name="quotesingle" unicode="'" horiz-adv-x="183" 
d="M120 488l6 166v9c2 39 24 54 48 54s38 -16 38 -38c0 -13 -6 -31 -12 -47l-58 -144h-22z" />
    <glyph glyph-name="parenleft" unicode="(" horiz-adv-x="292" 
d="M46 198c0 253 116 449 301 588l32 -38c-161 -125 -280 -297 -280 -548c0 -120 37 -220 90 -306l-42 -26c-57 84 -101 199 -101 330z" />
    <glyph glyph-name="parenright" unicode=")" horiz-adv-x="291" 
d="M261 452c0 -255 -118 -446 -301 -586l-32 37c162 125 280 296 280 549c0 119 -37 219 -90 305l42 27c58 -86 101 -202 101 -332z" />
    <glyph glyph-name="asterisk" unicode="*" horiz-adv-x="445" 
d="M334 709l-31 -146l148 48l7 -48l-150 -48l66 -122l-42 -28l-66 125l-116 -127l-38 32l117 124l-128 46l23 46l128 -48l28 146h54z" />
    <glyph glyph-name="plus" unicode="+" horiz-adv-x="535" 
d="M60 373h193v207h53v-207h195v-50h-195v-210h-53v210h-193v50z" />
    <glyph glyph-name="comma" unicode="," horiz-adv-x="240" 
d="M17 42c0 32 26 57 58 57c31 0 55 -22 55 -61c0 -96 -84 -175 -164 -184l8 40c51 11 97 59 108 105c-4 -2 -11 -3 -19 -3c-26 0 -46 18 -46 46z" />
    <glyph glyph-name="hyphen" unicode="-" horiz-adv-x="404" 
d="M327 260h-263l11 54h263z" />
    <glyph glyph-name="period" unicode="." horiz-adv-x="227" 
d="M63 -4c-29 0 -47 21 -47 45c0 33 25 60 58 60c29 0 46 -22 46 -47c0 -33 -26 -58 -57 -58z" />
    <glyph glyph-name="slash" unicode="/" horiz-adv-x="479" 
d="M541 722l-512 -735h-63l512 735h63z" />
    <glyph glyph-name="zero" unicode="0" horiz-adv-x="652" 
d="M295 -13c-171 0 -231 130 -231 271c0 198 104 464 323 464c173 0 231 -129 231 -268c0 -188 -99 -467 -323 -467zM125 256c0 -118 48 -212 174 -212c187 0 258 266 258 413c0 117 -46 209 -174 209c-176 0 -258 -237 -258 -410z" />
    <glyph glyph-name="one" unicode="1" horiz-adv-x="337" 
d="M287 709h60l-149 -709h-62l126 597c-44 -45 -124 -79 -187 -79l11 51c95 7 168 67 201 140z" />
    <glyph glyph-name="two" unicode="2" horiz-adv-x="584" 
d="M475 0h-477c20 120 84 212 201 268l153 73c94 46 157 99 157 185c0 73 -45 142 -152 142c-103 0 -185 -73 -188 -198l-61 10c6 131 101 242 249 242c147 0 214 -92 214 -188c0 -115 -80 -190 -185 -239l-170 -80c-48 -23 -108 -69 -134 -157h407z" />
    <glyph glyph-name="three" unicode="3" horiz-adv-x="601" 
d="M617 641l-304 -228c6 1 12 1 17 1c98 0 193 -70 193 -181c0 -136 -112 -246 -262 -246c-146 0 -238 94 -238 209c0 11 1 23 4 33l60 9c-2 -11 -3 -23 -3 -35c0 -93 75 -162 176 -162c106 0 199 74 199 186c0 92 -73 141 -164 141c-12 0 -26 -1 -38 -3l-22 58l306 228
h-388l12 58h466z" />
    <glyph glyph-name="four" unicode="4" horiz-adv-x="607" 
d="M387 0h-60l35 175h-354l16 74l426 460h87l-102 -478h130l-11 -56h-131zM463 647l-382 -416h293z" />
    <glyph glyph-name="five" unicode="5" horiz-adv-x="585" 
d="M24 202c0 5 0 13 1 19l60 12c-1 -7 -1 -14 -1 -21c0 -91 61 -170 174 -170c106 0 198 82 198 200c0 91 -65 158 -165 158c-55 0 -104 -21 -149 -55l-57 34l156 330h355l-7 -58h-316l-115 -242c43 31 96 46 147 46c129 0 214 -85 214 -206c0 -145 -114 -262 -265 -262
c-142 0 -230 94 -230 215z" />
    <glyph glyph-name="six" unicode="6" horiz-adv-x="623" 
d="M455 661c-176 0 -294 -148 -326 -319c29 60 111 121 214 121c130 0 217 -83 217 -206c0 -166 -133 -270 -271 -270c-137 0 -232 95 -232 254c0 224 147 475 402 475c72 0 134 -19 171 -48l-26 -49c-32 22 -81 42 -149 42zM329 409c-109 0 -205 -90 -205 -203
c0 -97 74 -165 170 -165c102 0 202 80 202 208c0 95 -68 160 -167 160z" />
    <glyph glyph-name="seven" unicode="7" horiz-adv-x="542" 
d="M616 709l-14 -63c-160 -124 -353 -315 -458 -646h-66c108 363 337 559 458 652h-438l13 57h505z" />
    <glyph glyph-name="eight" unicode="8" horiz-adv-x="606" 
d="M526 199c0 -124 -105 -212 -252 -212c-157 0 -237 88 -237 184c0 103 79 182 185 199c-56 25 -97 82 -97 147c0 120 107 205 239 205c140 0 220 -79 220 -176c0 -94 -72 -170 -168 -190c68 -25 110 -82 110 -157zM346 387c98 0 177 62 177 154c0 71 -58 128 -160 128
c-104 0 -178 -63 -178 -152c0 -85 82 -130 161 -130zM100 177c0 -94 92 -137 178 -137c107 0 188 67 188 159c0 76 -59 138 -177 138c-111 0 -189 -66 -189 -160z" />
    <glyph glyph-name="nine" unicode="9" horiz-adv-x="624" 
d="M354 666c-95 0 -197 -77 -197 -199c0 -96 71 -162 166 -162c107 0 199 86 199 200c0 95 -73 161 -168 161zM359 722c141 0 232 -93 232 -255c0 -225 -115 -476 -373 -476c-70 0 -151 20 -197 61l28 51c45 -37 108 -56 171 -56c176 0 282 140 299 321
c-34 -70 -116 -117 -209 -117c-117 0 -215 82 -215 208c0 161 134 263 264 263z" />
    <glyph glyph-name="colon" unicode=":" horiz-adv-x="243" 
d="M65 -4c-29 0 -47 21 -47 45c0 33 25 60 58 60c29 0 46 -22 46 -47c0 -33 -26 -58 -57 -58zM147 376c-29 0 -47 21 -47 45c0 33 25 60 58 60c29 0 46 -22 46 -47c0 -33 -26 -58 -57 -58z" />
    <glyph glyph-name="semicolon" unicode=";" horiz-adv-x="274" 
d="M31 42c0 32 25 56 57 56c30 0 54 -21 54 -60c0 -94 -83 -172 -161 -181l7 40c51 10 96 58 107 103c-4 -2 -11 -3 -19 -3c-26 0 -45 18 -45 45zM166 376c-29 0 -47 21 -47 45c0 33 25 60 58 60c29 0 46 -22 46 -47c0 -33 -26 -58 -57 -58z" />
    <glyph glyph-name="less" unicode="&#x3c;" horiz-adv-x="540" 
d="M56 320v55l401 207v-60l-342 -174l342 -174v-61z" />
    <glyph glyph-name="equal" unicode="=" horiz-adv-x="652" 
d="M557 420h-447v50h447v-50zM557 226h-447v51h447v-51z" />
    <glyph glyph-name="greater" unicode="&#x3e;" horiz-adv-x="543" 
d="M513 375v-55l-402 -207v61l344 174l-344 174v60z" />
    <glyph glyph-name="question" unicode="?" horiz-adv-x="492" 
d="M241 189h-54c-1 3 -1 8 -1 12c3 81 41 133 108 173l50 30c62 36 98 82 98 145c0 62 -43 117 -131 117c-105 0 -163 -86 -163 -173c0 -4 0 -8 1 -13l-60 11c-1 3 -1 7 -1 11c0 116 90 220 229 220c122 0 189 -80 189 -166c0 -92 -60 -154 -138 -201l-52 -31
c-55 -32 -75 -77 -75 -135zM148 39c0 31 23 57 55 57c26 0 43 -21 43 -45c0 -31 -25 -55 -54 -55c-26 0 -44 19 -44 43z" />
    <glyph glyph-name="at" unicode="@" horiz-adv-x="831" 
d="M458 -45c-230 0 -388 158 -388 379c0 224 172 388 380 388c212 0 352 -153 352 -324c0 -148 -90 -253 -184 -253c-55 0 -90 31 -94 77c-27 -48 -75 -78 -124 -78c-84 0 -147 67 -147 167c0 120 83 226 192 226c51 0 99 -30 111 -80l12 67h52l-50 -250
c-2 -10 -3 -19 -3 -28c0 -31 13 -55 54 -55c64 0 129 90 129 206c0 144 -111 278 -299 278c-185 0 -327 -145 -327 -342c0 -187 127 -330 334 -330c88 0 171 32 235 91l27 -35c-63 -64 -166 -104 -262 -104zM538 382c0 63 -34 106 -95 106c-76 0 -136 -80 -136 -171
c0 -66 30 -125 98 -125c88 0 131 95 133 190z" />
    <glyph glyph-name="A" unicode="A" horiz-adv-x="658" 
d="M513 0l-38 228h-309l-133 -228h-73l422 709h73l122 -709h-64zM406 640l-206 -353h266z" />
    <glyph glyph-name="B" unicode="B" horiz-adv-x="596" 
d="M191 709h196c121 0 179 -73 179 -159c0 -82 -57 -166 -148 -191c64 -21 103 -77 103 -142c0 -110 -90 -217 -242 -217h-239zM187 386h147c103 0 169 77 169 156c0 60 -38 111 -127 111h-133zM117 56h155c118 0 186 79 186 162c0 62 -40 113 -131 113h-152z" />
    <glyph glyph-name="C" unicode="C" horiz-adv-x="725" 
d="M442 722c166 0 262 -100 282 -223l-59 -18c-17 105 -98 183 -229 183c-159 0 -306 -142 -306 -365c0 -165 100 -254 234 -254c115 0 205 63 259 179l53 -26c-58 -129 -173 -211 -318 -211c-164 0 -293 116 -293 308c0 281 198 427 377 427z" />
    <glyph glyph-name="D" unicode="D" horiz-adv-x="697" 
d="M117 57h144c158 0 339 128 339 375c0 146 -96 220 -229 220h-128zM260 0h-220l151 709h189c167 0 285 -103 285 -274c0 -252 -177 -435 -405 -435z" />
    <glyph glyph-name="E" unicode="E" horiz-adv-x="567" 
d="M455 0h-415l151 709h409l-12 -59h-346l-56 -265h312l-12 -60h-313l-56 -266h350z" />
    <glyph glyph-name="F" unicode="F" horiz-adv-x="567" 
d="M105 0h-65l151 709h411l-12 -59h-348l-58 -277h315l-13 -59h-315z" />
    <glyph glyph-name="G" unicode="G" horiz-adv-x="754" 
d="M438 664c-158 0 -307 -135 -307 -363c0 -167 107 -256 236 -256c145 0 244 110 265 230h-259l12 58h321l-70 -333h-50l17 111c-42 -60 -124 -124 -244 -124c-152 0 -293 111 -293 310c0 284 201 425 379 425c156 0 255 -94 281 -218l-60 -21c-23 106 -103 181 -228 181z
" />
    <glyph glyph-name="H" unicode="H" horiz-adv-x="714" 
d="M553 0h-65l71 331h-384l-70 -331h-65l151 709h64l-68 -319h384l68 319h64z" />
    <glyph glyph-name="I" unicode="I" horiz-adv-x="266" 
d="M105 0h-65l151 709h64z" />
    <glyph glyph-name="J" unicode="J" horiz-adv-x="523" 
d="M455 709h64l-110 -519c-26 -124 -100 -203 -214 -203c-122 0 -182 78 -182 180c0 30 3 61 13 99l65 10c-11 -45 -16 -72 -16 -103c0 -70 34 -128 123 -128c77 0 128 57 147 147z" />
    <glyph glyph-name="K" unicode="K" horiz-adv-x="634" 
d="M493 0l-190 355l-151 -133l-47 -222h-65l151 709h64l-83 -392l444 392h90l-356 -313l216 -396h-73z" />
    <glyph glyph-name="L" unicode="L" horiz-adv-x="530" 
d="M454 0h-414l151 709h64l-138 -650h350z" />
    <glyph glyph-name="M" unicode="M" horiz-adv-x="922" 
d="M761 0h-65l129 607l-394 -607h-51l-147 606l-128 -606h-65l151 709h80l149 -619l404 619h87z" />
    <glyph glyph-name="N" unicode="N" horiz-adv-x="727" 
d="M566 0h-67l-262 624l-132 -624h-65l151 709h78l254 -609l129 609h64z" />
    <glyph glyph-name="O" unicode="O" horiz-adv-x="771" 
d="M65 293c0 283 198 429 375 429c167 0 295 -112 295 -306c0 -283 -198 -429 -375 -429c-167 0 -295 111 -295 306zM670 411c0 168 -104 253 -234 253c-159 0 -306 -143 -306 -366c0 -168 104 -253 234 -253c159 0 306 143 306 366z" />
    <glyph glyph-name="P" unicode="P" horiz-adv-x="581" 
d="M191 709h220c115 0 186 -73 186 -169c0 -141 -115 -239 -262 -239h-166l-64 -301h-65zM397 652h-154l-62 -293h154c113 0 197 72 197 178c0 69 -48 115 -135 115z" />
    <glyph glyph-name="Q" unicode="Q" horiz-adv-x="771" 
d="M65 293c0 283 198 429 375 429c167 0 295 -112 295 -306c0 -153 -57 -265 -137 -336l87 -122l-48 -32l-86 119c-59 -38 -126 -58 -191 -58c-167 0 -295 111 -295 306zM400 254l47 33l115 -159c65 64 108 162 108 283c0 168 -104 253 -234 253c-159 0 -306 -143 -306 -366
c0 -168 104 -253 234 -253c52 0 106 17 153 48z" />
    <glyph glyph-name="R" unicode="R" horiz-adv-x="608" 
d="M441 0l-116 308h-155l-65 -308h-65l151 709h219c115 0 185 -73 185 -169c0 -123 -87 -207 -206 -225l120 -315h-68zM182 365h152c113 0 196 66 196 172c0 69 -47 115 -134 115h-153z" />
    <glyph glyph-name="S" unicode="S" horiz-adv-x="574" 
d="M269 44c97 0 167 57 167 139c0 52 -26 93 -93 123l-102 47c-74 33 -121 87 -121 169c0 119 106 200 224 200c158 0 219 -105 221 -198l-61 -12c0 69 -40 154 -165 154c-79 0 -155 -55 -155 -135c0 -57 29 -94 83 -118l102 -47c88 -40 133 -98 133 -175
c0 -117 -99 -204 -234 -204c-151 0 -237 94 -237 216c0 10 0 19 3 37l63 11c-3 -14 -3 -25 -3 -39c0 -92 56 -168 175 -168z" />
    <glyph glyph-name="T" unicode="T" horiz-adv-x="580" 
d="M638 651h-237l-138 -651h-65l139 651h-242l12 58h544z" />
    <glyph glyph-name="U" unicode="U" horiz-adv-x="666" 
d="M599 709h64l-106 -499c-31 -145 -123 -223 -256 -223c-139 0 -221 78 -221 207c0 23 2 48 8 75l94 440h64l-94 -446c-5 -22 -8 -43 -8 -63c0 -91 50 -154 161 -154c102 0 167 63 190 172z" />
    <glyph glyph-name="V" unicode="V" horiz-adv-x="626" 
d="M178 709l88 -632l354 632h69l-404 -709h-67l-103 709h63z" />
    <glyph glyph-name="W" unicode="W" horiz-adv-x="966" 
d="M528 709h70l70 -617l290 617h66l-337 -709h-68l-71 622l-311 -622h-69l-56 709h63l45 -614z" />
    <glyph glyph-name="X" unicode="X" horiz-adv-x="590" 
d="M299 302l-262 -302h-79l315 356l-162 353h70l135 -303l269 303h79l-320 -357l161 -352h-70z" />
    <glyph glyph-name="Y" unicode="Y" horiz-adv-x="590" 
d="M270 311l-156 398h67l132 -341l257 341h75l-312 -404l-64 -305h-65z" />
    <glyph glyph-name="Z" unicode="Z" horiz-adv-x="601" 
d="M495 0h-519l14 64l573 587h-438l12 58h517l-14 -63l-574 -587h441z" />
    <glyph glyph-name="bracketleft" unicode="[" horiz-adv-x="268" 
d="M152 -141h-167l195 919h167l-11 -50h-115l-174 -820h115z" />
    <glyph glyph-name="backslash" unicode="\" horiz-adv-x="472" 
d="M325 -13l-204 735h56l203 -735h-55z" />
    <glyph glyph-name="bracketright" unicode="]" horiz-adv-x="266" 
d="M100 -141h-167l11 50h115l174 820h-115l10 49h167z" />
    <glyph glyph-name="asciicircum" unicode="^" horiz-adv-x="531" 
d="M260 709h54l194 -354h-64l-156 292l-157 -292h-64z" />
    <glyph glyph-name="underscore" unicode="_" horiz-adv-x="532" 
d="M-56 -51v51h512v-51h-512z" />
    <glyph glyph-name="grave" unicode="`" horiz-adv-x="171" 
d="M149 537l-84 140h72l59 -140h-47z" />
    <glyph glyph-name="a" unicode="a" horiz-adv-x="566" 
d="M282 436c-106 0 -187 -110 -187 -238c0 -89 47 -157 137 -157c118 0 185 136 185 243c0 87 -46 152 -135 152zM463 477h61l-73 -345c-7 -31 -11 -61 -11 -94c0 -12 0 -25 2 -38h-58c-1 7 -2 18 -2 34c0 13 0 27 3 45c-32 -44 -88 -90 -164 -90c-120 0 -186 93 -186 205
c0 165 109 295 246 295c108 0 148 -68 161 -111z" />
    <glyph glyph-name="b" unicode="b" horiz-adv-x="575" 
d="M79 0h-61l153 722h61l-66 -313c30 39 87 80 166 80c125 0 187 -93 187 -204c0 -170 -109 -297 -249 -297c-100 0 -152 65 -168 123zM313 436c-113 0 -186 -121 -186 -237c0 -89 50 -157 138 -157c103 0 193 98 193 236c0 92 -53 158 -145 158z" />
    <glyph glyph-name="c" unicode="c" horiz-adv-x="527" 
d="M487 342l-55 -20c-14 64 -62 114 -141 114c-97 0 -194 -88 -194 -233c0 -97 61 -162 153 -162c79 0 132 51 162 112l50 -24c-39 -80 -114 -142 -216 -142c-129 0 -211 92 -211 215c0 169 123 288 260 288c120 0 176 -76 192 -148z" />
    <glyph glyph-name="d" unicode="d" 
d="M282 436c-106 0 -187 -112 -187 -239c0 -88 49 -155 136 -155c113 0 186 123 186 242c0 87 -46 152 -135 152zM383 79c-29 -44 -86 -90 -162 -90c-119 0 -186 89 -186 205c0 163 109 295 246 295c107 0 147 -68 160 -111l73 344h61l-125 -590c-9 -41 -12 -75 -12 -96
c0 -19 1 -26 2 -36h-58c-1 8 -2 18 -2 34c0 13 0 26 3 45z" />
    <glyph glyph-name="e" unicode="e" horiz-adv-x="532" 
d="M107 277h314c1 6 2 14 2 22c0 73 -41 137 -135 137c-91 0 -159 -74 -181 -159zM475 226h-378c-1 -10 -2 -20 -2 -30c0 -94 64 -155 149 -155c77 0 133 47 162 99l46 -31c-38 -69 -114 -122 -209 -122c-118 0 -208 77 -208 212c0 178 128 291 255 291
c129 0 194 -84 194 -194c0 -26 -4 -51 -9 -70z" />
    <glyph glyph-name="f" unicode="f" horiz-adv-x="308" 
d="M329 675c-42 0 -81 -19 -95 -86l-24 -112h118l-11 -54h-118l-90 -423h-61l90 423h-93l11 54h93l25 119c23 109 93 134 153 134c28 0 52 -8 60 -13l-13 -51c-9 4 -26 9 -45 9z" />
    <glyph glyph-name="g" unicode="g" horiz-adv-x="561" 
d="M419 291c0 73 -44 143 -138 143c-97 0 -180 -87 -180 -208c0 -85 47 -148 141 -148c108 0 177 105 177 213zM-14 -28l58 13c1 -76 50 -135 143 -135c111 0 158 81 178 177l16 77c-25 -40 -77 -78 -150 -78c-120 0 -191 85 -191 197c0 149 107 265 240 265
c95 0 144 -53 160 -105l20 94h61l-95 -451c-23 -109 -80 -229 -241 -229c-124 0 -198 79 -199 175z" />
    <glyph glyph-name="h" unicode="h" horiz-adv-x="531" 
d="M396 0h-61l62 293c3 12 4 25 4 37c0 61 -34 106 -109 106c-76 0 -135 -70 -153 -152l-60 -284h-61l153 722h61l-66 -308c29 41 82 75 148 75c99 0 150 -63 150 -145c0 -14 -2 -29 -5 -45z" />
    <glyph glyph-name="i" unicode="i" horiz-adv-x="221" 
d="M142 670c0 31 26 56 55 56c26 0 44 -20 44 -46c0 -29 -25 -54 -54 -54c-26 0 -45 19 -45 44zM80 0h-61l101 477h61z" />
    <glyph glyph-name="j" unicode="j" horiz-adv-x="221" 
d="M5 -65l115 542h61l-117 -554c-18 -84 -70 -121 -137 -121c-31 0 -54 7 -66 16l11 49c11 -6 30 -11 50 -11c46 0 71 23 83 79zM142 670c0 31 26 56 55 56c26 0 44 -20 44 -46c0 -29 -25 -54 -54 -54c-26 0 -45 19 -45 44z" />
    <glyph glyph-name="k" unicode="k" horiz-adv-x="496" 
d="M352 0l-126 245l-116 -95l-32 -150h-60l153 722h61l-104 -486l293 241h89l-238 -194l149 -283h-69z" />
    <glyph glyph-name="l" unicode="l" horiz-adv-x="220" 
d="M79 0h-61l153 722h61z" />
    <glyph glyph-name="m" unicode="m" horiz-adv-x="810" 
d="M377 0h-61l63 298c3 14 5 28 5 42c0 56 -29 97 -99 97c-69 0 -125 -61 -144 -149l-61 -288h-61l85 398c8 39 10 68 10 79h58c0 -8 -1 -34 -7 -64c29 41 79 76 142 76c71 0 118 -36 132 -95c41 68 106 95 165 95c84 0 140 -49 140 -135c0 -15 -1 -30 -4 -47l-65 -307h-61
l63 299c3 15 5 30 5 43c0 54 -29 95 -98 95c-70 0 -128 -64 -146 -148z" />
    <glyph glyph-name="n" unicode="n" horiz-adv-x="532" 
d="M397 0h-61l60 282c4 18 6 36 6 50c0 62 -35 104 -108 104c-77 0 -136 -70 -154 -152l-60 -284h-61l84 395c9 40 11 73 11 82h59c0 -10 -2 -41 -8 -68c29 45 86 80 152 80c91 0 147 -59 147 -145c0 -14 -2 -35 -6 -55z" />
    <glyph glyph-name="o" unicode="o" horiz-adv-x="549" 
d="M288 436c-92 0 -192 -84 -192 -233c0 -98 60 -162 144 -162c92 0 192 86 192 234c0 98 -58 161 -144 161zM493 277c0 -174 -122 -290 -256 -290c-123 0 -202 90 -202 213c0 175 124 290 257 290c125 0 201 -90 201 -213z" />
    <glyph glyph-name="p" unicode="p" horiz-adv-x="568" 
d="M313 435c-108 0 -186 -114 -186 -237c0 -93 49 -156 136 -156c99 0 188 99 188 237c0 92 -50 156 -138 156zM167 408c32 44 91 81 164 81c119 0 182 -88 182 -201c0 -170 -108 -300 -246 -300c-95 0 -148 62 -165 113l-62 -291h-61l124 585c8 40 11 71 11 82h61
c0 -11 -2 -41 -8 -69z" />
    <glyph glyph-name="q" unicode="q" horiz-adv-x="566" 
d="M526 477l-141 -667h-61l54 254c-28 -35 -77 -75 -150 -75c-120 0 -193 96 -193 211c0 161 108 289 245 289c103 0 149 -65 165 -110l20 98h61zM284 435c-108 0 -189 -107 -189 -231c0 -88 54 -163 145 -163c113 0 179 126 179 242c0 87 -46 152 -135 152z" />
    <glyph glyph-name="r" unicode="r" horiz-adv-x="339" 
d="M348 411c-13 4 -30 8 -50 8c-73 0 -137 -50 -160 -157l-56 -262h-61l84 395c8 40 9 71 9 82h61c0 -16 -2 -48 -7 -73c37 56 93 79 148 79c20 0 36 -4 45 -8z" />
    <glyph glyph-name="s" unicode="s" horiz-adv-x="431" 
d="M65 153c0 -64 41 -114 118 -114c60 0 103 36 103 86c0 34 -22 58 -59 75l-69 32c-52 23 -85 60 -85 115c0 76 65 143 164 143c114 0 160 -79 162 -140l-56 -15c-2 50 -33 104 -111 104c-54 0 -100 -37 -100 -83c0 -32 15 -54 56 -73l69 -31c57 -26 90 -68 90 -120
c0 -72 -58 -145 -166 -145c-112 0 -171 73 -171 152c0 7 1 13 2 17l55 13c-1 -4 -2 -11 -2 -16z" />
    <glyph glyph-name="t" unicode="t" horiz-adv-x="298" 
d="M69 99c0 12 2 31 7 53l58 270h-90l11 55h21c46 0 76 15 87 68l18 83h58l-32 -151h99l-11 -55h-100l-58 -272c-4 -21 -6 -32 -6 -43c0 -36 19 -59 63 -59c13 0 24 1 31 3l-11 -51c-6 -2 -17 -5 -37 -5c-69 0 -108 40 -108 104z" />
    <glyph glyph-name="u" unicode="u" horiz-adv-x="527" 
d="M342 70c-28 -45 -81 -81 -144 -81c-97 0 -150 61 -150 149c0 16 1 37 6 59l59 280h61l-59 -278c-4 -20 -6 -39 -6 -54c0 -60 31 -104 106 -104s132 68 151 157l59 279h61l-81 -381c-8 -39 -8 -74 -8 -96h-59c0 18 0 40 4 70z" />
    <glyph glyph-name="v" unicode="v" horiz-adv-x="482" 
d="M492 477l-280 -477h-62l-82 477h62l63 -406l230 406h69z" />
    <glyph glyph-name="w" unicode="w" horiz-adv-x="766" 
d="M383 477h71l49 -400l208 400h66l-255 -477h-64l-51 411l-226 -411h-62l-48 477h60l34 -397z" />
    <glyph glyph-name="x" unicode="x" horiz-adv-x="476" 
d="M223 199l-186 -199h-79l236 246l-125 231h67l100 -188l175 188h78l-225 -233l132 -244h-68z" />
    <glyph glyph-name="y" unicode="y" horiz-adv-x="472" 
d="M48 -190h-70l178 265l-118 402h65l96 -343l220 343h71z" />
    <glyph glyph-name="z" unicode="z" horiz-adv-x="458" 
d="M358 0h-381l11 54l374 368h-284l11 55h362l-10 -55l-375 -367h303z" />
    <glyph glyph-name="braceleft" unicode="{" horiz-adv-x="308" 
d="M22 290l12 58c65 3 112 37 127 105l34 160c23 112 75 158 178 158h13l-11 -49h-9c-75 0 -104 -36 -119 -106l-37 -175c-14 -69 -58 -114 -131 -123c51 -9 80 -44 80 -95c0 -10 -1 -20 -3 -31l-35 -168c-3 -16 -5 -31 -5 -43c0 -45 22 -67 79 -67h9l-10 -48h-10
c-78 0 -121 37 -121 104c0 16 3 33 7 53l34 160c2 10 3 20 3 29c0 51 -37 74 -85 78z" />
    <glyph glyph-name="bar" unicode="|" horiz-adv-x="205" 
d="M39 -141h-54l195 919h54z" />
    <glyph glyph-name="braceright" unicode="}" horiz-adv-x="309" 
d="M301 346l-13 -58c-62 -3 -111 -34 -126 -104l-35 -160c-23 -108 -79 -158 -181 -158h-9l10 49h9c72 0 105 41 120 109l37 175c14 67 59 110 131 121c-53 9 -82 44 -82 92c0 9 1 19 3 29l37 176c4 17 6 31 6 44c0 42 -21 61 -78 61h-11l10 49h13c74 0 119 -33 119 -100
c0 -16 -2 -33 -7 -53l-36 -164c-2 -10 -3 -20 -3 -29c0 -50 36 -76 86 -79z" />
    <glyph glyph-name="asciitilde" unicode="~" horiz-adv-x="614" 
d="M507 334l37 -30c-34 -52 -77 -79 -134 -79c-29 0 -61 11 -94 28l-47 25c-22 12 -44 18 -64 18c-42 0 -72 -20 -99 -56l-37 30c34 52 78 81 135 81c28 0 60 -10 91 -26l46 -25c23 -13 49 -21 69 -21c42 0 73 19 97 55z" />
    <glyph glyph-name="Adieresis" unicode="&#xc4;" horiz-adv-x="658" 
d="M274 814c0 28 21 49 49 49c22 0 37 -19 37 -39c0 -28 -22 -48 -48 -48c-22 0 -38 17 -38 38zM501 814c0 28 21 49 48 49c23 0 37 -19 37 -39c0 -28 -21 -48 -47 -48c-23 0 -38 17 -38 38zM513 0l-38 228h-309l-133 -228h-73l422 709h73l122 -709h-64zM406 640l-206 -353
h266z" />
    <glyph glyph-name="Aring" unicode="&#xc5;" horiz-adv-x="660" 
d="M432 830c-37 0 -66 -31 -66 -67c0 -31 21 -54 53 -54c35 0 67 29 67 67c0 30 -21 54 -54 54zM407 640l-206 -353h266zM514 0l-38 228h-309l-133 -228h-73l404 679c-28 16 -45 45 -45 79c0 68 57 116 116 116c55 0 96 -42 96 -95c0 -46 -30 -87 -71 -104l117 -675h-64z
" />
    <glyph glyph-name="Ccedilla" unicode="&#xc7;" horiz-adv-x="725" 
d="M262 -59l55 48c-143 18 -252 129 -252 306c0 281 198 427 377 427c166 0 262 -100 282 -223l-59 -18c-17 105 -98 183 -229 183c-159 0 -306 -142 -306 -365c0 -165 100 -254 234 -254c115 0 205 63 259 179l53 -26c-57 -125 -167 -206 -306 -211l-52 -44c3 1 7 1 10 1
c50 -2 80 -32 80 -69c0 -50 -46 -85 -108 -85c-59 0 -101 34 -117 67l36 23c11 -23 34 -51 82 -51c34 0 59 17 59 46c0 22 -20 39 -57 39c-7 0 -16 -1 -25 -4z" />
    <glyph glyph-name="Eacute" unicode="&#xc9;" horiz-adv-x="567" 
d="M565 878l-151 -119h-64l128 119h87zM455 0h-415l151 709h409l-12 -59h-346l-56 -265h312l-12 -60h-313l-56 -266h350z" />
    <glyph glyph-name="Ntilde" unicode="&#xd1;" horiz-adv-x="727" 
d="M635 872c-14 -77 -57 -109 -105 -109c-25 0 -46 10 -63 25l-16 14c-15 13 -26 19 -43 19c-25 0 -44 -18 -51 -55h-47c11 74 56 108 104 108c27 0 48 -11 65 -26l16 -14c14 -13 24 -19 41 -19c26 0 44 19 52 57h47zM566 0h-67l-262 624l-132 -624h-65l151 709h78l254 -609
l129 609h64z" />
    <glyph glyph-name="Odieresis" unicode="&#xd6;" horiz-adv-x="771" 
d="M280 814c0 28 21 49 49 49c22 0 37 -19 37 -39c0 -28 -22 -48 -48 -48c-22 0 -38 17 -38 38zM581 814c0 28 21 49 48 49c23 0 37 -19 37 -39c0 -28 -21 -48 -47 -48c-23 0 -38 17 -38 38zM65 293c0 283 198 429 375 429c167 0 295 -112 295 -306
c0 -283 -198 -429 -375 -429c-167 0 -295 111 -295 306zM670 411c0 168 -104 253 -234 253c-159 0 -306 -143 -306 -366c0 -168 104 -253 234 -253c159 0 306 143 306 366z" />
    <glyph glyph-name="Udieresis" unicode="&#xdc;" horiz-adv-x="666" 
d="M599 709h64l-106 -499c-31 -145 -123 -223 -256 -223c-139 0 -221 78 -221 207c0 23 2 48 8 75l94 440h64l-94 -446c-5 -22 -8 -43 -8 -63c0 -91 50 -154 161 -154c102 0 167 63 190 172zM289 814c0 28 21 49 49 49c22 0 37 -19 37 -39c0 -28 -22 -48 -48 -48
c-22 0 -38 17 -38 38zM494 814c0 28 21 49 49 49c22 0 37 -19 37 -39c0 -28 -22 -48 -48 -48c-22 0 -38 17 -38 38z" />
    <glyph glyph-name="aacute" unicode="&#xe1;" horiz-adv-x="566" 
d="M282 436c-106 0 -187 -110 -187 -238c0 -89 47 -157 137 -157c118 0 185 136 185 243c0 87 -46 152 -135 152zM463 477h61l-73 -345c-7 -31 -11 -61 -11 -94c0 -12 0 -25 2 -38h-58c-1 7 -2 18 -2 34c0 13 0 27 3 45c-32 -44 -88 -90 -164 -90c-120 0 -186 93 -186 205
c0 165 109 295 246 295c108 0 148 -68 161 -111zM485 677l-155 -140h-55l124 140h86z" />
    <glyph glyph-name="agrave" unicode="&#xe0;" horiz-adv-x="566" 
d="M282 436c-106 0 -187 -110 -187 -238c0 -89 47 -157 137 -157c118 0 185 136 185 243c0 87 -46 152 -135 152zM463 477h61l-73 -345c-7 -31 -11 -61 -11 -94c0 -12 0 -25 2 -38h-58c-1 7 -2 18 -2 34c0 13 0 27 3 45c-32 -44 -88 -90 -164 -90c-120 0 -186 93 -186 205
c0 165 109 295 246 295c108 0 148 -68 161 -111zM288 537l-84 140h72l59 -140h-47z" />
    <glyph glyph-name="acircumflex" unicode="&#xe2;" horiz-adv-x="566" 
d="M282 436c-106 0 -187 -110 -187 -238c0 -89 47 -157 137 -157c118 0 185 136 185 243c0 87 -46 152 -135 152zM463 477h61l-73 -345c-7 -31 -11 -61 -11 -94c0 -12 0 -25 2 -38h-58c-1 7 -2 18 -2 34c0 13 0 27 3 45c-32 -44 -88 -90 -164 -90c-120 0 -186 93 -186 205
c0 165 109 295 246 295c108 0 148 -68 161 -111zM218 538h-58l138 138h76l78 -138h-51l-71 99z" />
    <glyph glyph-name="adieresis" unicode="&#xe4;" horiz-adv-x="566" 
d="M282 436c-106 0 -187 -110 -187 -238c0 -89 47 -157 137 -157c118 0 185 136 185 243c0 87 -46 152 -135 152zM463 477h61l-73 -345c-7 -31 -11 -61 -11 -94c0 -12 0 -25 2 -38h-58c-1 7 -2 18 -2 34c0 13 0 27 3 45c-32 -44 -88 -90 -164 -90c-120 0 -186 93 -186 205
c0 165 109 295 246 295c108 0 148 -68 161 -111zM200 605c0 27 21 50 48 50c23 0 37 -20 37 -40c0 -27 -22 -47 -48 -47c-22 0 -37 17 -37 37zM373 605c0 27 21 50 48 50c23 0 37 -20 37 -40c0 -27 -22 -47 -48 -47c-22 0 -37 17 -37 37z" />
    <glyph glyph-name="atilde" unicode="&#xe3;" horiz-adv-x="566" 
d="M282 436c-106 0 -187 -110 -187 -238c0 -89 47 -157 137 -157c118 0 185 136 185 243c0 87 -46 152 -135 152zM463 477h61l-73 -345c-7 -31 -11 -61 -11 -94c0 -12 0 -25 2 -38h-58c-1 7 -2 18 -2 34c0 13 0 27 3 45c-32 -44 -88 -90 -164 -90c-120 0 -186 93 -186 205
c0 165 109 295 246 295c108 0 148 -68 161 -111zM207 553h-48c11 75 55 108 104 108c28 0 48 -11 64 -25l16 -15c13 -13 25 -18 41 -18c26 0 45 19 52 56h48c-15 -76 -56 -108 -104 -108c-25 0 -45 9 -61 24l-17 15c-15 13 -25 19 -44 19c-25 0 -44 -19 -51 -56z" />
    <glyph glyph-name="aring" unicode="&#xe5;" horiz-adv-x="566" 
d="M282 436c-106 0 -187 -110 -187 -238c0 -89 47 -157 137 -157c118 0 185 136 185 243c0 87 -46 152 -135 152zM463 477h61l-73 -345c-7 -31 -11 -61 -11 -94c0 -12 0 -25 2 -38h-58c-1 7 -2 18 -2 34c0 13 0 27 3 45c-32 -44 -88 -90 -164 -90c-120 0 -186 93 -186 205
c0 165 109 295 246 295c108 0 148 -68 161 -111zM336 739c55 0 95 -41 95 -94c0 -62 -53 -115 -115 -115c-55 0 -96 41 -96 93c0 68 57 116 116 116zM264 628c0 -31 22 -55 55 -55c35 0 67 30 67 69c0 30 -21 54 -55 54c-37 0 -67 -31 -67 -68z" />
    <glyph glyph-name="ccedilla" unicode="&#xe7;" horiz-adv-x="527" 
d="M132 -59l60 52c-97 22 -157 104 -157 209c0 169 123 288 260 288c120 0 176 -76 192 -148l-55 -20c-14 64 -62 114 -141 114c-97 0 -194 -88 -194 -233c0 -97 61 -162 153 -162c79 0 132 51 162 112l50 -24c-39 -80 -114 -142 -216 -142h-6l-51 -44c3 1 7 1 10 1
c49 -2 79 -32 79 -69c0 -50 -45 -85 -107 -85c-60 0 -102 33 -118 67l37 23c11 -23 33 -51 81 -51c35 0 59 17 59 46c0 22 -19 39 -56 39c-8 0 -17 -1 -26 -4z" />
    <glyph glyph-name="eacute" unicode="&#xe9;" horiz-adv-x="532" 
d="M484 677l-155 -140h-55l124 140h86zM107 277h314c1 6 2 14 2 22c0 73 -41 137 -135 137c-91 0 -159 -74 -181 -159zM475 226h-378c-1 -10 -2 -20 -2 -30c0 -94 64 -155 149 -155c77 0 133 47 162 99l46 -31c-38 -69 -114 -122 -209 -122c-118 0 -208 77 -208 212
c0 178 128 291 255 291c129 0 194 -84 194 -194c0 -26 -4 -51 -9 -70z" />
    <glyph glyph-name="egrave" unicode="&#xe8;" horiz-adv-x="532" 
d="M107 277h314c1 6 2 14 2 22c0 73 -41 137 -135 137c-91 0 -159 -74 -181 -159zM475 226h-378c-1 -10 -2 -20 -2 -30c0 -94 64 -155 149 -155c77 0 133 47 162 99l46 -31c-38 -69 -114 -122 -209 -122c-118 0 -208 77 -208 212c0 178 128 291 255 291
c129 0 194 -84 194 -194c0 -26 -4 -51 -9 -70zM309 537l-84 140h72l59 -140h-47z" />
    <glyph glyph-name="ecircumflex" unicode="&#xea;" horiz-adv-x="532" 
d="M232 538h-58l138 138h76l78 -138h-51l-71 99zM107 277h314c1 6 2 14 2 22c0 73 -41 137 -135 137c-91 0 -159 -74 -181 -159zM475 226h-378c-1 -10 -2 -20 -2 -30c0 -94 64 -155 149 -155c77 0 133 47 162 99l46 -31c-38 -69 -114 -122 -209 -122
c-118 0 -208 77 -208 212c0 178 128 291 255 291c129 0 194 -84 194 -194c0 -26 -4 -51 -9 -70z" />
    <glyph glyph-name="edieresis" unicode="&#xeb;" horiz-adv-x="532" 
d="M199 605c0 27 21 50 48 50c23 0 37 -20 37 -40c0 -27 -22 -47 -48 -47c-22 0 -37 17 -37 37zM372 605c0 27 21 50 48 50c23 0 37 -20 37 -40c0 -27 -22 -47 -48 -47c-22 0 -37 17 -37 37zM107 277h314c1 6 2 14 2 22c0 73 -41 137 -135 137c-91 0 -159 -74 -181 -159z
M475 226h-378c-1 -10 -2 -20 -2 -30c0 -94 64 -155 149 -155c77 0 133 47 162 99l46 -31c-38 -69 -114 -122 -209 -122c-118 0 -208 77 -208 212c0 178 128 291 255 291c129 0 194 -84 194 -194c0 -26 -4 -51 -9 -70z" />
    <glyph glyph-name="iacute" unicode="&#xed;" horiz-adv-x="220" 
d="M342 677l-155 -140h-55l124 140h86zM80 0h-61l101 477h61z" />
    <glyph glyph-name="igrave" unicode="&#xec;" horiz-adv-x="221" 
d="M80 0h-61l101 477h61zM140 537l-84 140h72l59 -140h-47z" />
    <glyph glyph-name="icircumflex" unicode="&#xee;" horiz-adv-x="220" 
d="M73 538h-58l138 138h76l78 -138h-51l-71 99zM80 0h-61l101 477h61z" />
    <glyph glyph-name="idieresis" unicode="&#xef;" horiz-adv-x="221" 
d="M80 0h-61l101 477h61zM198 606c0 25 19 47 46 47c21 0 36 -18 36 -37c0 -26 -21 -46 -46 -46c-22 0 -36 17 -36 36zM72 606c0 25 19 47 46 47c21 0 36 -18 36 -37c0 -26 -21 -46 -46 -46c-22 0 -36 17 -36 36z" />
    <glyph glyph-name="ntilde" unicode="&#xf1;" horiz-adv-x="532" 
d="M397 0h-61l60 282c4 18 6 36 6 50c0 62 -35 104 -108 104c-77 0 -136 -70 -154 -152l-60 -284h-61l84 395c9 40 11 73 11 82h59c0 -10 -2 -41 -8 -68c29 45 86 80 152 80c91 0 147 -59 147 -145c0 -14 -2 -35 -6 -55zM217 553h-48c11 75 55 108 104 108
c28 0 48 -11 64 -25l16 -15c13 -13 25 -18 41 -18c26 0 45 19 52 56h48c-15 -76 -56 -108 -104 -108c-25 0 -45 9 -61 24l-17 15c-15 13 -25 19 -44 19c-25 0 -44 -19 -51 -56z" />
    <glyph glyph-name="oacute" unicode="&#xf3;" horiz-adv-x="549" 
d="M493 677l-155 -140h-55l124 140h86zM288 436c-92 0 -192 -84 -192 -233c0 -98 60 -162 144 -162c92 0 192 86 192 234c0 98 -58 161 -144 161zM493 277c0 -174 -122 -290 -256 -290c-123 0 -202 90 -202 213c0 175 124 290 257 290c125 0 201 -90 201 -213z" />
    <glyph glyph-name="ograve" unicode="&#xf2;" horiz-adv-x="549" 
d="M288 436c-92 0 -192 -84 -192 -233c0 -98 60 -162 144 -162c92 0 192 86 192 234c0 98 -58 161 -144 161zM493 277c0 -174 -122 -290 -256 -290c-123 0 -202 90 -202 213c0 175 124 290 257 290c125 0 201 -90 201 -213zM296 537l-84 140h72l59 -140h-47z" />
    <glyph glyph-name="ocircumflex" unicode="&#xf4;" horiz-adv-x="549" 
d="M231 538h-58l138 138h76l78 -138h-51l-71 99zM288 436c-92 0 -192 -84 -192 -233c0 -98 60 -162 144 -162c92 0 192 86 192 234c0 98 -58 161 -144 161zM493 277c0 -174 -122 -290 -256 -290c-123 0 -202 90 -202 213c0 175 124 290 257 290c125 0 201 -90 201 -213z" />
    <glyph glyph-name="odieresis" unicode="&#xf6;" horiz-adv-x="549" 
d="M202 605c0 27 21 50 48 50c23 0 37 -20 37 -40c0 -27 -22 -47 -48 -47c-22 0 -37 17 -37 37zM375 605c0 27 21 50 48 50c23 0 37 -20 37 -40c0 -27 -22 -47 -48 -47c-22 0 -37 17 -37 37zM288 436c-92 0 -192 -84 -192 -233c0 -98 60 -162 144 -162c92 0 192 86 192 234
c0 98 -58 161 -144 161zM493 277c0 -174 -122 -290 -256 -290c-123 0 -202 90 -202 213c0 175 124 290 257 290c125 0 201 -90 201 -213z" />
    <glyph glyph-name="otilde" unicode="&#xf5;" horiz-adv-x="549" 
d="M288 436c-92 0 -192 -84 -192 -233c0 -98 60 -162 144 -162c92 0 192 86 192 234c0 98 -58 161 -144 161zM493 277c0 -174 -122 -290 -256 -290c-123 0 -202 90 -202 213c0 175 124 290 257 290c125 0 201 -90 201 -213zM207 553h-48c11 75 55 108 104 108
c28 0 48 -11 64 -25l16 -15c13 -13 25 -18 41 -18c26 0 45 19 52 56h48c-15 -76 -56 -108 -104 -108c-25 0 -45 9 -61 24l-17 15c-15 13 -25 19 -44 19c-25 0 -44 -19 -51 -56z" />
    <glyph glyph-name="uacute" unicode="&#xfa;" horiz-adv-x="527" 
d="M474 677l-155 -140h-55l124 140h86zM342 70c-28 -45 -81 -81 -144 -81c-97 0 -150 61 -150 149c0 16 1 37 6 59l59 280h61l-59 -278c-4 -20 -6 -39 -6 -54c0 -60 31 -104 106 -104s132 68 151 157l59 279h61l-81 -381c-8 -39 -8 -74 -8 -96h-59c0 18 0 40 4 70z" />
    <glyph glyph-name="ugrave" unicode="&#xf9;" horiz-adv-x="527" 
d="M342 70c-28 -45 -81 -81 -144 -81c-97 0 -150 61 -150 149c0 16 1 37 6 59l59 280h61l-59 -278c-4 -20 -6 -39 -6 -54c0 -60 31 -104 106 -104s132 68 151 157l59 279h61l-81 -381c-8 -39 -8 -74 -8 -96h-59c0 18 0 40 4 70zM287 537l-84 140h72l59 -140h-47z" />
    <glyph glyph-name="ucircumflex" unicode="&#xfb;" horiz-adv-x="527" 
d="M219 538h-58l138 138h76l78 -138h-51l-71 99zM342 70c-28 -45 -81 -81 -144 -81c-97 0 -150 61 -150 149c0 16 1 37 6 59l59 280h61l-59 -278c-4 -20 -6 -39 -6 -54c0 -60 31 -104 106 -104s132 68 151 157l59 279h61l-81 -381c-8 -39 -8 -74 -8 -96h-59c0 18 0 40 4 70z
" />
    <glyph glyph-name="udieresis" unicode="&#xfc;" horiz-adv-x="527" 
d="M197 605c0 27 21 50 48 50c23 0 37 -20 37 -40c0 -27 -22 -47 -48 -47c-22 0 -37 17 -37 37zM370 605c0 27 21 50 48 50c23 0 37 -20 37 -40c0 -27 -22 -47 -48 -47c-22 0 -37 17 -37 37zM342 70c-28 -45 -81 -81 -144 -81c-97 0 -150 61 -150 149c0 16 1 37 6 59l59 280
h61l-59 -278c-4 -20 -6 -39 -6 -54c0 -60 31 -104 106 -104s132 68 151 157l59 279h61l-81 -381c-8 -39 -8 -74 -8 -96h-59c0 18 0 40 4 70z" />
    <glyph glyph-name="dagger" unicode="&#x2020;" horiz-adv-x="409" 
d="M268 709h53l-34 -161h135l-11 -52h-136l-71 -334h-54l72 334h-136l11 52h136z" />
    <glyph glyph-name="degree" unicode="&#xb0;" horiz-adv-x="389" 
d="M266 720c81 0 139 -60 139 -137c0 -91 -77 -170 -169 -170c-81 0 -139 61 -139 137c0 90 74 170 169 170zM241 463c60 0 110 53 110 118c0 51 -35 89 -90 89c-60 0 -110 -54 -110 -117c0 -51 36 -90 90 -90z" />
    <glyph glyph-name="cent" unicode="&#xa2;" horiz-adv-x="540" 
d="M122 305c0 -68 32 -132 100 -154l80 385c-96 -11 -180 -102 -180 -231zM258 88l-19 -88h-49l20 95c-91 25 -148 106 -148 208c0 165 120 282 252 288l17 80h49l-17 -83c92 -14 141 -78 154 -146l-53 -19c-11 52 -48 100 -112 111l-83 -392c81 0 139 44 173 114l48 -23
c-43 -93 -123 -145 -232 -145z" />
    <glyph glyph-name="sterling" unicode="&#xa3;" horiz-adv-x="629" 
d="M85 372h84c-6 43 -16 86 -16 131c0 127 97 218 220 218c140 0 201 -93 201 -185c0 -10 -1 -23 -2 -30l-59 -7c2 11 3 22 3 31c0 79 -52 136 -144 136c-90 0 -158 -66 -158 -165c0 -43 10 -84 17 -129h210l-10 -53h-196c1 -9 2 -16 2 -25c-1 -108 -62 -186 -146 -238h256
c91 0 149 58 169 145l55 -11c-25 -117 -100 -190 -220 -190h-356l12 59c96 47 169 139 169 237c0 6 0 10 -2 23h-99z" />
    <glyph glyph-name="section" unicode="&#xa7;" horiz-adv-x="501" 
d="M0 0l58 6c-3 -13 -4 -26 -4 -38c0 -69 40 -120 122 -120c68 0 133 44 133 119c0 40 -21 72 -56 98l-91 67c-52 38 -95 79 -95 141c0 79 71 127 124 139c-46 35 -70 80 -70 128c0 113 95 182 198 182c112 0 171 -70 171 -159c0 -13 -1 -26 -3 -40l-60 -6c3 13 4 25 4 37
c0 68 -39 117 -115 117c-67 0 -134 -46 -134 -121c0 -40 21 -70 56 -96l91 -67c43 -32 95 -74 95 -138c0 -76 -64 -126 -124 -143c46 -37 72 -81 72 -128c0 -113 -98 -181 -201 -181c-116 0 -176 70 -176 160c0 13 2 33 5 43zM306 326l-80 59c-46 -6 -99 -43 -99 -101
c0 -36 22 -63 58 -91l78 -60c42 7 100 50 100 105c0 37 -25 64 -57 88z" />
    <glyph glyph-name="bullet" unicode="&#x2022;" horiz-adv-x="569" 
d="M77 282c0 115 93 208 207 208s207 -93 207 -208c0 -113 -93 -207 -207 -207s-207 94 -207 207z" />
    <glyph glyph-name="paragraph" unicode="&#xb6;" horiz-adv-x="614" 
d="M389 657l-180 -847h-53l110 517h-17c-98 0 -167 73 -167 167c0 128 113 215 254 215h324l-11 -52h-95l-179 -847h-53l179 847h-112z" />
    <glyph glyph-name="germandbls" unicode="&#xdf;" horiz-adv-x="542" 
d="M343 331c0 -17 14 -29 31 -42l32 -25c40 -30 67 -74 67 -124c0 -70 -53 -153 -162 -153c-94 0 -145 64 -145 132c0 8 1 16 3 24l56 9c-2 -7 -3 -14 -3 -21c0 -42 22 -92 93 -92c67 0 97 54 97 94c0 38 -21 64 -50 86l-31 24c-29 23 -51 52 -51 86c0 47 29 76 67 95l43 23
c42 21 78 56 78 114c0 56 -44 107 -122 107c-72 0 -136 -51 -160 -164l-107 -504h-61l109 512c30 140 118 210 223 210c114 0 180 -72 180 -156c0 -92 -61 -142 -110 -166l-41 -21c-20 -10 -36 -23 -36 -48z" />
    <glyph glyph-name="registered" unicode="&#xae;" horiz-adv-x="846" 
d="M74 354c0 203 161 368 363 368s364 -165 364 -368c0 -202 -162 -367 -364 -367s-363 165 -363 367zM125 354c0 -179 138 -320 312 -320s311 141 311 320c0 180 -137 321 -311 321s-312 -141 -312 -321zM381 357h69c62 0 106 38 106 96c0 37 -25 60 -74 60h-66zM501 157
l-61 159h-68l-34 -159h-48l85 399h121c65 0 108 -44 108 -103c0 -72 -51 -121 -117 -133l65 -163h-51z" />
    <glyph glyph-name="copyright" unicode="&#xa9;" horiz-adv-x="846" 
d="M74 354c0 203 161 368 363 368s364 -165 364 -368c0 -202 -162 -367 -364 -367s-363 165 -363 367zM125 354c0 -179 138 -320 312 -320s311 141 311 320c0 180 -137 321 -311 321s-312 -141 -312 -321zM622 445l-49 -17c-12 53 -52 91 -114 91c-78 0 -157 -71 -157 -190
c0 -79 51 -130 125 -130c66 0 105 43 127 83c6 -2 38 -16 44 -19c-30 -54 -87 -109 -174 -109c-107 0 -175 75 -175 174c0 139 103 236 213 236c99 0 148 -60 160 -119z" />
    <glyph glyph-name="trademark" unicode="&#x2122;" horiz-adv-x="844" 
d="M404 665h-120l-68 -319h-49l68 319h-120l9 44h289zM776 346h-48l58 273l-182 -273h-41l-66 273l-58 -273h-49l77 363h58l71 -292l190 292h67z" />
    <glyph glyph-name="acute" unicode="&#xb4;" horiz-adv-x="250" 
d="M275 677l-155 -140h-55l124 140h86z" />
    <glyph glyph-name="dieresis" unicode="&#xa8;" horiz-adv-x="299" 
d="M65 605c0 27 21 50 48 50c23 0 37 -20 37 -40c0 -27 -22 -47 -48 -47c-22 0 -37 17 -37 37zM238 605c0 27 21 50 48 50c23 0 37 -20 37 -40c0 -27 -22 -47 -48 -47c-22 0 -37 17 -37 37z" />
    <glyph glyph-name="notequal" unicode="&#x2260;" horiz-adv-x="605" 
d="M539 226h-277l-81 -110h-62l81 110h-108v51h146l105 143h-251v50h288l80 107h61l-79 -107h97v-50h-134l-105 -143h239v-51z" />
    <glyph glyph-name="AE" unicode="&#xc6;" horiz-adv-x="977" 
d="M526 59h351l-12 -59h-415l45 210h-290l-180 -210h-80l619 709h446l-12 -59h-346l-57 -265h313l-12 -60h-313zM254 267h253l82 386z" />
    <glyph glyph-name="Oslash" unicode="&#xd8;" horiz-adv-x="770" 
d="M65 293c0 283 198 429 375 429c84 0 158 -28 211 -81l85 86l38 -36l-90 -91c32 -48 51 -110 51 -184c0 -283 -198 -429 -375 -429c-82 0 -155 27 -208 77l-79 -80l-37 36l83 83c-35 49 -54 113 -54 190zM130 298c0 -60 13 -109 36 -147l440 445c-42 45 -103 68 -170 68
c-159 0 -306 -143 -306 -366zM670 411c0 57 -12 104 -33 142l-440 -444c43 -43 101 -64 167 -64c159 0 306 143 306 366z" />
    <glyph glyph-name="infinity" unicode="&#x221e;" horiz-adv-x="805" 
d="M601 186c-72 0 -136 51 -188 123c-53 -71 -115 -123 -187 -123c-92 0 -164 73 -164 164s72 164 164 164c72 0 137 -52 188 -124c53 72 115 124 187 124c92 0 164 -73 164 -164s-72 -164 -164 -164zM382 349c-45 64 -92 113 -155 113c-64 0 -111 -51 -111 -113
c0 -61 47 -112 111 -112c62 0 111 50 155 112zM445 351c45 -64 93 -114 155 -114c64 0 112 51 112 112c0 62 -48 113 -112 113c-62 0 -110 -49 -155 -111z" />
    <glyph glyph-name="plusminus" unicode="&#xb1;" horiz-adv-x="615" 
d="M93 434h188v145h53v-145h189v-50h-189v-145h-53v145h-188v50zM93 176h430v-51h-430v51z" />
    <glyph glyph-name="lessequal" unicode="&#x2264;" horiz-adv-x="585" 
d="M89 381v53l405 147v-54l-336 -120l336 -118v-55zM89 176h405v-51h-405v51z" />
    <glyph glyph-name="greaterequal" unicode="&#x2265;" horiz-adv-x="613" 
d="M523 434v-53l-405 -147v55l336 118l-336 120v54zM118 176h405v-51h-405v51z" />
    <glyph glyph-name="yen" unicode="&#xa5;" horiz-adv-x="605" 
d="M502 179h-192l-38 -179h-64l39 179h-184l10 50h184l18 83h-186l10 50h158l-134 347h67l128 -342l261 342h72l-272 -347h160l-11 -50h-190l-18 -83h193z" />
    <glyph glyph-name="mu" unicode="&#xb5;" horiz-adv-x="569" 
d="M76 -190v667h61v-291c0 -75 36 -145 129 -145c85 0 135 64 135 144v292h60v-386c0 -39 3 -74 6 -91h-58c-2 10 -4 40 -4 74c-22 -46 -76 -87 -150 -87c-53 0 -95 20 -118 53v-230h-61z" />
    <glyph glyph-name="partialdiff" unicode="&#x2202;" horiz-adv-x="595" 
d="M224 667c-37 0 -91 -8 -140 -32l-20 49c53 28 117 38 169 38c177 0 307 -131 307 -377c0 -203 -86 -358 -268 -358c-126 0 -236 86 -236 233c0 139 107 230 239 230c89 0 163 -36 202 -91c-6 170 -73 308 -253 308zM283 396c-115 0 -185 -78 -185 -179
c0 -106 81 -174 177 -174c129 0 200 120 200 245c-40 71 -113 108 -192 108z" />
    <glyph glyph-name="summation" unicode="&#x2211;" horiz-adv-x="699" 
d="M119 0v56l295 301l-295 296v56h486v-58h-402l294 -294l-300 -299h408v-58h-486z" />
    <glyph glyph-name="product" unicode="&#x220f;" horiz-adv-x="738" 
d="M636 0h-61v653h-382v-653h-63v709h506v-709z" />
    <glyph glyph-name="pi" unicode="&#x3c0;" horiz-adv-x="693" 
d="M495 424v-317c0 -40 25 -61 61 -61c12 0 27 2 39 6v-48c-14 -5 -33 -10 -57 -10c-71 0 -104 49 -104 107v323h-203v-424h-60v424h-95v53h514v-53h-95z" />
    <glyph glyph-name="integral" unicode="&#x222b;" horiz-adv-x="293" 
d="M111 -32v589c0 95 55 152 144 152h28v-55h-24c-53 0 -88 -35 -88 -101v-590c0 -96 -53 -153 -141 -153h-32v55h25c52 0 88 37 88 103z" />
    <glyph glyph-name="ordfeminine" unicode="&#xaa;" horiz-adv-x="432" 
d="M271 672c-72 0 -126 -73 -126 -159c0 -61 33 -104 94 -104c75 0 126 79 126 162c0 59 -33 101 -94 101zM398 709h50l-58 -275c-4 -15 -7 -43 -7 -54v-8h-49v5c0 8 1 25 6 48c-20 -29 -58 -61 -112 -61c-87 0 -135 66 -135 148c0 115 78 206 176 206c77 0 106 -47 115 -75
z" />
    <glyph glyph-name="ordmasculine" unicode="&#xba;" horiz-adv-x="416" 
d="M144 516c0 -63 36 -108 100 -108s131 56 131 157c0 66 -41 108 -100 108c-66 0 -131 -58 -131 -157zM277 718c91 0 149 -63 149 -151c0 -119 -86 -204 -184 -204c-90 0 -149 63 -149 151c0 122 87 204 184 204z" />
    <glyph glyph-name="Omega" unicode="&#x2126;" horiz-adv-x="876" 
d="M439 665c-147 0 -288 -110 -288 -289c0 -161 120 -270 244 -293v-83h-299v55h222c-120 38 -231 155 -231 320c0 211 166 347 352 347c187 0 353 -136 353 -347c0 -165 -110 -282 -231 -320h222v-55h-298v83c124 23 243 132 243 293c0 179 -141 289 -289 289z" />
    <glyph glyph-name="ae" unicode="&#xe6;" horiz-adv-x="851" 
d="M794 226h-378c-1 -10 -2 -20 -2 -30c0 -94 64 -155 149 -155c77 0 133 47 162 99l46 -31c-38 -69 -114 -122 -209 -122c-91 0 -164 45 -191 128c-37 -78 -108 -128 -205 -128c-105 0 -156 64 -156 128c0 95 80 147 175 151l128 6c54 2 62 34 62 67c0 55 -41 98 -118 98
c-65 0 -115 -37 -134 -99l-54 19c26 82 102 132 191 132c91 0 142 -42 161 -93c49 60 119 94 188 94c129 0 194 -84 194 -194c0 -26 -4 -51 -9 -70zM73 119c0 -55 49 -81 104 -81c81 0 148 51 167 141l12 58c-8 -8 -44 -13 -66 -14l-108 -4c-62 -2 -109 -37 -109 -100z
M426 277h314c1 6 2 14 2 22c0 73 -41 137 -135 137c-91 0 -159 -74 -181 -159z" />
    <glyph glyph-name="oslash" unicode="&#xf8;" horiz-adv-x="549" 
d="M493 277c0 -174 -122 -290 -256 -290c-59 0 -107 20 -142 55l-60 -58l-33 36l63 61c-20 33 -30 74 -30 119c0 175 124 290 257 290c59 0 106 -20 141 -54l58 56l33 -36l-61 -59c19 -34 30 -75 30 -120zM432 275c0 29 -6 55 -15 77l-279 -269c26 -27 61 -42 102 -42
c92 0 192 86 192 234zM288 436c-92 0 -192 -84 -192 -233c0 -29 5 -55 15 -78l279 270c-25 26 -61 41 -102 41z" />
    <glyph glyph-name="questiondown" unicode="&#xbf;" horiz-adv-x="481" 
d="M226 294h54c1 -3 1 -8 1 -12c-3 -81 -41 -133 -108 -173l-50 -30c-62 -36 -98 -82 -98 -145c0 -62 43 -117 131 -117c105 0 163 86 163 173c0 4 0 8 -1 13l60 -11c1 -3 1 -7 1 -11c0 -116 -90 -220 -229 -220c-122 0 -189 80 -189 166c0 92 60 154 138 201l52 31
c55 32 75 77 75 135zM319 444c0 -31 -23 -57 -55 -57c-26 0 -43 21 -43 45c0 31 25 55 54 55c26 0 44 -19 44 -43z" />
    <glyph glyph-name="exclamdown" unicode="&#xa1;" horiz-adv-x="213" 
d="M130 294l-92 -520h-78l127 520h43zM182 444c0 -31 -23 -57 -55 -57c-26 0 -43 21 -43 45c0 31 25 55 54 55c26 0 44 -19 44 -43z" />
    <glyph glyph-name="logicalnot" unicode="&#xac;" horiz-adv-x="601" 
d="M523 218h-55v201h-385v53h440v-254z" />
    <glyph glyph-name="radical" unicode="&#x221a;" horiz-adv-x="596" 
d="M692 796h-126l-267 -796h-58l-182 518h69l142 -416l248 751h174v-57z" />
    <glyph glyph-name="florin" unicode="&#x192;" horiz-adv-x="5120" 
d="M2128 382c148 -36 208 -93 208 -194c0 -119 -92 -197 -233 -197c-100 0 -192 35 -268 103c-2 2 -3 3 -3 5s1 5 2 6l67 80c1 1 3 3 5 3c3 0 5 -1 6 -2c65 -57 123 -81 194 -81c64 0 104 28 104 73c0 40 -20 62 -137 90c-136 32 -216 76 -216 196c0 113 92 192 224 192
c91 0 169 -28 234 -81c2 -2 3 -4 3 -6s-1 -3 -2 -5l-59 -84c-1 -2 -4 -4 -7 -4c-2 0 -4 1 -5 2c-57 43 -111 64 -166 64c-57 0 -95 -27 -95 -68c0 -43 22 -62 144 -92zM2657 502c114 0 229 -88 229 -256s-115 -255 -229 -255c-62 0 -112 22 -153 69v-195c0 -5 -4 -9 -9 -9
h-108c-5 0 -9 4 -9 9v619c0 5 4 8 9 8h108c5 0 9 -3 9 -8v-56c41 49 91 74 153 74zM2760 246c0 84 -54 145 -128 145c-75 0 -131 -62 -131 -145s56 -145 131 -145s128 59 128 145zM3183 502c146 0 261 -113 261 -256c0 -144 -116 -256 -263 -256c-146 0 -260 111 -260 254
c0 144 115 258 262 258zM3183 100c78 0 135 61 135 144c0 84 -59 146 -137 146c-79 0 -136 -60 -136 -144c0 -83 59 -146 138 -146zM3637 492h120c5 0 8 -3 8 -8v-94c0 -4 -3 -8 -8 -8h-120v-225c0 -36 16 -52 51 -52c27 0 48 9 54 12c5 2 10 5 13 5c4 0 8 -3 8 -9v-87
c0 -2 0 -6 -6 -9c-26 -15 -55 -25 -100 -25c-97 0 -145 50 -145 148v242h-53c-3 0 -7 4 -7 8v94c0 5 4 8 7 8h53v123c0 4 4 7 8 7h109c4 0 8 -3 8 -7v-123zM4294 559c-3 0 -8 3 -21 6c-17 4 -27 6 -43 6c-38 0 -55 -20 -55 -65v-14h186c3 0 7 -2 8 -4l127 -334l116 333
c1 3 4 5 7 5h114c3 0 8 -3 8 -8c0 -1 -1 -5 -2 -7l-188 -485c-39 -101 -83 -139 -164 -139c-43 0 -76 9 -116 29c-2 1 -4 4 -4 6s0 3 1 5l36 82c1 3 4 5 7 5c1 0 3 -1 4 -1c24 -12 41 -18 60 -18c24 0 41 8 59 48l-155 373h-102v-373c0 -5 -4 -9 -9 -9h-108c-5 0 -9 4 -9 9
v373h-52c-4 0 -7 4 -7 8v95c0 4 3 7 7 7h52v24c0 106 54 163 155 163c36 0 65 -4 90 -12c3 -1 6 -4 6 -8v-92c0 -3 -3 -8 -8 -8zM3823 492h110c4 0 7 -3 7 -8v-475c0 -5 -3 -9 -7 -9h-110c-3 0 -7 4 -7 9v475c0 5 4 8 7 8zM3878 708c43 0 79 -34 79 -77
c0 -44 -36 -79 -79 -79s-77 35 -77 79c0 43 34 77 77 77zM4833 338c-43 0 -76 35 -76 77s33 77 76 77s77 -34 77 -76c0 -43 -34 -78 -77 -78zM4833 484c-39 0 -68 -31 -68 -69c0 -39 29 -70 68 -70c40 0 70 32 70 71c0 37 -30 68 -70 68zM4851 407l22 -30h-19l-20 27h-16
v-27h-15v81h35c19 0 32 -10 32 -27c0 -13 -9 -20 -19 -24zM4838 444h-20v-26h20c9 0 16 5 16 12c0 9 -7 14 -16 14zM1200 -6c23 0 44 20 44 45c0 15 -8 29 -21 37c-105 65 -240 111 -421 111c-83 0 -171 -11 -263 -32c-20 -5 -34 -22 -34 -42c0 -23 17 -44 43 -44
c9 0 31 6 41 8c87 18 165 23 215 23c142 0 266 -34 373 -99c7 -4 15 -7 23 -7zM1277 181c29 0 55 25 55 56c0 19 -9 37 -26 47c-142 87 -328 133 -510 133c-97 0 -193 -13 -282 -40c-24 -7 -39 -29 -39 -53c0 -29 20 -54 52 -54c23 0 22 4 60 13c77 19 154 24 207 24
c163 0 330 -41 454 -118c9 -5 19 -8 29 -8zM1332 408c10 -6 22 -9 33 -9c37 0 67 29 67 66c0 22 -12 44 -33 56c-165 96 -376 139 -593 139c-122 0 -238 -16 -331 -44c-29 -9 -47 -35 -47 -63c0 -34 27 -67 65 -67c6 0 13 1 19 3c83 25 188 39 300 39
c181 0 379 -36 520 -120zM210 327c0 390 317 706 706 706s705 -316 705 -706s-316 -705 -705 -705s-706 315 -706 705z" />
    <glyph glyph-name="approxequal" unicode="&#x2248;" horiz-adv-x="637" 
d="M530 285l34 -29c-30 -42 -71 -72 -133 -72c-30 0 -58 10 -91 27l-51 27c-23 12 -47 19 -69 19c-44 0 -69 -17 -96 -48l-35 30c32 43 70 74 132 74c29 0 60 -11 94 -29l46 -25c26 -13 53 -22 78 -22c40 0 66 17 91 48zM530 478l34 -29c-30 -42 -71 -72 -133 -72
c-30 0 -58 10 -91 27l-51 27c-23 12 -47 19 -69 19c-44 0 -69 -17 -96 -48l-35 30c32 43 70 74 132 74c29 0 60 -11 94 -29l46 -25c26 -13 53 -22 78 -22c40 0 66 17 91 48z" />
    <glyph glyph-name="Delta" unicode="&#x2206;" horiz-adv-x="704" 
d="M527 58l-219 576l-217 -576h436zM1 0l274 709h66l276 -709h-616z" />
    <glyph glyph-name="guillemotleft" unicode="&#xab;" horiz-adv-x="464" 
d="M367 95h-59l-95 192l171 190h67l-176 -195zM200 95h-59l-95 192l171 190h67l-176 -195z" />
    <glyph glyph-name="guillemotright" unicode="&#xbb;" horiz-adv-x="465" 
d="M96 477h59l95 -192l-171 -190h-67l176 195zM263 477h59l95 -192l-171 -190h-67l176 195z" />
    <glyph glyph-name="ellipsis" unicode="&#x2026;" horiz-adv-x="724" 
d="M61 -4c-27 0 -45 20 -45 44c0 31 24 58 56 58c28 0 44 -22 44 -46c0 -32 -25 -56 -55 -56zM311 -4c-28 0 -45 20 -45 44c0 31 24 58 56 58c28 0 44 -22 44 -46c0 -32 -25 -56 -55 -56zM561 -4c-28 0 -45 20 -45 44c0 31 24 58 56 58c28 0 44 -22 44 -46
c0 -32 -25 -56 -55 -56z" />
    <glyph glyph-name="Agrave" unicode="&#xc0;" horiz-adv-x="658" 
d="M513 0l-38 228h-309l-133 -228h-73l422 709h73l122 -709h-64zM406 640l-206 -353h266zM396 759l-104 119h78l83 -119h-57z" />
    <glyph glyph-name="Atilde" unicode="&#xc3;" horiz-adv-x="658" 
d="M513 0l-38 228h-309l-133 -228h-73l422 709h73l122 -709h-64zM406 640l-206 -353h266zM591 872c-14 -77 -57 -109 -105 -109c-25 0 -46 10 -63 25l-16 14c-15 13 -26 19 -43 19c-25 0 -44 -18 -51 -55h-47c11 74 56 108 104 108c27 0 48 -11 65 -26l16 -14
c14 -13 24 -19 41 -19c26 0 44 19 52 57h47z" />
    <glyph glyph-name="Otilde" unicode="&#xd5;" horiz-adv-x="771" 
d="M641 872c-14 -77 -57 -109 -105 -109c-25 0 -46 10 -63 25l-16 14c-15 13 -26 19 -43 19c-25 0 -44 -18 -51 -55h-47c11 74 56 108 104 108c27 0 48 -11 65 -26l16 -14c14 -13 24 -19 41 -19c26 0 44 19 52 57h47zM65 293c0 283 198 429 375 429c167 0 295 -112 295 -306
c0 -283 -198 -429 -375 -429c-167 0 -295 111 -295 306zM670 411c0 168 -104 253 -234 253c-159 0 -306 -143 -306 -366c0 -168 104 -253 234 -253c159 0 306 143 306 366z" />
    <glyph glyph-name="OE" unicode="&#x152;" horiz-adv-x="1122" 
d="M1010 0h-415l22 105c-73 -80 -168 -118 -257 -118c-167 0 -295 111 -295 306c0 283 198 429 375 429c124 0 227 -62 269 -188l37 175h409l-12 -59h-346l-56 -265h312l-12 -60h-313l-56 -266h350zM670 411c0 168 -104 253 -234 253c-159 0 -306 -143 -306 -366
c0 -168 104 -253 234 -253c159 0 306 143 306 366z" />
    <glyph glyph-name="oe" unicode="&#x153;" horiz-adv-x="926" 
d="M869 226h-378c-1 -10 -2 -20 -2 -30c0 -94 64 -155 149 -155c77 0 133 47 162 99l46 -31c-38 -69 -114 -122 -209 -122c-88 0 -160 42 -191 124c-47 -80 -126 -124 -209 -124c-123 0 -202 90 -202 213c0 175 124 290 257 290c90 0 155 -47 184 -125
c49 81 129 125 208 125c129 0 194 -84 194 -194c0 -26 -4 -51 -9 -70zM288 436c-92 0 -192 -84 -192 -233c0 -98 60 -162 144 -162c92 0 192 86 192 234c0 98 -58 161 -144 161zM501 277h314c1 6 2 14 2 22c0 73 -41 137 -135 137c-91 0 -159 -74 -181 -159z" />
    <glyph glyph-name="endash" unicode="&#x2013;" horiz-adv-x="641" 
d="M564 260h-500l11 54h500z" />
    <glyph glyph-name="emdash" unicode="&#x2014;" horiz-adv-x="1060" 
d="M983 260h-919l11 54h919z" />
    <glyph glyph-name="quotedblleft" unicode="&#x201c;" horiz-adv-x="366" 
d="M208 541c0 -30 -24 -53 -54 -53c-28 0 -51 20 -51 57c0 88 78 161 153 170l-8 -37c-47 -11 -90 -55 -100 -98c3 2 10 3 18 3c23 0 42 -16 42 -42zM356 541c0 -30 -24 -53 -54 -53c-28 0 -51 20 -51 57c0 88 78 161 153 170l-8 -37c-47 -11 -90 -55 -100 -98
c3 2 10 3 18 3c23 0 42 -16 42 -42z" />
    <glyph glyph-name="quotedblright" unicode="&#x201d;" horiz-adv-x="370" 
d="M296 662c0 30 24 53 54 53c28 0 51 -20 51 -57c0 -88 -78 -161 -153 -170l8 37c47 11 90 55 100 98c-3 -2 -10 -3 -18 -3c-23 0 -42 16 -42 42zM148 662c0 30 24 53 54 53c28 0 51 -20 51 -57c0 -88 -78 -161 -153 -170l8 37c47 11 90 55 100 98c-3 -2 -10 -3 -18 -3
c-23 0 -42 16 -42 42z" />
    <glyph glyph-name="quoteleft" unicode="&#x2018;" horiz-adv-x="220" 
d="M210 538c0 -31 -24 -54 -55 -54c-29 0 -52 20 -52 58c0 89 80 164 156 173l-8 -38c-48 -11 -92 -56 -102 -100c3 2 10 3 18 3c24 0 43 -16 43 -42z" />
    <glyph glyph-name="quoteright" unicode="&#x2019;" horiz-adv-x="223" 
d="M147 661c0 31 24 54 55 54c29 0 52 -20 52 -58c0 -89 -80 -164 -156 -173l8 38c48 11 92 56 102 100c-3 -2 -10 -3 -18 -3c-24 0 -43 16 -43 42z" />
    <glyph glyph-name="divide" unicode="&#xf7;" horiz-adv-x="600" 
d="M264 170c0 26 23 47 48 47c26 0 48 -21 48 -47s-22 -48 -48 -48c-25 0 -48 22 -48 48zM264 525c0 27 23 48 48 48c26 0 48 -21 48 -48c0 -25 -22 -48 -48 -48c-25 0 -48 23 -48 48zM92 322v53h442v-53h-442z" />
    <glyph glyph-name="lozenge" unicode="&#x25ca;" horiz-adv-x="541" 
d="M285 73l168 281l-168 282l-168 -282zM311 0h-52l-208 354l208 355h51l209 -355z" />
    <glyph glyph-name="ydieresis" unicode="&#xff;" horiz-adv-x="472" 
d="M48 -190h-70l178 265l-118 402h65l96 -343l220 343h71zM150 605c0 27 21 50 48 50c23 0 37 -20 37 -40c0 -27 -22 -47 -48 -47c-22 0 -37 17 -37 37zM323 605c0 27 21 50 48 50c23 0 37 -20 37 -40c0 -27 -22 -47 -48 -47c-22 0 -37 17 -37 37z" />
    <glyph glyph-name="Ydieresis" unicode="&#x178;" horiz-adv-x="590" 
d="M270 311l-156 398h67l132 -341l257 341h75l-312 -404l-64 -305h-65zM245 814c0 28 21 49 49 49c22 0 37 -19 37 -39c0 -28 -22 -48 -48 -48c-22 0 -38 17 -38 38zM450 814c0 28 21 49 49 49c22 0 37 -19 37 -39c0 -28 -22 -48 -48 -48c-22 0 -38 17 -38 38z" />
    <glyph glyph-name="fraction" unicode="&#x2044;" horiz-adv-x="132" 
d="M-187 0h-61l599 709h61z" />
    <glyph glyph-name="currency" unicode="&#xa4;" horiz-adv-x="647" 
d="M127 349c0 50 18 97 46 133l-74 76l39 38l74 -77c36 27 80 44 128 44c45 0 88 -15 123 -41l71 74l38 -38l-69 -72c31 -37 50 -85 50 -137c0 -51 -18 -98 -48 -133l68 -71l-37 -37l-70 70c-35 -26 -79 -42 -126 -42c-50 0 -96 17 -131 46l-73 -74l-37 37l72 75
c-28 35 -44 80 -44 129zM180 349c0 -91 71 -161 160 -161c88 0 158 70 158 161c0 92 -70 161 -158 161c-89 0 -160 -69 -160 -161z" />
    <glyph glyph-name="guilsinglleft" unicode="&#x2039;" horiz-adv-x="297" 
d="M200 95h-59l-95 192l171 190h67l-176 -195z" />
    <glyph glyph-name="guilsinglright" unicode="&#x203a;" horiz-adv-x="298" 
d="M96 477h59l95 -192l-171 -190h-67l176 195z" />
    <glyph glyph-name="fi" unicode="&#xfb01;" horiz-adv-x="550" 
d="M409 0h-61l89 423h-238l-90 -423h-61l90 423h-93l11 54h93l25 119c23 109 93 134 153 134c28 0 52 -8 60 -13l-13 -51c-9 4 -26 9 -45 9c-42 0 -81 -19 -95 -86l-24 -112h300zM471 670c0 31 26 56 55 56c26 0 44 -20 44 -46c0 -29 -25 -54 -54 -54c-26 0 -45 19 -45 44z
" />
    <glyph glyph-name="fl" unicode="&#xfb02;" horiz-adv-x="550" 
d="M409 0h-61l89 423h-238l-90 -423h-61l90 423h-93l11 54h93l25 119c23 109 93 134 153 134c28 0 52 -8 60 -13l-13 -51c-9 4 -26 9 -45 9c-42 0 -81 -19 -95 -86l-24 -112h239l52 245h61z" />
    <glyph glyph-name="daggerdbl" unicode="&#x2021;" horiz-adv-x="1831" 
d="M1200 -6c23 0 44 20 44 45c0 15 -8 29 -21 37c-105 65 -240 111 -421 111c-83 0 -171 -11 -263 -32c-20 -5 -34 -22 -34 -42c0 -23 17 -44 43 -44c9 0 31 6 41 8c87 18 165 23 215 23c142 0 266 -34 373 -99c7 -4 15 -7 23 -7zM1277 181c29 0 55 25 55 56
c0 19 -9 37 -26 47c-142 87 -328 133 -510 133c-97 0 -193 -13 -282 -40c-24 -7 -39 -29 -39 -53c0 -29 20 -54 52 -54c23 0 22 4 60 13c77 19 154 24 207 24c163 0 330 -41 454 -118c9 -5 19 -8 29 -8zM1332 408c10 -6 22 -9 33 -9c37 0 67 29 67 66c0 22 -12 44 -33 56
c-165 96 -376 139 -593 139c-122 0 -238 -16 -331 -44c-29 -9 -47 -35 -47 -63c0 -34 27 -67 65 -67c6 0 13 1 19 3c83 25 188 39 300 39c181 0 379 -36 520 -120zM210 327c0 390 317 706 706 706s705 -316 705 -706s-316 -705 -705 -705s-706 315 -706 705z" />
    <glyph glyph-name="periodcentered" unicode="&#xb7;" horiz-adv-x="245" 
d="M116 233c-29 0 -47 21 -47 45c0 33 25 60 58 60c29 0 46 -22 46 -47c0 -33 -26 -58 -57 -58z" />
    <glyph glyph-name="quotesinglbase" unicode="&#x201a;" horiz-adv-x="236" 
d="M17 39c0 31 24 54 55 54c29 0 52 -20 52 -58c0 -89 -80 -164 -156 -173l8 38c48 11 92 56 102 100c-3 -2 -10 -3 -18 -3c-24 0 -43 16 -43 42z" />
    <glyph glyph-name="quotedblbase" unicode="&#x201e;" horiz-adv-x="384" 
d="M167 38c0 30 24 53 54 53c28 0 51 -20 51 -57c0 -88 -78 -161 -153 -170l8 37c47 11 90 55 100 98c-3 -2 -10 -3 -18 -3c-23 0 -42 16 -42 42zM19 38c0 30 24 53 54 53c28 0 51 -20 51 -57c0 -88 -78 -161 -153 -170l8 37c47 11 90 55 100 98c-3 -2 -10 -3 -18 -3
c-23 0 -42 16 -42 42z" />
    <glyph glyph-name="perthousand" unicode="&#x2030;" horiz-adv-x="1097" 
d="M104 0l598 709h63l-598 -709h-63zM94 547c0 89 74 170 169 170c81 0 139 -61 139 -138c0 -91 -77 -169 -169 -169c-81 0 -139 60 -139 137zM238 460c60 0 110 53 110 117c0 51 -35 90 -90 90c-60 0 -110 -54 -110 -117c0 -51 36 -90 90 -90zM636 299
c55 0 100 -29 122 -71c30 42 79 71 136 71c80 0 139 -60 139 -137c0 -91 -77 -170 -169 -170c-56 0 -100 28 -123 71c-30 -42 -80 -71 -136 -71c-80 0 -138 60 -138 137c0 89 74 170 169 170zM868 42c61 0 111 53 111 117c0 52 -36 90 -90 90c-60 0 -110 -54 -110 -117
c0 -51 35 -90 89 -90zM610 42c61 0 111 53 111 117c0 52 -36 90 -90 90c-60 0 -110 -54 -110 -117c0 -51 35 -90 89 -90z" />
    <glyph glyph-name="Acircumflex" unicode="&#xc2;" horiz-adv-x="658" 
d="M513 0l-38 228h-309l-133 -228h-73l422 709h73l122 -709h-64zM406 640l-206 -353h266zM329 759h-59l134 119h81l85 -119h-53l-78 83z" />
    <glyph glyph-name="Ecircumflex" unicode="&#xca;" horiz-adv-x="567" 
d="M318 759h-59l134 119h81l85 -119h-53l-78 83zM455 0h-415l151 709h409l-12 -59h-346l-56 -265h312l-12 -60h-313l-56 -266h350z" />
    <glyph glyph-name="Aacute" unicode="&#xc1;" horiz-adv-x="658" 
d="M513 0l-38 228h-309l-133 -228h-73l422 709h73l122 -709h-64zM406 640l-206 -353h266zM610 878l-151 -119h-64l128 119h87z" />
    <glyph glyph-name="Edieresis" unicode="&#xcb;" horiz-adv-x="567" 
d="M455 0h-415l151 709h409l-12 -59h-346l-56 -265h312l-12 -60h-313l-56 -266h350zM270 814c0 28 21 49 49 49c22 0 37 -19 37 -39c0 -28 -22 -48 -48 -48c-22 0 -38 17 -38 38zM475 814c0 28 21 49 49 49c22 0 37 -19 37 -39c0 -28 -22 -48 -48 -48c-22 0 -38 17 -38 38z
" />
    <glyph glyph-name="Egrave" unicode="&#xc8;" horiz-adv-x="567" 
d="M394 759l-104 119h78l83 -119h-57zM455 0h-415l151 709h409l-12 -59h-346l-56 -265h312l-12 -60h-313l-56 -266h350z" />
    <glyph glyph-name="Iacute" unicode="&#xcd;" horiz-adv-x="266" 
d="M105 0h-65l151 709h64zM418 878l-151 -119h-64l128 119h87z" />
    <glyph glyph-name="Icircumflex" unicode="&#xce;" horiz-adv-x="266" 
d="M105 0h-65l151 709h64zM139 759h-59l134 119h81l85 -119h-53l-78 83z" />
    <glyph glyph-name="Idieresis" unicode="&#xcf;" horiz-adv-x="266" 
d="M105 0h-65l151 709h64zM133 814c0 26 20 47 46 47c21 0 35 -18 35 -37c0 -26 -20 -46 -45 -46c-21 0 -36 16 -36 36zM267 814c0 26 20 47 46 47c21 0 35 -18 35 -37c0 -26 -20 -46 -45 -46c-21 0 -36 16 -36 36z" />
    <glyph glyph-name="Igrave" unicode="&#xcc;" horiz-adv-x="266" 
d="M105 0h-65l151 709h64zM205 759l-104 119h78l83 -119h-57z" />
    <glyph glyph-name="Oacute" unicode="&#xd3;" horiz-adv-x="771" 
d="M643 878l-151 -119h-64l128 119h87zM65 293c0 283 198 429 375 429c167 0 295 -112 295 -306c0 -283 -198 -429 -375 -429c-167 0 -295 111 -295 306zM670 411c0 168 -104 253 -234 253c-159 0 -306 -143 -306 -366c0 -168 104 -253 234 -253c159 0 306 143 306 366z" />
    <glyph glyph-name="Ocircumflex" unicode="&#xd4;" horiz-adv-x="771" 
d="M377 759h-59l134 119h81l85 -119h-53l-78 83zM65 293c0 283 198 429 375 429c167 0 295 -112 295 -306c0 -283 -198 -429 -375 -429c-167 0 -295 111 -295 306zM670 411c0 168 -104 253 -234 253c-159 0 -306 -143 -306 -366c0 -168 104 -253 234 -253
c159 0 306 143 306 366z" />
    <glyph glyph-name="Ograve" unicode="&#xd2;" horiz-adv-x="771" 
d="M451 759l-104 119h78l83 -119h-57zM65 293c0 283 198 429 375 429c167 0 295 -112 295 -306c0 -283 -198 -429 -375 -429c-167 0 -295 111 -295 306zM670 411c0 168 -104 253 -234 253c-159 0 -306 -143 -306 -366c0 -168 104 -253 234 -253c159 0 306 143 306 366z" />
    <glyph glyph-name="Uacute" unicode="&#xda;" horiz-adv-x="666" 
d="M583 878l-151 -119h-64l128 119h87zM599 709h64l-106 -499c-31 -145 -123 -223 -256 -223c-139 0 -221 78 -221 207c0 23 2 48 8 75l94 440h64l-94 -446c-5 -22 -8 -43 -8 -63c0 -91 50 -154 161 -154c102 0 167 63 190 172z" />
    <glyph glyph-name="Ucircumflex" unicode="&#xdb;" horiz-adv-x="666" 
d="M337 759h-59l134 119h81l85 -119h-53l-78 83zM599 709h64l-106 -499c-31 -145 -123 -223 -256 -223c-139 0 -221 78 -221 207c0 23 2 48 8 75l94 440h64l-94 -446c-5 -22 -8 -43 -8 -63c0 -91 50 -154 161 -154c102 0 167 63 190 172z" />
    <glyph glyph-name="Ugrave" unicode="&#xd9;" horiz-adv-x="666" 
d="M419 759l-104 119h78l83 -119h-57zM599 709h64l-106 -499c-31 -145 -123 -223 -256 -223c-139 0 -221 78 -221 207c0 23 2 48 8 75l94 440h64l-94 -446c-5 -22 -8 -43 -8 -63c0 -91 50 -154 161 -154c102 0 167 63 190 172z" />
    <glyph glyph-name="dotlessi" unicode="&#x131;" horiz-adv-x="221" 
d="M80 0h-61l101 477h61z" />
    <glyph glyph-name="circumflex" unicode="&#x2c6;" horiz-adv-x="332" 
d="M123 538h-58l138 138h76l78 -138h-51l-71 99z" />
    <glyph glyph-name="tilde" unicode="&#x2dc;" horiz-adv-x="365" 
d="M113 553h-48c11 75 55 108 104 108c28 0 48 -11 64 -25l16 -15c13 -13 25 -18 41 -18c26 0 45 19 52 56h48c-15 -76 -56 -108 -104 -108c-25 0 -45 9 -61 24l-17 15c-15 13 -25 19 -44 19c-25 0 -44 -19 -51 -56z" />
    <glyph glyph-name="macron" unicode="&#xaf;" horiz-adv-x="305" 
d="M319 581h-254l11 53h254z" />
    <glyph glyph-name="breve" unicode="&#x2d8;" horiz-adv-x="323" 
d="M180 538c-77 0 -115 51 -115 109c0 9 2 22 4 29h45c-1 -5 -2 -12 -2 -17c0 -36 21 -70 75 -70c63 0 100 46 112 87h49c-15 -68 -74 -138 -168 -138z" />
    <glyph glyph-name="dotaccent" unicode="&#x2d9;" horiz-adv-x="134" 
d="M65 601c0 28 23 54 53 54c25 0 41 -21 41 -43c0 -29 -23 -53 -51 -53c-25 0 -43 19 -43 42z" />
    <glyph glyph-name="ring" unicode="&#x2da;" horiz-adv-x="251" 
d="M181 739c55 0 95 -41 95 -94c0 -62 -53 -115 -115 -115c-55 0 -96 41 -96 93c0 68 57 116 116 116zM109 628c0 -31 22 -55 55 -55c35 0 67 30 67 69c0 30 -21 54 -55 54c-37 0 -67 -31 -67 -68z" />
    <glyph glyph-name="cedilla" unicode="&#xb8;" horiz-adv-x="283" 
d="M82 8h57l-77 -65c3 1 7 1 10 1c49 -2 79 -32 79 -69c0 -50 -45 -85 -107 -85c-60 0 -102 33 -118 67l37 23c11 -23 33 -51 81 -51c35 0 59 17 59 46c0 22 -19 39 -56 39c-8 0 -17 -1 -26 -4l-16 31z" />
    <glyph glyph-name="hungarumlaut" unicode="&#x2dd;" horiz-adv-x="318" 
d="M223 677l-112 -140h-46l89 140h69zM343 677l-118 -140h-46l95 140h69z" />
    <glyph glyph-name="ogonek" unicode="&#x2db;" horiz-adv-x="214" 
d="M23 -210c-50 0 -85 29 -85 76c0 74 72 128 121 147l39 -13c-44 -21 -107 -65 -107 -121c0 -29 23 -43 52 -43c11 0 22 1 36 4l-10 -42c-13 -5 -26 -8 -46 -8z" />
    <glyph glyph-name="caron" unicode="&#x2c7;" horiz-adv-x="332" 
d="M299 676h58l-137 -138h-78l-77 138h51l71 -99z" />
    <glyph glyph-name=".null" horiz-adv-x="0" 
 />
    <glyph glyph-name=".null" horiz-adv-x="0" 
 />
    <glyph glyph-name="uni000D" unicode="&#xd;" horiz-adv-x="259" 
 />
    <glyph glyph-name="uni00A0" unicode="&#xa0;" horiz-adv-x="259" 
 />
    <glyph glyph-name="uni00AD" unicode="&#xad;" horiz-adv-x="404" 
d="M327 261h-263l11 52h263z" />
    <glyph glyph-name="Amacron" unicode="&#x100;" horiz-adv-x="658" 
d="M513 0l-38 228h-309l-133 -228h-73l422 709h73l122 -709h-64zM406 640l-206 -353h266zM560 793h-266l11 54h266z" />
    <glyph glyph-name="amacron" unicode="&#x101;" horiz-adv-x="566" 
d="M282 436c-106 0 -187 -110 -187 -238c0 -89 47 -157 137 -157c118 0 185 136 185 243c0 87 -46 152 -135 152zM463 477h61l-73 -345c-7 -31 -11 -61 -11 -94c0 -12 0 -25 2 -38h-58c-1 7 -2 18 -2 34c0 13 0 27 3 45c-32 -44 -88 -90 -164 -90c-120 0 -186 93 -186 205
c0 165 109 295 246 295c108 0 148 -68 161 -111zM458 581h-254l11 53h254z" />
    <glyph glyph-name="Abreve" unicode="&#x102;" horiz-adv-x="658" 
d="M513 0l-38 228h-309l-133 -228h-73l422 709h73l122 -709h-64zM406 640l-206 -353h266zM427 753c-82 0 -122 50 -122 108c0 6 1 14 2 18h49c-1 -4 -1 -7 -1 -10c0 -35 21 -67 77 -67c61 0 96 38 110 77h51c-18 -63 -76 -126 -166 -126z" />
    <glyph glyph-name="abreve" unicode="&#x103;" horiz-adv-x="566" 
d="M282 436c-106 0 -187 -110 -187 -238c0 -89 47 -157 137 -157c118 0 185 136 185 243c0 87 -46 152 -135 152zM463 477h61l-73 -345c-7 -31 -11 -61 -11 -94c0 -12 0 -25 2 -38h-58c-1 7 -2 18 -2 34c0 13 0 27 3 45c-32 -44 -88 -90 -164 -90c-120 0 -186 93 -186 205
c0 165 109 295 246 295c108 0 148 -68 161 -111zM316 538c-77 0 -115 51 -115 109c0 9 2 22 4 29h45c-1 -5 -2 -12 -2 -17c0 -36 21 -70 75 -70c63 0 100 46 112 87h49c-15 -68 -74 -138 -168 -138z" />
    <glyph glyph-name="Aogonek" unicode="&#x104;" horiz-adv-x="658" 
d="M416 -134c0 61 50 110 97 135l-38 227h-309l-133 -228h-73l422 709h73l122 -709c-44 -21 -107 -65 -107 -121c0 -29 23 -43 52 -43c11 0 22 1 36 4l-10 -42c-13 -5 -26 -8 -46 -8c-50 0 -86 29 -86 76zM406 639l-206 -352h266z" />
    <glyph glyph-name="aogonek" unicode="&#x105;" horiz-adv-x="566" 
d="M367 -210c-50 0 -85 29 -85 76c0 65 55 115 101 138c-1 8 -1 17 -1 30s0 27 3 45c-32 -44 -88 -90 -164 -90c-120 0 -186 93 -186 205c0 165 109 295 246 295c108 0 148 -68 161 -111l21 99h61l-73 -345c-7 -31 -11 -61 -11 -94c0 -12 0 -25 2 -38
c-44 -21 -107 -65 -107 -121c0 -29 23 -43 52 -43c11 0 22 1 36 4l-10 -42c-13 -5 -26 -8 -46 -8zM282 436c-106 0 -187 -110 -187 -238c0 -89 47 -157 137 -157c118 0 185 136 185 243c0 87 -46 152 -135 152z" />
    <glyph glyph-name="Cacute" unicode="&#x106;" horiz-adv-x="725" 
d="M442 722c166 0 262 -100 282 -223l-59 -18c-17 105 -98 183 -229 183c-159 0 -306 -142 -306 -365c0 -165 100 -254 234 -254c115 0 205 63 259 179l53 -26c-58 -129 -173 -211 -318 -211c-164 0 -293 116 -293 308c0 281 198 427 377 427zM655 878l-151 -119h-64
l128 119h87z" />
    <glyph glyph-name="cacute" unicode="&#x107;" horiz-adv-x="527" 
d="M480 677l-155 -140h-55l124 140h86zM487 342l-55 -20c-14 64 -62 114 -141 114c-97 0 -194 -88 -194 -233c0 -97 61 -162 153 -162c79 0 132 51 162 112l50 -24c-39 -80 -114 -142 -216 -142c-129 0 -211 92 -211 215c0 169 123 288 260 288c120 0 176 -76 192 -148z" />
    <glyph glyph-name="Ccircumflex" unicode="&#x108;" horiz-adv-x="725" 
d="M380 759h-59l134 119h81l85 -119h-53l-78 83zM442 722c166 0 262 -100 282 -223l-59 -18c-17 105 -98 183 -229 183c-159 0 -306 -142 -306 -365c0 -165 100 -254 234 -254c115 0 205 63 259 179l53 -26c-58 -129 -173 -211 -318 -211c-164 0 -293 116 -293 308
c0 281 198 427 377 427z" />
    <glyph glyph-name="ccircumflex" unicode="&#x109;" horiz-adv-x="527" 
d="M223 538h-58l138 138h76l78 -138h-51l-71 99zM487 342l-55 -20c-14 64 -62 114 -141 114c-97 0 -194 -88 -194 -233c0 -97 61 -162 153 -162c79 0 132 51 162 112l50 -24c-39 -80 -114 -142 -216 -142c-129 0 -211 92 -211 215c0 169 123 288 260 288
c120 0 176 -76 192 -148z" />
    <glyph glyph-name="Cdotaccent" unicode="&#x10a;" horiz-adv-x="725" 
d="M442 722c166 0 262 -100 282 -223l-59 -18c-17 105 -98 183 -229 183c-159 0 -306 -142 -306 -365c0 -165 100 -254 234 -254c115 0 205 63 259 179l53 -26c-58 -129 -173 -211 -318 -211c-164 0 -293 116 -293 308c0 281 198 427 377 427zM432 813c0 29 23 54 53 54
c25 0 41 -21 41 -43c0 -29 -23 -53 -51 -53c-26 0 -43 19 -43 42z" />
    <glyph glyph-name="cdotaccent" unicode="&#x10b;" horiz-adv-x="527" 
d="M487 342l-55 -20c-14 64 -62 114 -141 114c-97 0 -194 -88 -194 -233c0 -97 61 -162 153 -162c79 0 132 51 162 112l50 -24c-39 -80 -114 -142 -216 -142c-129 0 -211 92 -211 215c0 169 123 288 260 288c120 0 176 -76 192 -148zM275 601c0 28 23 54 53 54
c25 0 41 -21 41 -43c0 -29 -23 -53 -51 -53c-25 0 -43 19 -43 42z" />
    <glyph glyph-name="Ccaron" unicode="&#x10c;" horiz-adv-x="725" 
d="M580 878h62l-137 -119h-81l-82 119h52l76 -83zM442 722c166 0 262 -100 282 -223l-59 -18c-17 105 -98 183 -229 183c-159 0 -306 -142 -306 -365c0 -165 100 -254 234 -254c115 0 205 63 259 179l53 -26c-58 -129 -173 -211 -318 -211c-164 0 -293 116 -293 308
c0 281 198 427 377 427z" />
    <glyph glyph-name="ccaron" unicode="&#x10d;" horiz-adv-x="527" 
d="M443 676h58l-137 -138h-78l-77 138h51l71 -99zM487 342l-55 -20c-14 64 -62 114 -141 114c-97 0 -194 -88 -194 -233c0 -97 61 -162 153 -162c79 0 132 51 162 112l50 -24c-39 -80 -114 -142 -216 -142c-129 0 -211 92 -211 215c0 169 123 288 260 288
c120 0 176 -76 192 -148z" />
    <glyph glyph-name="Dcaron" unicode="&#x10e;" horiz-adv-x="697" 
d="M536 878h62l-137 -119h-81l-82 119h52l76 -83zM117 57h144c158 0 339 128 339 375c0 146 -96 220 -229 220h-128zM260 0h-220l151 709h189c167 0 285 -103 285 -274c0 -252 -177 -435 -405 -435z" />
    <glyph glyph-name="dcaron" unicode="&#x10f;" horiz-adv-x="564" 
d="M732 722l-96 -180h-48l75 180h69zM282 436c-106 0 -187 -112 -187 -239c0 -88 49 -155 136 -155c113 0 186 123 186 242c0 87 -46 152 -135 152zM383 79c-29 -44 -86 -90 -162 -90c-119 0 -186 89 -186 205c0 163 109 295 246 295c107 0 147 -68 160 -111l73 344h61
l-125 -590c-9 -41 -12 -75 -12 -96c0 -19 1 -26 2 -36h-58c-1 8 -2 18 -2 34c0 13 0 26 3 45z" />
    <glyph glyph-name="Dcroat" unicode="&#x110;" horiz-adv-x="698" 
d="M261 0h-220l72 337h-77l11 54h77l68 318h189c167 0 285 -103 285 -274c0 -252 -177 -435 -405 -435zM118 57h144c158 0 339 128 339 375c0 146 -96 220 -229 220h-128l-55 -261h149l-11 -54h-150z" />
    <glyph glyph-name="dcroat" unicode="&#x111;" horiz-adv-x="564" 
d="M383 79c-29 -44 -86 -90 -162 -90c-119 0 -186 89 -186 205c0 163 109 295 246 295c107 0 147 -68 160 -111l40 190h-130l11 50h130l22 104h61l-22 -104h94l-10 -50h-95l-92 -436c-9 -41 -12 -75 -12 -96c0 -19 1 -26 2 -36h-58c-1 8 -2 18 -2 34c0 13 0 26 3 45z
M282 436c-106 0 -187 -112 -187 -239c0 -88 49 -155 136 -155c113 0 186 123 186 242c0 87 -46 152 -135 152z" />
    <glyph glyph-name="Emacron" unicode="&#x112;" horiz-adv-x="567" 
d="M455 0h-415l151 709h409l-12 -59h-346l-56 -265h312l-12 -60h-313l-56 -266h350zM550 793h-266l11 54h266z" />
    <glyph glyph-name="emacron" unicode="&#x113;" horiz-adv-x="532" 
d="M107 277h314c1 6 2 14 2 22c0 73 -41 137 -135 137c-91 0 -159 -74 -181 -159zM475 226h-378c-1 -10 -2 -20 -2 -30c0 -94 64 -155 149 -155c77 0 133 47 162 99l46 -31c-38 -69 -114 -122 -209 -122c-118 0 -208 77 -208 212c0 178 128 291 255 291
c129 0 194 -84 194 -194c0 -26 -4 -51 -9 -70zM453 581h-254l11 53h254z" />
    <glyph glyph-name="Ebreve" unicode="&#x114;" horiz-adv-x="567" 
d="M455 0h-415l151 709h409l-12 -59h-346l-56 -265h312l-12 -60h-313l-56 -266h350zM398 755c-82 0 -122 50 -122 108c0 6 1 14 2 18h49c-1 -4 -1 -7 -1 -10c0 -35 21 -67 77 -67c61 0 96 38 110 77h51c-18 -63 -76 -126 -166 -126z" />
    <glyph glyph-name="ebreve" unicode="&#x115;" horiz-adv-x="532" 
d="M107 277h314c1 6 2 14 2 22c0 73 -41 137 -135 137c-91 0 -159 -74 -181 -159zM475 226h-378c-1 -10 -2 -20 -2 -30c0 -94 64 -155 149 -155c77 0 133 47 162 99l46 -31c-38 -69 -114 -122 -209 -122c-118 0 -208 77 -208 212c0 178 128 291 255 291
c129 0 194 -84 194 -194c0 -26 -4 -51 -9 -70zM322 538c-77 0 -115 51 -115 109c0 9 2 22 4 29h45c-1 -5 -2 -12 -2 -17c0 -36 21 -70 75 -70c63 0 100 46 112 87h49c-15 -68 -74 -138 -168 -138z" />
    <glyph glyph-name="Edotaccent" unicode="&#x116;" horiz-adv-x="567" 
d="M374 813c0 29 23 54 53 54c25 0 41 -21 41 -43c0 -29 -23 -53 -51 -53c-26 0 -43 19 -43 42zM455 0h-415l151 709h409l-12 -59h-346l-56 -265h312l-12 -60h-313l-56 -266h350z" />
    <glyph glyph-name="edotaccent" unicode="&#x117;" horiz-adv-x="532" 
d="M107 277h314c1 6 2 14 2 22c0 73 -41 137 -135 137c-91 0 -159 -74 -181 -159zM475 226h-378c-1 -10 -2 -20 -2 -30c0 -94 64 -155 149 -155c77 0 133 47 162 99l46 -31c-38 -69 -114 -122 -209 -122c-118 0 -208 77 -208 212c0 178 128 291 255 291
c129 0 194 -84 194 -194c0 -26 -4 -51 -9 -70zM279 601c0 28 23 54 53 54c25 0 41 -21 41 -43c0 -29 -23 -53 -51 -53c-25 0 -43 19 -43 42z" />
    <glyph glyph-name="Eogonek" unicode="&#x118;" horiz-adv-x="567" 
d="M455 0c-44 -21 -107 -65 -107 -121c0 -29 23 -43 52 -43c11 0 22 1 36 4l-10 -42c-13 -5 -26 -8 -46 -8c-50 0 -86 29 -86 76c0 61 50 109 95 134h-349l151 709h409l-12 -59h-346l-56 -265h312l-12 -60h-313l-56 -266h350z" />
    <glyph glyph-name="eogonek" unicode="&#x119;" horiz-adv-x="532" 
d="M107 277h314c1 6 2 14 2 22c0 73 -41 137 -135 137c-91 0 -159 -74 -181 -159zM35 199c0 178 128 291 255 291c129 0 194 -84 194 -194c0 -26 -4 -51 -9 -70h-378c-1 -10 -2 -20 -2 -30c0 -94 64 -155 149 -155c77 0 133 47 162 99l46 -31c-31 -56 -87 -99 -156 -116
c-44 -11 -102 -61 -102 -114c0 -29 23 -43 52 -43c11 0 22 1 36 4l-10 -42c-13 -5 -26 -8 -46 -8c-50 0 -85 29 -85 76c0 53 37 96 76 123c-105 10 -182 85 -182 210z" />
    <glyph glyph-name="Ecaron" unicode="&#x11a;" horiz-adv-x="567" 
d="M523 878h62l-137 -119h-81l-82 119h52l76 -83zM455 0h-415l151 709h409l-12 -59h-346l-56 -265h312l-12 -60h-313l-56 -266h350z" />
    <glyph glyph-name="ecaron" unicode="&#x11b;" horiz-adv-x="532" 
d="M426 676h58l-137 -138h-78l-77 138h51l71 -99zM107 277h314c1 6 2 14 2 22c0 73 -41 137 -135 137c-91 0 -159 -74 -181 -159zM475 226h-378c-1 -10 -2 -20 -2 -30c0 -94 64 -155 149 -155c77 0 133 47 162 99l46 -31c-38 -69 -114 -122 -209 -122
c-118 0 -208 77 -208 212c0 178 128 291 255 291c129 0 194 -84 194 -194c0 -26 -4 -51 -9 -70z" />
    <glyph glyph-name="Gcircumflex" unicode="&#x11c;" horiz-adv-x="754" 
d="M378 759h-59l134 119h81l85 -119h-53l-78 83zM438 664c-158 0 -307 -135 -307 -363c0 -167 107 -256 236 -256c145 0 244 110 265 230h-259l12 58h321l-70 -333h-50l17 111c-42 -60 -124 -124 -244 -124c-152 0 -293 111 -293 310c0 284 201 425 379 425
c156 0 255 -94 281 -218l-60 -21c-23 106 -103 181 -228 181z" />
    <glyph glyph-name="gcircumflex" unicode="&#x11d;" horiz-adv-x="561" 
d="M231 538h-58l138 138h76l78 -138h-51l-71 99zM419 291c0 73 -44 143 -138 143c-97 0 -180 -87 -180 -208c0 -85 47 -148 141 -148c108 0 177 105 177 213zM-14 -28l58 13c1 -76 50 -135 143 -135c111 0 158 81 178 177l16 77c-25 -40 -77 -78 -150 -78
c-120 0 -191 85 -191 197c0 149 107 265 240 265c95 0 144 -53 160 -105l20 94h61l-95 -451c-23 -109 -80 -229 -241 -229c-124 0 -198 79 -199 175z" />
    <glyph glyph-name="Gbreve" unicode="&#x11e;" horiz-adv-x="754" 
d="M476 754c-82 0 -122 50 -122 108c0 6 1 14 2 18h49c-1 -4 -1 -7 -1 -10c0 -35 21 -67 77 -67c61 0 96 38 110 77h51c-18 -63 -76 -126 -166 -126zM438 664c-158 0 -307 -135 -307 -363c0 -167 107 -256 236 -256c145 0 244 110 265 230h-259l12 58h321l-70 -333h-50
l17 111c-42 -60 -124 -124 -244 -124c-152 0 -293 111 -293 310c0 284 201 425 379 425c156 0 255 -94 281 -218l-60 -21c-23 106 -103 181 -228 181z" />
    <glyph glyph-name="gbreve" unicode="&#x11f;" horiz-adv-x="561" 
d="M419 291c0 73 -44 143 -138 143c-97 0 -180 -87 -180 -208c0 -85 47 -148 141 -148c108 0 177 105 177 213zM-14 -28l58 13c1 -76 50 -135 143 -135c111 0 158 81 178 177l16 77c-25 -40 -77 -78 -150 -78c-120 0 -191 85 -191 197c0 149 107 265 240 265
c95 0 144 -53 160 -105l20 94h61l-95 -451c-23 -109 -80 -229 -241 -229c-124 0 -198 79 -199 175zM325 538c-77 0 -115 51 -115 109c0 9 2 22 4 29h45c-1 -5 -2 -12 -2 -17c0 -36 21 -70 75 -70c63 0 100 46 112 87h49c-15 -68 -74 -138 -168 -138z" />
    <glyph glyph-name="Gdotaccent" unicode="&#x120;" horiz-adv-x="754" 
d="M436 813c0 29 23 54 53 54c25 0 41 -21 41 -43c0 -29 -23 -53 -51 -53c-26 0 -43 19 -43 42zM438 664c-158 0 -307 -135 -307 -363c0 -167 107 -256 236 -256c145 0 244 110 265 230h-259l12 58h321l-70 -333h-50l17 111c-42 -60 -124 -124 -244 -124
c-152 0 -293 111 -293 310c0 284 201 425 379 425c156 0 255 -94 281 -218l-60 -21c-23 106 -103 181 -228 181z" />
    <glyph glyph-name="gdotaccent" unicode="&#x121;" horiz-adv-x="561" 
d="M419 291c0 73 -44 143 -138 143c-97 0 -180 -87 -180 -208c0 -85 47 -148 141 -148c108 0 177 105 177 213zM-14 -28l58 13c1 -76 50 -135 143 -135c111 0 158 81 178 177l16 77c-25 -40 -77 -78 -150 -78c-120 0 -191 85 -191 197c0 149 107 265 240 265
c95 0 144 -53 160 -105l20 94h61l-95 -451c-23 -109 -80 -229 -241 -229c-124 0 -198 79 -199 175zM291 601c0 28 23 54 53 54c25 0 41 -21 41 -43c0 -29 -23 -53 -51 -53c-25 0 -43 19 -43 42z" />
    <glyph glyph-name="Gcommaaccent" unicode="&#x122;" horiz-adv-x="754" 
d="M252 -203l6 31c32 1 64 18 74 51c-3 -2 -10 -4 -16 -4c-23 0 -38 16 -38 35c0 27 20 48 48 48c22 0 46 -13 46 -47c0 -71 -62 -114 -120 -114zM438 664c-158 0 -307 -135 -307 -363c0 -167 107 -256 236 -256c145 0 244 110 265 230h-259l12 58h321l-70 -333h-50l17 111
c-42 -60 -124 -124 -244 -124c-152 0 -293 111 -293 310c0 284 201 425 379 425c156 0 255 -94 281 -218l-60 -21c-23 106 -103 181 -228 181z" />
    <glyph glyph-name="gcommaaccent" unicode="&#x123;" horiz-adv-x="561" 
d="M392 694l-6 -31c-32 -1 -64 -18 -74 -51c3 2 10 4 16 4c23 0 38 -16 38 -35c0 -27 -20 -48 -48 -48c-22 0 -46 13 -46 47c0 71 62 114 120 114zM419 291c0 73 -44 143 -138 143c-97 0 -180 -87 -180 -208c0 -85 47 -148 141 -148c108 0 177 105 177 213zM-14 -28l58 13
c1 -76 50 -135 143 -135c111 0 158 81 178 177l16 77c-25 -40 -77 -78 -150 -78c-120 0 -191 85 -191 197c0 149 107 265 240 265c95 0 144 -53 160 -105l20 94h61l-95 -451c-23 -109 -80 -229 -241 -229c-124 0 -198 79 -199 175z" />
    <glyph glyph-name="Hcircumflex" unicode="&#x124;" horiz-adv-x="714" 
d="M553 0h-65l71 331h-384l-70 -331h-65l151 709h64l-68 -319h384l68 319h64zM364 759h-59l134 119h81l85 -119h-53l-78 83z" />
    <glyph glyph-name="hcircumflex" unicode="&#x125;" horiz-adv-x="531" 
d="M396 0h-61l62 293c3 12 4 25 4 37c0 61 -34 106 -109 106c-76 0 -135 -70 -153 -152l-60 -284h-61l153 722h61l-66 -308c29 41 82 75 148 75c99 0 150 -63 150 -145c0 -14 -2 -29 -5 -45zM269 763h-59l134 119h81l85 -119h-53l-78 83z" />
    <glyph glyph-name="Hbar" unicode="&#x126;" horiz-adv-x="714" 
d="M553 0h-65l71 331h-384l-70 -331h-65l112 525h-71l10 49h71l29 135h64l-29 -135h384l29 135h64l-29 -135h73l-10 -49h-73zM187 390h384l29 135h-384z" />
    <glyph glyph-name="hbar" unicode="&#x127;" horiz-adv-x="532" 
d="M397 0h-61l62 293c3 12 4 25 4 37c0 61 -34 106 -109 106c-76 0 -135 -70 -153 -152l-60 -284h-61l120 569h-87l11 52h87l22 101h61l-22 -101h137l-11 -52h-137l-33 -155c29 41 82 75 148 75c99 0 150 -63 150 -145c0 -14 -2 -29 -5 -45z" />
    <glyph glyph-name="Itilde" unicode="&#x128;" horiz-adv-x="266" 
d="M105 0h-65l151 709h64zM406 872c-14 -77 -57 -109 -105 -109c-25 0 -46 10 -63 25l-16 14c-15 13 -26 19 -43 19c-25 0 -44 -18 -51 -55h-47c11 74 56 108 104 108c27 0 48 -11 65 -26l16 -14c14 -13 24 -19 41 -19c26 0 44 19 52 57h47z" />
    <glyph glyph-name="itilde" unicode="&#x129;" horiz-adv-x="220" 
d="M80 0h-61l101 477h61zM56 553h-48c11 75 55 108 104 108c28 0 48 -11 64 -25l16 -15c13 -13 25 -18 41 -18c26 0 45 19 52 56h48c-15 -76 -56 -108 -104 -108c-25 0 -45 9 -61 24l-17 15c-15 13 -25 19 -44 19c-25 0 -44 -19 -51 -56z" />
    <glyph glyph-name="Imacron" unicode="&#x12a;" horiz-adv-x="266" 
d="M105 0h-65l151 709h64zM369 793h-266l11 54h266z" />
    <glyph glyph-name="imacron" unicode="&#x12b;" horiz-adv-x="220" 
d="M80 0h-61l101 477h61zM298 581h-254l11 53h254z" />
    <glyph glyph-name="Ibreve" unicode="&#x12c;" horiz-adv-x="266" 
d="M105 0h-65l151 709h64zM237 754c-82 0 -122 50 -122 108c0 6 1 14 2 18h49c-1 -4 -1 -7 -1 -10c0 -35 21 -67 77 -67c61 0 96 38 110 77h51c-18 -63 -76 -126 -166 -126z" />
    <glyph glyph-name="ibreve" unicode="&#x12d;" horiz-adv-x="220" 
d="M80 0h-61l101 477h61zM160 538c-77 0 -115 51 -115 109c0 9 2 22 4 29h45c-1 -5 -2 -12 -2 -17c0 -36 21 -70 75 -70c63 0 100 46 112 87h49c-15 -68 -74 -138 -168 -138z" />
    <glyph glyph-name="Iogonek" unicode="&#x12e;" horiz-adv-x="266" 
d="M-56 -134c0 61 51 110 96 135l151 708h64l-150 -709c-44 -21 -107 -65 -107 -121c0 -29 22 -43 51 -43c12 0 23 1 37 4l-10 -42c-13 -5 -26 -8 -46 -8c-51 0 -86 29 -86 76z" />
    <glyph glyph-name="iogonek" unicode="&#x12f;" horiz-adv-x="221" 
d="M5 -210c-50 0 -85 29 -85 76c0 64 54 113 99 137l101 474h61l-101 -477c-44 -21 -107 -65 -107 -121c0 -29 23 -43 52 -43c11 0 22 1 36 4l-10 -42c-13 -5 -26 -8 -46 -8zM142 670c0 31 26 56 55 56c26 0 44 -20 44 -46c0 -29 -25 -54 -54 -54c-26 0 -45 19 -45 44z" />
    <glyph glyph-name="Idotaccent" unicode="&#x130;" horiz-adv-x="266" 
d="M105 0h-65l151 709h64zM198 813c0 29 23 54 53 54c25 0 41 -21 41 -43c0 -29 -23 -53 -51 -53c-26 0 -43 19 -43 42z" />
    <glyph glyph-name="IJ" unicode="&#x132;" horiz-adv-x="585" 
d="M167 338h-64l79 371h65zM517 709h64l-110 -519c-26 -124 -99 -203 -213 -203c-124 0 -184 78 -184 182c0 20 2 41 7 64l5 24l66 10l-9 -39c-5 -21 -7 -38 -7 -56c0 -71 37 -127 125 -127c77 0 128 57 147 146z" />
    <glyph glyph-name="ij" unicode="&#x133;" horiz-adv-x="442" 
d="M142 670c0 31 26 56 55 56c26 0 44 -20 44 -46c0 -29 -25 -54 -54 -54c-26 0 -45 19 -45 44zM80 0h-61l101 477h61zM226 -65l115 542h61l-117 -554c-18 -84 -70 -121 -137 -121c-31 0 -54 7 -66 16l11 49c11 -6 30 -11 50 -11c46 0 71 23 83 79zM363 670
c0 31 26 56 55 56c26 0 44 -20 44 -46c0 -29 -25 -54 -54 -54c-26 0 -45 19 -45 44z" />
    <glyph glyph-name="Jcircumflex" unicode="&#x134;" horiz-adv-x="523" 
d="M398 759h-59l134 119h81l85 -119h-53l-78 83zM455 709h64l-110 -519c-26 -124 -100 -203 -214 -203c-122 0 -182 78 -182 180c0 30 3 61 13 99l65 10c-11 -45 -16 -72 -16 -103c0 -70 34 -128 123 -128c77 0 128 57 147 147z" />
    <glyph glyph-name="jcircumflex" unicode="&#x135;" horiz-adv-x="220" 
d="M5 -65l115 542h61l-117 -554c-18 -84 -70 -121 -137 -121c-31 0 -54 7 -66 16l11 49c11 -6 30 -11 50 -11c46 0 71 23 83 79zM74 538h-58l138 138h76l78 -138h-51l-71 99z" />
    <glyph glyph-name="Kcommaaccent" unicode="&#x136;" horiz-adv-x="634" 
d="M493 0l-190 355l-151 -133l-47 -222h-65l151 709h64l-83 -392l444 392h90l-356 -313l216 -396h-73zM220 -203l6 31c32 1 64 18 74 51c-3 -2 -10 -4 -16 -4c-23 0 -38 16 -38 35c0 27 20 48 48 48c22 0 46 -13 46 -47c0 -71 -62 -114 -120 -114z" />
    <glyph glyph-name="kcommaaccent" unicode="&#x137;" horiz-adv-x="496" 
d="M352 0l-126 245l-116 -95l-32 -150h-60l153 722h61l-104 -486l293 241h89l-238 -194l149 -283h-69zM125 -203l6 31c32 1 64 18 74 51c-3 -2 -10 -4 -16 -4c-23 0 -38 16 -38 35c0 27 20 48 48 48c22 0 46 -13 46 -47c0 -71 -62 -114 -120 -114z" />
    <glyph glyph-name="kgreenlandic" unicode="&#x138;" horiz-adv-x="497" 
d="M120 477h61l-52 -241l293 241h89l-238 -194l149 -283h-69l-126 245l-116 -95l-32 -150h-60z" />
    <glyph glyph-name="Lacute" unicode="&#x139;" horiz-adv-x="530" 
d="M416 878l-151 -119h-64l128 119h87zM454 0h-414l151 709h64l-138 -650h350z" />
    <glyph glyph-name="lacute" unicode="&#x13a;" horiz-adv-x="220" 
d="M389 882l-151 -119h-64l128 119h87zM79 0h-61l153 722h61z" />
    <glyph glyph-name="Lcommaaccent" unicode="&#x13b;" horiz-adv-x="530" 
d="M454 0h-414l151 709h64l-138 -650h350zM174 -203l6 31c32 1 64 18 74 51c-3 -2 -10 -4 -16 -4c-23 0 -38 16 -38 35c0 27 20 48 48 48c22 0 46 -13 46 -47c0 -71 -62 -114 -120 -114z" />
    <glyph glyph-name="lcommaaccent" unicode="&#x13c;" horiz-adv-x="220" 
d="M79 0h-61l153 722h61zM-45 -203l6 31c32 1 64 18 74 51c-3 -2 -10 -4 -16 -4c-23 0 -38 16 -38 35c0 27 20 48 48 48c22 0 46 -13 46 -47c0 -71 -62 -114 -120 -114z" />
    <glyph glyph-name="Lcaron" unicode="&#x13d;" horiz-adv-x="530" 
d="M484 759l-99 -185h-49l76 185h72zM454 0h-414l151 709h64l-138 -650h350z" />
    <glyph glyph-name="lcaron" unicode="&#x13e;" horiz-adv-x="219" 
d="M388 722l-96 -180h-48l75 180h69zM79 0h-61l153 722h61z" />
    <glyph glyph-name="Ldot" unicode="&#x13f;" horiz-adv-x="530" 
d="M454 0h-414l151 709h64l-138 -650h350zM303 354c0 28 23 54 53 54c25 0 41 -21 41 -43c0 -29 -23 -53 -51 -53c-25 0 -43 19 -43 42z" />
    <glyph glyph-name="ldot" unicode="&#x140;" horiz-adv-x="271" 
d="M79 0h-61l153 722h61zM198 305c0 28 23 54 53 54c25 0 41 -21 41 -43c0 -29 -23 -53 -51 -53c-25 0 -43 19 -43 42z" />
    <glyph glyph-name="Nacute" unicode="&#x143;" horiz-adv-x="727" 
d="M616 878l-151 -119h-64l128 119h87zM566 0h-67l-262 624l-132 -624h-65l151 709h78l254 -609l129 609h64z" />
    <glyph glyph-name="nacute" unicode="&#x144;" horiz-adv-x="532" 
d="M482 677l-155 -140h-55l124 140h86zM397 0h-61l60 282c4 18 6 36 6 50c0 62 -35 104 -108 104c-77 0 -136 -70 -154 -152l-60 -284h-61l84 395c9 40 11 73 11 82h59c0 -10 -2 -41 -8 -68c29 45 86 80 152 80c91 0 147 -59 147 -145c0 -14 -2 -35 -6 -55z" />
    <glyph glyph-name="Ncommaaccent" unicode="&#x145;" horiz-adv-x="727" 
d="M251 -203l6 31c32 1 64 18 74 51c-3 -2 -10 -4 -16 -4c-23 0 -38 16 -38 35c0 27 20 48 48 48c22 0 46 -13 46 -47c0 -71 -62 -114 -120 -114zM566 0h-67l-262 624l-132 -624h-65l151 709h78l254 -609l129 609h64z" />
    <glyph glyph-name="ncommaaccent" unicode="&#x146;" horiz-adv-x="532" 
d="M127 -203l6 31c32 1 64 18 74 51c-3 -2 -10 -4 -16 -4c-23 0 -38 16 -38 35c0 27 20 48 48 48c22 0 46 -13 46 -47c0 -71 -62 -114 -120 -114zM397 0h-61l60 282c4 18 6 36 6 50c0 62 -35 104 -108 104c-77 0 -136 -70 -154 -152l-60 -284h-61l84 395c9 40 11 73 11 82
h59c0 -10 -2 -41 -8 -68c29 45 86 80 152 80c91 0 147 -59 147 -145c0 -14 -2 -35 -6 -55z" />
    <glyph glyph-name="Ncaron" unicode="&#x147;" horiz-adv-x="727" 
d="M571 878h62l-137 -119h-81l-82 119h52l76 -83zM566 0h-67l-262 624l-132 -624h-65l151 709h78l254 -609l129 609h64z" />
    <glyph glyph-name="ncaron" unicode="&#x148;" horiz-adv-x="532" 
d="M421 676h58l-137 -138h-78l-77 138h51l71 -99zM397 0h-61l60 282c4 18 6 36 6 50c0 62 -35 104 -108 104c-77 0 -136 -70 -154 -152l-60 -284h-61l84 395c9 40 11 73 11 82h59c0 -10 -2 -41 -8 -68c29 45 86 80 152 80c91 0 147 -59 147 -145c0 -14 -2 -35 -6 -55z" />
    <glyph glyph-name="napostrophe" unicode="&#x149;" horiz-adv-x="532" 
d="M131 536l6 31c32 1 64 18 74 51c-3 -2 -10 -4 -16 -4c-23 0 -38 16 -38 35c0 27 20 48 48 48c22 0 46 -13 46 -47c0 -71 -62 -114 -120 -114zM397 0h-61l60 282c4 18 6 36 6 50c0 62 -35 104 -108 104c-77 0 -136 -70 -154 -152l-60 -284h-61l84 395c9 40 11 73 11 82h59
c0 -10 -2 -41 -8 -68c29 45 86 80 152 80c91 0 147 -59 147 -145c0 -14 -2 -35 -6 -55z" />
    <glyph glyph-name="Eng" unicode="&#x14a;" horiz-adv-x="727" 
d="M716 709l-167 -791c-18 -85 -68 -121 -136 -121c-30 0 -53 7 -65 16l10 49c13 -6 31 -11 51 -11c45 0 71 23 82 79l12 60l-266 634l-132 -624h-65l151 709h78l254 -609l129 609h64z" />
    <glyph glyph-name="eng" unicode="&#x14b;" horiz-adv-x="532" 
d="M458 289l-77 -366c-18 -84 -70 -121 -137 -121c-31 0 -54 7 -66 16l11 49c11 -6 30 -11 50 -11c46 0 71 23 83 79l74 347c4 18 6 36 6 50c0 62 -35 104 -108 104c-77 0 -136 -70 -154 -152l-60 -284h-61l84 395c9 40 11 73 11 82h59c0 -10 -2 -41 -8 -68
c29 45 86 80 152 80c91 0 147 -59 147 -145c0 -14 -2 -35 -6 -55z" />
    <glyph glyph-name="Omacron" unicode="&#x14c;" horiz-adv-x="771" 
d="M600 793h-266l11 54h266zM65 293c0 283 198 429 375 429c167 0 295 -112 295 -306c0 -283 -198 -429 -375 -429c-167 0 -295 111 -295 306zM670 411c0 168 -104 253 -234 253c-159 0 -306 -143 -306 -366c0 -168 104 -253 234 -253c159 0 306 143 306 366z" />
    <glyph glyph-name="omacron" unicode="&#x14d;" horiz-adv-x="549" 
d="M444 581h-254l11 53h254zM288 436c-92 0 -192 -84 -192 -233c0 -98 60 -162 144 -162c92 0 192 86 192 234c0 98 -58 161 -144 161zM493 277c0 -174 -122 -290 -256 -290c-123 0 -202 90 -202 213c0 175 124 290 257 290c125 0 201 -90 201 -213z" />
    <glyph glyph-name="Obreve" unicode="&#x14e;" horiz-adv-x="771" 
d="M478 754c-82 0 -122 50 -122 108c0 6 1 14 2 18h49c-1 -4 -1 -7 -1 -10c0 -35 21 -67 77 -67c61 0 96 38 110 77h51c-18 -63 -76 -126 -166 -126zM65 293c0 283 198 429 375 429c167 0 295 -112 295 -306c0 -283 -198 -429 -375 -429c-167 0 -295 111 -295 306zM670 411
c0 168 -104 253 -234 253c-159 0 -306 -143 -306 -366c0 -168 104 -253 234 -253c159 0 306 143 306 366z" />
    <glyph glyph-name="obreve" unicode="&#x14f;" horiz-adv-x="549" 
d="M288 436c-92 0 -192 -84 -192 -233c0 -98 60 -162 144 -162c92 0 192 86 192 234c0 98 -58 161 -144 161zM493 277c0 -174 -122 -290 -256 -290c-123 0 -202 90 -202 213c0 175 124 290 257 290c125 0 201 -90 201 -213zM313 538c-77 0 -115 51 -115 109c0 9 2 22 4 29
h45c-1 -5 -2 -12 -2 -17c0 -36 21 -70 75 -70c63 0 100 46 112 87h49c-15 -68 -74 -138 -168 -138z" />
    <glyph glyph-name="Ohungarumlaut" unicode="&#x150;" horiz-adv-x="771" 
d="M527 878l-105 -119h-49l82 119h72zM657 878l-111 -119h-49l87 119h73zM65 293c0 283 198 429 375 429c167 0 295 -112 295 -306c0 -283 -198 -429 -375 -429c-167 0 -295 111 -295 306zM670 411c0 168 -104 253 -234 253c-159 0 -306 -143 -306 -366
c0 -168 104 -253 234 -253c159 0 306 143 306 366z" />
    <glyph glyph-name="ohungarumlaut" unicode="&#x151;" horiz-adv-x="549" 
d="M387 677l-112 -140h-46l89 140h69zM507 677l-118 -140h-46l95 140h69zM288 436c-92 0 -192 -84 -192 -233c0 -98 60 -162 144 -162c92 0 192 86 192 234c0 98 -58 161 -144 161zM493 277c0 -174 -122 -290 -256 -290c-123 0 -202 90 -202 213c0 175 124 290 257 290
c125 0 201 -90 201 -213z" />
    <glyph glyph-name="Racute" unicode="&#x154;" horiz-adv-x="608" 
d="M552 878l-151 -119h-64l128 119h87zM441 0l-116 308h-155l-65 -308h-65l151 709h219c115 0 185 -73 185 -169c0 -123 -87 -207 -206 -225l120 -315h-68zM182 365h152c113 0 196 66 196 172c0 69 -47 115 -134 115h-153z" />
    <glyph glyph-name="racute" unicode="&#x155;" horiz-adv-x="337" 
d="M412 677l-155 -140h-55l124 140h86zM346 411c-13 4 -30 8 -50 8c-73 0 -137 -50 -160 -157l-56 -262h-61l84 395c8 40 9 71 9 82h61c0 -16 -2 -48 -7 -73c37 56 93 79 148 79c20 0 36 -4 45 -8z" />
    <glyph glyph-name="Rcommaaccent" unicode="&#x156;" horiz-adv-x="608" 
d="M441 0l-116 308h-155l-65 -308h-65l151 709h219c115 0 185 -73 185 -169c0 -123 -87 -207 -206 -225l120 -315h-68zM182 365h152c113 0 196 66 196 172c0 69 -47 115 -134 115h-153zM194 -203l6 31c32 1 64 18 74 51c-3 -2 -10 -4 -16 -4c-23 0 -38 16 -38 35
c0 27 20 48 48 48c22 0 46 -13 46 -47c0 -71 -62 -114 -120 -114z" />
    <glyph glyph-name="rcommaaccent" unicode="&#x157;" horiz-adv-x="337" 
d="M346 411c-13 4 -30 8 -50 8c-73 0 -137 -50 -160 -157l-56 -262h-61l84 395c8 40 9 71 9 82h61c0 -16 -2 -48 -7 -73c37 56 93 79 148 79c20 0 36 -4 45 -8zM-40 -203l6 31c32 1 64 18 74 51c-3 -2 -10 -4 -16 -4c-23 0 -38 16 -38 35c0 27 20 48 48 48
c22 0 46 -13 46 -47c0 -71 -62 -114 -120 -114z" />
    <glyph glyph-name="Rcaron" unicode="&#x158;" horiz-adv-x="608" 
d="M502 878h62l-137 -119h-81l-82 119h52l76 -83zM441 0l-116 308h-155l-65 -308h-65l151 709h219c115 0 185 -73 185 -169c0 -123 -87 -207 -206 -225l120 -315h-68zM182 365h152c113 0 196 66 196 172c0 69 -47 115 -134 115h-153z" />
    <glyph glyph-name="rcaron" unicode="&#x159;" horiz-adv-x="337" 
d="M361 676h58l-137 -138h-78l-77 138h51l71 -99zM346 411c-13 4 -30 8 -50 8c-73 0 -137 -50 -160 -157l-56 -262h-61l84 395c8 40 9 71 9 82h61c0 -16 -2 -48 -7 -73c37 56 93 79 148 79c20 0 36 -4 45 -8z" />
    <glyph glyph-name="Sacute" unicode="&#x15a;" horiz-adv-x="574" 
d="M549 878l-151 -119h-64l128 119h87zM269 44c97 0 167 57 167 139c0 52 -26 93 -93 123l-102 47c-74 33 -121 87 -121 169c0 119 106 200 224 200c158 0 219 -105 221 -198l-61 -12c0 69 -40 154 -165 154c-79 0 -155 -55 -155 -135c0 -57 29 -94 83 -118l102 -47
c88 -40 133 -98 133 -175c0 -117 -99 -204 -234 -204c-151 0 -237 94 -237 216c0 10 0 19 3 37l63 11c-3 -14 -3 -25 -3 -39c0 -92 56 -168 175 -168z" />
    <glyph glyph-name="sacute" unicode="&#x15b;" horiz-adv-x="431" 
d="M439 677l-155 -140h-55l124 140h86zM65 153c0 -64 41 -114 118 -114c60 0 103 36 103 86c0 34 -22 58 -59 75l-69 32c-52 23 -85 60 -85 115c0 76 65 143 164 143c114 0 160 -79 162 -140l-56 -15c-2 50 -33 104 -111 104c-54 0 -100 -37 -100 -83c0 -32 15 -54 56 -73
l69 -31c57 -26 90 -68 90 -120c0 -72 -58 -145 -166 -145c-112 0 -171 73 -171 152c0 7 1 13 2 17l55 13c-1 -4 -2 -11 -2 -16z" />
    <glyph glyph-name="Scircumflex" unicode="&#x15c;" horiz-adv-x="574" 
d="M286 759h-59l134 119h81l85 -119h-53l-78 83zM269 44c97 0 167 57 167 139c0 52 -26 93 -93 123l-102 47c-74 33 -121 87 -121 169c0 119 106 200 224 200c158 0 219 -105 221 -198l-61 -12c0 69 -40 154 -165 154c-79 0 -155 -55 -155 -135c0 -57 29 -94 83 -118
l102 -47c88 -40 133 -98 133 -175c0 -117 -99 -204 -234 -204c-151 0 -237 94 -237 216c0 10 0 19 3 37l63 11c-3 -14 -3 -25 -3 -39c0 -92 56 -168 175 -168z" />
    <glyph glyph-name="scircumflex" unicode="&#x15d;" horiz-adv-x="431" 
d="M179 538h-58l138 138h76l78 -138h-51l-71 99zM65 153c0 -64 41 -114 118 -114c60 0 103 36 103 86c0 34 -22 58 -59 75l-69 32c-52 23 -85 60 -85 115c0 76 65 143 164 143c114 0 160 -79 162 -140l-56 -15c-2 50 -33 104 -111 104c-54 0 -100 -37 -100 -83
c0 -32 15 -54 56 -73l69 -31c57 -26 90 -68 90 -120c0 -72 -58 -145 -166 -145c-112 0 -171 73 -171 152c0 7 1 13 2 17l55 13c-1 -4 -2 -11 -2 -16z" />
    <glyph glyph-name="Scedilla" unicode="&#x15e;" horiz-adv-x="574" 
d="M269 44c97 0 167 57 167 139c0 52 -26 93 -93 123l-102 47c-74 33 -121 87 -121 169c0 119 106 200 224 200c158 0 219 -105 221 -198l-61 -12c0 69 -40 154 -165 154c-79 0 -155 -55 -155 -135c0 -57 29 -94 83 -118l102 -47c88 -40 133 -98 133 -175
c0 -117 -98 -203 -232 -204l-52 -44c3 1 7 1 10 1c49 -2 79 -32 79 -69c0 -50 -45 -85 -107 -85c-60 0 -102 33 -118 67l37 23c11 -23 33 -51 81 -51c35 0 59 17 59 46c0 22 -19 39 -56 39c-8 0 -17 -1 -26 -4l-16 31l57 50c-120 18 -187 104 -187 212c0 10 0 19 3 37l63 11
c-3 -14 -3 -25 -3 -39c0 -92 56 -168 175 -168z" />
    <glyph glyph-name="scedilla" unicode="&#x15f;" horiz-adv-x="431" 
d="M65 153c0 -64 41 -114 118 -114c60 0 103 36 103 86c0 34 -22 58 -59 75l-69 32c-52 23 -85 60 -85 115c0 76 65 143 164 143c114 0 160 -79 162 -140l-56 -15c-2 50 -33 104 -111 104c-54 0 -100 -37 -100 -83c0 -32 15 -54 56 -73l69 -31c57 -26 90 -68 90 -120
c0 -71 -57 -143 -162 -145l-52 -44c3 1 7 1 10 1c49 -2 79 -32 79 -69c0 -50 -45 -85 -107 -85c-60 0 -102 33 -118 67l37 23c11 -23 33 -51 81 -51c35 0 59 17 59 46c0 22 -19 39 -56 39c-8 0 -17 -1 -26 -4l-16 31l58 51c-82 17 -124 80 -124 147c0 7 1 13 2 17l55 13
c-1 -4 -2 -11 -2 -16z" />
    <glyph glyph-name="Tcommaaccent" unicode="&#x162;" horiz-adv-x="580" 
d="M638 651h-237l-138 -651h-9l-67 -57c3 1 7 1 10 1c49 -2 79 -32 79 -69c0 -50 -45 -85 -107 -85c-60 0 -102 33 -118 67l37 23c11 -23 33 -51 81 -51c35 0 59 17 59 46c0 22 -19 39 -56 39c-8 0 -17 -1 -26 -4l-16 31l68 59l139 651h-242l12 58h544z" />
    <glyph glyph-name="tcommaaccent" unicode="&#x163;" horiz-adv-x="298" 
d="M69 99c0 12 2 31 7 53l58 270h-90l11 55h21c46 0 76 15 87 68l18 83h58l-32 -151h99l-11 -55h-100l-58 -272c-4 -21 -6 -32 -6 -43c0 -36 19 -59 63 -59c13 0 24 1 31 3l-11 -51c-6 -2 -17 -5 -37 -5c-69 0 -108 40 -108 104zM40 -203l6 31c32 1 64 18 74 51
c-3 -2 -10 -4 -16 -4c-23 0 -38 16 -38 35c0 27 20 48 48 48c22 0 46 -13 46 -47c0 -71 -62 -114 -120 -114z" />
    <glyph glyph-name="Tcaron" unicode="&#x164;" horiz-adv-x="580" 
d="M505 878h62l-137 -119h-81l-82 119h52l76 -83zM638 651h-237l-138 -651h-65l139 651h-242l12 58h544z" />
    <glyph glyph-name="tcaron" unicode="&#x165;" horiz-adv-x="297" 
d="M430 730l-96 -180h-48l75 180h69zM69 99c0 12 2 31 7 53l58 270h-90l11 55h21c46 0 76 15 87 68l18 83h58l-32 -151h99l-11 -55h-100l-58 -272c-4 -21 -6 -32 -6 -43c0 -36 19 -59 63 -59c13 0 24 1 31 3l-11 -51c-6 -2 -17 -5 -37 -5c-69 0 -108 40 -108 104z" />
    <glyph glyph-name="Tbar" unicode="&#x166;" horiz-adv-x="590" 
d="M642 651h-237l-60 -280h127l-11 -53h-127l-67 -318h-65l68 318h-120l11 53h120l60 280h-242l12 58h544z" />
    <glyph glyph-name="tbar" unicode="&#x167;" horiz-adv-x="306" 
d="M74 99c0 12 2 31 7 53l15 72h-83l11 51h83l32 147h-90l11 55h21c46 0 76 15 87 68l18 83h58l-32 -151h99l-11 -55h-100l-31 -147h107l-10 -51h-108l-16 -74c-4 -21 -6 -32 -6 -43c0 -36 19 -59 63 -59c13 0 24 1 31 3l-11 -51c-6 -2 -17 -5 -37 -5
c-69 0 -108 40 -108 104z" />
    <glyph glyph-name="Utilde" unicode="&#x168;" horiz-adv-x="666" 
d="M599 709h64l-106 -499c-31 -145 -123 -223 -256 -223c-139 0 -221 78 -221 207c0 23 2 48 8 75l94 440h64l-94 -446c-5 -22 -8 -43 -8 -63c0 -91 50 -154 161 -154c102 0 167 63 190 172zM602 872c-14 -77 -57 -109 -105 -109c-25 0 -46 10 -63 25l-16 14
c-15 13 -26 19 -43 19c-25 0 -44 -18 -51 -55h-47c11 74 56 108 104 108c27 0 48 -11 65 -26l16 -14c14 -13 24 -19 41 -19c26 0 44 19 52 57h47z" />
    <glyph glyph-name="utilde" unicode="&#x169;" horiz-adv-x="527" 
d="M342 70c-28 -45 -81 -81 -144 -81c-97 0 -150 61 -150 149c0 16 1 37 6 59l59 280h61l-59 -278c-4 -20 -6 -39 -6 -54c0 -60 31 -104 106 -104s132 68 151 157l59 279h61l-81 -381c-8 -39 -8 -74 -8 -96h-59c0 18 0 40 4 70zM212 553h-48c11 75 55 108 104 108
c28 0 48 -11 64 -25l16 -15c13 -13 25 -18 41 -18c26 0 45 19 52 56h48c-15 -76 -56 -108 -104 -108c-25 0 -45 9 -61 24l-17 15c-15 13 -25 19 -44 19c-25 0 -44 -19 -51 -56z" />
    <glyph glyph-name="Umacron" unicode="&#x16a;" horiz-adv-x="666" 
d="M599 709h64l-106 -499c-31 -145 -123 -223 -256 -223c-139 0 -221 78 -221 207c0 23 2 48 8 75l94 440h64l-94 -446c-5 -22 -8 -43 -8 -63c0 -91 50 -154 161 -154c102 0 167 63 190 172zM569 793h-266l11 54h266z" />
    <glyph glyph-name="umacron" unicode="&#x16b;" horiz-adv-x="527" 
d="M342 70c-28 -45 -81 -81 -144 -81c-97 0 -150 61 -150 149c0 16 1 37 6 59l59 280h61l-59 -278c-4 -20 -6 -39 -6 -54c0 -60 31 -104 106 -104s132 68 151 157l59 279h61l-81 -381c-8 -39 -8 -74 -8 -96h-59c0 18 0 40 4 70zM443 581h-254l11 53h254z" />
    <glyph glyph-name="Ubreve" unicode="&#x16c;" horiz-adv-x="666" 
d="M599 709h64l-106 -499c-31 -145 -123 -223 -256 -223c-139 0 -221 78 -221 207c0 23 2 48 8 75l94 440h64l-94 -446c-5 -22 -8 -43 -8 -63c0 -91 50 -154 161 -154c102 0 167 63 190 172zM426 754c-82 0 -122 50 -122 108c0 6 1 14 2 18h49c-1 -4 -1 -7 -1 -10
c0 -35 21 -67 77 -67c61 0 96 38 110 77h51c-18 -63 -76 -126 -166 -126z" />
    <glyph glyph-name="ubreve" unicode="&#x16d;" horiz-adv-x="527" 
d="M342 70c-28 -45 -81 -81 -144 -81c-97 0 -150 61 -150 149c0 16 1 37 6 59l59 280h61l-59 -278c-4 -20 -6 -39 -6 -54c0 -60 31 -104 106 -104s132 68 151 157l59 279h61l-81 -381c-8 -39 -8 -74 -8 -96h-59c0 18 0 40 4 70zM310 538c-77 0 -115 51 -115 109
c0 9 2 22 4 29h45c-1 -5 -2 -12 -2 -17c0 -36 21 -70 75 -70c63 0 100 46 112 87h49c-15 -68 -74 -138 -168 -138z" />
    <glyph glyph-name="Uring" unicode="&#x16e;" horiz-adv-x="666" 
d="M599 709h64l-106 -499c-31 -145 -123 -223 -256 -223c-139 0 -221 78 -221 207c0 23 2 48 8 75l94 440h64l-94 -446c-5 -22 -8 -43 -8 -63c0 -91 50 -154 161 -154c102 0 167 63 190 172zM445 905c-37 0 -64 -30 -64 -65c0 -30 20 -52 51 -52c34 0 65 28 65 65
c0 29 -21 52 -52 52zM337 836c0 65 55 111 111 111c54 0 92 -40 92 -91c0 -59 -51 -111 -110 -111c-53 0 -93 40 -93 91z" />
    <glyph glyph-name="uring" unicode="&#x16f;" horiz-adv-x="527" 
d="M334 739c55 0 95 -41 95 -94c0 -62 -53 -115 -115 -115c-55 0 -96 41 -96 93c0 68 57 116 116 116zM262 628c0 -31 22 -55 55 -55c35 0 67 30 67 69c0 30 -21 54 -55 54c-37 0 -67 -31 -67 -68zM342 70c-28 -45 -81 -81 -144 -81c-97 0 -150 61 -150 149c0 16 1 37 6 59
l59 280h61l-59 -278c-4 -20 -6 -39 -6 -54c0 -60 31 -104 106 -104s132 68 151 157l59 279h61l-81 -381c-8 -39 -8 -74 -8 -96h-59c0 18 0 40 4 70z" />
    <glyph glyph-name="Uhungarumlaut" unicode="&#x170;" horiz-adv-x="666" 
d="M482 878l-105 -119h-49l82 119h72zM612 878l-111 -119h-49l87 119h73zM599 709h64l-106 -499c-31 -145 -123 -223 -256 -223c-139 0 -221 78 -221 207c0 23 2 48 8 75l94 440h64l-94 -446c-5 -22 -8 -43 -8 -63c0 -91 50 -154 161 -154c102 0 167 63 190 172z" />
    <glyph glyph-name="uhungarumlaut" unicode="&#x171;" horiz-adv-x="527" 
d="M342 70c-28 -45 -81 -81 -144 -81c-97 0 -150 61 -150 149c0 16 1 37 6 59l59 280h61l-59 -278c-4 -20 -6 -39 -6 -54c0 -60 31 -104 106 -104s132 68 151 157l59 279h61l-81 -381c-8 -39 -8 -74 -8 -96h-59c0 18 0 40 4 70zM369 677l-112 -140h-46l89 140h69zM489 677
l-118 -140h-46l95 140h69z" />
    <glyph glyph-name="Uogonek" unicode="&#x172;" horiz-adv-x="666" 
d="M253 -121c0 -29 23 -43 52 -43c11 0 22 1 36 4l-10 -42c-13 -5 -26 -8 -46 -8c-50 0 -85 29 -85 76c0 53 36 95 75 122c-123 9 -195 85 -195 206c0 23 2 48 8 75l94 440h64l-94 -446c-5 -22 -8 -43 -8 -63c0 -91 50 -154 161 -154c102 0 167 63 190 172l104 491h64
l-106 -499c-26 -123 -96 -198 -198 -217c-49 -9 -106 -64 -106 -114z" />
    <glyph glyph-name="uogonek" unicode="&#x173;" horiz-adv-x="527" 
d="M322 -210c-50 0 -85 29 -85 76c0 65 54 114 101 138c0 17 0 38 4 66c-28 -45 -81 -81 -144 -81c-97 0 -150 61 -150 149c0 16 1 37 6 59l59 280h61l-59 -278c-4 -20 -6 -39 -6 -54c0 -60 31 -104 106 -104s132 68 151 157l59 279h61l-81 -381c-8 -39 -8 -74 -8 -96
c-44 -21 -107 -65 -107 -121c0 -29 23 -43 52 -43c11 0 22 1 36 4l-10 -42c-13 -5 -26 -8 -46 -8z" />
    <glyph glyph-name="Wcircumflex" unicode="&#x174;" horiz-adv-x="966" 
d="M487 759h-59l134 119h81l85 -119h-53l-78 83zM528 709h70l70 -617l290 617h66l-337 -709h-68l-71 622l-311 -622h-69l-56 709h63l45 -614z" />
    <glyph glyph-name="wcircumflex" unicode="&#x175;" horiz-adv-x="766" 
d="M334 538h-58l138 138h76l78 -138h-51l-71 99zM383 477h71l49 -400l208 400h66l-255 -477h-64l-51 411l-226 -411h-62l-48 477h60l34 -397z" />
    <glyph glyph-name="Ycircumflex" unicode="&#x176;" horiz-adv-x="590" 
d="M270 311l-156 398h67l132 -341l257 341h75l-312 -404l-64 -305h-65zM293 759h-59l134 119h81l85 -119h-53l-78 83z" />
    <glyph glyph-name="ycircumflex" unicode="&#x177;" horiz-adv-x="472" 
d="M48 -190h-70l178 265l-118 402h65l96 -343l220 343h71zM179 538h-58l138 138h76l78 -138h-51l-71 99z" />
    <glyph glyph-name="Zacute" unicode="&#x179;" horiz-adv-x="601" 
d="M548 878l-151 -119h-64l128 119h87zM495 0h-519l14 64l573 587h-438l12 58h517l-14 -63l-574 -587h441z" />
    <glyph glyph-name="zacute" unicode="&#x17a;" horiz-adv-x="458" 
d="M445 677l-155 -140h-55l124 140h86zM358 0h-381l11 54l374 368h-284l11 55h362l-10 -55l-375 -367h303z" />
    <glyph glyph-name="Zdotaccent" unicode="&#x17b;" horiz-adv-x="601" 
d="M495 0h-519l14 64l573 587h-438l12 58h517l-14 -63l-574 -587h441zM359 813c0 29 23 54 53 54c25 0 41 -21 41 -43c0 -29 -23 -53 -51 -53c-26 0 -43 19 -43 42z" />
    <glyph glyph-name="zdotaccent" unicode="&#x17c;" horiz-adv-x="458" 
d="M358 0h-381l11 54l374 368h-284l11 55h362l-10 -55l-375 -367h303zM244 601c0 28 23 54 53 54c25 0 41 -21 41 -43c0 -29 -23 -53 -51 -53c-25 0 -43 19 -43 42z" />
    <glyph glyph-name="uni018F" unicode="&#x18f;" horiz-adv-x="777" 
d="M427 722c174 0 314 -118 314 -310c0 -280 -199 -426 -384 -426c-169 0 -308 119 -308 308c0 21 2 43 6 66h619c1 15 2 31 2 48c0 164 -113 255 -253 255c-110 0 -218 -61 -270 -163l-51 26c63 122 192 196 325 196zM361 44c130 0 264 88 303 259h-553c-1 -3 -1 -7 -1 -10
c1 -153 112 -249 251 -249z" />
    <glyph glyph-name="uni01B5" unicode="&#x1b5;" horiz-adv-x="613" 
d="M499 0h-519l14 64l272 279h-157l11 55h200l247 253h-438l12 58h517l-14 -63l-243 -248h164l-11 -55h-207l-277 -284h441z" />
    <glyph glyph-name="uni01B6" unicode="&#x1b6;" horiz-adv-x="469" 
d="M362 0h-381l11 54l174 171h-113l10 50h154l149 147h-284l11 55h362l-10 -55l-150 -147h118l-10 -50h-159l-174 -170h303z" />
    <glyph glyph-name="Aringacute" unicode="&#x1fa;" horiz-adv-x="660" 
d="M407 639l-206 -352h266zM434 826c-36 0 -64 -30 -64 -65c0 -30 21 -52 52 -52c34 0 65 28 65 65c0 29 -21 52 -53 52zM627 1020l-151 -119h-64l128 119h87zM327 757c0 65 55 111 111 111c53 0 92 -40 92 -91c0 -45 -29 -85 -69 -102l117 -675h-64l-38 228h-309l-133 -228
h-73l406 683c-25 15 -40 42 -40 74z" />
    <glyph glyph-name="aringacute" unicode="&#x1fb;" horiz-adv-x="566" 
d="M282 436c-106 0 -187 -110 -187 -238c0 -89 47 -157 137 -157c118 0 185 136 185 243c0 87 -46 152 -135 152zM463 477h61l-73 -345c-7 -31 -11 -61 -11 -94c0 -12 0 -25 2 -38h-58c-1 7 -2 18 -2 34c0 13 0 27 3 45c-32 -44 -88 -90 -164 -90c-120 0 -186 93 -186 205
c0 165 109 295 246 295c108 0 148 -68 161 -111zM541 911l-150 -136h-53l120 136h83zM347 738c55 0 95 -41 95 -94c0 -62 -53 -115 -115 -115c-55 0 -96 41 -96 93c0 68 57 116 116 116zM275 627c0 -31 22 -55 55 -55c35 0 67 30 67 69c0 30 -21 54 -55 54
c-37 0 -67 -31 -67 -68z" />
    <glyph glyph-name="AEacute" unicode="&#x1fc;" horiz-adv-x="977" 
d="M815 878l-151 -119h-64l128 119h87zM526 59h351l-12 -59h-415l45 210h-290l-180 -210h-80l619 709h446l-12 -59h-346l-57 -265h313l-12 -60h-313zM254 267h253l82 386z" />
    <glyph glyph-name="aeacute" unicode="&#x1fd;" horiz-adv-x="851" 
d="M618 677l-155 -140h-55l124 140h86zM794 226h-378c-1 -10 -2 -20 -2 -30c0 -94 64 -155 149 -155c77 0 133 47 162 99l46 -31c-38 -69 -114 -122 -209 -122c-91 0 -164 45 -191 128c-37 -78 -108 -128 -205 -128c-105 0 -156 64 -156 128c0 95 80 147 175 151l128 6
c54 2 62 34 62 67c0 55 -41 98 -118 98c-65 0 -115 -37 -134 -99l-54 19c26 82 102 132 191 132c91 0 142 -42 161 -93c49 60 119 94 188 94c129 0 194 -84 194 -194c0 -26 -4 -51 -9 -70zM73 119c0 -55 49 -81 104 -81c81 0 148 51 167 141l12 58c-8 -8 -44 -13 -66 -14
l-108 -4c-62 -2 -109 -37 -109 -100zM426 277h314c1 6 2 14 2 22c0 73 -41 137 -135 137c-91 0 -159 -74 -181 -159z" />
    <glyph glyph-name="Oslashacute" unicode="&#x1fe;" horiz-adv-x="770" 
d="M65 293c0 283 198 429 375 429c84 0 158 -28 211 -81l85 86l38 -36l-90 -91c32 -48 51 -110 51 -184c0 -283 -198 -429 -375 -429c-82 0 -155 27 -208 77l-79 -80l-37 36l83 83c-35 49 -54 113 -54 190zM130 298c0 -60 13 -109 36 -147l440 445c-42 45 -103 68 -170 68
c-159 0 -306 -143 -306 -366zM670 411c0 57 -12 104 -33 142l-440 -444c43 -43 101 -64 167 -64c159 0 306 143 306 366zM643 878l-151 -119h-64l128 119h87z" />
    <glyph glyph-name="oslashacute" unicode="&#x1ff;" horiz-adv-x="549" 
d="M493 277c0 -174 -122 -290 -256 -290c-59 0 -107 20 -142 55l-60 -58l-33 36l63 61c-20 33 -30 74 -30 119c0 175 124 290 257 290c59 0 106 -20 141 -54l58 56l33 -36l-61 -59c19 -34 30 -75 30 -120zM432 275c0 29 -6 55 -15 77l-279 -269c26 -27 61 -42 102 -42
c92 0 192 86 192 234zM288 436c-92 0 -192 -84 -192 -233c0 -29 5 -55 15 -78l279 270c-25 26 -61 41 -102 41zM492 677l-155 -140h-55l124 140h86z" />
    <glyph glyph-name="Scommaaccent" unicode="&#x218;" horiz-adv-x="574" 
d="M269 44c97 0 167 57 167 139c0 52 -26 93 -93 123l-102 47c-74 33 -121 87 -121 169c0 119 106 200 224 200c158 0 219 -105 221 -198l-61 -12c0 69 -40 154 -165 154c-79 0 -155 -55 -155 -135c0 -57 29 -94 83 -118l102 -47c88 -40 133 -98 133 -175
c0 -117 -99 -204 -234 -204c-151 0 -237 94 -237 216c0 10 0 19 3 37l63 11c-3 -14 -3 -25 -3 -39c0 -92 56 -168 175 -168zM145 -203l6 31c32 1 64 18 74 51c-3 -2 -10 -4 -16 -4c-23 0 -38 16 -38 35c0 27 20 48 48 48c22 0 46 -13 46 -47c0 -71 -62 -114 -120 -114z" />
    <glyph glyph-name="scommaaccent" unicode="&#x219;" horiz-adv-x="431" 
d="M65 153c0 -64 41 -114 118 -114c60 0 103 36 103 86c0 34 -22 58 -59 75l-69 32c-52 23 -85 60 -85 115c0 76 65 143 164 143c114 0 160 -79 162 -140l-56 -15c-2 50 -33 104 -111 104c-54 0 -100 -37 -100 -83c0 -32 15 -54 56 -73l69 -31c57 -26 90 -68 90 -120
c0 -72 -58 -145 -166 -145c-112 0 -171 73 -171 152c0 7 1 13 2 17l55 13c-1 -4 -2 -11 -2 -16zM75 -203l6 31c32 1 64 18 74 51c-3 -2 -10 -4 -16 -4c-23 0 -38 16 -38 35c0 27 20 48 48 48c22 0 46 -13 46 -47c0 -71 -62 -114 -120 -114z" />
    <glyph glyph-name="uni021A" unicode="&#x21a;" horiz-adv-x="580" 
d="M638 651h-237l-138 -651h-65l139 651h-242l12 58h544zM138 -203l6 31c32 1 64 18 74 51c-3 -2 -10 -4 -16 -4c-23 0 -38 16 -38 35c0 27 20 48 48 48c22 0 46 -13 46 -47c0 -71 -62 -114 -120 -114z" />
    <glyph glyph-name="uni021B" unicode="&#x21b;" horiz-adv-x="298" 
d="M69 99c0 12 2 31 7 53l58 270h-90l11 55h21c46 0 76 15 87 68l18 83h58l-32 -151h99l-11 -55h-100l-58 -272c-4 -21 -6 -32 -6 -43c0 -36 19 -59 63 -59c13 0 24 1 31 3l-11 -51c-6 -2 -17 -5 -37 -5c-5 0 -10 0 -14 1l-62 -53c3 1 7 1 10 1c49 -2 79 -32 79 -69
c0 -50 -45 -85 -107 -85c-60 0 -102 33 -118 67l37 23c11 -23 33 -51 81 -51c35 0 59 17 59 46c0 22 -19 39 -56 39c-8 0 -17 -1 -26 -4l-16 31l75 66c-33 16 -50 49 -50 92z" />
    <glyph glyph-name="dotlessj" unicode="&#x237;" horiz-adv-x="221" 
d="M5 -65l115 542h61l-117 -554c-18 -84 -70 -121 -137 -121c-31 0 -54 7 -66 16l11 49c11 -6 30 -11 50 -11c46 0 71 23 83 79z" />
    <glyph glyph-name="uni0259" unicode="&#x259;" horiz-adv-x="532" 
d="M404 200h-314c-1 -6 -2 -14 -2 -22c0 -73 41 -137 135 -137c91 0 159 74 181 159zM36 251h378c1 10 2 20 2 30c0 94 -64 155 -149 155c-77 0 -133 -47 -162 -99l-46 31c38 69 114 122 209 122c118 0 208 -77 208 -212c0 -178 -128 -291 -255 -291
c-129 0 -194 84 -194 194c0 26 4 51 9 70z" />
    <glyph glyph-name="uni02C9" unicode="&#x2c9;" horiz-adv-x="305" 
d="M319 581h-254l11 53h254z" />
    <glyph glyph-name="uni0394" unicode="&#x394;" horiz-adv-x="636" 
d="M511 58l-219 576l-217 -576h436zM-15 0l274 709h66l276 -709h-616z" />
    <glyph glyph-name="uni03A9" unicode="&#x3a9;" horiz-adv-x="850" 
d="M428 665c-147 0 -288 -110 -288 -289c0 -161 120 -270 244 -293v-83h-299v55h222c-120 38 -231 155 -231 320c0 211 166 347 352 347c187 0 353 -136 353 -347c0 -165 -110 -282 -231 -320h222v-55h-298v83c124 23 243 132 243 293c0 179 -141 289 -289 289z" />
    <glyph glyph-name="uni03BC" unicode="&#x3bc;" 
d="M78 -190v667h61v-291c0 -75 36 -145 129 -145c85 0 135 64 135 144v292h60v-386c0 -39 3 -74 6 -91h-58c-2 10 -4 40 -4 74c-22 -46 -76 -87 -150 -87c-53 0 -95 20 -118 53v-230h-61z" />
    <glyph glyph-name="Wgrave" unicode="&#x1e80;" horiz-adv-x="966" 
d="M544 759l-104 119h78l83 -119h-57zM528 709h70l70 -617l290 617h66l-337 -709h-68l-71 622l-311 -622h-69l-56 709h63l45 -614z" />
    <glyph glyph-name="wgrave" unicode="&#x1e81;" horiz-adv-x="766" 
d="M383 477h71l49 -400l208 400h66l-255 -477h-64l-51 411l-226 -411h-62l-48 477h60l34 -397zM405 537l-84 140h72l59 -140h-47z" />
    <glyph glyph-name="Wacute" unicode="&#x1e82;" horiz-adv-x="966" 
d="M750 878l-151 -119h-64l128 119h87zM528 709h70l70 -617l290 617h66l-337 -709h-68l-71 622l-311 -622h-69l-56 709h63l45 -614z" />
    <glyph glyph-name="wacute" unicode="&#x1e83;" horiz-adv-x="766" 
d="M612 677l-155 -140h-55l124 140h86zM383 477h71l49 -400l208 400h66l-255 -477h-64l-51 411l-226 -411h-62l-48 477h60l34 -397z" />
    <glyph glyph-name="Wdieresis" unicode="&#x1e84;" horiz-adv-x="966" 
d="M379 814c0 28 21 49 49 49c22 0 37 -19 37 -39c0 -28 -22 -48 -48 -48c-22 0 -38 17 -38 38zM689 814c0 28 21 49 48 49c23 0 37 -19 37 -39c0 -28 -21 -48 -47 -48c-23 0 -38 17 -38 38zM528 709h70l70 -617l290 617h66l-337 -709h-68l-71 622l-311 -622h-69l-56 709h63
l45 -614z" />
    <glyph glyph-name="wdieresis" unicode="&#x1e85;" horiz-adv-x="766" 
d="M289 605c0 27 21 50 48 50c23 0 37 -20 37 -40c0 -27 -22 -47 -48 -47c-22 0 -37 17 -37 37zM502 605c0 27 21 50 48 50c23 0 38 -20 38 -40c0 -27 -23 -47 -48 -47c-23 0 -38 17 -38 37zM383 477h71l49 -400l208 400h66l-255 -477h-64l-51 411l-226 -411h-62l-48 477h60
l34 -397z" />
    <glyph glyph-name="uni1E8A" unicode="&#x1e8a;" horiz-adv-x="590" 
d="M299 302l-262 -302h-79l315 356l-162 353h70l135 -303l269 303h79l-320 -357l161 -352h-70zM338 813c0 29 23 54 53 54c25 0 41 -21 41 -43c0 -29 -23 -53 -51 -53c-26 0 -43 19 -43 42z" />
    <glyph glyph-name="uni1E8B" unicode="&#x1e8b;" horiz-adv-x="476" 
d="M223 199l-186 -199h-79l236 246l-125 231h67l100 -188l175 188h78l-225 -233l132 -244h-68zM245 601c0 28 23 54 53 54c25 0 41 -21 41 -43c0 -29 -23 -53 -51 -53c-25 0 -43 19 -43 42z" />
    <glyph glyph-name="Ygrave" unicode="&#x1ef2;" horiz-adv-x="590" 
d="M270 311l-156 398h67l132 -341l257 341h75l-312 -404l-64 -305h-65zM361 759l-104 119h78l83 -119h-57z" />
    <glyph glyph-name="ygrave" unicode="&#x1ef3;" horiz-adv-x="472" 
d="M48 -190h-70l178 265l-118 402h65l96 -343l220 343h71zM261 537l-84 140h72l59 -140h-47z" />
    <glyph glyph-name="uni2007" unicode="&#x2007;" horiz-adv-x="597" 
 />
    <glyph glyph-name="uni2008" unicode="&#x2008;" horiz-adv-x="227" 
 />
    <glyph glyph-name="uni200B" unicode="&#x200b;" horiz-adv-x="0" 
 />
    <glyph glyph-name="uni2042" unicode="&#x2042;" horiz-adv-x="805" 
d="M504 709l-28 -132l133 43l7 -43l-136 -43l60 -110l-38 -25l-59 112l-105 -114l-34 29l105 111l-115 42l21 41l115 -43l25 132h49zM226 312l-28 -132l133 43l7 -43l-136 -43l60 -110l-38 -25l-59 112l-105 -114l-34 29l105 111l-115 42l21 41l115 -43l25 132h49zM635 312
l-28 -132l133 43l7 -43l-136 -43l60 -110l-38 -25l-59 112l-105 -114l-34 29l105 111l-115 42l21 41l115 -43l25 132h49z" />
    <glyph glyph-name="uni2051" unicode="&#x2051;" horiz-adv-x="443" 
d="M334 709l-28 -132l133 43l7 -43l-136 -43l60 -110l-38 -25l-59 112l-105 -114l-34 29l105 111l-115 42l21 41l115 -43l25 132h49zM246 312l-28 -132l133 43l7 -43l-136 -43l60 -110l-38 -25l-59 112l-105 -114l-34 29l105 111l-115 42l21 41l115 -43l25 132h49z" />
    <glyph glyph-name="uni2070" unicode="&#x2070;" horiz-adv-x="380" 
d="M88 478c0 88 45 238 177 238c93 0 129 -68 129 -137c0 -96 -47 -239 -176 -239c-84 0 -130 56 -130 138zM138 478c0 -50 23 -93 84 -93c85 0 122 115 122 192c0 49 -24 93 -84 93c-90 0 -122 -125 -122 -192z" />
    <glyph glyph-name="uni2074" unicode="&#x2074;" horiz-adv-x="360" 
d="M59 429l11 56l222 224h63l-51 -236h68l-9 -44h-67l-18 -83h-51l18 83h-186zM253 473l39 176l-175 -176h136z" />
    <glyph glyph-name="uni2075" unicode="&#x2075;" horiz-adv-x="341" 
d="M197 339c-78 0 -130 50 -130 111c0 2 0 4 1 7l51 9c-1 -3 -1 -5 -1 -7c0 -40 29 -75 81 -75c48 0 88 34 88 85c0 43 -30 71 -77 71c-24 0 -48 -8 -69 -24l-43 23l80 170h199l-9 -45h-163l-47 -101c19 13 48 19 69 19c70 0 113 -43 113 -107c0 -74 -60 -136 -143 -136z
" />
    <glyph glyph-name="uni2076" unicode="&#x2076;" horiz-adv-x="362" 
d="M398 690l-20 -40c-18 13 -44 22 -82 22c-72 0 -132 -54 -151 -127c19 26 63 46 104 46c70 0 114 -46 114 -110c0 -84 -72 -141 -148 -141c-73 0 -129 52 -129 137c0 148 103 239 212 239c42 0 77 -9 100 -26zM218 384c46 0 92 35 92 92c0 43 -30 72 -76 72
s-92 -35 -92 -92c0 -43 30 -72 76 -72z" />
    <glyph glyph-name="uni2077" unicode="&#x2077;" horiz-adv-x="325" 
d="M394 709l-10 -45c-79 -51 -184 -142 -235 -318h-55c47 177 167 279 223 318h-213l9 45h281z" />
    <glyph glyph-name="uni2078" unicode="&#x2078;" horiz-adv-x="350" 
d="M171 608c0 -35 34 -55 71 -55c41 0 76 24 76 65c0 30 -23 55 -71 56c-44 0 -76 -27 -76 -66zM126 442c1 -39 41 -59 81 -59c51 0 85 28 85 69c0 33 -27 60 -81 60c-51 0 -85 -29 -85 -70zM205 340c-66 0 -131 32 -131 96c0 51 38 90 97 101c-30 12 -51 42 -51 72
c0 62 56 107 131 107c74 0 119 -41 119 -93c0 -46 -36 -83 -84 -95c33 -13 57 -44 57 -77c0 -64 -58 -111 -138 -111z" />
    <glyph glyph-name="uni2079" unicode="&#x2079;" horiz-adv-x="360" 
d="M71 373l21 41c23 -18 53 -29 86 -29c64 0 121 44 138 128c-18 -29 -60 -47 -97 -47c-65 0 -119 43 -119 111c0 82 68 138 145 138c73 0 129 -49 129 -136c0 -134 -74 -240 -198 -240c-39 0 -81 14 -105 34zM229 510c48 0 89 38 89 89c0 41 -34 72 -76 72
c-45 0 -89 -34 -89 -89c0 -47 34 -72 76 -72z" />
    <glyph glyph-name="uni2080" unicode="&#x2080;" horiz-adv-x="380" 
d="M-3 50c0 88 45 238 177 238c93 0 129 -68 129 -137c0 -96 -47 -239 -176 -239c-84 0 -130 56 -130 138zM47 50c0 -50 23 -93 84 -93c85 0 122 115 122 192c0 49 -24 93 -84 93c-90 0 -122 -125 -122 -192z" />
    <glyph glyph-name="uni2081" unicode="&#x2081;" horiz-adv-x="215" 
d="M2 176l8 39c47 3 84 29 102 67h49l-78 -363h-52l63 288c-21 -17 -55 -28 -92 -31z" />
    <glyph glyph-name="uni2082" unicode="&#x2082;" horiz-adv-x="351" 
d="M79 67l72 32c44 20 72 44 72 83c0 33 -24 62 -70 62c-50 0 -85 -36 -85 -90c0 -3 0 -6 1 -10l-49 3c-1 4 -1 7 -1 10c0 74 52 130 136 130c78 0 120 -49 120 -102c0 -57 -41 -98 -97 -122l-78 -35c-35 -15 -56 -38 -64 -65h210l-10 -44h-268c11 64 42 117 111 148z" />
    <glyph glyph-name="uni2083" unicode="&#x2083;" horiz-adv-x="347" 
d="M101 100l-17 42l139 95h-186l9 45h248l-11 -57l-132 -86c54 -1 100 -42 100 -99c0 -68 -55 -128 -142 -128c-77 0 -131 48 -131 110c0 5 0 11 1 16l49 7c-1 -5 -1 -9 -1 -14c0 -44 36 -75 83 -75c50 0 89 36 89 82c0 42 -36 64 -76 64c-7 0 -16 -1 -22 -2z" />
    <glyph glyph-name="uni2084" unicode="&#x2084;" horiz-adv-x="361" 
d="M-31 2l11 56l222 224h63l-51 -236h68l-9 -44h-67l-18 -83h-51l18 83h-186zM163 46l39 176l-175 -176h136z" />
    <glyph glyph-name="uni2085" unicode="&#x2085;" horiz-adv-x="340" 
d="M106 -88c-78 0 -130 50 -130 111c0 2 0 4 1 7l51 9c-1 -3 -1 -5 -1 -7c0 -40 29 -75 81 -75c48 0 88 34 88 85c0 43 -30 71 -77 71c-24 0 -48 -8 -69 -24l-43 23l80 170h199l-9 -45h-163l-47 -101c19 13 48 19 69 19c70 0 113 -43 113 -107c0 -74 -60 -136 -143 -136z
" />
    <glyph glyph-name="uni2086" unicode="&#x2086;" horiz-adv-x="363" 
d="M308 262l-20 -40c-18 13 -44 22 -82 22c-72 0 -132 -54 -151 -127c19 26 63 46 104 46c70 0 114 -46 114 -110c0 -84 -72 -141 -148 -141c-73 0 -129 52 -129 137c0 148 103 239 212 239c42 0 77 -9 100 -26zM128 -44c46 0 92 35 92 92c0 43 -30 72 -76 72
s-92 -35 -92 -92c0 -43 30 -72 76 -72z" />
    <glyph glyph-name="uni2087" unicode="&#x2087;" horiz-adv-x="325" 
d="M304 282l-10 -45c-79 -51 -184 -142 -235 -318h-55c47 177 167 279 223 318h-213l9 45h281z" />
    <glyph glyph-name="uni2088" unicode="&#x2088;" horiz-adv-x="352" 
d="M81 180c0 -35 34 -55 71 -55c41 0 76 24 76 65c0 30 -23 55 -71 56c-44 0 -76 -27 -76 -66zM36 14c1 -39 41 -59 81 -59c51 0 85 28 85 69c0 33 -27 60 -81 60c-51 0 -85 -29 -85 -70zM115 -88c-66 0 -131 32 -131 96c0 51 38 90 97 101c-30 12 -51 42 -51 72
c0 62 56 107 131 107c74 0 119 -41 119 -93c0 -46 -36 -83 -84 -95c33 -13 57 -44 57 -77c0 -64 -58 -111 -138 -111z" />
    <glyph glyph-name="uni2089" unicode="&#x2089;" horiz-adv-x="361" 
d="M-19 -54l21 41c23 -18 53 -29 86 -29c64 0 121 44 138 128c-18 -29 -60 -47 -97 -47c-65 0 -119 43 -119 111c0 82 68 138 145 138c73 0 129 -49 129 -136c0 -134 -74 -240 -198 -240c-39 0 -81 14 -105 34zM139 83c48 0 89 38 89 89c0 41 -34 72 -76 72
c-45 0 -89 -34 -89 -89c0 -47 34 -72 76 -72z" />
    <glyph glyph-name="arrowleft" unicode="&#x2190;" horiz-adv-x="1019" 
d="M248 116l-207 173l207 175v-148h699v-54h-699v-146z" />
    <glyph glyph-name="arrowup" unicode="&#x2191;" horiz-adv-x="442" 
d="M267 800l174 -222h-147v-726h-54v726h-147z" />
    <glyph glyph-name="arrowright" unicode="&#x2192;" horiz-adv-x="1016" 
d="M976 289l-207 -173v146h-699v54h699v148z" />
    <glyph glyph-name="arrowdown" unicode="&#x2193;" horiz-adv-x="445" 
d="M367 63l-178 -225l-178 225h151v723h54v-723h151z" />
    <glyph glyph-name="uni2196" unicode="&#x2196;" horiz-adv-x="925" 
d="M126 709h251l-106 -106l573 -573l-39 -38l-572 572l-107 -107v252z" />
    <glyph glyph-name="uni2197" unicode="&#x2197;" horiz-adv-x="698" 
d="M443 709h251v-252l-108 107l-572 -572l-39 38l574 573z" />
    <glyph glyph-name="uni2198" unicode="&#x2198;" horiz-adv-x="926" 
d="M829 0h-251l106 106l-573 573l38 38l573 -572l107 107v-252z" />
    <glyph glyph-name="uni2199" unicode="&#x2199;" horiz-adv-x="698" 
d="M285 0h-251v252l107 -107l572 572l39 -38l-573 -573z" />
    <glyph glyph-name="uni21A9" unicode="&#x21a9;" horiz-adv-x="818" 
d="M432 600v54h168c111 0 203 -84 203 -197c0 -117 -96 -197 -205 -197h-369v-137l-195 164l195 164v-137h367c81 0 154 55 154 143c0 84 -69 143 -154 143h-164z" />
    <glyph glyph-name="uni21B0" unicode="&#x21b0;" horiz-adv-x="802" 
d="M274 413l-184 154l184 155v-128h430v-595h-54v541h-376v-127z" />
    <glyph glyph-name="uni21B1" unicode="&#x21b1;" horiz-adv-x="714" 
d="M162 0h-54v595h450v127l184 -154l-184 -154v127h-396v-541z" />
    <glyph glyph-name="uni21B2" unicode="&#x21b2;" horiz-adv-x="714" 
d="M580 709h54v-595h-450v-127l-184 154l184 154v-127h396v541z" />
    <glyph glyph-name="uni21B3" unicode="&#x21b3;" horiz-adv-x="821" 
d="M577 295l183 -154l-183 -154v127h-450v595h54v-541h396v127z" />
    <glyph glyph-name="uni21B4" unicode="&#x21b4;" horiz-adv-x="870" 
d="M119 655v54h565v-539h127l-154 -184l-154 184h127v485h-511z" />
    <glyph glyph-name="uni21B5" unicode="&#x21b5;" horiz-adv-x="1044" 
d="M197 164l-153 191h124c0 203 164 367 367 367c66 0 128 -17 181 -47l-24 -48c-46 26 -100 41 -157 41c-173 0 -313 -140 -313 -313h128zM902 355c0 -204 -165 -368 -367 -368c-66 0 -128 18 -182 48l24 48c47 -26 100 -42 157 -42c174 0 314 140 314 314h-127l153 191
l153 -191h-125z" />
    <glyph glyph-name="uni21C6" unicode="&#x21c6;" horiz-adv-x="1091" 
d="M284 376l-195 164l195 164v-137h722v-54h-722v-137zM1033 170l-195 -164v137h-722v54h722v137z" />
    <glyph glyph-name="uni2215" unicode="&#x2215;" horiz-adv-x="377" 
d="M386 648h61l-449 -648h-61z" />
    <glyph glyph-name="uni2219" unicode="&#x2219;" horiz-adv-x="242" 
d="M69 281c0 31 23 55 54 55c28 0 47 -22 47 -48c0 -30 -24 -55 -54 -55c-27 0 -47 21 -47 48z" />
    <glyph glyph-name="dotmath" unicode="&#x22c5;" horiz-adv-x="242" 
d="M69 281c0 31 23 55 54 55c28 0 47 -22 47 -48c0 -30 -24 -55 -54 -55c-27 0 -47 21 -47 48z" />
    <glyph glyph-name="uni24C5" unicode="&#x24c5;" horiz-adv-x="835" 
d="M69 354c0 203 161 368 363 368s364 -165 364 -368c0 -202 -162 -367 -364 -367s-363 165 -363 367zM120 354c0 -179 138 -320 312 -320s311 141 311 320c0 180 -137 321 -311 321s-312 -141 -312 -321zM381 357h69c63 0 108 37 108 95c0 38 -27 61 -75 61h-68zM455 315
h-84l-34 -159h-48l85 400h124c66 0 108 -45 108 -103c0 -83 -68 -138 -151 -138z" />
    <glyph glyph-name="filledbox" unicode="&#x25a0;" horiz-adv-x="930" 
d="M127 0v709h704v-709h-704z" />
    <glyph glyph-name="H22073" unicode="&#x25a1;" horiz-adv-x="930" 
d="M831 0h-704v709h704v-709zM180 660v-611h598v611h-598z" />
    <glyph glyph-name="uni25AF" unicode="&#x25af;" horiz-adv-x="646" 
d="M547 0h-420v709h420v-709zM180 658v-607h315v607h-315z" />
    <glyph glyph-name="triagup" unicode="&#x25b2;" horiz-adv-x="903" 
d="M401 726l418 -726h-840z" />
    <glyph glyph-name="uni25B3" unicode="&#x25b3;" horiz-adv-x="903" 
d="M-21 0l422 726l418 -726h-840zM400 621l-332 -572h662z" />
    <glyph glyph-name="circle" unicode="&#x25cb;" horiz-adv-x="850" 
d="M808 354c0 -204 -165 -368 -369 -368s-368 164 -368 368s164 369 368 369s369 -165 369 -369zM754 354c0 176 -140 317 -315 317c-174 0 -315 -141 -315 -317s141 -317 315 -317c175 0 315 141 315 317z" />
    <glyph glyph-name="H18533" unicode="&#x25cf;" horiz-adv-x="850" 
d="M71 354c0 204 164 369 368 369s369 -165 369 -369s-165 -368 -369 -368s-368 164 -368 368z" />
    <glyph glyph-name="uni262E" unicode="&#x262e;" horiz-adv-x="840" 
d="M798 354c0 -201 -162 -367 -365 -367c-201 0 -362 166 -362 367c0 203 161 368 362 368c203 0 365 -165 365 -368zM745 354c0 170 -124 306 -285 319v-272l229 -230c35 52 56 115 56 183zM122 354c0 -67 20 -130 56 -181l228 228v272c-161 -13 -284 -149 -284 -319z
M460 36c76 6 145 40 196 93l-196 196v-289zM210 130c50 -53 119 -88 196 -94v289z" />
    <glyph glyph-name="uni2713" unicode="&#x2713;" horiz-adv-x="897" 
d="M952 671l-637 -687l-281 314l39 37l245 -270l596 643z" />
    <glyph glyph-name="uni2715" unicode="&#x2715;" horiz-adv-x="871" 
d="M145 -4l-38 38l304 311l-304 311l38 38l304 -311l303 311l39 -38l-305 -311l305 -311l-38 -38l-304 311z" />
    <glyph glyph-name="uni2780" unicode="&#x2780;" horiz-adv-x="840" 
d="M71 354c0 203 161 368 362 368s365 -165 365 -368c0 -201 -164 -367 -365 -367s-362 166 -362 367zM121 354c0 -178 138 -320 312 -320s312 142 312 320c0 180 -138 321 -312 321s-312 -141 -312 -321zM472 174h-51v277c-7 -9 -64 -26 -87 -28v40c50 7 81 39 89 74h49
v-363z" />
    <glyph glyph-name="uni2781" unicode="&#x2781;" horiz-adv-x="840" 
d="M433 722c201 0 365 -165 365 -368c0 -201 -164 -367 -365 -367s-362 166 -362 367c0 203 161 368 362 368zM121 354c0 -178 138 -320 312 -320s312 142 312 320c0 180 -138 321 -312 321s-312 -141 -312 -321zM388 316l69 43c32 20 54 46 54 77c0 35 -27 66 -73 66
c-45 0 -77 -29 -77 -75c0 -5 1 -15 2 -23l-50 4c-2 6 -3 18 -3 23c0 63 50 114 128 114s125 -50 125 -109c0 -48 -29 -82 -72 -109l-73 -46c-24 -15 -42 -35 -46 -60h196v-45h-259v4c0 54 23 101 79 136z" />
    <glyph glyph-name="uni2782" unicode="&#x2782;" horiz-adv-x="840" 
d="M71 354c0 203 161 368 362 368s365 -165 365 -368c0 -201 -164 -367 -365 -367s-362 166 -362 367zM121 354c0 -178 138 -320 312 -320s312 142 312 320c0 180 -138 321 -312 321s-312 -141 -312 -321zM409 348l-22 40l114 103h-194v44h262v-43l-116 -103c2 1 6 1 9 1
c60 -1 115 -37 115 -107c0 -65 -55 -118 -139 -118c-81 0 -133 48 -142 106l47 17c4 -48 47 -78 94 -78c50 0 87 30 87 73c0 47 -39 70 -83 70c-10 0 -23 -2 -32 -5z" />
    <glyph glyph-name="uni2783" unicode="&#x2783;" horiz-adv-x="840" 
d="M71 354c0 203 161 368 362 368s365 -165 365 -368c0 -201 -164 -367 -365 -367s-362 166 -362 367zM121 354c0 -178 138 -320 312 -320s312 142 312 320c0 180 -138 321 -312 321s-312 -141 -312 -321zM264 257v52l179 230h62v-237h70v-45h-70v-81h-51v81h-190zM454 302
v179l-140 -179h140z" />
    <glyph glyph-name="uni2784" unicode="&#x2784;" horiz-adv-x="840" 
d="M71 354c0 203 161 368 362 368s365 -165 365 -368c0 -201 -164 -367 -365 -367s-362 166 -362 367zM121 354c0 -178 138 -320 312 -320s312 142 312 320c0 180 -138 321 -312 321s-312 -141 -312 -321zM295 266l45 19c7 -43 43 -74 90 -74c50 0 86 32 86 78
c0 48 -36 79 -85 79c-31 0 -57 -12 -78 -34l-45 16l49 186h196v-45h-162l-30 -113c22 23 54 32 83 32c74 0 124 -49 124 -119c0 -69 -52 -125 -138 -125c-72 0 -126 48 -135 100z" />
    <glyph glyph-name="uni2785" unicode="&#x2785;" horiz-adv-x="840" 
d="M71 354c0 203 161 368 362 368s365 -165 365 -368c0 -201 -164 -367 -365 -367s-362 166 -362 367zM121 354c0 -178 138 -320 312 -320s312 142 312 320c0 180 -138 321 -312 321s-312 -141 -312 -321zM553 525l-13 -41c-18 10 -42 16 -69 16c-86 0 -134 -62 -140 -144
c14 33 58 61 106 61c74 0 129 -48 129 -124c0 -75 -62 -126 -140 -126c-80 0 -146 59 -146 168c0 134 85 209 188 209c34 0 65 -7 85 -19zM340 293c0 -49 42 -81 87 -81c46 0 86 32 86 81s-40 80 -86 80c-45 0 -87 -31 -87 -80z" />
    <glyph glyph-name="uni2786" unicode="&#x2786;" horiz-adv-x="840" 
d="M71 354c0 203 161 368 362 368s365 -165 365 -368c0 -201 -164 -367 -365 -367s-362 166 -362 367zM121 354c0 -178 138 -320 312 -320s312 142 312 320c0 180 -138 321 -312 321s-312 -141 -312 -321zM585 535v-47c-62 -52 -146 -143 -165 -316h-55
c19 182 118 284 155 318h-219v45h284z" />
    <glyph glyph-name="uni2787" unicode="&#x2787;" horiz-adv-x="840" 
d="M71 354c0 203 161 368 362 368s365 -165 365 -368c0 -201 -164 -367 -365 -367s-362 166 -362 367zM121 354c0 -178 138 -320 312 -320s312 142 312 320c0 180 -138 321 -312 321s-312 -141 -312 -321zM438 381c46 0 77 25 77 61c0 34 -29 60 -77 60
c-47 0 -75 -26 -75 -60c0 -36 30 -61 75 -61zM438 211c55 0 85 28 85 64c0 37 -30 65 -85 65c-54 0 -85 -28 -85 -65c0 -36 32 -64 85 -64zM438 167c-87 0 -137 47 -137 105c0 40 29 75 74 89c-38 12 -63 45 -63 82c0 58 51 101 126 101c76 0 128 -43 128 -101
c0 -37 -26 -70 -64 -82c45 -14 74 -49 74 -89c0 -58 -50 -105 -138 -105z" />
    <glyph glyph-name="uni2788" unicode="&#x2788;" horiz-adv-x="840" 
d="M71 354c0 203 161 368 362 368s365 -165 365 -368c0 -201 -164 -367 -365 -367s-362 166 -362 367zM121 354c0 -178 138 -320 312 -320s312 142 312 320c0 180 -138 321 -312 321s-312 -141 -312 -321zM317 188l13 41c21 -11 48 -18 73 -18c78 0 132 49 135 146
c-15 -36 -58 -61 -104 -61c-72 0 -129 48 -129 123c0 73 62 124 139 124c80 0 145 -58 145 -166c0 -126 -64 -211 -183 -211c-33 0 -68 9 -89 22zM528 419c0 49 -40 80 -86 80s-85 -31 -85 -80s39 -80 85 -80s86 31 86 80z" />
    <glyph glyph-name="uniE000" unicode="&#xe000;" horiz-adv-x="672" 
d="M178 -14l-154 184h127v539h565v-54h-511v-485h127z" />
    <glyph glyph-name="uniE002" unicode="&#xe002;" horiz-adv-x="957" 
d="M634 355l153 191l153 -191h-123c0 -203 -165 -368 -368 -368s-367 165 -367 368s164 367 367 367c66 0 128 -17 182 -47l-24 -48c-46 26 -100 41 -157 41c-174 0 -314 -140 -314 -313c0 -174 140 -314 314 -314c173 0 313 140 313 314h-129z" />
    <glyph glyph-name="commaaccent" unicode="&#xf6c3;" horiz-adv-x="160" 
d="M65 536l6 31c32 1 64 18 74 51c-3 -2 -10 -4 -16 -4c-23 0 -38 16 -38 35c0 27 20 48 48 48c22 0 46 -13 46 -47c0 -71 -62 -114 -120 -114z" />
    <glyph glyph-name="uniFB00" unicode="&#xfb00;" horiz-adv-x="600" 
d="M621 675c-42 0 -81 -19 -95 -86l-24 -112h118l-11 -54h-118l-90 -423h-61l90 423h-231l-90 -423h-61l90 423h-93l11 54h93l25 119c23 109 93 134 153 134c28 0 52 -8 60 -13l-13 -51c-9 4 -26 9 -45 9c-42 0 -81 -19 -95 -86l-24 -112h231l25 119c23 109 93 134 153 134
c28 0 52 -8 60 -13l-13 -51c-9 4 -26 9 -45 9z" />
    <glyph glyph-name="uniFB03" unicode="&#xfb03;" horiz-adv-x="842" 
d="M621 675c-42 0 -81 -19 -95 -86l-24 -112h300l-101 -477h-61l89 423h-238l-90 -423h-61l90 423h-231l-90 -423h-61l90 423h-93l11 54h93l25 119c23 109 93 134 153 134c28 0 52 -8 60 -13l-13 -51c-9 4 -26 9 -45 9c-42 0 -81 -19 -95 -86l-24 -112h231l25 119
c23 109 93 134 153 134c28 0 52 -8 60 -13l-13 -51c-9 4 -26 9 -45 9zM763 670c0 31 26 56 55 56c26 0 44 -20 44 -46c0 -29 -25 -54 -54 -54c-26 0 -45 19 -45 44z" />
    <glyph glyph-name="uniFB04" unicode="&#xfb04;" horiz-adv-x="842" 
d="M701 0h-61l89 423h-238l-90 -423h-61l90 423h-231l-90 -423h-61l90 423h-93l11 54h93l25 119c23 109 93 134 153 134c28 0 52 -8 60 -13l-13 -51c-9 4 -26 9 -45 9c-42 0 -81 -19 -95 -86l-24 -112h231l25 119c23 109 93 134 153 134c28 0 52 -8 60 -13l-13 -51
c-9 4 -26 9 -45 9c-42 0 -81 -19 -95 -86l-24 -112h239l52 245h61z" />
    <glyph glyph-name="uniFEFF" unicode="&#xfeff;" horiz-adv-x="0" 
 />
    <glyph glyph-name="i.latn_TRK" horiz-adv-x="221" 
d="M142 670c0 31 26 56 55 56c26 0 44 -20 44 -46c0 -29 -25 -54 -54 -54c-26 0 -45 19 -45 44zM80 0h-61l101 477h61z" />
    <glyph glyph-name="Ldot.latn_CAT" horiz-adv-x="532" 
d="M454 0h-414l151 709h64l-138 -650h350zM303 354c0 28 23 54 53 54c25 0 41 -21 41 -43c0 -29 -23 -53 -51 -53c-25 0 -43 19 -43 42z" />
    <glyph glyph-name="ldot.latn_CAT" horiz-adv-x="271" 
d="M79 0h-61l153 722h61zM198 305c0 28 23 54 53 54c25 0 41 -21 41 -43c0 -29 -23 -53 -51 -53c-25 0 -43 19 -43 42z" />
    <glyph glyph-name="zero.dnom" horiz-adv-x="381" 
d="M15 133c0 88 45 238 177 238c93 0 129 -68 129 -137c0 -96 -47 -239 -176 -239c-84 0 -130 56 -130 138zM65 133c0 -50 23 -93 84 -93c85 0 122 115 122 192c0 49 -24 93 -84 93c-90 0 -122 -125 -122 -192z" />
    <glyph glyph-name="one.dnom" horiz-adv-x="215" 
d="M20 257l8 39c47 3 84 29 102 67h49l-78 -363h-52l63 288c-21 -17 -55 -28 -92 -31z" />
    <glyph glyph-name="two.dnom" horiz-adv-x="347" 
d="M95 148l72 32c44 20 72 44 72 83c0 33 -24 62 -70 62c-50 0 -85 -36 -85 -90c0 -3 0 -6 1 -10l-49 3c-1 4 -1 7 -1 10c0 74 52 130 136 130c78 0 120 -49 120 -102c0 -57 -41 -98 -97 -122l-78 -35c-35 -15 -56 -38 -64 -65h210l-10 -44h-268c11 64 42 117 111 148z" />
    <glyph glyph-name="three.dnom" horiz-adv-x="349" 
d="M120 182l-17 42l139 95h-186l9 45h248l-11 -57l-132 -86c54 -1 100 -42 100 -99c0 -68 -55 -128 -142 -128c-77 0 -131 48 -131 110c0 5 0 11 1 16l49 7c-1 -5 -1 -9 -1 -14c0 -44 36 -75 83 -75c50 0 89 36 89 82c0 42 -36 64 -76 64c-7 0 -16 -1 -22 -2z" />
    <glyph glyph-name="four.dnom" horiz-adv-x="362" 
d="M-13 83l11 56l222 224h63l-51 -236h68l-9 -44h-67l-18 -83h-51l18 83h-186zM181 127l39 176l-175 -176h136z" />
    <glyph glyph-name="five.dnom" horiz-adv-x="340" 
d="M123 -7c-78 0 -130 50 -130 111c0 2 0 4 1 7l51 9c-1 -3 -1 -5 -1 -7c0 -40 29 -75 81 -75c48 0 88 34 88 85c0 43 -30 71 -77 71c-24 0 -48 -8 -69 -24l-43 23l80 170h199l-9 -45h-163l-47 -101c19 13 48 19 69 19c70 0 113 -43 113 -107c0 -74 -60 -136 -143 -136z" />
    <glyph glyph-name="six.dnom" horiz-adv-x="363" 
d="M325 343l-20 -40c-18 13 -44 22 -82 22c-72 0 -132 -54 -151 -127c19 26 63 46 104 46c70 0 114 -46 114 -110c0 -84 -72 -141 -148 -141c-73 0 -129 52 -129 137c0 148 103 239 212 239c42 0 77 -9 100 -26zM145 37c46 0 92 35 92 92c0 43 -30 72 -76 72
s-92 -35 -92 -92c0 -43 30 -72 76 -72z" />
    <glyph glyph-name="seven.dnom" horiz-adv-x="324" 
d="M320 363l-10 -45c-79 -51 -184 -142 -235 -318h-55c47 177 167 279 223 318h-213l9 45h281z" />
    <glyph glyph-name="eight.dnom" horiz-adv-x="352" 
d="M98 261c0 -35 34 -55 71 -55c41 0 76 24 76 65c0 30 -23 55 -71 56c-44 0 -76 -27 -76 -66zM53 95c1 -39 41 -59 81 -59c51 0 85 28 85 69c0 33 -27 60 -81 60c-51 0 -85 -29 -85 -70zM132 -7c-66 0 -131 32 -131 96c0 51 38 90 97 101c-30 12 -51 42 -51 72
c0 62 56 107 131 107c74 0 119 -41 119 -93c0 -46 -36 -83 -84 -95c33 -13 57 -44 57 -77c0 -64 -58 -111 -138 -111z" />
    <glyph glyph-name="nine.dnom" horiz-adv-x="361" 
d="M-2 26l21 41c23 -18 53 -29 86 -29c64 0 121 44 138 128c-18 -29 -60 -47 -97 -47c-65 0 -119 43 -119 111c0 82 68 138 145 138c73 0 129 -49 129 -136c0 -134 -74 -240 -198 -240c-39 0 -81 14 -105 34zM156 163c48 0 89 38 89 89c0 41 -34 72 -76 72
c-45 0 -89 -34 -89 -89c0 -47 34 -72 76 -72z" />
    <glyph glyph-name="space.frac" horiz-adv-x="51" 
 />
    <glyph glyph-name="space.tf" 
 />
    <glyph glyph-name="comma.tf" 
d="M178 44c0 34 27 61 61 61c33 0 58 -24 58 -65c0 -101 -88 -185 -173 -194l9 42c53 12 102 62 114 111c-5 -2 -12 -3 -20 -3c-28 0 -49 19 -49 48z" />
    <glyph glyph-name="period.tf" 
d="M232 -4c-31 0 -50 22 -50 47c0 35 26 64 61 64c31 0 49 -23 49 -50c0 -35 -28 -61 -60 -61z" />
    <glyph glyph-name="colon.tf" 
d="M226 -4c-30 0 -49 22 -49 47c0 35 26 63 61 63c30 0 48 -23 48 -49c0 -35 -27 -61 -60 -61zM307 371c-30 0 -49 22 -49 47c0 35 26 63 61 63c30 0 48 -23 48 -49c0 -35 -27 -61 -60 -61z" />
    <glyph glyph-name="semicolon.tf" 
d="M305 371c-30 0 -49 22 -49 47c0 35 26 63 61 63c30 0 48 -23 48 -49c0 -35 -27 -61 -60 -61zM175 44c0 34 27 61 61 61c33 0 58 -24 58 -65c0 -101 -88 -185 -173 -194l9 42c53 12 102 62 114 111c-5 -2 -12 -3 -20 -3c-28 0 -49 19 -49 48z" />
    <glyph glyph-name="section.tf" 
d="M34 5l58 6c-3 -13 -4 -26 -4 -38c0 -68 39 -119 121 -119c67 0 132 44 132 118c0 40 -21 72 -56 98l-90 66c-52 38 -94 79 -94 140c0 79 70 126 123 138c-46 35 -70 80 -70 127c0 112 94 181 197 181c111 0 169 -70 169 -158c0 -13 -1 -26 -3 -40l-59 -6c3 13 4 25 4 37
c0 68 -39 116 -114 116c-67 0 -133 -45 -133 -120c0 -40 20 -69 55 -95l91 -67c42 -31 94 -73 94 -137c0 -75 -64 -125 -123 -142c45 -36 71 -80 71 -127c0 -112 -97 -180 -199 -180c-115 0 -175 70 -175 159c0 13 2 33 5 43zM338 329l-80 58c-45 -6 -98 -42 -98 -100
c0 -36 22 -63 58 -90l77 -60c42 7 99 50 99 104c0 37 -24 64 -56 88z" />
    <glyph glyph-name="florin.tf" 
d="M183 11l83 412h-118v54h128l23 113c19 96 83 139 154 139c36 0 53 -5 64 -9v-55c-8 3 -23 8 -51 8c-47 0 -92 -24 -108 -103l-19 -93h133v-54h-144l-86 -432c-19 -96 -82 -139 -153 -139c-36 0 -53 5 -66 9v55c9 -3 27 -8 54 -8c45 0 90 24 106 103z" />
    <glyph glyph-name="uni2007.tf" 
 />
    <glyph glyph-name="uni2008.tf" 
 />
    <glyph glyph-name="parenleft.case" horiz-adv-x="302" 
d="M58 228c0 242 106 426 287 558l31 -35c-164 -124 -267 -286 -267 -524c0 -106 36 -205 86 -288l-43 -26c-50 81 -94 193 -94 315z" />
    <glyph glyph-name="parenright.case" horiz-adv-x="306" 
d="M274 457c0 -237 -107 -414 -285 -547l-32 34c160 127 265 281 265 514c0 107 -40 214 -94 298l43 26c54 -81 103 -203 103 -325z" />
    <glyph glyph-name="hyphen.case" horiz-adv-x="415" 
d="M342 310h-263l11 54h263z" />
    <glyph glyph-name="bracketleft.case" horiz-adv-x="275" 
d="M159 -63h-154l181 857h155l-11 -50h-101l-161 -757h102z" />
    <glyph glyph-name="bracketright.case" horiz-adv-x="276" 
d="M123 -63h-155l10 50h102l160 757h-101l11 50h154z" />
    <glyph glyph-name="braceleft.case" horiz-adv-x="328" 
d="M44 338l13 57c57 4 108 34 122 100l31 144c23 110 79 154 175 154h9l-10 -49h-9c-66 0 -98 -33 -113 -102l-34 -159c-13 -63 -60 -110 -126 -118c51 -8 77 -47 77 -95c0 -10 -2 -20 -4 -32l-31 -149c-3 -15 -4 -28 -4 -40c0 -42 21 -62 74 -62h8l-10 -49h-9
c-76 0 -115 38 -115 105c0 16 1 31 5 49l30 142c2 10 3 19 3 27c0 49 -33 74 -82 77z" />
    <glyph glyph-name="braceright.case" horiz-adv-x="329" 
d="M317 393l-13 -57c-57 -4 -108 -34 -122 -100l-31 -144c-23 -110 -79 -154 -175 -154h-9l10 49h9c66 0 98 33 113 102l34 159c13 63 60 111 126 119c-51 8 -77 46 -77 94c0 10 2 20 4 32l31 149c3 15 4 28 4 40c0 42 -21 62 -74 62h-8l10 49h9c76 0 115 -38 115 -105
c0 -16 -1 -31 -5 -49l-30 -142c-2 -10 -3 -19 -3 -27c0 -49 33 -74 82 -77z" />
    <glyph glyph-name="exclamdown.case" horiz-adv-x="237" 
d="M190 520l-92 -520h-78l127 520h43zM242 670c0 -31 -23 -57 -55 -57c-26 0 -43 21 -43 45c0 31 25 55 54 55c26 0 44 -19 44 -43z" />
    <glyph glyph-name="guillemotleft.case" horiz-adv-x="485" 
d="M387 147h-59l-95 192l171 190h67l-176 -195zM219 147h-59l-95 192l171 190h67l-176 -195z" />
    <glyph glyph-name="uni00AD.case" horiz-adv-x="404" 
d="M337 317h-263l11 52h263z" />
    <glyph glyph-name="guillemotright.case" horiz-adv-x="490" 
d="M118 529h59l95 -192l-171 -190h-67l176 195zM292 529h59l95 -192l-171 -190h-67l176 195z" />
    <glyph glyph-name="questiondown.case" horiz-adv-x="491" 
d="M280 521h54c1 -3 1 -8 1 -12c-3 -81 -41 -133 -108 -173l-50 -30c-62 -36 -98 -82 -98 -145c0 -62 43 -117 131 -117c105 0 163 86 163 173c0 4 0 8 -1 13l60 -11c1 -3 1 -7 1 -11c0 -116 -90 -220 -229 -220c-122 0 -189 80 -189 166c0 92 60 154 138 201l52 31
c55 32 75 77 75 135zM373 671c0 -31 -23 -57 -55 -57c-26 0 -43 21 -43 45c0 31 25 55 54 55c26 0 44 -19 44 -43z" />
    <glyph glyph-name="endash.case" horiz-adv-x="652" 
d="M579 310h-500l11 54h500z" />
    <glyph glyph-name="emdash.case" horiz-adv-x="1071" 
d="M998 310h-919l11 54h919z" />
    <glyph glyph-name="guilsinglleft.case" horiz-adv-x="317" 
d="M219 147h-59l-95 192l171 190h67l-176 -195z" />
    <glyph glyph-name="guilsinglright.case" horiz-adv-x="316" 
d="M118 529h59l95 -192l-171 -190h-67l176 195z" />
    <glyph glyph-name="G.ss01" horiz-adv-x="745" 
d="M445 722c155 0 255 -95 281 -219l-60 -21c-23 106 -103 181 -228 181c-159 0 -307 -135 -307 -362c0 -167 108 -256 238 -256c126 0 232 90 265 218h-270l13 57h330c-20 -186 -157 -333 -343 -333c-159 0 -298 116 -298 311c0 283 201 424 379 424z" />
    <glyph glyph-name="Gcircumflex.ss01" horiz-adv-x="745" 
d="M445 722c155 0 255 -95 281 -219l-60 -21c-23 106 -103 181 -228 181c-159 0 -307 -135 -307 -362c0 -167 108 -256 238 -256c126 0 232 90 265 218h-270l13 57h330c-20 -186 -157 -333 -343 -333c-159 0 -298 116 -298 311c0 283 201 424 379 424zM367 759h-59l134 119
h81l85 -119h-53l-78 83z" />
    <glyph glyph-name="Gbreve.ss01" horiz-adv-x="745" 
d="M445 722c155 0 255 -95 281 -219l-60 -21c-23 106 -103 181 -228 181c-159 0 -307 -135 -307 -362c0 -167 108 -256 238 -256c126 0 232 90 265 218h-270l13 57h330c-20 -186 -157 -333 -343 -333c-159 0 -298 116 -298 311c0 283 201 424 379 424zM467 754
c-82 0 -122 50 -122 108c0 6 1 14 2 18h49c-1 -4 -1 -7 -1 -10c0 -35 21 -67 77 -67c61 0 96 38 110 77h51c-18 -63 -76 -126 -166 -126z" />
    <glyph glyph-name="Gdotaccent.ss01" horiz-adv-x="745" 
d="M445 722c155 0 255 -95 281 -219l-60 -21c-23 106 -103 181 -228 181c-159 0 -307 -135 -307 -362c0 -167 108 -256 238 -256c126 0 232 90 265 218h-270l13 57h330c-20 -186 -157 -333 -343 -333c-159 0 -298 116 -298 311c0 283 201 424 379 424zM432 813
c0 29 23 54 53 54c25 0 41 -21 41 -43c0 -29 -23 -53 -51 -53c-26 0 -43 19 -43 42z" />
    <glyph glyph-name="Gcommaaccent.ss01" horiz-adv-x="745" 
d="M445 722c155 0 255 -95 281 -219l-60 -21c-23 106 -103 181 -228 181c-159 0 -307 -135 -307 -362c0 -167 108 -256 238 -256c126 0 232 90 265 218h-270l13 57h330c-20 -186 -157 -333 -343 -333c-159 0 -298 116 -298 311c0 283 201 424 379 424zM270 -203l6 31
c32 1 64 18 74 51c-3 -2 -10 -4 -16 -4c-23 0 -38 16 -38 35c0 27 20 48 48 48c22 0 46 -13 46 -47c0 -71 -62 -114 -120 -114z" />
    <glyph glyph-name="r.ss03" horiz-adv-x="262" 
d="M172 425c0 31 26 56 55 56c26 0 44 -20 44 -46c0 -29 -25 -54 -54 -54c-26 0 -45 19 -45 44zM80 0h-61l101 477h61z" />
    <glyph glyph-name="racute.ss03" horiz-adv-x="262" 
d="M172 425c0 31 26 56 55 56c26 0 44 -20 44 -46c0 -29 -25 -54 -54 -54c-26 0 -45 19 -45 44zM80 0h-61l101 477h61zM371 677l-155 -140h-55l124 140h86z" />
    <glyph glyph-name="rcommaaccent.ss03" horiz-adv-x="262" 
d="M172 425c0 31 26 56 55 56c26 0 44 -20 44 -46c0 -29 -25 -54 -54 -54c-26 0 -45 19 -45 44zM80 0h-61l101 477h61zM-41 -203l6 31c32 1 64 18 74 51c-3 -2 -10 -4 -16 -4c-23 0 -38 16 -38 35c0 27 20 48 48 48c22 0 46 -13 46 -47c0 -71 -62 -114 -120 -114z" />
    <glyph glyph-name="rcaron.ss03" horiz-adv-x="262" 
d="M172 425c0 31 26 56 55 56c26 0 44 -20 44 -46c0 -29 -25 -54 -54 -54c-26 0 -45 19 -45 44zM80 0h-61l101 477h61zM330 676h58l-137 -138h-78l-77 138h51l71 -99z" />
    <glyph glyph-name="ampersand.ss04" horiz-adv-x="650" 
d="M611 241h-85c-23 -172 -139 -254 -267 -254c-140 0 -225 85 -225 193c0 119 94 203 200 220c-56 24 -86 76 -86 130c0 109 95 192 205 192c119 0 184 -73 184 -172c0 -8 -1 -16 -2 -22l-62 -8c1 6 2 14 2 21c0 72 -40 125 -126 125c-74 0 -139 -57 -139 -135
c0 -55 42 -103 114 -111l-12 -55h-12c-98 0 -202 -59 -202 -178c0 -76 56 -142 163 -142c94 0 183 54 204 196h-108l11 58h255z" />
    <glyph glyph-name="registered.ss06" horiz-adv-x="479" 
d="M99 527c0 105 84 190 188 190c105 0 190 -85 190 -190c0 -104 -85 -189 -190 -189c-104 0 -188 85 -188 189zM134 527c0 -87 68 -156 154 -156s154 69 154 156s-68 157 -154 157s-154 -70 -154 -157zM263 532h32c25 0 45 18 45 38c0 18 -12 30 -35 30h-28zM256 503
l-15 -73h-35l42 200h67c37 0 60 -25 60 -55c0 -33 -25 -62 -57 -68l27 -77h-37l-24 73h-28z" />
    <glyph glyph-name="Euro" unicode="&#x20ac;" horiz-adv-x="738" 
d="M463 259h-254c20 -130 117 -215 256 -215c62 0 119 19 165 50l20 -50c-53 -35 -120 -56 -192 -56c-173 0 -293 117 -314 271h-106l12 50h91v7c0 26 3 54 9 83h-83l12 49h85c56 155 204 273 379 273c86 0 157 -27 204 -70l-33 -45c-40 35 -108 60 -178 60
c-129 0 -256 -87 -307 -218h358l-35 -49h-340c-6 -26 -9 -53 -9 -80v-10h292z" />
    <glyph glyph-name="uni2113" unicode="&#x2113;" horiz-adv-x="378" 
d="M201 -6c-76 0 -121 39 -121 108c0 11 1 25 4 39l30 143c-26 -8 -51 -15 -75 -20l11 54c23 5 49 13 76 24l50 240c20 92 64 139 129 139c66 0 103 -42 103 -101c0 -141 -110 -252 -232 -311l-35 -165c-1 -8 -3 -22 -3 -32c0 -48 31 -66 74 -66c24 0 46 6 68 15l-11 -53
c-20 -9 -42 -14 -68 -14zM232 578l-42 -204c83 49 161 134 161 241c0 31 -15 53 -48 53c-35 0 -58 -28 -71 -90z" />
    <glyph glyph-name="uni2160" unicode="&#x2160;" horiz-adv-x="455" 
d="M510 709l-11 -56h-163l-127 -597h163l-12 -56h-386l10 56h164l126 597h-163l12 56h387z" />
    <glyph glyph-name="uni2161" unicode="&#x2161;" horiz-adv-x="725" 
d="M642 56l-11 -56h-657l10 56h162l126 597h-161l12 56h658l-12 -56h-162l-127 -597h162zM419 56l127 597h-212l-127 -597h212z" />
    <glyph glyph-name="uni2162" unicode="&#x2162;" horiz-adv-x="993" 
d="M911 56l-12 -56h-925l10 56h162l126 597h-161l12 56h926l-12 -56h-161l-126 -597h161zM689 56l125 597h-209l-126 -597h210zM333 653l-125 -597h209l126 597h-210z" />
    <glyph glyph-name="uni2163" unicode="&#x2163;" horiz-adv-x="969" 
d="M886 56l-11 -56h-901l10 56h158l127 598h-157l11 56h902l-11 -56h-109l-311 -598h292zM331 654l-128 -598h279l-51 598h-100zM540 77l295 577h-342z" />
    <glyph glyph-name="uni2164" unicode="&#x2164;" horiz-adv-x="749" 
d="M113 653l11 56h680l-11 -56h-97l-311 -597h281l-12 -56h-680l11 56h288l-50 597h-110zM331 77l295 576h-342z" />
    <glyph glyph-name="uni2165" unicode="&#x2165;" horiz-adv-x="968" 
d="M1023 709l-11 -56h-147l-126 -597h146l-12 -56h-899l11 56h289l-51 597h-110l11 56h899zM385 56h292l127 597h-108zM331 77l295 576h-342z" />
    <glyph glyph-name="uni2166" unicode="&#x2166;" horiz-adv-x="1254" 
d="M1310 709l-12 -56h-163l-126 -597h163l-12 -56h-1186l11 56h289l-51 597h-110l11 56h1186zM865 653l-126 -597h208l127 597h-209zM696 653l-311 -597h292l127 597h-108zM331 77l295 576h-342z" />
    <glyph glyph-name="uni2167" unicode="&#x2167;" horiz-adv-x="1508" 
d="M1564 709l-12 -56h-163l-127 -597h163l-11 -56h-1440l11 56h289l-51 597h-110l11 56h1440zM739 56h200l127 597h-201zM1000 56h201l127 597h-201zM696 653l-310 -597h292l126 597h-108zM331 77l296 576h-343z" />
    <glyph glyph-name="uni2168" unicode="&#x2168;" horiz-adv-x="940" 
d="M845 0h-871l10 56h165l126 597h-164l12 56h873l-12 -56h-97l-261 -305l131 -292h100zM299 56l254 297l-133 300h-84l-126 -597h89zM813 653h-327l111 -253zM374 56h315l-107 246z" />
    <glyph glyph-name="uni2169" unicode="&#x2169;" horiz-adv-x="720" 
d="M81 56l254 297l-133 300h-90l11 56h653l-12 -56h-95l-261 -305l130 -292h99l-12 -56h-652l11 56h97zM594 653h-326l111 -253zM156 56h315l-107 246z" />
    <glyph glyph-name="uni216C" unicode="&#x216c;" horiz-adv-x="610" 
d="M572 278l-59 -278h-538l10 56h145l126 597h-144l12 56h359l-12 -56h-154l-126 -597h273l47 222h61z" />
    <glyph glyph-name="uni216D" unicode="&#x216d;" horiz-adv-x="736" 
d="M697 472h-53c-7 106 -71 194 -202 194c-169 0 -320 -146 -320 -359c0 -178 108 -265 241 -265c132 0 211 83 242 195h61l-50 -237h-60l20 93c-42 -57 -113 -105 -221 -105c-158 0 -292 104 -292 317c0 257 193 416 381 416c116 0 189 -62 218 -125l24 113h61z" />
    <glyph glyph-name="uni216E" unicode="&#x216e;" horiz-adv-x="749" 
d="M-16 56h164l127 597h-163l12 56h315c165 0 281 -95 281 -282c0 -236 -176 -427 -420 -427h-326zM207 56h97c177 0 354 148 354 367c0 163 -98 230 -226 230h-96z" />
    <glyph glyph-name="uni216F" unicode="&#x216f;" horiz-adv-x="1028" 
d="M341 709l125 -619l385 619h230l-12 -56h-137l-126 -597h141l-12 -56h-321l11 56h119l121 567l-390 -622h-49l-126 621l-120 -566h125l-12 -56h-318l10 56h136l126 597h-135l12 56h217z" />
    <glyph glyph-name="zero.numr" horiz-adv-x="380" 
d="M199 341c-76 7 -111 63 -111 136c0 88 44 238 176 238c94 0 129 -68 129 -137c0 -96 -46 -239 -176 -239c-6 0 -12 1 -18 2zM137 477c0 -46 19 -88 75 -92c3 -1 6 -1 9 -1c86 0 123 115 123 192c0 49 -25 94 -84 94c-90 0 -123 -126 -123 -193z" />
    <glyph glyph-name="one.numr" horiz-adv-x="212" 
d="M93 603l7 39c51 4 87 32 103 67h47l-78 -363h-51l61 280c-10 -10 -66 -23 -89 -23z" />
    <glyph glyph-name="two.numr" horiz-adv-x="344" 
d="M243 714c78 0 120 -49 120 -102c0 -57 -40 -98 -97 -123l-77 -34c-36 -16 -57 -39 -65 -65h210l-10 -44h-267c10 63 42 118 110 148l73 32c36 16 72 37 72 85c0 32 -26 61 -71 61c-49 0 -85 -37 -85 -92c0 -1 0 -3 1 -7l-48 1c-2 6 -2 10 -2 15c3 71 55 125 136 125z" />
    <glyph glyph-name="three.numr" horiz-adv-x="347" 
d="M214 529c-7 0 -16 -1 -22 -2l-17 42l139 95h-186l9 45h248l-11 -57l-132 -86c54 -4 100 -42 100 -99c0 -68 -55 -128 -142 -128c-77 0 -131 48 -131 110c0 5 0 11 1 16l49 7c-1 -5 -1 -9 -1 -14c0 -44 36 -75 83 -75c50 0 89 36 89 82c0 42 -36 64 -76 64z" />
    <glyph glyph-name="four.numr" horiz-adv-x="359" 
d="M59 429l11 55l222 225h62l-50 -236h67l-9 -44h-67l-18 -83h-50l17 83h-185zM253 473l39 177l-176 -177h137z" />
    <glyph glyph-name="five.numr" horiz-adv-x="340" 
d="M205 665l-48 -104c20 15 48 21 70 21c70 0 113 -43 113 -107c0 -74 -60 -136 -144 -136c-77 0 -129 52 -129 112v6l51 9v-6c0 -42 29 -76 80 -76c49 0 89 34 89 86c0 43 -31 70 -77 70c-24 0 -48 -8 -70 -24l-42 23l80 170h199l-9 -44h-163z" />
    <glyph glyph-name="six.numr" horiz-adv-x="361" 
d="M148 544c17 24 59 46 100 46c70 0 115 -46 115 -110c0 -84 -72 -141 -149 -141c-73 0 -128 52 -128 137c0 148 103 239 212 239c42 0 77 -9 99 -26l-20 -39c-18 12 -43 21 -81 21c-72 0 -129 -54 -148 -127zM233 547c-47 0 -92 -40 -92 -90c0 -43 33 -74 76 -74
c46 0 93 35 93 93c0 43 -31 71 -77 71z" />
    <glyph glyph-name="seven.numr" horiz-adv-x="324" 
d="M147 346h-54c47 177 166 279 224 319h-214l9 44h280l-9 -45c-80 -51 -184 -142 -236 -318z" />
    <glyph glyph-name="eight.numr" horiz-adv-x="351" 
d="M171 608c0 -37 34 -56 70 -56c42 0 77 24 77 65c0 30 -23 56 -71 56c-44 0 -76 -27 -76 -65zM126 441c0 -40 40 -59 81 -59c51 0 84 28 84 69c0 33 -26 60 -80 60c-52 0 -85 -29 -85 -70zM205 339c-66 0 -131 32 -131 96c0 51 38 90 97 101c-31 12 -51 42 -51 72
c0 62 56 107 131 107c73 0 119 -41 119 -93c0 -46 -37 -83 -84 -95c33 -13 57 -44 57 -77c0 -64 -58 -111 -138 -111z" />
    <glyph glyph-name="nine.numr" horiz-adv-x="359" 
d="M315 516c-19 -32 -59 -50 -96 -50c-65 0 -119 43 -119 111c0 82 68 138 145 138c73 0 128 -49 128 -137c0 -133 -74 -239 -197 -239c-40 0 -81 14 -105 34l20 39c22 -18 54 -28 86 -28c66 0 121 46 138 132zM229 509c48 0 89 39 89 90c0 41 -34 72 -76 72
c-46 0 -90 -34 -90 -90c0 -46 35 -72 77 -72z" />
    <glyph glyph-name="a.ordn" horiz-adv-x="420" 
d="M270 672c-72 0 -126 -73 -126 -159c0 -61 33 -104 94 -104c75 0 126 79 126 162c0 59 -33 101 -94 101zM397 709h50l-58 -275c-4 -15 -7 -43 -7 -54v-8h-49v5c0 8 1 25 6 48c-20 -29 -58 -61 -112 -61c-87 0 -135 66 -135 148c0 115 78 206 176 206c77 0 106 -47 115 -75
z" />
    <glyph glyph-name="b.ordn" horiz-adv-x="424" 
d="M131 372h-51l109 509h51l-46 -214c20 24 61 51 113 51c83 0 133 -62 133 -145c0 -118 -79 -210 -178 -210c-68 0 -105 42 -117 77zM291 672c-73 0 -126 -73 -126 -156c0 -61 34 -107 93 -107c67 0 129 64 129 159c0 60 -36 104 -96 104z" />
    <glyph glyph-name="c.ordn" horiz-adv-x="388" 
d="M417 611l-48 -15c-8 44 -42 75 -94 75c-65 0 -131 -58 -131 -157c0 -65 42 -107 103 -107c55 0 88 36 106 70l44 -18c-25 -48 -77 -97 -153 -97c-93 0 -152 64 -152 151c0 121 90 204 186 204c86 0 129 -53 139 -106z" />
    <glyph glyph-name="d.ordn" horiz-adv-x="420" 
d="M270 671c-72 0 -126 -73 -126 -159c0 -61 33 -104 94 -104c75 0 126 79 126 162c0 59 -33 101 -94 101zM339 422c-20 -27 -58 -59 -112 -59c-87 0 -135 66 -135 148c0 115 78 206 176 206c77 0 105 -46 115 -71l50 234h51l-96 -447c-3 -15 -7 -38 -7 -62h-48
c0 15 2 35 6 51z" />
    <glyph glyph-name="e.ordn" horiz-adv-x="388" 
d="M151 569h207c1 7 1 11 1 17c0 45 -27 87 -91 87s-103 -51 -117 -104zM403 530h-260c-1 -6 -2 -14 -2 -20c0 -63 43 -104 100 -104c51 0 86 30 106 65l39 -21c-26 -49 -79 -88 -146 -88c-84 0 -148 56 -148 150c0 125 90 205 179 205c92 0 139 -58 139 -135
c0 -21 -4 -42 -7 -52z" />
    <glyph glyph-name="f.ordn" horiz-adv-x="245" 
d="M306 664h-88l-61 -292h-52l62 292h-67l9 45h68l14 70c15 72 62 99 113 99c22 0 40 -7 48 -11l-9 -43c-7 3 -19 7 -36 7c-30 0 -57 -16 -67 -61l-13 -61h89z" />
    <glyph glyph-name="g.ordn" horiz-adv-x="410" 
d="M357 576c0 52 -32 96 -93 96c-64 0 -119 -58 -119 -140c0 -56 32 -98 93 -98c65 0 119 59 119 142zM55 357l49 9c0 -50 30 -92 96 -92c72 0 105 52 119 118l10 49c-16 -26 -50 -50 -100 -50c-85 0 -134 58 -134 137c0 106 74 188 168 188c66 0 100 -36 110 -70l14 63h51
l-68 -318c-16 -78 -59 -162 -170 -162c-95 0 -144 58 -145 128z" />
    <glyph glyph-name="h.ordn" horiz-adv-x="394" 
d="M354 371h-52l43 204c2 9 3 19 3 28c0 38 -18 70 -68 70c-52 0 -95 -46 -105 -92l-45 -210h-51l109 509h51l-45 -210c22 28 61 47 103 47c71 0 105 -47 105 -103c0 -12 -2 -24 -4 -34z" />
    <glyph glyph-name="i.ordn" horiz-adv-x="175" 
d="M167 840c0 25 19 43 42 43c22 0 35 -14 35 -34c0 -24 -20 -42 -42 -42c-21 0 -35 14 -35 33zM131 372h-51l72 337h51z" />
    <glyph glyph-name="j.ordn" horiz-adv-x="175" 
d="M71 330l81 379h51l-83 -389c-12 -57 -52 -88 -100 -88c-27 0 -43 7 -50 11l9 42c9 -4 21 -8 35 -8c31 0 49 16 57 53zM167 840c0 25 19 43 42 43c21 0 35 -14 35 -34c0 -24 -20 -42 -43 -42c-20 0 -34 14 -34 33z" />
    <glyph glyph-name="k.ordn" horiz-adv-x="364" 
d="M310 372l-81 168l-75 -58l-23 -110h-51l109 509h51l-71 -328l203 156h76l-179 -138l99 -199h-58z" />
    <glyph glyph-name="l.ordn" horiz-adv-x="175" 
d="M131 372h-51l109 509h51z" />
    <glyph glyph-name="m.ordn" horiz-adv-x="604" 
d="M349 372h-51l44 207c2 9 3 19 3 27c0 37 -21 67 -67 67c-58 0 -93 -46 -103 -93l-44 -208h-51l62 288c5 22 6 38 6 49h50c0 -10 -2 -29 -6 -44c20 30 60 53 104 53c50 0 81 -29 93 -65c25 41 67 65 120 65c61 0 103 -41 103 -102c0 -10 -1 -21 -3 -32l-46 -212h-51
l45 208c2 9 3 18 3 26c0 37 -24 67 -72 67c-50 0 -83 -40 -94 -91z" />
    <glyph glyph-name="n.ordn" horiz-adv-x="393" 
d="M192 665c21 31 62 53 106 53c69 0 103 -46 103 -102c0 -10 -1 -21 -3 -32l-46 -212h-51l45 208c2 9 3 18 3 26c0 38 -21 67 -68 67c-51 0 -96 -43 -106 -93l-44 -208h-51l62 288c5 21 6 38 6 49h50c0 -10 -2 -29 -6 -44z" />
    <glyph glyph-name="o.ordn" horiz-adv-x="410" 
d="M274 671c-66 0 -130 -57 -130 -156c0 -63 36 -108 99 -108c64 0 130 57 130 157c0 66 -40 107 -99 107zM425 566c0 -120 -86 -204 -183 -204c-91 0 -150 63 -150 151c0 122 87 204 184 204c91 0 149 -64 149 -151z" />
    <glyph glyph-name="p.ordn" horiz-adv-x="423" 
d="M292 672c-74 0 -127 -73 -127 -156c0 -63 34 -107 94 -107c66 0 128 64 128 159c0 60 -35 104 -95 104zM192 662c21 27 63 55 115 55c83 0 132 -60 132 -143c0 -118 -78 -211 -176 -211c-67 0 -105 40 -118 75l-43 -201h-51l90 417c5 22 7 44 7 55h50
c0 -10 -1 -28 -6 -47z" />
    <glyph glyph-name="q.ordn" horiz-adv-x="420" 
d="M448 709l-101 -472h-51l38 178c-20 -23 -56 -51 -106 -51c-87 0 -136 66 -136 148c0 115 78 205 176 205c75 0 105 -44 116 -71l13 63h51zM270 672c-73 0 -127 -73 -127 -159c0 -60 35 -104 96 -104c75 0 125 79 125 161c0 60 -33 102 -94 102z" />
    <glyph glyph-name="r.ordn" horiz-adv-x="258" 
d="M190 657c26 40 66 55 104 55c13 0 26 -1 34 -4l-12 -54c-10 4 -23 6 -35 6c-52 0 -95 -33 -111 -107l-39 -181h-51l59 279c6 29 8 47 8 58h50c0 -10 -1 -29 -7 -52z" />
    <glyph glyph-name="s.ordn" horiz-adv-x="323" 
d="M198 362c-79 0 -122 51 -122 105c0 5 1 11 2 14l47 12c-1 -4 -1 -7 -1 -11c0 -45 25 -78 77 -78c41 0 70 25 70 59c0 22 -17 38 -42 47l-50 19c-40 15 -64 42 -64 81c0 59 52 107 122 107c86 0 114 -60 116 -101l-47 -11c0 36 -21 69 -73 69c-36 0 -69 -22 -69 -56
c0 -22 14 -37 38 -46l50 -18c44 -16 69 -48 69 -86c0 -55 -43 -106 -123 -106z" />
    <glyph glyph-name="t.ordn" horiz-adv-x="248" 
d="M217 664l-40 -189c-2 -8 -3 -16 -3 -21c0 -28 17 -42 50 -42c9 0 19 2 24 3l-9 -43c-6 -2 -19 -4 -33 -4c-51 0 -84 30 -84 77c0 9 2 19 4 29l41 190h-69l10 45h19c34 0 55 14 62 46l13 60h48l-23 -106h83l-10 -45h-83z" />
    <glyph glyph-name="u.ordn" horiz-adv-x="391" 
d="M309 415c-18 -26 -55 -51 -96 -51c-79 0 -113 52 -113 109c0 13 2 25 5 38l42 198h51l-42 -196c-2 -10 -4 -21 -4 -32c0 -38 18 -73 72 -73c50 0 88 43 99 93l45 208h50l-56 -263c-5 -22 -8 -45 -8 -74h-48c0 14 1 33 3 43z" />
    <glyph glyph-name="v.ordn" horiz-adv-x="341" 
d="M418 709l-203 -337h-51l-63 337h54l45 -277l160 277h58z" />
    <glyph glyph-name="w.ordn" horiz-adv-x="556" 
d="M338 709h53l39 -273l141 273h55l-180 -337h-54l-38 276l-152 -276h-55l-38 337h51l27 -272z" />
    <glyph glyph-name="x.ordn" horiz-adv-x="347" 
d="M223 505l-126 -133h-64l165 172l-88 165h55l67 -128l119 128h65l-159 -167l93 -170h-57z" />
    <glyph glyph-name="y.ordn" horiz-adv-x="347" 
d="M104 237h-58l127 186l-78 286h54l62 -235l156 235h58z" />
    <glyph glyph-name="z.ordn" horiz-adv-x="342" 
d="M325 372h-271l10 45l254 247h-198l9 45h263l-10 -45l-255 -247h207z" />
    <glyph glyph-name="numbersign.tf" 
d="M339 260l56 198h-148l-55 -198h147zM268 0l59 210h-148l-58 -210h-55l59 210h-91v50h103l55 198h-106v50h119l56 201h55l-56 -201h147l56 201h56l-57 -201h103v-50h-115l-56 -198h113v-50h-125l-59 -210h-55z" />
    <glyph glyph-name="dollar.tf" 
d="M266 409l19 -9l55 255h-6c-76 0 -151 -52 -151 -131c0 -56 28 -91 83 -115zM263 54c97 0 167 56 167 137c0 51 -25 90 -92 120l-19 8zM228 -113h-50l24 119c-103 21 -163 97 -163 195c0 16 1 30 4 46l57 10c-3 -14 -4 -29 -4 -43c0 -69 33 -136 117 -155l60 281l-35 16
c-74 32 -115 85 -115 161c0 117 103 190 209 192h19l23 103h50l-24 -110c105 -23 148 -105 149 -184l-56 -12c0 59 -29 122 -104 142l-57 -270l31 -14c85 -37 128 -90 128 -167c0 -113 -94 -196 -224 -197h-15z" />
    <glyph glyph-name="percent.tf" 
d="M553 552l-14 -64l-486 -317l13 62zM184 447c-71 0 -123 53 -123 122c0 77 68 149 150 149c71 0 125 -55 125 -123c0 -84 -76 -148 -152 -148zM207 671c-51 0 -100 -43 -100 -99c0 -46 35 -80 81 -80c51 0 100 43 100 101c0 45 -34 78 -81 78zM258 119
c0 77 68 148 150 148c71 0 125 -54 125 -122c0 -84 -76 -148 -151 -148c-72 0 -124 52 -124 122zM404 220c-50 0 -100 -42 -100 -98c0 -47 35 -80 81 -80c52 0 100 43 100 101c0 44 -34 77 -81 77z" />
    <glyph glyph-name="plus.tf" 
d="M75 373h194v207h53v-207h195v-50h-195v-210h-53v210h-194v50z" />
    <glyph glyph-name="zero.tf" 
d="M565 460c0 -191 -102 -472 -318 -472c-167 0 -218 129 -218 261c0 191 102 472 318 472c167 0 218 -129 218 -261zM503 462c0 112 -41 203 -161 203c-165 0 -251 -239 -251 -418c0 -111 41 -202 160 -202c166 0 252 238 252 417z" />
    <glyph glyph-name="one.tf" 
d="M455 0h-424l11 56h177l112 535c-25 -39 -106 -81 -183 -85l10 52c98 9 166 76 199 151h61l-138 -653h186z" />
    <glyph glyph-name="two.tf" 
d="M81 58h382l-13 -58h-449c13 109 76 204 188 260l154 78c89 45 149 106 149 196c0 73 -47 132 -142 132c-99 0 -179 -72 -181 -191l-60 10c3 133 106 236 246 236c132 0 199 -87 199 -184c0 -119 -78 -192 -179 -243l-167 -84c-60 -31 -112 -90 -127 -152z" />
    <glyph glyph-name="three.tf" 
d="M238 -12c-142 0 -227 92 -227 211c0 9 1 20 4 30l61 9c-2 -11 -4 -24 -4 -37c0 -96 75 -158 167 -158c103 0 194 76 194 191c0 86 -61 139 -158 139c-13 0 -30 -2 -41 -5l-19 50l302 234h-374l13 57h452l-11 -59l-299 -232c109 0 198 -66 198 -183
c0 -139 -114 -247 -258 -247z" />
    <glyph glyph-name="four.tf" 
d="M357 0h-61l36 175h-333l16 70l407 464h85l-101 -479h126l-11 -55h-127zM433 642l-356 -412h267z" />
    <glyph glyph-name="five.tf" 
d="M269 652l-116 -249c38 37 97 53 147 53c130 0 203 -85 203 -204c0 -147 -113 -264 -263 -264c-137 0 -219 98 -219 210c0 6 0 17 1 23l60 12c-1 -6 -1 -14 -1 -20c0 -93 54 -170 164 -170c104 0 196 85 196 201c0 96 -56 159 -159 159c-52 0 -104 -20 -149 -60l-51 28
l154 338h341l-6 -57h-302z" />
    <glyph glyph-name="six.tf" 
d="M419 659c-168 0 -284 -158 -315 -330c28 71 103 134 215 134c120 0 202 -78 202 -201c0 -163 -127 -274 -262 -274c-139 0 -223 97 -223 247c0 228 139 480 391 480c79 0 139 -25 173 -56l-30 -49c-27 26 -77 49 -151 49zM302 410c-102 0 -202 -85 -202 -202
c0 -96 62 -165 160 -165c99 0 198 81 198 208c0 97 -59 159 -156 159z" />
    <glyph glyph-name="seven.tf" 
d="M620 709l-13 -59c-181 -141 -352 -338 -453 -650h-66c102 326 286 528 443 652h-412l12 57h489z" />
    <glyph glyph-name="eight.tf" 
d="M394 354c63 -27 101 -82 101 -158c0 -121 -105 -208 -242 -208c-150 0 -228 85 -228 186c0 107 86 182 182 198c-58 26 -93 82 -93 148c0 116 103 201 232 201c136 0 212 -79 212 -177c0 -96 -77 -173 -164 -190zM173 516c0 -88 76 -129 155 -129c94 0 169 63 169 152
c0 71 -55 128 -157 128c-97 0 -167 -65 -167 -151zM87 178c0 -95 85 -137 169 -137c105 0 181 72 181 160c0 75 -55 138 -171 138c-112 0 -179 -71 -179 -161z" />
    <glyph glyph-name="nine.tf" 
d="M329 666c-92 0 -192 -78 -192 -200c0 -101 65 -161 158 -161c100 0 194 84 194 201c0 93 -65 160 -160 160zM333 721c137 0 222 -94 222 -248c0 -217 -122 -480 -366 -480c-75 0 -150 26 -190 69l29 49c40 -38 95 -62 164 -62c164 0 256 140 292 323
c-36 -75 -111 -120 -199 -120c-119 0 -209 82 -209 205c0 169 129 264 257 264z" />
    <glyph glyph-name="less.tf" 
d="M68 320v55l402 207v-60l-343 -174l343 -174v-61z" />
    <glyph glyph-name="equal.tf" 
d="M514 420h-447v50h447v-50zM514 226h-447v51h447v-51z" />
    <glyph glyph-name="greater.tf" 
d="M524 375v-55l-402 -207v61l343 174l-343 174v60z" />
    <glyph glyph-name="cent.tf" 
d="M134 305c0 -68 32 -132 99 -154l81 384c-95 -10 -180 -100 -180 -230zM270 88l-19 -88h-49l20 96c-91 24 -148 105 -148 207c0 166 120 282 252 288l16 80h49l-16 -83c92 -13 141 -78 154 -146l-53 -19c-11 52 -46 99 -112 110l-83 -391c85 0 135 43 173 114l48 -23
c-39 -84 -118 -145 -217 -145h-15z" />
    <glyph glyph-name="sterling.tf" 
d="M526 187c-24 -117 -100 -187 -214 -187h-336l14 66c100 46 165 134 167 231c0 7 -1 15 -2 22h-100l11 55h83c-6 43 -16 88 -16 131c0 127 90 217 214 217c129 0 187 -82 187 -178c0 -10 -2 -24 -4 -31l-61 -8c2 11 3 22 3 32c0 73 -41 130 -127 130
c-87 0 -150 -62 -150 -160c0 -41 10 -87 17 -133h205l-11 -55h-189c1 -11 1 -14 1 -21c-2 -108 -63 -192 -150 -242h240c88 0 143 58 161 141z" />
    <glyph glyph-name="currency.tf" 
d="M85 343c0 50 18 97 46 132l-73 77l38 37l74 -76c36 27 80 43 128 43c46 0 89 -14 123 -40l71 73l38 -37l-69 -72c31 -37 50 -85 50 -137c0 -51 -18 -98 -48 -134l68 -70l-37 -38l-70 71c-35 -27 -79 -42 -126 -42c-50 0 -96 17 -131 46l-72 -75l-38 38l72 75
c-28 35 -44 80 -44 129zM138 343c0 -91 72 -161 160 -161s158 70 158 161c0 92 -70 161 -158 161s-160 -69 -160 -161z" />
    <glyph glyph-name="yen.tf" 
d="M170 709l128 -341l260 341h73l-272 -347h159l-10 -50h-190l-18 -83h193l-11 -50h-193l-38 -179h-63l38 179h-184l11 50h184l18 83h-186l10 50h158l-134 347h67z" />
    <glyph glyph-name="logicalnot.tf" 
d="M499 218h-54v201h-375v53h429v-254z" />
    <glyph glyph-name="plusminus.tf" 
d="M68 434h187v145h53v-145h189v-50h-189v-145h-53v145h-187v50zM68 176h429v-51h-429v51z" />
    <glyph glyph-name="multiply.tf" 
d="M474 125l-179 186l-178 -185l-35 36l177 186l-177 184l36 37l178 -184l178 184l36 -36l-179 -185l179 -186z" />
    <glyph glyph-name="divide.tf" 
d="M75 322v53h441v-53h-441zM248 170c0 26 21 47 48 47c26 0 47 -21 47 -47s-21 -48 -47 -48c-27 0 -48 22 -48 48zM248 525c0 27 21 48 48 48c26 0 47 -21 47 -48c0 -26 -21 -48 -47 -48c-27 0 -48 22 -48 48z" />
    <glyph glyph-name="perthousand.tf" 
d="M553 595l-15 -63l-490 -300l14 62zM166 487c-58 0 -103 47 -103 103c0 66 53 126 124 126c60 0 104 -44 104 -102c0 -69 -57 -127 -125 -127zM184 674c-41 0 -78 -36 -78 -81c0 -35 25 -65 63 -65c40 0 79 36 79 83c0 35 -26 63 -64 63zM405 -6c-39 0 -71 21 -87 51
c-22 -30 -57 -51 -96 -51c-59 0 -104 47 -104 103c0 65 55 127 126 127c40 0 71 -20 86 -51c21 30 55 51 96 51c60 0 104 -45 104 -102c0 -70 -58 -128 -125 -128zM225 36c37 0 72 29 78 71c0 4 1 7 1 12c0 34 -25 63 -63 63c-41 0 -78 -37 -78 -82c0 -34 24 -64 62 -64z
M422 182c-41 0 -77 -37 -77 -82c0 -34 24 -64 62 -64c41 0 79 36 79 83c0 34 -26 63 -64 63z" />
    <glyph glyph-name="Euro.tf" 
d="M487 20c-35 -18 -86 -31 -136 -31c-170 0 -255 116 -264 271h-84l12 51h71c2 32 7 63 14 94h-67l12 50h70c55 150 182 265 355 266c79 0 131 -27 164 -55l-32 -47c-30 27 -80 45 -139 45c-124 0 -233 -82 -284 -209h309l-29 -50h-297c-8 -30 -12 -61 -14 -94h257l-30 -51
h-226c9 -129 75 -214 206 -214c46 0 95 12 126 29z" />
    <glyph glyph-name="minus.tf" 
d="M503 323h-421v50h421v-50z" />
    <glyph glyph-name="approxequal.tf" 
d="M494 285l34 -29c-30 -42 -71 -72 -133 -72c-30 0 -58 10 -91 27l-51 27c-23 12 -47 19 -69 19c-44 0 -69 -17 -96 -48l-35 30c32 43 70 74 132 74c29 0 60 -11 94 -29l46 -25c26 -13 53 -22 78 -22c40 0 66 17 91 48zM494 478l34 -29c-30 -42 -71 -72 -133 -72
c-30 0 -58 10 -91 27l-51 27c-23 12 -47 19 -69 19c-44 0 -69 -17 -96 -48l-35 30c32 43 70 74 132 74c29 0 60 -11 94 -29l46 -25c26 -13 53 -22 78 -22c40 0 66 17 91 48z" />
    <glyph glyph-name="notequal.tf" 
d="M519 226h-278l-85 -110h-61l84 110h-107v51h145l111 143h-256v50h293l83 107h62l-83 -107h92v-50h-129l-111 -143h240v-51z" />
    <glyph glyph-name="lessequal.tf" 
d="M79 381v53l404 147v-54l-336 -120l336 -118v-55zM79 176h404v-51h-404v51z" />
    <glyph glyph-name="greaterequal.tf" 
d="M499 434v-53l-405 -147v55l336 118l-336 120v54zM94 176h405v-51h-405v51z" />
    <glyph glyph-name="one.ss05" horiz-adv-x="457" 
d="M382 0h-377l11 56h153l113 535c-25 -39 -114 -80 -183 -85l10 52c97 9 165 76 199 151h61l-138 -653h162z" />
    <glyph glyph-name="florin.ss09" horiz-adv-x="353" 
d="M82 11l83 412h-118v54h128l23 113c19 96 83 139 154 139c36 0 53 -5 64 -9v-55c-8 3 -23 8 -51 8c-47 0 -92 -24 -108 -103l-19 -93h133v-54h-144l-86 -432c-19 -96 -82 -139 -153 -139c-36 0 -53 5 -66 9v55c9 -3 27 -8 54 -8c45 0 90 24 106 103z" />
    <glyph glyph-name="daggerdbl.ss09" horiz-adv-x="425" 
d="M179 0h-54l34 161h-136l11 52h136l61 283h-136l11 52h135l35 161h53l-34 -161h136l-11 -52h-136l-60 -283h135l-11 -52h-135z" />
    <glyph glyph-name="caron.alt" horiz-adv-x="184" 
d="M209 715l-96 -180h-48l75 180h69z" />
    <glyph glyph-name="commaturn" horiz-adv-x="160" 
d="M185 694l-6 -31c-32 -1 -64 -18 -74 -51c3 2 10 4 16 4c23 0 38 -16 38 -35c0 -27 -20 -48 -48 -48c-22 0 -46 13 -46 47c0 71 62 114 120 114z" />
    <glyph glyph-name="f_f" horiz-adv-x="600" 
d="M621 675c-42 0 -81 -19 -95 -86l-24 -112h118l-11 -54h-118l-90 -423h-61l90 423h-231l-90 -423h-61l90 423h-93l11 54h93l25 119c23 109 93 134 153 134c28 0 52 -8 60 -13l-13 -51c-9 4 -26 9 -45 9c-42 0 -81 -19 -95 -86l-24 -112h231l25 119c23 109 93 134 153 134
c28 0 52 -8 60 -13l-13 -51c-9 4 -26 9 -45 9z" />
    <glyph glyph-name="f_f_i" horiz-adv-x="842" 
d="M621 675c-42 0 -81 -19 -95 -86l-24 -112h300l-101 -477h-61l89 423h-238l-90 -423h-61l90 423h-231l-90 -423h-61l90 423h-93l11 54h93l25 119c23 109 93 134 153 134c28 0 52 -8 60 -13l-13 -51c-9 4 -26 9 -45 9c-42 0 -81 -19 -95 -86l-24 -112h231l25 119
c23 109 93 134 153 134c28 0 52 -8 60 -13l-13 -51c-9 4 -26 9 -45 9zM763 670c0 31 26 56 55 56c26 0 44 -20 44 -46c0 -29 -25 -54 -54 -54c-26 0 -45 19 -45 44z" />
    <glyph glyph-name="f_f_l" horiz-adv-x="842" 
d="M701 0h-61l89 423h-238l-90 -423h-61l90 423h-231l-90 -423h-61l90 423h-93l11 54h93l25 119c23 109 93 134 153 134c28 0 52 -8 60 -13l-13 -51c-9 4 -26 9 -45 9c-42 0 -81 -19 -95 -86l-24 -112h231l25 119c23 109 93 134 153 134c28 0 52 -8 60 -13l-13 -51
c-9 4 -26 9 -45 9c-42 0 -81 -19 -95 -86l-24 -112h239l52 245h61z" />
    <glyph glyph-name="f_i" horiz-adv-x="550" 
d="M409 0h-61l89 423h-238l-90 -423h-61l90 423h-93l11 54h93l25 119c23 109 93 134 153 134c28 0 52 -8 60 -13l-13 -51c-9 4 -26 9 -45 9c-42 0 -81 -19 -95 -86l-24 -112h300zM471 670c0 31 26 56 55 56c26 0 44 -20 44 -46c0 -29 -25 -54 -54 -54c-26 0 -45 19 -45 44z
" />
    <glyph glyph-name="f_l" horiz-adv-x="550" 
d="M409 0h-61l89 423h-238l-90 -423h-61l90 423h-93l11 54h93l25 119c23 109 93 134 153 134c28 0 52 -8 60 -13l-13 -51c-9 4 -26 9 -45 9c-42 0 -81 -19 -95 -86l-24 -112h239l52 245h61z" />
    <glyph glyph-name="f_y" horiz-adv-x="760" 
d="M336 -190h-70l178 265l-102 348h-143l-90 -423h-61l90 423h-93l11 54h93l25 119c23 109 93 134 153 134c28 0 52 -8 60 -13l-13 -51c-9 4 -26 9 -45 9c-42 0 -81 -19 -95 -86l-24 -112h181l96 -343l220 343h71z" />
    <glyph glyph-name="dieresis.narrow" horiz-adv-x="248" 
d="M191 606c0 25 19 47 46 47c21 0 36 -18 36 -37c0 -26 -21 -46 -46 -46c-22 0 -36 17 -36 36zM65 606c0 25 19 47 46 47c21 0 36 -18 36 -37c0 -26 -21 -46 -46 -46c-22 0 -36 17 -36 36z" />
    <glyph glyph-name="dieresis.uc.narrow" horiz-adv-x="255" 
d="M65 814c0 26 20 47 46 47c21 0 35 -18 35 -37c0 -26 -20 -46 -45 -46c-21 0 -36 16 -36 36zM199 814c0 26 20 47 46 47c21 0 35 -18 35 -37c0 -26 -20 -46 -45 -46c-21 0 -36 16 -36 36z" />
    <glyph glyph-name="grave.uc" horiz-adv-x="201" 
d="M169 759l-104 119h78l83 -119h-57z" />
    <glyph glyph-name="dieresis.uc" horiz-adv-x="330" 
d="M65 814c0 28 21 49 49 49c22 0 37 -19 37 -39c0 -28 -22 -48 -48 -48c-22 0 -38 17 -38 38zM270 814c0 28 21 49 49 49c22 0 37 -19 37 -39c0 -28 -22 -48 -48 -48c-22 0 -38 17 -38 38z" />
    <glyph glyph-name="macron.uc" horiz-adv-x="317" 
d="M331 793h-266l11 54h266z" />
    <glyph glyph-name="acute.uc" horiz-adv-x="255" 
d="M280 878l-151 -119h-64l128 119h87z" />
    <glyph glyph-name="circumflex.uc" horiz-adv-x="340" 
d="M124 759h-59l134 119h81l85 -119h-53l-78 83z" />
    <glyph glyph-name="caron.uc" horiz-adv-x="340" 
d="M303 878h62l-137 -119h-81l-82 119h52l76 -83z" />
    <glyph glyph-name="breve.uc" horiz-adv-x="328" 
d="M187 754c-82 0 -122 50 -122 108c0 6 1 14 2 18h49c-1 -4 -1 -7 -1 -10c0 -35 21 -67 77 -67c61 0 96 38 110 77h51c-18 -63 -76 -126 -166 -126z" />
    <glyph glyph-name="dotaccent.uc" horiz-adv-x="134" 
d="M65 813c0 29 23 54 53 54c25 0 41 -21 41 -43c0 -29 -23 -53 -51 -53c-26 0 -43 19 -43 42z" />
    <glyph glyph-name="ring.uc" horiz-adv-x="243" 
d="M173 905c-37 0 -64 -30 -64 -65c0 -30 20 -52 51 -52c34 0 65 28 65 65c0 29 -21 52 -52 52zM65 836c0 65 55 111 111 111c54 0 92 -40 92 -91c0 -59 -51 -111 -110 -111c-53 0 -93 40 -93 91z" />
    <glyph glyph-name="tilde.uc" horiz-adv-x="365" 
d="M390 872c-14 -77 -57 -109 -105 -109c-25 0 -46 10 -63 25l-16 14c-15 13 -26 19 -43 19c-25 0 -44 -18 -51 -55h-47c11 74 56 108 104 108c27 0 48 -11 65 -26l16 -14c14 -13 24 -19 41 -19c26 0 44 19 52 57h47z" />
    <glyph glyph-name="hungarumlaut.uc" horiz-adv-x="322" 
d="M219 878l-105 -119h-49l82 119h72zM349 878l-111 -119h-49l87 119h73z" />
    <glyph glyph-name="caron.alt.uc" horiz-adv-x="188" 
d="M213 709l-99 -185h-49l76 185h72z" />
    <glyph glyph-name="undercommaaccent" horiz-adv-x="191" 
d="M-48 -203l6 31c32 1 64 18 74 51c-3 -2 -10 -4 -16 -4c-23 0 -38 16 -38 35c0 27 20 48 48 48c22 0 46 -13 46 -47c0 -71 -62 -114 -120 -114z" />
    </font>
</defs>
</svg>
