<?xml version="1.0" standalone="no"?>
<!DOCTYPE svg PUBLIC "-//W3C//DTD SVG 1.1//EN" "http://www.w3.org/Graphics/SVG/1.1/DTD/svg11.dtd" >
<svg xmlns="http://www.w3.org/2000/svg" xmlns:xlink="http://www.w3.org/1999/xlink" version="1.1">
<metadata>
Created by FontForge 20170812 at Tue Jan  2 23:55:43 2018
 By www-data
c 2015, Copyright by Lineto. All rights reserved.
</metadata>
<defs>
<font id="CircularSpotifyText-Light" horiz-adv-x="565" >
  <font-face 
    font-family="Circular Std"
    font-weight="300"
    font-stretch="normal"
    units-per-em="1000"
    panose-1="2 11 4 4 2 1 1 2 1 2"
    ascent="750"
    descent="-250"
    x-height="477"
    cap-height="709"
    bbox="-198 -378 4910 1033"
    underline-thickness="50"
    underline-position="-75"
    stemh="50"
    stemv="52"
    unicode-range="U+000D-FEFF"
  />
<missing-glyph horiz-adv-x="537" 
d="M80 0v709h377v-709h-377zM130 50h277v609h-277v-609z" />
    <glyph glyph-name=".notdef" horiz-adv-x="537" 
d="M80 0v709h377v-709h-377zM130 50h277v609h-277v-609z" />
    <glyph glyph-name="Eth" unicode="&#xd0;" horiz-adv-x="713" 
d="M321 0h-219v339h-78v54h78v316h221c180 0 337 -123 337 -356c0 -232 -159 -353 -339 -353zM165 56h154c147 0 276 99 276 297c0 199 -127 300 -274 300h-156v-260h143v-54h-143v-283z" />
    <glyph glyph-name="eth" unicode="&#xf0;" horiz-adv-x="566" 
d="M469 650l-95 -47c81 -80 139 -199 139 -348c0 -152 -85 -268 -233 -268c-137 0 -233 104 -233 240c0 146 109 236 225 236c67 0 128 -25 162 -77c-21 75 -61 140 -114 190l-133 -67l-19 41l111 55c-42 32 -88 55 -137 68l19 49c50 -13 116 -41 175 -88l113 57zM280 41
c103 0 173 81 173 195c0 108 -81 173 -173 173s-173 -67 -173 -182c0 -113 77 -186 173 -186z" />
    <glyph glyph-name="Lslash" unicode="&#x141;" horiz-adv-x="555" 
d="M534 0h-422v303l-99 -44v56l99 44v350h64v-322l162 72v-56l-162 -72v-273h358v-58z" />
    <glyph glyph-name="lslash" unicode="&#x142;" horiz-adv-x="308" 
d="M174 0h-60v294l-95 -41v56l95 41v372h60v-345l107 47v-56l-107 -47v-321z" />
    <glyph glyph-name="Scaron" unicode="&#x160;" horiz-adv-x="582" 
d="M140 878h59l97 -84l98 84h59l-116 -119h-82zM523 548l-56 -20c-15 73 -67 138 -173 138c-85 0 -162 -57 -162 -140c0 -64 40 -108 112 -125l108 -25c110 -26 178 -90 178 -190c0 -109 -92 -199 -235 -199c-156 0 -242 103 -254 211l59 19c9 -92 78 -173 195 -173
c109 0 172 60 172 137c0 66 -46 114 -127 133l-107 25c-95 22 -164 82 -164 183c0 110 106 200 223 200c145 0 211 -84 231 -174z" />
    <glyph glyph-name="scaron" unicode="&#x161;" horiz-adv-x="439" 
d="M76 675h54l92 -99l92 99h54l-110 -137h-72zM40 125l55 19c9 -58 53 -105 131 -105c59 0 106 35 106 85c0 44 -30 68 -81 80l-77 18c-70 16 -117 58 -117 127c0 77 74 140 161 140c111 0 158 -66 171 -123l-53 -20c-9 46 -42 91 -118 91c-54 0 -102 -34 -102 -84
c0 -41 26 -65 75 -76l76 -17c79 -18 124 -63 124 -132c0 -71 -60 -141 -166 -141c-117 0 -176 75 -185 138z" />
    <glyph glyph-name="Yacute" unicode="&#xdd;" horiz-adv-x="616" 
d="M277 303l-248 406h75l204 -347l205 347h74l-248 -406v-303h-62v303zM445 878l-134 -119h-57l107 119h84z" />
    <glyph glyph-name="yacute" unicode="&#xfd;" horiz-adv-x="501" 
d="M174 -190h-65l119 252l-203 415h67l167 -352l158 352h66zM373 676l-118 -139h-49l89 139h78z" />
    <glyph glyph-name="Thorn" unicode="&#xde;" horiz-adv-x="585" 
d="M165 0h-64v709h64v-146h170c130 0 217 -88 217 -205s-87 -204 -217 -204h-170v-154zM165 211h160c101 0 163 60 163 147s-62 148 -163 148h-160v-295z" />
    <glyph glyph-name="thorn" unicode="&#xfe;" horiz-adv-x="577" 
d="M80 722h60v-338c23 48 79 106 173 106c135 0 216 -110 216 -251c0 -142 -84 -252 -218 -252c-92 0 -147 55 -171 103v-280h-60v912zM469 239c0 112 -66 197 -166 197c-99 0 -164 -86 -164 -197c0 -113 65 -198 164 -198c100 0 166 86 166 198z" />
    <glyph glyph-name="Zcaron" unicode="&#x17d;" horiz-adv-x="624" 
d="M161 878h59l97 -84l98 84h59l-116 -119h-82zM583 0h-543v65l466 586h-460v58h534v-63l-467 -588h470v-58z" />
    <glyph glyph-name="zcaron" unicode="&#x17e;" horiz-adv-x="464" 
d="M83 675h54l92 -99l92 99h54l-110 -137h-72zM422 0h-379v53l302 370h-299v54h371v-53l-300 -370h305v-54z" />
    <glyph glyph-name="onehalf" unicode="&#xbd;" horiz-adv-x="766" 
d="M141 0h-57l474 709h55zM175 346h-51v286c-17 -18 -50 -34 -87 -37v39c50 7 82 39 89 75h49v-363zM516 228l-50 3c-1 7 -2 18 -2 24c0 62 49 114 128 114c77 0 125 -50 125 -110c0 -47 -29 -81 -72 -108l-74 -46c-23 -15 -42 -35 -46 -61h196v-44h-258v5
c0 53 22 101 78 135l69 42c32 20 55 46 55 78c0 35 -28 66 -74 66c-45 0 -77 -29 -77 -75c0 -5 1 -15 2 -23z" />
    <glyph glyph-name="onequarter" unicode="&#xbc;" horiz-adv-x="749" 
d="M143 0h-57l474 709h55zM177 346h-51v286c-17 -18 -50 -34 -87 -37v39c50 7 82 39 89 75h49v-363zM401 82v51l180 230h61v-236h71v-45h-71v-82h-51v82h-190zM591 127v179l-140 -179h140z" />
    <glyph glyph-name="onesuperior" unicode="&#xb9;" horiz-adv-x="217" 
d="M165 347h-51v286c-17 -18 -50 -34 -87 -37v39c50 7 82 39 89 75h49v-363z" />
    <glyph glyph-name="threequarters" unicode="&#xbe;" horiz-adv-x="828" 
d="M222 0h-57l474 709h55zM480 82v51l180 230h61v-236h71v-45h-71v-82h-51v82h-190zM670 127v179l-140 -179h140zM155 522l-22 39l114 104h-195v44h262v-42l-116 -104c2 0 7 1 9 1c60 -2 115 -37 115 -107c0 -65 -55 -118 -138 -118c-81 0 -134 47 -142 106l46 17
c4 -49 47 -80 95 -80c50 0 87 32 87 75c0 47 -39 70 -83 70c-11 0 -23 -2 -32 -5z" />
    <glyph glyph-name="threesuperior" unicode="&#xb3;" horiz-adv-x="355" 
d="M148 523l-22 39l114 104h-195v44h262v-42l-116 -104c2 0 7 1 9 1c60 -2 115 -37 115 -107c0 -65 -55 -118 -138 -118c-81 0 -134 47 -142 106l46 17c4 -49 47 -80 95 -80c50 0 87 32 87 75c0 47 -39 70 -83 70c-11 0 -23 -2 -32 -5z" />
    <glyph glyph-name="twosuperior" unicode="&#xb2;" horiz-adv-x="337" 
d="M93 575l-50 3c-1 7 -2 18 -2 24c0 62 49 114 128 114c77 0 125 -50 125 -110c0 -47 -29 -81 -72 -108l-74 -46c-23 -15 -42 -35 -46 -61h196v-44h-258v5c0 53 22 101 78 135l69 42c32 20 55 46 55 78c0 35 -28 66 -74 66c-45 0 -77 -29 -77 -75c0 -5 1 -15 2 -23z" />
    <glyph glyph-name="brokenbar" unicode="&#xa6;" horiz-adv-x="215" 
d="M81 777h53v-399h-53v399zM81 259h53v-400h-53v400z" />
    <glyph glyph-name="minus" unicode="&#x2212;" horiz-adv-x="567" 
d="M494 323h-421v50h421v-50z" />
    <glyph glyph-name="multiply" unicode="&#xd7;" horiz-adv-x="569" 
d="M107 569l178 -184l177 184l36 -36l-179 -185l180 -186l-36 -37l-179 186l-178 -185l-36 36l178 186l-177 184z" />
    <glyph glyph-name="space" unicode=" " horiz-adv-x="259" 
 />
    <glyph glyph-name="exclam" unicode="!" horiz-adv-x="227" 
d="M152 709l-17 -520h-41l-18 520h76zM112 -4c-28 0 -50 22 -50 49c0 28 22 50 50 50s50 -22 50 -50c0 -27 -22 -49 -50 -49z" />
    <glyph glyph-name="quotedbl" unicode="&#x22;" horiz-adv-x="319" 
d="M50 673c0 27 19 44 43 44s43 -17 43 -44c0 -8 -2 -23 -4 -33l-28 -152h-23l-27 152c-2 9 -4 25 -4 33zM183 673c0 27 19 44 43 44c25 0 43 -17 43 -44c0 -8 -1 -23 -3 -33l-29 -152h-22l-28 152c-2 9 -4 25 -4 33z" />
    <glyph glyph-name="numbersign" unicode="#" horiz-adv-x="724" 
d="M425 257l39 192h-174l-38 -192h173zM375 0l41 207h-173l-41 -207h-55l41 207h-148v50h157l38 192h-146v49h155l42 211h55l-42 -211h173l42 211h55l-42 -211h157v-49h-166l-38 -192h154v-50h-163l-41 -207h-55z" />
    <glyph glyph-name="dollar" unicode="$" horiz-adv-x="555" 
d="M228 400l30 -7v260c-77 -9 -136 -61 -136 -130c0 -64 37 -106 106 -123zM329 316l-21 5v-268c92 9 142 68 142 134c0 67 -44 111 -121 129zM308 -113h-50v114c-135 10 -211 104 -221 205l54 17c8 -81 65 -159 167 -170v280l-42 10c-90 20 -153 79 -153 175
c0 104 87 181 195 190v115h50v-116c115 -10 175 -84 194 -168l-54 -18c-14 62 -57 121 -140 131v-270l32 -7c105 -24 170 -86 170 -184c0 -100 -79 -181 -202 -190v-114z" />
    <glyph glyph-name="percent" unicode="%" horiz-adv-x="799" 
d="M192 0h-59l473 709h59zM344 564c0 -86 -70 -154 -154 -154c-85 0 -154 68 -154 154c0 85 69 153 154 153c84 0 154 -68 154 -153zM89 564c0 -59 44 -104 101 -104c56 0 100 45 100 104c0 58 -44 103 -100 103c-57 0 -101 -45 -101 -103zM455 146c0 85 69 153 154 153
s154 -68 154 -153c0 -86 -69 -154 -154 -154s-154 68 -154 154zM709 146c0 58 -43 103 -100 103c-56 0 -100 -45 -100 -103c0 -59 44 -104 100 -104c57 0 100 45 100 104z" />
    <glyph glyph-name="ampersand" unicode="&#x26;" horiz-adv-x="663" 
d="M558 0l-105 110c-63 -76 -125 -121 -206 -121c-124 0 -193 86 -193 176c0 87 51 141 123 195l20 15l-31 31c-36 36 -75 87 -75 149c0 98 79 167 171 167c100 0 172 -67 172 -162c0 -66 -48 -115 -97 -152l-53 -39l168 -173l146 176v-86l-107 -130l151 -156h-84zM209 447
l37 -40l59 46c43 33 67 66 67 109c0 59 -45 106 -109 106c-63 0 -111 -46 -111 -109c0 -43 25 -80 57 -112zM249 47c64 0 115 46 164 104l-178 183l-33 -26c-46 -37 -84 -77 -84 -138c0 -65 48 -123 131 -123z" />
    <glyph glyph-name="quotesingle" unicode="'" horiz-adv-x="186" 
d="M50 673c0 27 19 44 43 44s43 -17 43 -44c0 -8 -2 -23 -4 -33l-28 -152h-23l-27 152c-2 9 -4 25 -4 33z" />
    <glyph glyph-name="parenleft" unicode="(" horiz-adv-x="285" 
d="M49 317c0 214 79 360 184 472l37 -32c-102 -114 -168 -252 -168 -440s66 -326 168 -440l-37 -32c-105 109 -184 258 -184 472z" />
    <glyph glyph-name="parenright" unicode=")" horiz-adv-x="285" 
d="M236 317c0 -214 -79 -363 -184 -472l-37 32c102 114 168 252 168 440s-66 326 -168 440l37 32c105 -112 184 -258 184 -472z" />
    <glyph glyph-name="asterisk" unicode="*" horiz-adv-x="447" 
d="M248 709v-147l139 48l15 -46l-140 -48l91 -123l-39 -30l-92 126l-88 -125l-39 30l88 122l-139 47l16 47l137 -49v148h51z" />
    <glyph glyph-name="plus" unicode="+" horiz-adv-x="537" 
d="M294 580v-207h195v-50h-195v-210h-53v210h-194v50h194v207h53z" />
    <glyph glyph-name="comma" unicode="," horiz-adv-x="239" 
d="M63 48c0 27 23 50 54 50s59 -24 59 -71c0 -100 -60 -160 -119 -174v37c45 14 74 65 75 111c-3 -3 -10 -5 -19 -5c-28 0 -50 21 -50 52z" />
    <glyph glyph-name="hyphen" unicode="-" horiz-adv-x="401" 
d="M332 260h-263v54h263v-54z" />
    <glyph glyph-name="period" unicode="." horiz-adv-x="229" 
d="M62 48c0 29 23 53 52 53c30 0 53 -24 53 -53s-23 -52 -53 -52c-29 0 -52 23 -52 52z" />
    <glyph glyph-name="slash" unicode="/" horiz-adv-x="465" 
d="M434 709l-342 -709h-60l343 709h59z" />
    <glyph glyph-name="zero" unicode="0" horiz-adv-x="650" 
d="M119 354c0 -178 62 -312 206 -312c143 0 206 135 206 312s-63 313 -206 313c-144 0 -206 -135 -206 -313zM58 354c0 178 66 368 267 368c200 0 267 -190 267 -368s-67 -367 -267 -367c-201 0 -267 189 -267 367z" />
    <glyph glyph-name="one" unicode="1" horiz-adv-x="345" 
d="M266 709v-709h-61v594c-31 -42 -109 -82 -177 -83v52c95 8 164 71 181 146h57z" />
    <glyph glyph-name="two" unicode="2" horiz-adv-x="578" 
d="M524 0h-469c2 110 60 190 177 269l105 71c68 46 115 103 115 173c0 83 -57 154 -160 154c-104 0 -172 -70 -172 -174c0 -11 0 -22 2 -34l-62 9c-1 9 -2 24 -2 32c0 125 99 222 234 222c143 0 223 -95 223 -208c0 -157 -163 -231 -286 -314c-47 -32 -89 -78 -99 -142h394
v-58z" />
    <glyph glyph-name="three" unicode="3" horiz-adv-x="605" 
d="M335 418c110 0 215 -70 215 -209c0 -131 -108 -222 -248 -222c-146 0 -247 92 -254 215l60 14c5 -110 95 -174 195 -174c106 0 185 70 185 165c0 104 -80 160 -175 160c-23 0 -44 -3 -67 -9l-30 52l238 241h-388v58h469v-58l-234 -236c12 2 25 3 34 3z" />
    <glyph glyph-name="four" unicode="4" horiz-adv-x="605" 
d="M31 175v73l326 461h90v-478h126v-56h-126v-175h-60v175h-356zM387 231v422l-298 -422h298z" />
    <glyph glyph-name="five" unicode="5" horiz-adv-x="587" 
d="M38 195l60 18c7 -98 86 -171 190 -171c107 0 186 75 186 177c0 110 -81 181 -185 181c-62 0 -119 -27 -160 -72l-62 25l91 356h352v-57h-311l-67 -265c43 47 107 68 168 68c138 0 237 -95 237 -234c0 -129 -100 -234 -249 -234c-141 0 -239 94 -250 208z" />
    <glyph glyph-name="six" unicode="6" horiz-adv-x="622" 
d="M136 224c0 -110 88 -183 186 -183c102 0 186 73 186 183c0 114 -83 184 -184 184c-102 0 -188 -79 -188 -184zM333 463c136 0 238 -92 238 -240c0 -144 -117 -236 -250 -236c-150 0 -265 114 -265 330c0 269 160 405 345 405c65 0 118 -17 152 -39l-20 -53
c-29 19 -74 35 -135 35c-188 0 -279 -161 -283 -338c37 86 118 136 218 136z" />
    <glyph glyph-name="seven" unicode="7" horiz-adv-x="543" 
d="M531 709v-63c-134 -124 -286 -316 -322 -646h-64c36 358 225 561 320 652h-439v57h505z" />
    <glyph glyph-name="eight" unicode="8" horiz-adv-x="606" 
d="M303 -13c-155 0 -246 87 -246 196c0 89 65 157 152 180c-76 21 -135 86 -135 169c0 109 94 190 229 190c134 0 229 -81 229 -190c0 -82 -59 -148 -136 -169c87 -23 152 -91 152 -180c0 -109 -90 -196 -245 -196zM303 389c98 0 167 59 167 141c0 80 -64 140 -167 140
c-104 0 -168 -60 -168 -140c0 -82 69 -141 168 -141zM303 42c114 0 182 64 182 146c0 83 -66 148 -182 148c-117 0 -183 -65 -183 -148c0 -82 68 -146 183 -146z" />
    <glyph glyph-name="nine" unicode="9" horiz-adv-x="621" 
d="M501 385c-22 -79 -109 -137 -212 -137c-122 0 -238 90 -238 236c0 141 117 238 248 238c153 0 264 -115 264 -330c0 -267 -115 -405 -329 -405c-56 0 -126 16 -167 43l23 53c36 -23 95 -40 145 -40c176 0 265 116 266 327v15zM483 485c0 109 -88 181 -185 181
c-96 0 -184 -72 -184 -181c0 -111 85 -181 184 -181c98 0 185 71 185 181z" />
    <glyph glyph-name="colon" unicode=":" horiz-adv-x="243" 
d="M69 428c0 29 23 53 52 53c30 0 53 -24 53 -53s-23 -52 -53 -52c-29 0 -52 23 -52 52zM69 48c0 29 23 53 52 53c30 0 53 -24 53 -53s-23 -52 -53 -52c-29 0 -52 23 -52 52z" />
    <glyph glyph-name="semicolon" unicode=";" horiz-adv-x="262" 
d="M77 47c0 27 22 49 53 49c30 0 58 -23 58 -69c0 -99 -59 -158 -117 -171v36c44 14 73 64 74 109c-3 -3 -10 -5 -19 -5c-28 0 -49 21 -49 51zM75 428c0 29 23 53 52 53c30 0 53 -24 53 -53s-23 -52 -53 -52c-29 0 -52 23 -52 52z" />
    <glyph glyph-name="less" unicode="&#x3c;" horiz-adv-x="524" 
d="M100 348l343 -174v-61l-402 207v55l402 207v-60z" />
    <glyph glyph-name="equal" unicode="=" horiz-adv-x="591" 
d="M519 420h-447v50h447v-50zM519 226h-447v51h447v-51z" />
    <glyph glyph-name="greater" unicode="&#x3e;" horiz-adv-x="524" 
d="M81 174l344 174l-344 174v60l402 -207v-55l-402 -207v61z" />
    <glyph glyph-name="question" unicode="?" horiz-adv-x="489" 
d="M261 189h-55c-3 10 -3 23 -3 38c0 62 21 108 72 147l44 34c42 32 69 74 69 123c0 71 -49 135 -141 135c-101 0 -148 -72 -148 -147c0 -17 3 -36 8 -54l-61 9c-6 17 -8 33 -8 51c0 94 66 197 209 197c129 0 204 -93 204 -190c0 -73 -41 -128 -100 -172l-45 -33
c-37 -27 -47 -68 -47 -106c0 -12 1 -23 2 -32zM234 -4c-28 0 -50 22 -50 49c0 28 22 50 50 50s50 -22 50 -50c0 -27 -22 -49 -50 -49z" />
    <glyph glyph-name="at" unicode="@" horiz-adv-x="825" 
d="M601 145c-56 0 -90 32 -94 78c-27 -49 -75 -79 -125 -79c-83 0 -146 67 -146 167c0 120 83 225 192 225c51 0 100 -29 111 -81l12 69h51l-50 -250c-2 -10 -3 -19 -3 -28c0 -31 14 -56 55 -56c64 0 130 90 130 207c0 144 -111 278 -301 278c-184 0 -327 -144 -327 -342
c0 -187 128 -330 335 -330c88 0 171 32 235 91l27 -34c-63 -65 -166 -104 -262 -104c-230 0 -388 157 -388 378c0 223 172 388 379 388c213 0 353 -154 353 -324c0 -148 -91 -253 -184 -253zM521 383c0 62 -34 105 -96 105c-75 0 -136 -79 -136 -170c0 -67 31 -126 99 -126
c88 0 131 95 133 191z" />
    <glyph glyph-name="A" unicode="A" horiz-adv-x="694" 
d="M604 0l-88 219h-339l-87 -219h-68l287 709h76l287 -709h-68zM346 646l-146 -369h293z" />
    <glyph glyph-name="B" unicode="B" horiz-adv-x="603" 
d="M101 709h204c136 0 215 -77 215 -189c0 -76 -45 -134 -108 -156c78 -19 131 -91 131 -173c0 -112 -88 -191 -218 -191h-224v709zM164 386h157c78 0 135 54 135 130c0 84 -58 137 -157 137h-135v-267zM164 56h155c97 0 160 54 160 139c0 81 -60 136 -147 136h-168v-275z
" />
    <glyph glyph-name="C" unicode="C" horiz-adv-x="746" 
d="M399 -13c-176 0 -347 130 -347 367s173 368 347 368c159 0 272 -91 305 -226l-57 -20c-28 116 -120 188 -248 188c-145 0 -283 -107 -283 -310c0 -202 138 -309 283 -309c133 0 224 80 253 191l55 -20c-34 -133 -148 -229 -308 -229z" />
    <glyph glyph-name="D" unicode="D" horiz-adv-x="712" 
d="M164 56h154c147 0 276 99 276 297c0 199 -127 300 -274 300h-156v-597zM320 0h-219v709h221c180 0 337 -123 337 -356c0 -232 -159 -353 -339 -353z" />
    <glyph glyph-name="E" unicode="E" horiz-adv-x="575" 
d="M519 0h-418v709h418v-58h-354v-267h323v-58h-323v-268h354v-58z" />
    <glyph glyph-name="F" unicode="F" horiz-adv-x="571" 
d="M165 0h-64v709h420v-58h-356v-275h325v-58h-325v-318z" />
    <glyph glyph-name="G" unicode="G" horiz-adv-x="766" 
d="M699 0h-50l-6 137c-27 -61 -103 -150 -257 -150c-166 0 -334 129 -334 368c0 238 169 367 343 367c152 0 267 -86 308 -213l-57 -24c-35 110 -127 179 -251 179c-143 0 -279 -105 -279 -309s138 -311 272 -311c186 0 249 141 251 231h-262v58h322v-333z" />
    <glyph glyph-name="H" unicode="H" horiz-adv-x="736" 
d="M635 0h-64v331h-406v-331h-64v709h64v-320h406v320h64v-709z" />
    <glyph glyph-name="I" unicode="I" horiz-adv-x="266" 
d="M165 0h-64v709h64v-709z" />
    <glyph glyph-name="J" unicode="J" horiz-adv-x="537" 
d="M33 208v45l63 15v-57c0 -105 54 -166 144 -166s140 62 140 163v501h64v-500c0 -129 -76 -222 -204 -222c-129 0 -207 85 -207 221z" />
    <glyph glyph-name="K" unicode="K" horiz-adv-x="638" 
d="M548 0l-261 349l-122 -130v-219h-64v709h64v-406l376 406h83l-295 -315l299 -394h-80z" />
    <glyph glyph-name="L" unicode="L" horiz-adv-x="544" 
d="M523 0h-422v709h64v-651h358v-58z" />
    <glyph glyph-name="M" unicode="M" horiz-adv-x="945" 
d="M844 0h-64v614l-278 -614h-60l-277 614v-614h-64v709h90l282 -626l282 626h89v-709z" />
    <glyph glyph-name="N" unicode="N" horiz-adv-x="763" 
d="M662 0h-68l-429 630v-630h-64v709h88l409 -605v605h64v-709z" />
    <glyph glyph-name="O" unicode="O" horiz-adv-x="797" 
d="M116 354c0 -202 137 -309 282 -309s283 107 283 309c0 203 -138 310 -283 310s-282 -107 -282 -310zM52 354c0 237 172 368 346 368s347 -131 347 -368s-173 -367 -347 -367s-346 130 -346 367z" />
    <glyph glyph-name="P" unicode="P" horiz-adv-x="585" 
d="M165 357h160c101 0 163 60 163 147s-62 148 -163 148h-160v-295zM335 300h-170v-300h-64v709h234c130 0 217 -88 217 -205s-87 -204 -217 -204z" />
    <glyph glyph-name="Q" unicode="Q" horiz-adv-x="797" 
d="M692 -53l-94 103c-58 -42 -129 -63 -200 -63c-174 0 -346 130 -346 367s172 368 346 368s347 -131 347 -368c0 -115 -42 -205 -103 -267l92 -102zM398 45c57 0 113 17 160 49l-141 156l44 38l140 -156c48 52 80 126 80 222c0 203 -138 310 -283 310s-282 -107 -282 -310
c0 -202 137 -309 282 -309z" />
    <glyph glyph-name="R" unicode="R" horiz-adv-x="613" 
d="M484 0l-171 307h-148v-307h-64v709h247c127 0 211 -88 211 -202c0 -103 -69 -182 -177 -196l176 -311h-74zM165 364h173c94 0 157 57 157 143c0 87 -63 145 -157 145h-173v-288z" />
    <glyph glyph-name="S" unicode="S" horiz-adv-x="582" 
d="M523 548l-56 -20c-15 73 -67 138 -173 138c-85 0 -162 -57 -162 -140c0 -64 40 -108 112 -125l108 -25c110 -26 178 -90 178 -190c0 -109 -92 -199 -235 -199c-156 0 -242 103 -254 211l59 19c9 -92 78 -173 195 -173c109 0 172 60 172 137c0 66 -46 114 -127 133
l-107 25c-95 22 -164 82 -164 183c0 110 106 200 223 200c145 0 211 -84 231 -174z" />
    <glyph glyph-name="T" unicode="T" horiz-adv-x="603" 
d="M584 651h-251v-651h-64v651h-250v58h565v-58z" />
    <glyph glyph-name="U" unicode="U" horiz-adv-x="672" 
d="M336 -13c-144 0 -243 87 -243 249v473h64v-470c0 -125 63 -194 179 -194s179 69 179 194v470h64v-473c0 -161 -98 -249 -243 -249z" />
    <glyph glyph-name="V" unicode="V" horiz-adv-x="655" 
d="M328 76l236 633h67l-273 -709h-63l-269 709h68z" />
    <glyph glyph-name="W" unicode="W" horiz-adv-x="990" 
d="M726 89l174 620h65l-204 -709h-69l-198 626l-198 -626h-66l-207 709h66l175 -620l196 620h69z" />
    <glyph glyph-name="X" unicode="X" horiz-adv-x="591" 
d="M571 709l-239 -353l238 -356h-75l-199 305l-203 -305h-74l240 356l-238 353h76l199 -304l200 304h75z" />
    <glyph glyph-name="Y" unicode="Y" horiz-adv-x="616" 
d="M277 303l-248 406h75l204 -347l205 347h74l-248 -406v-303h-62v303z" />
    <glyph glyph-name="Z" unicode="Z" horiz-adv-x="624" 
d="M583 0h-543v65l466 586h-460v58h534v-63l-467 -588h470v-58z" />
    <glyph glyph-name="bracketleft" unicode="[" horiz-adv-x="260" 
d="M230 -141h-154v918h154v-49h-101v-820h101v-49z" />
    <glyph glyph-name="backslash" unicode="\" horiz-adv-x="466" 
d="M373 0l-342 709h61l341 -709h-60z" />
    <glyph glyph-name="bracketright" unicode="]" horiz-adv-x="260" 
d="M184 -141h-154v49h101v820h-101v49h154v-918z" />
    <glyph glyph-name="asciicircum" unicode="^" horiz-adv-x="530" 
d="M485 355h-63l-156 293l-158 -293h-63l194 354h53z" />
    <glyph glyph-name="underscore" unicode="_" horiz-adv-x="522" 
d="M517 -50h-512v50h512v-50z" />
    <glyph glyph-name="grave" unicode="`" horiz-adv-x="248" 
d="M159 537l-118 139h76l89 -139h-47z" />
    <glyph glyph-name="a" unicode="a" horiz-adv-x="500" 
d="M201 -12c-100 0 -156 66 -156 135c0 81 56 128 143 141l127 19c41 6 50 24 50 46c0 63 -42 108 -120 108c-76 0 -126 -42 -134 -111l-56 12c11 91 87 151 189 151c124 0 181 -75 181 -166v-241c0 -38 3 -62 7 -82h-59c-2 11 -6 43 -6 82c-22 -45 -79 -94 -166 -94z
M208 39c91 0 157 60 157 156v54c-3 -3 -16 -9 -35 -12l-133 -20c-56 -8 -91 -39 -91 -91c0 -44 36 -87 102 -87z" />
    <glyph glyph-name="b" unicode="b" horiz-adv-x="577" 
d="M139 0h-59v722h60v-337c21 47 77 105 173 105c133 0 216 -109 216 -251s-85 -252 -218 -252c-92 0 -147 55 -172 106v-93zM304 41c98 0 165 82 165 198c0 115 -67 197 -165 197s-165 -82 -165 -197c0 -116 67 -198 165 -198z" />
    <glyph glyph-name="c" unicode="c" horiz-adv-x="529" 
d="M281 436c-95 0 -174 -75 -174 -198c0 -121 78 -197 174 -197c92 0 139 64 155 117l53 -22c-23 -74 -93 -149 -208 -149c-135 0 -234 105 -234 251c0 147 100 252 234 252c114 0 182 -70 204 -150l-53 -22c-16 56 -59 118 -151 118z" />
    <glyph glyph-name="d" unicode="d" horiz-adv-x="574" 
d="M107 239c0 -112 64 -198 165 -198c99 0 162 86 162 198c0 113 -63 197 -161 197c-100 0 -166 -82 -166 -197zM434 75v19c-21 -49 -74 -107 -167 -107c-134 0 -220 110 -220 252c0 140 88 251 220 251c102 0 149 -62 166 -103v335h60v-631c0 -51 4 -86 5 -91h-59
c-2 12 -5 41 -5 75z" />
    <glyph glyph-name="e" unicode="e" horiz-adv-x="535" 
d="M110 277h318c-2 89 -59 159 -159 159c-89 0 -153 -71 -159 -159zM435 154l53 -19c-27 -81 -99 -148 -209 -148c-126 0 -232 93 -232 253c0 150 102 250 221 250c141 0 222 -100 223 -241c0 -8 0 -14 -1 -22h-382v-4c1 -110 77 -182 171 -182c86 0 136 50 156 113z" />
    <glyph glyph-name="f" unicode="f" horiz-adv-x="326" 
d="M308 423h-133v-423h-60v423h-98v54h98v99c0 101 62 154 142 154c25 0 43 -5 54 -10v-54c-9 4 -24 8 -45 8c-48 0 -91 -25 -91 -101v-96h133v-54z" />
    <glyph glyph-name="g" unicode="g" horiz-adv-x="562" 
d="M48 -27l57 14c8 -75 68 -137 153 -137c126 0 164 85 164 184v88c-21 -49 -74 -97 -161 -97c-125 0 -213 99 -213 232c0 130 86 231 213 231c89 0 138 -44 162 -93v82h59v-442c0 -111 -49 -238 -225 -238c-116 0 -197 76 -209 176zM268 77c94 0 156 76 156 180
c0 103 -62 179 -156 179c-95 0 -160 -75 -160 -179s64 -180 160 -180z" />
    <glyph glyph-name="h" unicode="h" horiz-adv-x="537" 
d="M140 287v-287h-60v722h60v-320c25 48 79 88 153 88c113 0 169 -80 169 -178v-312h-60v302c0 75 -39 134 -129 134c-81 0 -133 -71 -133 -149z" />
    <glyph glyph-name="i" unicode="i" horiz-adv-x="220" 
d="M140 0h-60v477h60v-477zM60 675c0 29 22 50 50 50s50 -21 50 -50s-22 -50 -50 -50s-50 21 -50 50z" />
    <glyph glyph-name="j" unicode="j" horiz-adv-x="220" 
d="M80 -63v540h60v-542c0 -87 -50 -138 -126 -138c-26 0 -43 4 -53 9v51c11 -4 25 -6 41 -6c53 0 78 27 78 86zM60 675c0 29 22 50 50 50s50 -21 50 -50s-22 -50 -50 -50s-50 21 -50 50z" />
    <glyph glyph-name="k" unicode="k" horiz-adv-x="496" 
d="M473 477l-203 -203l207 -274h-75l-174 233l-88 -87v-146h-60v722h60v-497l250 252h83z" />
    <glyph glyph-name="l" unicode="l" horiz-adv-x="220" 
d="M140 0h-60v722h60v-722z" />
    <glyph glyph-name="m" unicode="m" horiz-adv-x="845" 
d="M140 0h-60v477h59v-79c21 50 78 92 152 92s131 -41 150 -108c29 69 88 108 164 108c93 0 165 -64 165 -174v-316h-60v309c0 72 -42 128 -122 128c-79 0 -133 -66 -133 -144v-293h-60v309c0 72 -41 128 -122 128c-79 0 -133 -65 -133 -144v-293z" />
    <glyph glyph-name="n" unicode="n" horiz-adv-x="537" 
d="M140 285v-285h-60v477h58v-76c26 51 82 88 155 88c112 0 169 -80 169 -178v-311h-60v301c0 75 -37 134 -129 134c-82 0 -133 -69 -133 -150z" />
    <glyph glyph-name="o" unicode="o" horiz-adv-x="568" 
d="M284 -13c-133 0 -237 102 -237 251c0 150 103 251 237 251c133 0 237 -101 237 -251c0 -149 -104 -251 -237 -251zM108 238c0 -124 82 -197 176 -197s176 73 176 197c0 125 -82 197 -176 197s-176 -72 -176 -197z" />
    <glyph glyph-name="p" unicode="p" horiz-adv-x="577" 
d="M140 -190h-60v667h59v-95c23 49 79 108 174 108c135 0 216 -110 216 -251c0 -142 -84 -252 -218 -252c-92 0 -147 55 -171 103v-280zM469 239c0 112 -66 197 -166 197c-99 0 -164 -86 -164 -197c0 -113 65 -198 164 -198c100 0 166 86 166 198z" />
    <glyph glyph-name="q" unicode="q" horiz-adv-x="574" 
d="M494 -190h-60v281c-23 -51 -78 -104 -168 -104c-133 0 -218 111 -218 252c0 140 87 251 217 251c100 0 150 -58 170 -107v94h59v-667zM108 239c0 -112 65 -198 164 -198s163 86 163 198c0 113 -64 197 -163 197c-100 0 -164 -84 -164 -197z" />
    <glyph glyph-name="r" unicode="r" horiz-adv-x="337" 
d="M323 478v-63c-11 3 -26 5 -42 5c-81 0 -141 -52 -141 -161v-259h-60v477h59v-89c29 66 84 95 147 95c16 0 29 -2 37 -5z" />
    <glyph glyph-name="s" unicode="s" horiz-adv-x="439" 
d="M40 125l55 19c9 -58 53 -105 131 -105c59 0 106 35 106 85c0 44 -30 68 -81 80l-77 18c-70 16 -117 58 -117 127c0 77 74 140 161 140c111 0 158 -66 171 -123l-53 -20c-9 46 -42 91 -118 91c-54 0 -102 -34 -102 -84c0 -41 26 -65 75 -76l76 -17
c79 -18 124 -63 124 -132c0 -71 -60 -141 -166 -141c-117 0 -176 75 -185 138z" />
    <glyph glyph-name="t" unicode="t" horiz-adv-x="328" 
d="M177 628v-151h124v-54h-124v-288c0 -58 27 -86 81 -86c17 0 34 4 43 8v-53c-8 -4 -30 -9 -59 -9c-77 0 -125 47 -125 134v294h-101v54h36c47 0 67 21 67 70v81h58z" />
    <glyph glyph-name="u" unicode="u" horiz-adv-x="539" 
d="M402 74c-22 -46 -75 -87 -150 -87c-121 0 -178 90 -178 190v300h60v-290c0 -76 35 -146 129 -146c85 0 135 65 135 145v291h60v-386c0 -36 3 -70 6 -91h-57c-2 10 -5 37 -5 67v7z" />
    <glyph glyph-name="v" unicode="v" horiz-adv-x="499" 
d="M470 477l-189 -477h-63l-189 477h68l152 -409l154 409h67z" />
    <glyph glyph-name="w" unicode="w" horiz-adv-x="795" 
d="M366 477h65l142 -403l125 403h65l-156 -477h-67l-142 404l-142 -404h-67l-158 477h66l127 -403z" />
    <glyph glyph-name="x" unicode="x" horiz-adv-x="478" 
d="M20 0l182 243l-174 234h71l140 -191l140 191h71l-176 -234l183 -243h-72l-147 200l-146 -200h-72z" />
    <glyph glyph-name="y" unicode="y" horiz-adv-x="501" 
d="M174 -190h-65l119 252l-203 415h67l167 -352l158 352h66z" />
    <glyph glyph-name="z" unicode="z" horiz-adv-x="464" 
d="M422 0h-379v53l302 370h-299v54h371v-53l-300 -370h305v-54z" />
    <glyph glyph-name="braceleft" unicode="{" horiz-adv-x="311" 
d="M23 289v58c60 4 105 38 105 106v160c0 104 48 158 147 158h9v-49h-9c-72 0 -94 -35 -94 -106v-175c0 -65 -40 -112 -105 -123c66 -11 105 -58 105 -123v-175c0 -71 22 -106 94 -106h9v-48h-9c-99 0 -147 53 -147 158v159c0 68 -45 102 -105 106z" />
    <glyph glyph-name="bar" unicode="|" horiz-adv-x="205" 
d="M129 -141h-53v918h53v-918z" />
    <glyph glyph-name="braceright" unicode="}" horiz-adv-x="311" 
d="M288 347v-58c-60 -4 -105 -38 -105 -106v-159c0 -105 -48 -158 -147 -158h-9v48h9c72 0 94 35 94 106v175c0 65 39 112 105 123c-65 11 -105 58 -105 123v175c0 71 -22 106 -94 106h-9v49h9c99 0 147 -54 147 -158v-160c0 -68 45 -102 105 -106z" />
    <glyph glyph-name="asciitilde" unicode="~" horiz-adv-x="619" 
d="M319 253l-47 25c-22 12 -44 19 -64 19c-42 0 -72 -20 -99 -57l-37 30c34 52 78 80 135 80c28 0 60 -9 91 -26l46 -25c23 -12 49 -20 69 -20c43 0 73 19 97 55l37 -30c-34 -52 -77 -79 -134 -79c-29 0 -61 11 -94 28z" />
    <glyph glyph-name="Adieresis" unicode="&#xc4;" horiz-adv-x="694" 
d="M423 819c0 24 19 43 43 43s43 -19 43 -43s-19 -43 -43 -43s-43 19 -43 43zM185 819c0 24 19 43 43 43s43 -19 43 -43s-19 -43 -43 -43s-43 19 -43 43zM604 0l-88 219h-339l-87 -219h-68l287 709h76l287 -709h-68zM346 646l-146 -369h293z" />
    <glyph glyph-name="Aring" unicode="&#xc5;" horiz-adv-x="694" 
d="M346 646l-146 -369h293zM404 768c0 34 -25 60 -58 60c-32 0 -57 -26 -57 -60s25 -59 57 -59c33 0 58 25 58 59zM452 768c0 -39 -24 -73 -55 -90l275 -678h-68l-88 219h-339l-87 -219h-68l275 677c-33 17 -56 51 -56 91c0 59 49 105 106 105s105 -46 105 -105z" />
    <glyph glyph-name="Ccedilla" unicode="&#xc7;" horiz-adv-x="746" 
d="M373 -95l-24 29l34 53c-170 8 -331 137 -331 367c0 237 173 368 347 368c159 0 272 -91 305 -226l-57 -20c-28 116 -120 188 -248 188c-145 0 -283 -107 -283 -310c0 -202 138 -309 283 -309c133 0 224 80 253 191l55 -20c-32 -124 -133 -215 -275 -227l-30 -45
c8 3 15 4 24 4c53 0 88 -31 88 -76c0 -46 -37 -82 -108 -82c-47 0 -88 22 -108 47l27 32c15 -18 43 -39 80 -39c38 0 62 15 62 42c0 25 -20 41 -57 41c-12 0 -25 -2 -37 -8z" />
    <glyph glyph-name="Eacute" unicode="&#xc9;" horiz-adv-x="575" 
d="M442 878l-134 -119h-57l107 119h84zM519 0h-418v709h418v-58h-354v-267h323v-58h-323v-268h354v-58z" />
    <glyph glyph-name="Ntilde" unicode="&#xd1;" horiz-adv-x="763" 
d="M542 871v-11c0 -63 -39 -97 -84 -97c-26 0 -48 10 -66 23l-21 15c-16 11 -31 20 -50 20c-26 0 -39 -18 -39 -55h-47v12c0 61 38 95 86 95c28 0 52 -12 72 -27l18 -13c15 -11 28 -18 45 -18c25 0 39 17 39 56h47zM662 0h-68l-429 630v-630h-64v709h88l409 -605v605h64
v-709z" />
    <glyph glyph-name="Odieresis" unicode="&#xd6;" horiz-adv-x="797" 
d="M213 819c0 24 19 43 43 43s43 -19 43 -43s-19 -43 -43 -43s-43 19 -43 43zM497 819c0 24 19 43 43 43s43 -19 43 -43s-19 -43 -43 -43s-43 19 -43 43zM116 354c0 -202 137 -309 282 -309s283 107 283 309c0 203 -138 310 -283 310s-282 -107 -282 -310zM52 354
c0 237 172 368 346 368s347 -131 347 -368s-173 -367 -347 -367s-346 130 -346 367z" />
    <glyph glyph-name="Udieresis" unicode="&#xdc;" horiz-adv-x="672" 
d="M195 819c0 24 19 43 43 43s43 -19 43 -43s-19 -43 -43 -43s-43 19 -43 43zM394 819c0 24 19 43 43 43s43 -19 43 -43s-19 -43 -43 -43s-43 19 -43 43zM336 -13c-144 0 -243 87 -243 249v473h64v-470c0 -125 63 -194 179 -194s179 69 179 194v470h64v-473
c0 -161 -98 -249 -243 -249z" />
    <glyph glyph-name="aacute" unicode="&#xe1;" horiz-adv-x="500" 
d="M201 -12c-100 0 -156 66 -156 135c0 81 56 128 143 141l127 19c41 6 50 24 50 46c0 63 -42 108 -120 108c-76 0 -126 -42 -134 -111l-56 12c11 91 87 151 189 151c124 0 181 -75 181 -166v-241c0 -38 3 -62 7 -82h-59c-2 11 -6 43 -6 82c-22 -45 -79 -94 -166 -94z
M208 39c91 0 157 60 157 156v54c-3 -3 -16 -9 -35 -12l-133 -20c-56 -8 -91 -39 -91 -91c0 -44 36 -87 102 -87zM382 676l-118 -139h-49l89 139h78z" />
    <glyph glyph-name="agrave" unicode="&#xe0;" horiz-adv-x="500" 
d="M201 -12c-100 0 -156 66 -156 135c0 81 56 128 143 141l127 19c41 6 50 24 50 46c0 63 -42 108 -120 108c-76 0 -126 -42 -134 -111l-56 12c11 91 87 151 189 151c124 0 181 -75 181 -166v-241c0 -38 3 -62 7 -82h-59c-2 11 -6 43 -6 82c-22 -45 -79 -94 -166 -94z
M208 39c91 0 157 60 157 156v54c-3 -3 -16 -9 -35 -12l-133 -20c-56 -8 -91 -39 -91 -91c0 -44 36 -87 102 -87zM230 537l-118 139h76l89 -139h-47z" />
    <glyph glyph-name="acircumflex" unicode="&#xe2;" horiz-adv-x="500" 
d="M157 538h-54l110 137h72l110 -137h-54l-92 99zM201 -12c-100 0 -156 66 -156 135c0 81 56 128 143 141l127 19c41 6 50 24 50 46c0 63 -42 108 -120 108c-76 0 -126 -42 -134 -111l-56 12c11 91 87 151 189 151c124 0 181 -75 181 -166v-241c0 -38 3 -62 7 -82h-59
c-2 11 -6 43 -6 82c-22 -45 -79 -94 -166 -94zM208 39c91 0 157 60 157 156v54c-3 -3 -16 -9 -35 -12l-133 -20c-56 -8 -91 -39 -91 -91c0 -44 36 -87 102 -87z" />
    <glyph glyph-name="adieresis" unicode="&#xe4;" horiz-adv-x="500" 
d="M291 611c0 23 19 42 42 42s42 -19 42 -42s-19 -42 -42 -42s-42 19 -42 42zM115 611c0 23 19 42 42 42s42 -19 42 -42s-19 -42 -42 -42s-42 19 -42 42zM201 -12c-100 0 -156 66 -156 135c0 81 56 128 143 141l127 19c41 6 50 24 50 46c0 63 -42 108 -120 108
c-76 0 -126 -42 -134 -111l-56 12c11 91 87 151 189 151c124 0 181 -75 181 -166v-241c0 -38 3 -62 7 -82h-59c-2 11 -6 43 -6 82c-22 -45 -79 -94 -166 -94zM208 39c91 0 157 60 157 156v54c-3 -3 -16 -9 -35 -12l-133 -20c-56 -8 -91 -39 -91 -91c0 -44 36 -87 102 -87z
" />
    <glyph glyph-name="atilde" unicode="&#xe3;" horiz-adv-x="500" 
d="M201 -12c-100 0 -156 66 -156 135c0 81 56 128 143 141l127 19c41 6 50 24 50 46c0 63 -42 108 -120 108c-76 0 -126 -42 -134 -111l-56 12c11 91 87 151 189 151c124 0 181 -75 181 -166v-241c0 -38 3 -62 7 -82h-59c-2 11 -6 43 -6 82c-22 -45 -79 -94 -166 -94z
M208 39c91 0 157 60 157 156v54c-3 -3 -16 -9 -35 -12l-133 -20c-56 -8 -91 -39 -91 -91c0 -44 36 -87 102 -87zM401 659v-11c0 -63 -38 -97 -83 -97c-26 0 -47 10 -65 23l-21 15c-16 11 -30 20 -49 20c-26 0 -38 -18 -38 -55h-47v12c0 61 37 95 85 95c28 0 51 -12 71 -27
l18 -13c15 -11 27 -18 44 -18c25 0 38 17 38 56h47z" />
    <glyph glyph-name="aring" unicode="&#xe5;" horiz-adv-x="500" 
d="M201 -12c-100 0 -156 66 -156 135c0 81 56 128 143 141l127 19c41 6 50 24 50 46c0 63 -42 108 -120 108c-76 0 -126 -42 -134 -111l-56 12c11 91 87 151 189 151c124 0 181 -75 181 -166v-241c0 -38 3 -62 7 -82h-59c-2 11 -6 43 -6 82c-22 -45 -79 -94 -166 -94z
M208 39c91 0 157 60 157 156v54c-3 -3 -16 -9 -35 -12l-133 -20c-56 -8 -91 -39 -91 -91c0 -44 36 -87 102 -87zM351 635c0 -58 -47 -105 -105 -105c-57 0 -105 47 -105 105s48 105 105 105c58 0 105 -47 105 -105zM307 635c0 35 -26 63 -61 63s-61 -28 -61 -63
s26 -63 61 -63s61 28 61 63z" />
    <glyph glyph-name="ccedilla" unicode="&#xe7;" horiz-adv-x="529" 
d="M252 -95l-24 29l35 54c-126 9 -216 110 -216 250c0 147 100 252 234 252c114 0 182 -70 204 -150l-53 -22c-16 56 -59 118 -151 118c-95 0 -174 -75 -174 -198c0 -121 78 -197 174 -197c92 0 139 64 155 117l53 -22c-21 -68 -81 -136 -178 -147l-30 -45c8 3 15 4 24 4
c53 0 88 -31 88 -76c0 -46 -37 -82 -108 -82c-47 0 -88 22 -108 47l27 32c15 -18 43 -39 80 -39c38 0 62 15 62 42c0 25 -20 41 -57 41c-12 0 -25 -2 -37 -8z" />
    <glyph glyph-name="eacute" unicode="&#xe9;" horiz-adv-x="535" 
d="M413 676l-118 -139h-49l89 139h78zM110 277h318c-2 89 -59 159 -159 159c-89 0 -153 -71 -159 -159zM435 154l53 -19c-27 -81 -99 -148 -209 -148c-126 0 -232 93 -232 253c0 150 102 250 221 250c141 0 222 -100 223 -241c0 -8 0 -14 -1 -22h-382v-4
c1 -110 77 -182 171 -182c86 0 136 50 156 113z" />
    <glyph glyph-name="egrave" unicode="&#xe8;" horiz-adv-x="535" 
d="M110 277h318c-2 89 -59 159 -159 159c-89 0 -153 -71 -159 -159zM435 154l53 -19c-27 -81 -99 -148 -209 -148c-126 0 -232 93 -232 253c0 150 102 250 221 250c141 0 222 -100 223 -241c0 -8 0 -14 -1 -22h-382v-4c1 -110 77 -182 171 -182c86 0 136 50 156 113z
M255 537l-118 139h76l89 -139h-47z" />
    <glyph glyph-name="ecircumflex" unicode="&#xea;" horiz-adv-x="535" 
d="M177 538h-54l110 137h72l110 -137h-54l-92 99zM110 277h318c-2 89 -59 159 -159 159c-89 0 -153 -71 -159 -159zM435 154l53 -19c-27 -81 -99 -148 -209 -148c-126 0 -232 93 -232 253c0 150 102 250 221 250c141 0 222 -100 223 -241c0 -8 0 -14 -1 -22h-382v-4
c1 -110 77 -182 171 -182c86 0 136 50 156 113z" />
    <glyph glyph-name="edieresis" unicode="&#xeb;" horiz-adv-x="535" 
d="M316 611c0 23 19 42 42 42s42 -19 42 -42s-19 -42 -42 -42s-42 19 -42 42zM140 611c0 23 19 42 42 42s42 -19 42 -42s-19 -42 -42 -42s-42 19 -42 42zM110 277h318c-2 89 -59 159 -159 159c-89 0 -153 -71 -159 -159zM435 154l53 -19c-27 -81 -99 -148 -209 -148
c-126 0 -232 93 -232 253c0 150 102 250 221 250c141 0 222 -100 223 -241c0 -8 0 -14 -1 -22h-382v-4c1 -110 77 -182 171 -182c86 0 136 50 156 113z" />
    <glyph glyph-name="iacute" unicode="&#xed;" horiz-adv-x="220" 
d="M252 676l-118 -139h-49l89 139h78zM140 0h-60v477h60v-477z" />
    <glyph glyph-name="igrave" unicode="&#xec;" horiz-adv-x="220" 
d="M140 0h-60v477h60v-477zM90 537l-118 139h76l89 -139h-47z" />
    <glyph glyph-name="icircumflex" unicode="&#xee;" horiz-adv-x="220" 
d="M18 538h-54l110 137h72l110 -137h-54l-92 99zM140 0h-60v477h60v-477z" />
    <glyph glyph-name="idieresis" unicode="&#xef;" horiz-adv-x="220" 
d="M140 0h-60v477h60v-477zM7 610c0 22 18 40 40 40s40 -18 40 -40s-18 -40 -40 -40s-40 18 -40 40zM133 610c0 22 18 40 40 40s40 -18 40 -40s-18 -40 -40 -40s-40 18 -40 40z" />
    <glyph glyph-name="ntilde" unicode="&#xf1;" horiz-adv-x="537" 
d="M430 659v-11c0 -63 -38 -97 -83 -97c-26 0 -47 10 -65 23l-21 15c-16 11 -30 20 -49 20c-26 0 -38 -18 -38 -55h-47v12c0 61 37 95 85 95c28 0 51 -12 71 -27l18 -13c15 -11 27 -18 44 -18c25 0 38 17 38 56h47zM140 285v-285h-60v477h58v-76c26 51 82 88 155 88
c112 0 169 -80 169 -178v-311h-60v301c0 75 -37 134 -129 134c-82 0 -133 -69 -133 -150z" />
    <glyph glyph-name="oacute" unicode="&#xf3;" horiz-adv-x="568" 
d="M415 676l-118 -139h-49l89 139h78zM284 -13c-133 0 -237 102 -237 251c0 150 103 251 237 251c133 0 237 -101 237 -251c0 -149 -104 -251 -237 -251zM108 238c0 -124 82 -197 176 -197s176 73 176 197c0 125 -82 197 -176 197s-176 -72 -176 -197z" />
    <glyph glyph-name="ograve" unicode="&#xf2;" horiz-adv-x="568" 
d="M262 537l-118 139h76l89 -139h-47zM284 -13c-133 0 -237 102 -237 251c0 150 103 251 237 251c133 0 237 -101 237 -251c0 -149 -104 -251 -237 -251zM108 238c0 -124 82 -197 176 -197s176 73 176 197c0 125 -82 197 -176 197s-176 -72 -176 -197z" />
    <glyph glyph-name="ocircumflex" unicode="&#xf4;" horiz-adv-x="568" 
d="M189 538h-54l110 137h72l110 -137h-54l-92 99zM284 -13c-133 0 -237 102 -237 251c0 150 103 251 237 251c133 0 237 -101 237 -251c0 -149 -104 -251 -237 -251zM108 238c0 -124 82 -197 176 -197s176 73 176 197c0 125 -82 197 -176 197s-176 -72 -176 -197z" />
    <glyph glyph-name="odieresis" unicode="&#xf6;" horiz-adv-x="568" 
d="M328 611c0 23 19 42 42 42s42 -19 42 -42s-19 -42 -42 -42s-42 19 -42 42zM152 611c0 23 19 42 42 42s42 -19 42 -42s-19 -42 -42 -42s-42 19 -42 42zM284 -13c-133 0 -237 102 -237 251c0 150 103 251 237 251c133 0 237 -101 237 -251c0 -149 -104 -251 -237 -251z
M108 238c0 -124 82 -197 176 -197s176 73 176 197c0 125 -82 197 -176 197s-176 -72 -176 -197z" />
    <glyph glyph-name="otilde" unicode="&#xf5;" horiz-adv-x="568" 
d="M284 -13c-133 0 -237 102 -237 251c0 150 103 251 237 251c133 0 237 -101 237 -251c0 -149 -104 -251 -237 -251zM108 238c0 -124 82 -197 176 -197s176 73 176 197c0 125 -82 197 -176 197s-176 -72 -176 -197zM434 659v-11c0 -63 -38 -97 -83 -97c-26 0 -47 10 -65 23
l-21 15c-16 11 -30 20 -49 20c-26 0 -38 -18 -38 -55h-47v12c0 61 37 95 85 95c28 0 51 -12 71 -27l18 -13c15 -11 27 -18 44 -18c25 0 38 17 38 56h47z" />
    <glyph glyph-name="uacute" unicode="&#xfa;" horiz-adv-x="539" 
d="M385 676l-118 -139h-49l89 139h78zM402 74c-22 -46 -75 -87 -150 -87c-121 0 -178 90 -178 190v300h60v-290c0 -76 35 -146 129 -146c85 0 135 65 135 145v291h60v-386c0 -36 3 -70 6 -91h-57c-2 10 -5 37 -5 67v7z" />
    <glyph glyph-name="ugrave" unicode="&#xf9;" horiz-adv-x="539" 
d="M402 74c-22 -46 -75 -87 -150 -87c-121 0 -178 90 -178 190v300h60v-290c0 -76 35 -146 129 -146c85 0 135 65 135 145v291h60v-386c0 -36 3 -70 6 -91h-57c-2 10 -5 37 -5 67v7zM262 537l-118 139h76l89 -139h-47z" />
    <glyph glyph-name="ucircumflex" unicode="&#xfb;" horiz-adv-x="539" 
d="M175 538h-54l110 137h72l110 -137h-54l-92 99zM402 74c-22 -46 -75 -87 -150 -87c-121 0 -178 90 -178 190v300h60v-290c0 -76 35 -146 129 -146c85 0 135 65 135 145v291h60v-386c0 -36 3 -70 6 -91h-57c-2 10 -5 37 -5 67v7z" />
    <glyph glyph-name="udieresis" unicode="&#xfc;" horiz-adv-x="539" 
d="M311 611c0 23 19 42 42 42s42 -19 42 -42s-19 -42 -42 -42s-42 19 -42 42zM135 611c0 23 19 42 42 42s42 -19 42 -42s-19 -42 -42 -42s-42 19 -42 42zM402 74c-22 -46 -75 -87 -150 -87c-121 0 -178 90 -178 190v300h60v-290c0 -76 35 -146 129 -146c85 0 135 65 135 145
v291h60v-386c0 -36 3 -70 6 -91h-57c-2 10 -5 37 -5 67v7z" />
    <glyph glyph-name="dagger" unicode="&#x2020;" horiz-adv-x="409" 
d="M231 162h-53v335h-136v51h136v161h53v-161h136v-51h-136v-335z" />
    <glyph glyph-name="degree" unicode="&#xb0;" horiz-adv-x="392" 
d="M196 462c57 0 100 45 100 104c0 58 -43 103 -100 103c-56 0 -100 -45 -100 -103c0 -59 44 -104 100 -104zM42 566c0 85 69 153 154 153s154 -68 154 -153c0 -86 -69 -154 -154 -154s-154 68 -154 154z" />
    <glyph glyph-name="cent" unicode="&#xa2;" horiz-adv-x="540" 
d="M309 98v-98h-50v99c-121 12 -207 111 -207 249c0 137 87 237 207 250v111h50v-111c99 -8 162 -71 183 -150l-53 -21c-14 50 -51 106 -130 116v-389c77 9 119 66 135 115l51 -20c-21 -74 -86 -142 -186 -151zM111 348c0 -104 59 -182 148 -194v388
c-89 -13 -148 -91 -148 -194z" />
    <glyph glyph-name="sterling" unicode="&#xa3;" horiz-adv-x="593" 
d="M402 310h-181c4 -18 8 -36 8 -59c0 -91 -47 -157 -98 -196h233c80 0 125 55 130 134l57 -8c-6 -108 -70 -181 -177 -181h-320v56c58 37 113 104 113 193c0 22 -3 41 -9 61h-95v53h79c-19 47 -42 95 -42 156c0 115 81 202 207 202c125 0 196 -84 203 -180l-58 -13
c-5 79 -61 138 -144 138c-84 0 -146 -57 -146 -149c0 -60 27 -103 45 -154h195v-53z" />
    <glyph glyph-name="section" unicode="&#xa7;" horiz-adv-x="501" 
d="M68 281c0 60 42 108 88 126c-58 36 -90 84 -90 147c0 102 88 168 186 168c116 0 184 -76 187 -179l-58 -13c-1 85 -49 141 -130 141c-66 0 -125 -43 -125 -112c0 -51 29 -84 76 -109l106 -57c71 -38 126 -77 126 -155c0 -61 -41 -105 -90 -126c62 -37 94 -85 94 -147
c0 -101 -87 -168 -189 -168c-116 0 -185 73 -189 180l57 12c2 -83 51 -141 134 -141c72 0 127 43 127 111c0 52 -29 85 -78 111l-106 57c-73 38 -126 76 -126 154zM205 188l99 -54c37 13 71 49 71 95s-28 76 -78 103l-100 53c-37 -14 -69 -51 -69 -95c0 -45 26 -75 77 -102z
" />
    <glyph glyph-name="bullet" unicode="&#x2022;" horiz-adv-x="566" 
d="M75 282c0 117 93 208 208 208s208 -91 208 -208s-93 -208 -208 -208s-208 91 -208 208z" />
    <glyph glyph-name="paragraph" unicode="&#xb6;" horiz-adv-x="614" 
d="M312 659v-849h-54v517h-33c-104 0 -191 85 -191 190c0 113 92 192 217 192h318v-50h-92v-849h-54v849h-111z" />
    <glyph glyph-name="germandbls" unicode="&#xdf;" horiz-adv-x="545" 
d="M331 343c0 -21 19 -32 44 -46l38 -20c54 -28 97 -78 97 -144c0 -69 -51 -146 -155 -146c-111 0 -154 80 -156 139l56 14c1 -41 27 -101 100 -101c64 0 95 47 95 89c0 48 -30 79 -70 100l-38 20c-33 17 -71 44 -71 93c0 37 19 64 50 85l38 26c34 22 57 54 57 100
c0 63 -48 116 -132 116c-79 0 -144 -62 -144 -179v-489h-60v492c0 146 91 230 204 230c117 0 192 -74 192 -169c0 -72 -38 -114 -78 -141l-37 -25c-18 -12 -30 -23 -30 -44z" />
    <glyph glyph-name="registered" unicode="&#xae;" horiz-adv-x="834" 
d="M352 362h74c52 0 84 28 84 74c0 48 -32 76 -84 76h-74v-150zM352 318v-162h-50v400h131c75 0 127 -51 127 -119c0 -58 -38 -103 -94 -115l96 -166h-59l-92 162h-59zM417 674c-174 0 -312 -140 -312 -320c0 -179 138 -319 312 -319s312 140 312 319
c0 180 -138 320 -312 320zM417 -13c-202 0 -364 163 -364 367c0 205 162 368 364 368s364 -163 364 -368c0 -204 -162 -367 -364 -367z" />
    <glyph glyph-name="copyright" unicode="&#xa9;" horiz-adv-x="834" 
d="M420 513c-78 0 -139 -60 -139 -158s60 -158 139 -158c75 0 114 49 128 93l45 -20c-19 -60 -77 -121 -171 -121c-113 0 -193 86 -193 206c0 121 81 206 191 206c95 0 152 -58 170 -123l-47 -18c-14 51 -53 93 -123 93zM417 674c-174 0 -312 -140 -312 -320
c0 -179 138 -319 312 -319s312 140 312 319c0 180 -138 320 -312 320zM417 -13c-202 0 -364 163 -364 367c0 205 162 368 364 368s364 -163 364 -368c0 -204 -162 -367 -364 -367z" />
    <glyph glyph-name="trademark" unicode="&#x2122;" horiz-adv-x="828" 
d="M319 664h-116v-309h-50v309h-116v45h282v-45zM750 355h-50v268l-120 -268h-41l-120 268v-268h-50v354h64l127 -285l127 285h63v-354z" />
    <glyph glyph-name="acute" unicode="&#xb4;" horiz-adv-x="249" 
d="M208 676l-118 -139h-49l89 139h78z" />
    <glyph glyph-name="dieresis" unicode="&#xa8;" horiz-adv-x="350" 
d="M221 611c0 23 19 42 42 42s42 -19 42 -42s-19 -42 -42 -42s-42 19 -42 42zM45 611c0 23 19 42 42 42s42 -19 42 -42s-19 -42 -42 -42s-42 19 -42 42z" />
    <glyph glyph-name="notequal" unicode="&#x2260;" horiz-adv-x="600" 
d="M161 116h-62l81 110h-104v51h142l105 143h-247v50h285l79 107h62l-79 -107h100v-50h-138l-105 -143h243v-51h-281z" />
    <glyph glyph-name="AE" unicode="&#xc6;" horiz-adv-x="979" 
d="M923 0h-418v219h-283l-143 -219h-79l472 709h451v-58h-354v-267h323v-58h-323v-268h354v-58zM505 652l-245 -375h245v375z" />
    <glyph glyph-name="Oslash" unicode="&#xd8;" horiz-adv-x="798" 
d="M52 354c0 237 172 368 346 368c73 0 147 -24 207 -69l74 96l43 -32l-77 -99c60 -62 100 -151 100 -264c0 -237 -173 -367 -347 -367c-69 0 -138 21 -196 60l-70 -90l-43 32l71 92c-65 62 -108 154 -108 273zM116 354c0 -98 32 -173 81 -225l372 478
c-49 38 -110 57 -171 57c-145 0 -282 -107 -282 -310zM681 354c0 92 -29 164 -74 216l-369 -476c47 -33 103 -49 160 -49c145 0 283 107 283 309z" />
    <glyph glyph-name="infinity" unicode="&#x221e;" horiz-adv-x="801" 
d="M103 349c0 -61 48 -112 112 -112c61 0 110 50 154 112c-45 64 -93 113 -154 113c-64 0 -112 -51 -112 -113zM699 349c0 62 -48 113 -112 113c-62 0 -109 -49 -155 -112c45 -63 93 -113 155 -113c64 0 112 51 112 112zM400 309c-53 -71 -114 -123 -187 -123
c-92 0 -164 73 -164 164s72 164 164 164c73 0 137 -52 188 -124c53 72 115 124 187 124c92 0 164 -73 164 -164s-72 -164 -164 -164c-72 0 -136 51 -188 123z" />
    <glyph glyph-name="plusminus" unicode="&#xb1;" horiz-adv-x="604" 
d="M517 384h-189v-145h-53v145h-188v50h188v145h53v-145h189v-50zM517 125h-430v51h430v-51z" />
    <glyph glyph-name="lessequal" unicode="&#x2264;" horiz-adv-x="582" 
d="M489 234l-405 147v53l405 147v-54l-336 -120l336 -118v-55zM489 125h-405v51h405v-51z" />
    <glyph glyph-name="greaterequal" unicode="&#x2265;" horiz-adv-x="582" 
d="M93 234v55l336 118l-336 120v54l405 -147v-53zM498 125h-405v51h405v-51z" />
    <glyph glyph-name="yen" unicode="&#xa5;" horiz-adv-x="618" 
d="M341 0h-63v175h-189v50h189v84h-189v50h160l-214 350h73l203 -338l202 338h70l-214 -350h162v-50h-190v-84h190v-50h-190v-175z" />
    <glyph glyph-name="mu" unicode="&#xb5;" horiz-adv-x="531" 
d="M251 -13c-54 0 -95 20 -119 54v-231h-60v667h60v-291c0 -76 36 -145 130 -145c85 0 135 65 135 145v291h60v-386c0 -36 3 -70 6 -91h-57c-2 10 -5 37 -5 67v7c-22 -46 -75 -87 -150 -87z" />
    <glyph glyph-name="partialdiff" unicode="&#x2202;" horiz-adv-x="604" 
d="M234 667c-37 0 -91 -8 -139 -32l-20 49c53 28 116 38 168 38c178 0 307 -132 307 -377c0 -202 -86 -358 -268 -358c-126 0 -235 86 -235 233c0 139 106 230 238 230c89 0 163 -37 203 -92c-6 171 -73 309 -254 309zM294 397c-116 0 -186 -78 -186 -180
c0 -107 81 -175 177 -175c141 0 197 131 201 246c-42 72 -114 109 -192 109z" />
    <glyph glyph-name="summation" unicode="&#x2211;" horiz-adv-x="587" 
d="M47 0v58l282 299l-282 293v59h485v-58h-407l280 -294l-286 -299h413v-58h-485z" />
    <glyph glyph-name="product" unicode="&#x220f;" horiz-adv-x="665" 
d="M586 0h-60v651h-385v-651h-62v709h507v-709z" />
    <glyph glyph-name="pi" unicode="&#x3c0;" horiz-adv-x="580" 
d="M539 5c-14 -5 -33 -10 -57 -10c-70 0 -103 49 -103 107v321h-204v-423h-60v423h-95v54h515v-54h-96v-315c0 -40 25 -59 61 -59c12 0 26 2 39 6v-50z" />
    <glyph glyph-name="integral" unicode="&#x222b;" horiz-adv-x="322" 
d="M131 -32v589c0 95 56 152 144 152h28v-54h-24c-53 0 -88 -36 -88 -102v-590c0 -96 -53 -153 -140 -153h-32v54h24c52 0 88 37 88 104z" />
    <glyph glyph-name="ordfeminine" unicode="&#xaa;" horiz-adv-x="393" 
d="M275 526v23c-4 -5 -9 -7 -23 -9l-91 -15c-36 -6 -59 -25 -59 -60c0 -30 23 -58 69 -58c68 0 104 45 104 119zM51 463c0 56 40 90 99 98l93 14c24 4 32 16 32 31c0 41 -29 71 -82 71c-51 0 -84 -31 -90 -77l-46 12c7 62 60 108 135 108c94 0 133 -55 133 -120v-169
c0 -24 2 -46 4 -57h-49c-2 10 -4 27 -4 53c-16 -31 -55 -62 -112 -62c-73 0 -113 47 -113 98z" />
    <glyph glyph-name="ordmasculine" unicode="&#xba;" horiz-adv-x="423" 
d="M211 365c-95 0 -168 72 -168 178c0 105 73 177 168 177s169 -72 169 -177c0 -106 -73 -178 -169 -178zM93 543c0 -85 55 -133 118 -133s118 48 118 133c0 84 -55 132 -118 132s-118 -48 -118 -132z" />
    <glyph glyph-name="Omega" unicode="&#x2126;" horiz-adv-x="824" 
d="M412 665c-148 0 -289 -110 -289 -289c0 -161 118 -270 242 -293v-83h-296v55h222c-121 38 -232 155 -232 321c0 210 166 346 353 346c186 0 353 -136 353 -346c0 -166 -111 -283 -232 -321h222v-55h-296v83c124 23 242 132 242 293c0 179 -141 289 -289 289z" />
    <glyph glyph-name="ae" unicode="&#xe6;" horiz-adv-x="853" 
d="M209 38c91 0 157 60 157 157v58c-7 -8 -41 -17 -63 -20l-107 -16c-55 -8 -89 -39 -89 -91c0 -45 36 -88 102 -88zM428 277h318c-2 89 -59 159 -159 159c-89 0 -153 -71 -159 -159zM202 -13c-100 0 -157 67 -157 136c0 81 56 127 144 141l127 19c38 6 50 25 50 47
c0 63 -43 108 -120 108c-76 0 -126 -43 -133 -112l-58 13c11 92 88 151 190 151c88 0 143 -38 167 -93c40 59 104 93 174 93c141 0 222 -100 223 -241c0 -8 0 -14 -1 -22h-382v-12c4 -106 79 -174 171 -174c86 0 136 50 156 113l53 -19c-27 -81 -99 -148 -209 -148
c-86 0 -162 43 -202 123c-27 -65 -87 -123 -193 -123z" />
    <glyph glyph-name="oslash" unicode="&#xf8;" 
d="M282 490c50 0 97 -15 135 -43l55 71l39 -31l-57 -73c39 -44 63 -104 63 -176c0 -149 -103 -251 -235 -251c-49 0 -94 14 -131 39l-52 -67l-38 31l53 68c-41 44 -66 106 -66 180c0 150 101 252 234 252zM108 238c0 -55 16 -101 42 -134l233 299c-29 22 -64 33 -101 33
c-93 0 -174 -73 -174 -198zM282 41c94 0 175 73 175 197c0 53 -15 97 -39 130l-232 -298c28 -19 61 -29 96 -29z" />
    <glyph glyph-name="questiondown" unicode="&#xbf;" horiz-adv-x="479" 
d="M223 294h55c3 -10 3 -23 3 -38c0 -62 -21 -108 -72 -147l-44 -34c-42 -32 -69 -74 -69 -123c0 -71 49 -135 141 -135c101 0 148 72 148 147c0 17 -3 36 -8 54l61 -9c6 -17 8 -33 8 -51c0 -94 -66 -197 -209 -197c-129 0 -204 93 -204 190c0 73 41 128 100 172l45 33
c37 27 47 68 47 106c0 12 -1 23 -2 32zM250 487c28 0 50 -22 50 -49c0 -28 -22 -50 -50 -50s-50 22 -50 50c0 27 22 49 50 49z" />
    <glyph glyph-name="exclamdown" unicode="&#xa1;" horiz-adv-x="213" 
d="M68 -226l17 520h41l18 -520h-76zM108 487c28 0 50 -22 50 -49c0 -28 -22 -50 -50 -50s-50 22 -50 50c0 27 22 49 50 49z" />
    <glyph glyph-name="logicalnot" unicode="&#xac;" horiz-adv-x="578" 
d="M500 218h-55v201h-385v53h440v-254z" />
    <glyph glyph-name="radical" unicode="&#x221a;" horiz-adv-x="660" 
d="M653 796h-126l-268 -796h-57l-182 518h69l143 -417l247 751h174v-56z" />
    <glyph glyph-name="florin" unicode="&#x192;" horiz-adv-x="5120" 
d="M2128 382c148 -36 208 -93 208 -194c0 -119 -92 -197 -233 -197c-100 0 -192 35 -268 103c-2 2 -3 3 -3 5s1 5 2 6l67 80c1 1 3 3 5 3c3 0 5 -1 6 -2c65 -57 123 -81 194 -81c64 0 104 28 104 73c0 40 -20 62 -137 90c-136 32 -216 76 -216 196c0 113 92 192 224 192
c91 0 169 -28 234 -81c2 -2 3 -4 3 -6s-1 -3 -2 -5l-59 -84c-1 -2 -4 -4 -7 -4c-2 0 -4 1 -5 2c-57 43 -111 64 -166 64c-57 0 -95 -27 -95 -68c0 -43 22 -62 144 -92zM2657 502c114 0 229 -88 229 -256s-115 -255 -229 -255c-62 0 -112 22 -153 69v-195c0 -5 -4 -9 -9 -9
h-108c-5 0 -9 4 -9 9v619c0 5 4 8 9 8h108c5 0 9 -3 9 -8v-56c41 49 91 74 153 74zM2760 246c0 84 -54 145 -128 145c-75 0 -131 -62 -131 -145s56 -145 131 -145s128 59 128 145zM3183 502c146 0 261 -113 261 -256c0 -144 -116 -256 -263 -256c-146 0 -260 111 -260 254
c0 144 115 258 262 258zM3183 100c78 0 135 61 135 144c0 84 -59 146 -137 146c-79 0 -136 -60 -136 -144c0 -83 59 -146 138 -146zM3637 492h120c5 0 8 -3 8 -8v-94c0 -4 -3 -8 -8 -8h-120v-225c0 -36 16 -52 51 -52c27 0 48 9 54 12c5 2 10 5 13 5c4 0 8 -3 8 -9v-87
c0 -2 0 -6 -6 -9c-26 -15 -55 -25 -100 -25c-97 0 -145 50 -145 148v242h-53c-3 0 -7 4 -7 8v94c0 5 4 8 7 8h53v123c0 4 4 7 8 7h109c4 0 8 -3 8 -7v-123zM4294 559c-3 0 -8 3 -21 6c-17 4 -27 6 -43 6c-38 0 -55 -20 -55 -65v-14h186c3 0 7 -2 8 -4l127 -334l116 333
c1 3 4 5 7 5h114c3 0 8 -3 8 -8c0 -1 -1 -5 -2 -7l-188 -485c-39 -101 -83 -139 -164 -139c-43 0 -76 9 -116 29c-2 1 -4 4 -4 6s0 3 1 5l36 82c1 3 4 5 7 5c1 0 3 -1 4 -1c24 -12 41 -18 60 -18c24 0 41 8 59 48l-155 373h-102v-373c0 -5 -4 -9 -9 -9h-108c-5 0 -9 4 -9 9
v373h-52c-4 0 -7 4 -7 8v95c0 4 3 7 7 7h52v24c0 106 54 163 155 163c36 0 65 -4 90 -12c3 -1 6 -4 6 -8v-92c0 -3 -3 -8 -8 -8zM3823 492h110c4 0 7 -3 7 -8v-475c0 -5 -3 -9 -7 -9h-110c-3 0 -7 4 -7 9v475c0 5 4 8 7 8zM3878 708c43 0 79 -34 79 -77
c0 -44 -36 -79 -79 -79s-77 35 -77 79c0 43 34 77 77 77zM4833 338c-43 0 -76 35 -76 77s33 77 76 77s77 -34 77 -76c0 -43 -34 -78 -77 -78zM4833 484c-39 0 -68 -31 -68 -69c0 -39 29 -70 68 -70c40 0 70 32 70 71c0 37 -30 68 -70 68zM4851 407l22 -30h-19l-20 27h-16
v-27h-15v81h35c19 0 32 -10 32 -27c0 -13 -9 -20 -19 -24zM4838 444h-20v-26h20c9 0 16 5 16 12c0 9 -7 14 -16 14zM1200 -6c23 0 44 20 44 45c0 15 -8 29 -21 37c-105 65 -240 111 -421 111c-83 0 -171 -11 -263 -32c-20 -5 -34 -22 -34 -42c0 -23 17 -44 43 -44
c9 0 31 6 41 8c87 18 165 23 215 23c142 0 266 -34 373 -99c7 -4 15 -7 23 -7zM1277 181c29 0 55 25 55 56c0 19 -9 37 -26 47c-142 87 -328 133 -510 133c-97 0 -193 -13 -282 -40c-24 -7 -39 -29 -39 -53c0 -29 20 -54 52 -54c23 0 22 4 60 13c77 19 154 24 207 24
c163 0 330 -41 454 -118c9 -5 19 -8 29 -8zM1332 408c10 -6 22 -9 33 -9c37 0 67 29 67 66c0 22 -12 44 -33 56c-165 96 -376 139 -593 139c-122 0 -238 -16 -331 -44c-29 -9 -47 -35 -47 -63c0 -34 27 -67 65 -67c6 0 13 1 19 3c83 25 188 39 300 39
c181 0 379 -36 520 -120zM210 327c0 390 317 706 706 706s705 -316 705 -706s-316 -705 -705 -705s-706 315 -706 705z" />
    <glyph glyph-name="approxequal" unicode="&#x2248;" horiz-adv-x="620" 
d="M514 479l34 -30c-34 -47 -76 -72 -132 -72c-30 0 -62 11 -96 29l-47 25c-24 13 -48 20 -70 20c-39 0 -68 -16 -95 -49l-35 31c35 48 75 74 130 74c30 0 61 -12 95 -30l46 -24c25 -14 54 -23 78 -23c38 0 66 15 92 49zM514 285l34 -29c-34 -47 -76 -73 -132 -73
c-30 0 -62 11 -96 30l-47 25c-24 12 -48 20 -70 20c-39 0 -68 -16 -95 -49l-35 30c35 48 75 74 130 74c30 0 61 -11 95 -29l46 -25c25 -13 54 -22 78 -22c38 0 66 15 92 48z" />
    <glyph glyph-name="Delta" unicode="&#x2206;" horiz-adv-x="701" 
d="M31 0l283 709h72l284 -709h-639zM350 642l-229 -584h458z" />
    <glyph glyph-name="guillemotleft" unicode="&#xab;" horiz-adv-x="465" 
d="M241 95h-60l-133 191l133 191h60l-132 -191zM410 95h-60l-133 191l133 191h60l-132 -191z" />
    <glyph glyph-name="guillemotright" unicode="&#xbb;" horiz-adv-x="465" 
d="M284 95h-60l132 191l-132 191h60l133 -191zM115 95h-60l132 191l-132 191h60l133 -191z" />
    <glyph glyph-name="ellipsis" unicode="&#x2026;" horiz-adv-x="722" 
d="M64 45c0 28 22 49 49 49s49 -21 49 -49s-22 -49 -49 -49s-49 21 -49 49zM312 45c0 28 22 49 49 49s49 -21 49 -49s-22 -49 -49 -49s-49 21 -49 49zM560 45c0 28 22 49 49 49s49 -21 49 -49s-22 -49 -49 -49s-49 21 -49 49z" />
    <glyph glyph-name="Agrave" unicode="&#xc0;" horiz-adv-x="694" 
d="M604 0l-88 219h-339l-87 -219h-68l287 709h76l287 -709h-68zM346 646l-146 -369h293zM315 759l-134 119h84l107 -119h-57z" />
    <glyph glyph-name="Atilde" unicode="&#xc3;" horiz-adv-x="694" 
d="M604 0l-88 219h-339l-87 -219h-68l287 709h76l287 -709h-68zM346 646l-146 -369h293zM501 871v-11c0 -63 -39 -97 -84 -97c-26 0 -48 10 -66 23l-21 15c-16 11 -31 20 -50 20c-26 0 -39 -18 -39 -55h-47v12c0 61 38 95 86 95c28 0 52 -12 72 -27l18 -13
c15 -11 28 -18 45 -18c25 0 39 17 39 56h47z" />
    <glyph glyph-name="Otilde" unicode="&#xd5;" horiz-adv-x="797" 
d="M553 871v-11c0 -63 -39 -97 -84 -97c-26 0 -48 10 -66 23l-21 15c-16 11 -31 20 -50 20c-26 0 -39 -18 -39 -55h-47v12c0 61 38 95 86 95c28 0 52 -12 72 -27l18 -13c15 -11 28 -18 45 -18c25 0 39 17 39 56h47zM116 354c0 -202 137 -309 282 -309s283 107 283 309
c0 203 -138 310 -283 310s-282 -107 -282 -310zM52 354c0 237 172 368 346 368s347 -131 347 -368s-173 -367 -347 -367s-346 130 -346 367z" />
    <glyph glyph-name="OE" unicode="&#x152;" horiz-adv-x="1155" 
d="M1099 0h-418v141c-65 -105 -175 -154 -283 -154c-174 0 -346 130 -346 367s172 368 346 368c108 0 218 -51 283 -156v143h418v-58h-354v-267h323v-58h-323v-268h354v-58zM116 354c0 -202 137 -309 282 -309s283 107 283 309c0 203 -138 310 -283 310s-282 -107 -282 -310
z" />
    <glyph glyph-name="oe" unicode="&#x153;" horiz-adv-x="944" 
d="M844 154l53 -19c-27 -81 -99 -148 -209 -148c-86 0 -163 43 -203 125c-40 -79 -116 -125 -204 -125c-130 0 -234 102 -234 251c0 150 101 252 234 252c88 0 164 -47 204 -127c38 81 111 127 192 127c141 0 222 -100 223 -241c0 -8 0 -14 -1 -22h-382v-4
c1 -110 77 -182 171 -182c86 0 136 50 156 113zM281 41c94 0 175 73 175 197c0 125 -81 198 -175 198c-93 0 -174 -73 -174 -198c0 -124 81 -197 174 -197zM519 277h318c-2 89 -59 159 -159 159c-89 0 -153 -71 -159 -159z" />
    <glyph glyph-name="endash" unicode="&#x2013;" horiz-adv-x="638" 
d="M569 260h-500v54h500v-54z" />
    <glyph glyph-name="emdash" unicode="&#x2014;" horiz-adv-x="1057" 
d="M988 260h-919v54h919v-54z" />
    <glyph glyph-name="quotedblleft" unicode="&#x201c;" horiz-adv-x="353" 
d="M154 537c0 -25 -21 -47 -50 -47s-56 23 -56 67c0 94 57 151 113 164v-36c-43 -12 -70 -60 -71 -104c3 3 9 5 18 5c26 0 46 -20 46 -49zM296 537c0 -25 -21 -47 -50 -47s-56 23 -56 67c0 94 57 151 113 164v-36c-43 -12 -70 -60 -71 -104c3 3 9 5 18 5c26 0 46 -20 46 -49
z" />
    <glyph glyph-name="quotedblright" unicode="&#x201d;" horiz-adv-x="357" 
d="M67 669c0 25 21 47 50 47s56 -23 56 -67c0 -94 -57 -151 -113 -164v36c43 12 70 60 71 104c-3 -3 -9 -5 -18 -5c-26 0 -46 20 -46 49zM209 669c0 25 21 47 50 47s56 -23 56 -67c0 -94 -57 -151 -113 -164v36c43 12 70 60 71 104c-3 -3 -9 -5 -18 -5c-26 0 -46 20 -46 49z
" />
    <glyph glyph-name="quoteleft" unicode="&#x2018;" horiz-adv-x="211" 
d="M154 537c0 -25 -21 -47 -50 -47s-56 23 -56 67c0 94 57 151 113 164v-36c-43 -12 -70 -60 -71 -104c3 3 9 5 18 5c26 0 46 -20 46 -49z" />
    <glyph glyph-name="quoteright" unicode="&#x2019;" horiz-adv-x="215" 
d="M67 669c0 25 21 47 50 47s56 -23 56 -67c0 -94 -57 -151 -113 -164v36c43 12 70 60 71 104c-3 -3 -9 -5 -18 -5c-26 0 -46 20 -46 49z" />
    <glyph glyph-name="divide" unicode="&#xf7;" horiz-adv-x="600" 
d="M251 170c0 26 23 47 48 47c26 0 48 -21 48 -47s-22 -48 -48 -48c-25 0 -48 22 -48 48zM521 322h-442v53h442v-53zM251 525c0 27 23 48 48 48c26 0 48 -21 48 -48c0 -25 -22 -48 -48 -48c-25 0 -48 23 -48 48z" />
    <glyph glyph-name="lozenge" unicode="&#x25ca;" horiz-adv-x="538" 
d="M100 354l169 -282l168 282l-168 283zM35 354l209 355h50l208 -355l-208 -354h-50z" />
    <glyph glyph-name="ydieresis" unicode="&#xff;" horiz-adv-x="501" 
d="M300 611c0 23 19 42 42 42s42 -19 42 -42s-19 -42 -42 -42s-42 19 -42 42zM124 611c0 23 19 42 42 42s42 -19 42 -42s-19 -42 -42 -42s-42 19 -42 42zM174 -190h-65l119 252l-203 415h67l167 -352l158 352h66z" />
    <glyph glyph-name="Ydieresis" unicode="&#x178;" horiz-adv-x="616" 
d="M277 303l-248 406h75l204 -347l205 347h74l-248 -406v-303h-62v303zM163 819c0 24 19 43 43 43s43 -19 43 -43s-19 -43 -43 -43s-43 19 -43 43zM367 819c0 24 19 43 43 43s43 -19 43 -43s-19 -43 -43 -43s-43 19 -43 43z" />
    <glyph glyph-name="fraction" unicode="&#x2044;" horiz-adv-x="131" 
d="M276 709h55l-472 -709h-57z" />
    <glyph glyph-name="currency" unicode="&#xa4;" horiz-adv-x="614" 
d="M506 106l-70 71c-35 -27 -79 -42 -126 -42c-49 0 -96 17 -131 46l-72 -75l-38 38l73 75c-29 35 -45 80 -45 129c0 50 18 97 47 132l-74 77l38 37l74 -76c36 27 81 43 128 43c46 0 89 -14 123 -40l72 73l37 -37l-69 -73c31 -36 51 -84 51 -136c0 -51 -19 -99 -49 -134
l69 -70zM151 348c0 -91 71 -161 159 -161c89 0 158 70 158 161c0 92 -69 161 -158 161c-88 0 -159 -69 -159 -161z" />
    <glyph glyph-name="guilsinglleft" unicode="&#x2039;" horiz-adv-x="296" 
d="M241 95h-60l-133 191l133 191h60l-132 -191z" />
    <glyph glyph-name="guilsinglright" unicode="&#x203a;" horiz-adv-x="296" 
d="M115 95h-60l132 191l-132 191h60l133 -191z" />
    <glyph glyph-name="fi" unicode="&#xfb01;" horiz-adv-x="555" 
d="M395 675c0 29 22 50 50 50s50 -21 50 -50s-22 -50 -50 -50s-50 21 -50 50zM415 423h-240v-423h-60v423h-98v54h98v99c0 101 62 154 142 154c25 0 43 -5 54 -10v-54c-9 4 -24 8 -45 8c-48 0 -91 -25 -91 -101v-96h300v-477h-60v423z" />
    <glyph glyph-name="fl" unicode="&#xfb02;" horiz-adv-x="555" 
d="M415 477v245h60v-722h-60v423h-240v-423h-60v423h-98v54h98v99c0 101 62 154 142 154c25 0 43 -5 54 -10v-54c-9 4 -24 8 -45 8c-48 0 -91 -25 -91 -101v-96h240z" />
    <glyph glyph-name="daggerdbl" unicode="&#x2021;" horiz-adv-x="1831" 
d="M1200 -6c23 0 44 20 44 45c0 15 -8 29 -21 37c-105 65 -240 111 -421 111c-83 0 -171 -11 -263 -32c-20 -5 -34 -22 -34 -42c0 -23 17 -44 43 -44c9 0 31 6 41 8c87 18 165 23 215 23c142 0 266 -34 373 -99c7 -4 15 -7 23 -7zM1277 181c29 0 55 25 55 56
c0 19 -9 37 -26 47c-142 87 -328 133 -510 133c-97 0 -193 -13 -282 -40c-24 -7 -39 -29 -39 -53c0 -29 20 -54 52 -54c23 0 22 4 60 13c77 19 154 24 207 24c163 0 330 -41 454 -118c9 -5 19 -8 29 -8zM1332 408c10 -6 22 -9 33 -9c37 0 67 29 67 66c0 22 -12 44 -33 56
c-165 96 -376 139 -593 139c-122 0 -238 -16 -331 -44c-29 -9 -47 -35 -47 -63c0 -34 27 -67 65 -67c6 0 13 1 19 3c83 25 188 39 300 39c181 0 379 -36 520 -120zM210 327c0 390 317 706 706 706s705 -316 705 -706s-316 -705 -705 -705s-706 315 -706 705z" />
    <glyph glyph-name="periodcentered" unicode="&#xb7;" horiz-adv-x="243" 
d="M69 284c0 29 23 53 52 53c30 0 53 -24 53 -53s-23 -52 -53 -52c-29 0 -52 23 -52 52z" />
    <glyph glyph-name="quotesinglbase" unicode="&#x201a;" horiz-adv-x="234" 
d="M64 46c0 25 21 47 50 47s56 -23 56 -67c0 -94 -57 -151 -113 -164v36c43 12 70 60 71 104c-3 -3 -9 -5 -18 -5c-26 0 -46 20 -46 49z" />
    <glyph glyph-name="quotedblbase" unicode="&#x201e;" horiz-adv-x="383" 
d="M64 46c0 25 21 47 50 47s56 -23 56 -67c0 -94 -57 -151 -113 -164v36c43 12 70 60 71 104c-3 -3 -9 -5 -18 -5c-26 0 -46 20 -46 49zM213 46c0 25 21 47 50 47s56 -23 56 -67c0 -94 -57 -151 -113 -164v36c43 12 70 60 71 104c-3 -3 -9 -5 -18 -5c-26 0 -46 20 -46 49z
" />
    <glyph glyph-name="perthousand" unicode="&#x2030;" horiz-adv-x="1056" 
d="M192 0h-59l473 709h59zM190 460c56 0 100 45 100 104c0 58 -44 103 -100 103c-57 0 -101 -45 -101 -103c0 -59 44 -104 101 -104zM36 564c0 85 69 153 154 153c84 0 154 -68 154 -153c0 -86 -70 -154 -154 -154c-85 0 -154 68 -154 154zM455 146c0 85 69 153 154 153
c54 0 102 -28 129 -71c27 43 74 71 129 71c85 0 154 -68 154 -153c0 -86 -69 -154 -154 -154c-55 0 -102 28 -129 71c-27 -43 -75 -71 -129 -71c-85 0 -154 68 -154 154zM509 146c0 -59 44 -104 100 -104c57 0 100 45 100 107c0 56 -45 100 -100 100
c-56 0 -100 -45 -100 -103zM767 146c0 -59 44 -104 100 -104c57 0 100 45 100 107c0 56 -45 100 -100 100c-56 0 -100 -45 -100 -103z" />
    <glyph glyph-name="Acircumflex" unicode="&#xc2;" horiz-adv-x="694" 
d="M604 0l-88 219h-339l-87 -219h-68l287 709h76l287 -709h-68zM346 646l-146 -369h293zM249 759h-59l115 119h82l116 -119h-59l-98 84z" />
    <glyph glyph-name="Ecircumflex" unicode="&#xca;" horiz-adv-x="575" 
d="M214 759h-59l115 119h82l116 -119h-59l-98 84zM519 0h-418v709h418v-58h-354v-267h323v-58h-323v-268h354v-58z" />
    <glyph glyph-name="Aacute" unicode="&#xc1;" horiz-adv-x="694" 
d="M604 0l-88 219h-339l-87 -219h-68l287 709h76l287 -709h-68zM346 646l-146 -369h293zM512 878l-134 -119h-57l107 119h84z" />
    <glyph glyph-name="Edieresis" unicode="&#xcb;" horiz-adv-x="575" 
d="M519 0h-418v709h418v-58h-354v-267h323v-58h-323v-268h354v-58zM167 819c0 24 19 43 43 43s43 -19 43 -43s-19 -43 -43 -43s-43 19 -43 43zM371 819c0 24 19 43 43 43s43 -19 43 -43s-19 -43 -43 -43s-43 19 -43 43z" />
    <glyph glyph-name="Egrave" unicode="&#xc8;" horiz-adv-x="575" 
d="M307 759l-134 119h84l107 -119h-57zM519 0h-418v709h418v-58h-354v-267h323v-58h-323v-268h354v-58z" />
    <glyph glyph-name="Iacute" unicode="&#xcd;" horiz-adv-x="266" 
d="M165 0h-64v709h64v-709zM296 878l-134 -119h-57l107 119h84z" />
    <glyph glyph-name="Icircumflex" unicode="&#xce;" horiz-adv-x="266" 
d="M165 0h-64v709h64v-709zM36 759h-59l115 119h82l116 -119h-59l-98 84z" />
    <glyph glyph-name="Idieresis" unicode="&#xcf;" horiz-adv-x="266" 
d="M165 0h-64v709h64v-709zM27 819c0 22 18 40 40 40s40 -18 40 -40s-18 -40 -40 -40s-40 18 -40 40zM160 819c0 22 18 40 40 40s40 -18 40 -40s-18 -40 -40 -40s-40 18 -40 40z" />
    <glyph glyph-name="Igrave" unicode="&#xcc;" horiz-adv-x="266" 
d="M165 0h-64v709h64v-709zM104 759l-134 119h84l107 -119h-57z" />
    <glyph glyph-name="Oacute" unicode="&#xd3;" horiz-adv-x="797" 
d="M553 878l-134 -119h-57l107 119h84zM116 354c0 -202 137 -309 282 -309s283 107 283 309c0 203 -138 310 -283 310s-282 -107 -282 -310zM52 354c0 237 172 368 346 368s347 -131 347 -368s-173 -367 -347 -367s-346 130 -346 367z" />
    <glyph glyph-name="Ocircumflex" unicode="&#xd4;" horiz-adv-x="797" 
d="M301 759h-59l115 119h82l116 -119h-59l-98 84zM116 354c0 -202 137 -309 282 -309s283 107 283 309c0 203 -138 310 -283 310s-282 -107 -282 -310zM52 354c0 237 172 368 346 368s347 -131 347 -368s-173 -367 -347 -367s-346 130 -346 367z" />
    <glyph glyph-name="Ograve" unicode="&#xd2;" horiz-adv-x="797" 
d="M377 759l-134 119h84l107 -119h-57zM116 354c0 -202 137 -309 282 -309s283 107 283 309c0 203 -138 310 -283 310s-282 -107 -282 -310zM52 354c0 237 172 368 346 368s347 -131 347 -368s-173 -367 -347 -367s-346 130 -346 367z" />
    <glyph glyph-name="Uacute" unicode="&#xda;" horiz-adv-x="672" 
d="M474 878l-134 -119h-57l107 119h84zM336 -13c-144 0 -243 87 -243 249v473h64v-470c0 -125 63 -194 179 -194s179 69 179 194v470h64v-473c0 -161 -98 -249 -243 -249z" />
    <glyph glyph-name="Ucircumflex" unicode="&#xdb;" horiz-adv-x="672" 
d="M239 759h-59l115 119h82l116 -119h-59l-98 84zM336 -13c-144 0 -243 87 -243 249v473h64v-470c0 -125 63 -194 179 -194s179 69 179 194v470h64v-473c0 -161 -98 -249 -243 -249z" />
    <glyph glyph-name="Ugrave" unicode="&#xd9;" horiz-adv-x="672" 
d="M332 759l-134 119h84l107 -119h-57zM336 -13c-144 0 -243 87 -243 249v473h64v-470c0 -125 63 -194 179 -194s179 69 179 194v470h64v-473c0 -161 -98 -249 -243 -249z" />
    <glyph glyph-name="dotlessi" unicode="&#x131;" horiz-adv-x="220" 
d="M140 0h-60v477h60v-477z" />
    <glyph glyph-name="circumflex" unicode="&#x2c6;" horiz-adv-x="382" 
d="M99 538h-54l110 137h72l110 -137h-54l-92 99z" />
    <glyph glyph-name="tilde" unicode="&#x2dc;" horiz-adv-x="393" 
d="M348 659v-11c0 -63 -38 -97 -83 -97c-26 0 -47 10 -65 23l-21 15c-16 11 -30 20 -49 20c-26 0 -38 -18 -38 -55h-47v12c0 61 37 95 85 95c28 0 51 -12 71 -27l18 -13c15 -11 27 -18 44 -18c25 0 38 17 38 56h47z" />
    <glyph glyph-name="macron" unicode="&#xaf;" horiz-adv-x="344" 
d="M299 583h-254v50h254v-50z" />
    <glyph glyph-name="breve" unicode="&#x2d8;" horiz-adv-x="370" 
d="M185 538c-91 0 -139 70 -140 138h47c2 -43 30 -89 93 -89s91 46 93 89h47c-1 -68 -49 -138 -140 -138z" />
    <glyph glyph-name="dotaccent" unicode="&#x2d9;" horiz-adv-x="168" 
d="M37 607c0 26 21 47 47 47s47 -21 47 -47s-21 -47 -47 -47s-47 21 -47 47z" />
    <glyph glyph-name="ring" unicode="&#x2da;" horiz-adv-x="300" 
d="M255 635c0 -58 -47 -105 -105 -105c-57 0 -105 47 -105 105s48 105 105 105c58 0 105 -47 105 -105zM211 635c0 35 -26 63 -61 63s-61 -28 -61 -63s26 -63 61 -63s61 28 61 63z" />
    <glyph glyph-name="cedilla" unicode="&#xb8;" horiz-adv-x="306" 
d="M120 -95l-24 29l48 74h48l-43 -64c8 3 15 4 24 4c53 0 88 -31 88 -76c0 -46 -37 -82 -108 -82c-47 0 -88 22 -108 47l27 32c15 -18 43 -39 80 -39c38 0 62 15 62 42c0 25 -20 41 -57 41c-12 0 -25 -2 -37 -8z" />
    <glyph glyph-name="hungarumlaut" unicode="&#x2dd;" horiz-adv-x="330" 
d="M285 676l-90 -139h-44l67 139h67zM179 676l-90 -139h-44l67 139h67z" />
    <glyph glyph-name="ogonek" unicode="&#x2db;" horiz-adv-x="230" 
d="M41 -117c0 65 50 105 93 129l41 -12c-37 -19 -83 -56 -83 -106c0 -38 29 -57 63 -57c14 0 25 2 34 5v-44c-12 -5 -25 -8 -45 -8c-57 0 -103 34 -103 93z" />
    <glyph glyph-name="caron" unicode="&#x2c7;" horiz-adv-x="374" 
d="M41 675h54l92 -99l92 99h54l-110 -137h-72z" />
    <glyph glyph-name=".null" horiz-adv-x="0" 
 />
    <glyph glyph-name=".null" horiz-adv-x="0" 
 />
    <glyph glyph-name="uni000D" unicode="&#xd;" horiz-adv-x="259" 
 />
    <glyph glyph-name="uni00A0" unicode="&#xa0;" horiz-adv-x="259" 
 />
    <glyph glyph-name="uni00AD" unicode="&#xad;" horiz-adv-x="401" 
d="M332 261h-263v52h263v-52z" />
    <glyph glyph-name="Amacron" unicode="&#x100;" horiz-adv-x="694" 
d="M604 0l-88 219h-339l-87 -219h-68l287 709h76l287 -709h-68zM346 646l-146 -369h293zM482 793h-272v52h272v-52z" />
    <glyph glyph-name="amacron" unicode="&#x101;" horiz-adv-x="500" 
d="M201 -12c-100 0 -156 66 -156 135c0 81 56 128 143 141l127 19c41 6 50 24 50 46c0 63 -42 108 -120 108c-76 0 -126 -42 -134 -111l-56 12c11 91 87 151 189 151c124 0 181 -75 181 -166v-241c0 -38 3 -62 7 -82h-59c-2 11 -6 43 -6 82c-22 -45 -79 -94 -166 -94z
M208 39c91 0 157 60 157 156v54c-3 -3 -16 -9 -35 -12l-133 -20c-56 -8 -91 -39 -91 -91c0 -44 36 -87 102 -87zM375 583h-254v50h254v-50z" />
    <glyph glyph-name="Abreve" unicode="&#x102;" horiz-adv-x="694" 
d="M604 0l-88 219h-339l-87 -219h-68l287 709h76l287 -709h-68zM346 646l-146 -369h293zM347 754c-90 0 -140 62 -145 126h52c4 -38 32 -78 93 -78s89 40 92 78h52c-4 -64 -54 -126 -144 -126z" />
    <glyph glyph-name="abreve" unicode="&#x103;" horiz-adv-x="500" 
d="M201 -12c-100 0 -156 66 -156 135c0 81 56 128 143 141l127 19c41 6 50 24 50 46c0 63 -42 108 -120 108c-76 0 -126 -42 -134 -111l-56 12c11 91 87 151 189 151c124 0 181 -75 181 -166v-241c0 -38 3 -62 7 -82h-59c-2 11 -6 43 -6 82c-22 -45 -79 -94 -166 -94z
M208 39c91 0 157 60 157 156v54c-3 -3 -16 -9 -35 -12l-133 -20c-56 -8 -91 -39 -91 -91c0 -44 36 -87 102 -87zM247 538c-91 0 -139 70 -140 138h47c2 -43 30 -89 93 -89s91 46 93 89h47c-1 -68 -49 -138 -140 -138z" />
    <glyph glyph-name="Aogonek" unicode="&#x104;" horiz-adv-x="694" 
d="M604 0l-88 219h-339l-87 -219h-68l287 709h76l287 -709c-37 -19 -83 -56 -83 -106c0 -38 29 -57 63 -57c14 0 25 2 34 5v-44c-12 -5 -25 -8 -45 -8c-57 0 -103 34 -103 93c0 55 36 93 73 117h-7zM346 646l-146 -369h293z" />
    <glyph glyph-name="aogonek" unicode="&#x105;" horiz-adv-x="500" 
d="M298 -117c0 56 37 94 74 118c-2 12 -5 43 -5 81c-22 -45 -79 -94 -166 -94c-100 0 -156 66 -156 135c0 81 56 128 143 141l127 19c41 6 50 24 50 46c0 63 -42 108 -120 108c-76 0 -126 -42 -134 -111l-56 12c11 91 87 151 189 151c124 0 181 -75 181 -166v-241
c0 -38 3 -62 7 -82c-37 -19 -83 -56 -83 -106c0 -38 29 -57 63 -57c14 0 25 2 34 5v-44c-12 -5 -25 -8 -45 -8c-57 0 -103 34 -103 93zM208 39c91 0 157 60 157 156v54c-3 -3 -16 -9 -35 -12l-133 -20c-56 -8 -91 -39 -91 -91c0 -44 36 -87 102 -87z" />
    <glyph glyph-name="Cacute" unicode="&#x106;" horiz-adv-x="746" 
d="M545 878l-134 -119h-57l107 119h84zM399 -13c-176 0 -347 130 -347 367s173 368 347 368c159 0 272 -91 305 -226l-57 -20c-28 116 -120 188 -248 188c-145 0 -283 -107 -283 -310c0 -202 138 -309 283 -309c133 0 224 80 253 191l55 -20c-34 -133 -148 -229 -308 -229z
" />
    <glyph glyph-name="cacute" unicode="&#x107;" horiz-adv-x="529" 
d="M416 676l-118 -139h-49l89 139h78zM281 436c-95 0 -174 -75 -174 -198c0 -121 78 -197 174 -197c92 0 139 64 155 117l53 -22c-23 -74 -93 -149 -208 -149c-135 0 -234 105 -234 251c0 147 100 252 234 252c114 0 182 -70 204 -150l-53 -22c-16 56 -59 118 -151 118z" />
    <glyph glyph-name="Ccircumflex" unicode="&#x108;" horiz-adv-x="746" 
d="M302 759h-59l115 119h82l116 -119h-59l-98 84zM399 -13c-176 0 -347 130 -347 367s173 368 347 368c159 0 272 -91 305 -226l-57 -20c-28 116 -120 188 -248 188c-145 0 -283 -107 -283 -310c0 -202 138 -309 283 -309c133 0 224 80 253 191l55 -20
c-34 -133 -148 -229 -308 -229z" />
    <glyph glyph-name="ccircumflex" unicode="&#x109;" horiz-adv-x="529" 
d="M191 538h-54l110 137h72l110 -137h-54l-92 99zM281 436c-95 0 -174 -75 -174 -198c0 -121 78 -197 174 -197c92 0 139 64 155 117l53 -22c-23 -74 -93 -149 -208 -149c-135 0 -234 105 -234 251c0 147 100 252 234 252c114 0 182 -70 204 -150l-53 -22
c-16 56 -59 118 -151 118z" />
    <glyph glyph-name="Cdotaccent" unicode="&#x10a;" horiz-adv-x="746" 
d="M399 -13c-176 0 -347 130 -347 367s173 368 347 368c159 0 272 -91 305 -226l-57 -20c-28 116 -120 188 -248 188c-145 0 -283 -107 -283 -310c0 -202 138 -309 283 -309c133 0 224 80 253 191l55 -20c-34 -133 -148 -229 -308 -229zM354 818c0 26 21 47 47 47
s47 -21 47 -47s-21 -47 -47 -47s-47 21 -47 47z" />
    <glyph glyph-name="cdotaccent" unicode="&#x10b;" horiz-adv-x="529" 
d="M281 436c-95 0 -174 -75 -174 -198c0 -121 78 -197 174 -197c92 0 139 64 155 117l53 -22c-23 -74 -93 -149 -208 -149c-135 0 -234 105 -234 251c0 147 100 252 234 252c114 0 182 -70 204 -150l-53 -22c-16 56 -59 118 -151 118zM237 607c0 26 21 47 47 47
s47 -21 47 -47s-21 -47 -47 -47s-47 21 -47 47z" />
    <glyph glyph-name="Ccaron" unicode="&#x10c;" horiz-adv-x="746" 
d="M243 878h59l97 -84l98 84h59l-116 -119h-82zM399 -13c-176 0 -347 130 -347 367s173 368 347 368c159 0 272 -91 305 -226l-57 -20c-28 116 -120 188 -248 188c-145 0 -283 -107 -283 -310c0 -202 138 -309 283 -309c133 0 224 80 253 191l55 -20
c-34 -133 -148 -229 -308 -229z" />
    <glyph glyph-name="ccaron" unicode="&#x10d;" horiz-adv-x="529" 
d="M131 675h54l92 -99l92 99h54l-110 -137h-72zM281 436c-95 0 -174 -75 -174 -198c0 -121 78 -197 174 -197c92 0 139 64 155 117l53 -22c-23 -74 -93 -149 -208 -149c-135 0 -234 105 -234 251c0 147 100 252 234 252c114 0 182 -70 204 -150l-53 -22
c-16 56 -59 118 -151 118z" />
    <glyph glyph-name="Dcaron" unicode="&#x10e;" horiz-adv-x="712" 
d="M194 878h59l97 -84l98 84h59l-116 -119h-82zM164 56h154c147 0 276 99 276 297c0 199 -127 300 -274 300h-156v-597zM320 0h-219v709h221c180 0 337 -123 337 -356c0 -232 -159 -353 -339 -353z" />
    <glyph glyph-name="dcaron" unicode="&#x10f;" horiz-adv-x="574" 
d="M638 722l-58 -176h-46l36 176h68zM107 239c0 -112 64 -198 165 -198c99 0 162 86 162 198c0 113 -63 197 -161 197c-100 0 -166 -82 -166 -197zM434 75v19c-21 -49 -74 -107 -167 -107c-134 0 -220 110 -220 252c0 140 88 251 220 251c102 0 149 -62 166 -103v335h60
v-631c0 -51 4 -86 5 -91h-59c-2 12 -5 41 -5 75z" />
    <glyph glyph-name="Dcroat" unicode="&#x110;" horiz-adv-x="713" 
d="M321 0h-219v339h-78v54h78v316h221c180 0 337 -123 337 -356c0 -232 -159 -353 -339 -353zM165 56h154c147 0 276 99 276 297c0 199 -127 300 -274 300h-156v-260h143v-54h-143v-283z" />
    <glyph glyph-name="dcroat" unicode="&#x111;" horiz-adv-x="574" 
d="M434 75v19c-21 -49 -74 -107 -167 -107c-134 0 -220 110 -220 252c0 140 88 251 220 251c102 0 149 -62 166 -103v183h-132v50h132v102h60v-102h94v-50h-94v-479c0 -51 4 -86 5 -91h-59c-2 12 -5 41 -5 75zM107 239c0 -112 64 -198 165 -198c99 0 162 86 162 198
c0 113 -63 197 -161 197c-100 0 -166 -82 -166 -197z" />
    <glyph glyph-name="Emacron" unicode="&#x112;" horiz-adv-x="575" 
d="M519 0h-418v709h418v-58h-354v-267h323v-58h-323v-268h354v-58zM445 793h-272v52h272v-52z" />
    <glyph glyph-name="emacron" unicode="&#x113;" horiz-adv-x="535" 
d="M396 583h-254v50h254v-50zM110 277h318c-2 89 -59 159 -159 159c-89 0 -153 -71 -159 -159zM435 154l53 -19c-27 -81 -99 -148 -209 -148c-126 0 -232 93 -232 253c0 150 102 250 221 250c141 0 222 -100 223 -241c0 -8 0 -14 -1 -22h-382v-4c1 -110 77 -182 171 -182
c86 0 136 50 156 113z" />
    <glyph glyph-name="Ebreve" unicode="&#x114;" horiz-adv-x="575" 
d="M312 754c-90 0 -140 62 -145 126h52c4 -38 32 -78 93 -78s89 40 92 78h52c-4 -64 -54 -126 -144 -126zM519 0h-418v709h418v-58h-354v-267h323v-58h-323v-268h354v-58z" />
    <glyph glyph-name="ebreve" unicode="&#x115;" horiz-adv-x="535" 
d="M110 277h318c-2 89 -59 159 -159 159c-89 0 -153 -71 -159 -159zM435 154l53 -19c-27 -81 -99 -148 -209 -148c-126 0 -232 93 -232 253c0 150 102 250 221 250c141 0 222 -100 223 -241c0 -8 0 -14 -1 -22h-382v-4c1 -110 77 -182 171 -182c86 0 136 50 156 113z
M269 538c-91 0 -139 70 -140 138h47c2 -43 30 -89 93 -89s91 46 93 89h47c-1 -68 -49 -138 -140 -138z" />
    <glyph glyph-name="Edotaccent" unicode="&#x116;" horiz-adv-x="575" 
d="M266 818c0 26 21 47 47 47s47 -21 47 -47s-21 -47 -47 -47s-47 21 -47 47zM519 0h-418v709h418v-58h-354v-267h323v-58h-323v-268h354v-58z" />
    <glyph glyph-name="edotaccent" unicode="&#x117;" horiz-adv-x="535" 
d="M110 277h318c-2 89 -59 159 -159 159c-89 0 -153 -71 -159 -159zM435 154l53 -19c-27 -81 -99 -148 -209 -148c-126 0 -232 93 -232 253c0 150 102 250 221 250c141 0 222 -100 223 -241c0 -8 0 -14 -1 -22h-382v-4c1 -110 77 -182 171 -182c86 0 136 50 156 113z
M222 607c0 26 21 47 47 47s47 -21 47 -47s-21 -47 -47 -47s-47 21 -47 47z" />
    <glyph glyph-name="Eogonek" unicode="&#x118;" horiz-adv-x="575" 
d="M385 -117c0 55 36 93 73 117h-357v709h418v-58h-354v-267h323v-58h-323v-268h354v-58c-37 -19 -83 -56 -83 -106c0 -38 29 -57 63 -57c14 0 25 2 34 5v-44c-12 -5 -25 -8 -45 -8c-57 0 -103 34 -103 93z" />
    <glyph glyph-name="eogonek" unicode="&#x119;" horiz-adv-x="535" 
d="M224 -117c0 46 25 80 55 104c-126 0 -232 93 -232 253c0 150 102 250 221 250c141 0 222 -100 223 -241c0 -8 0 -14 -1 -22h-382v-4c1 -110 77 -182 171 -182c86 0 136 50 156 113l53 -19c-21 -60 -58 -105 -122 -132c-43 -18 -91 -59 -91 -109c0 -38 29 -57 63 -57
c14 0 25 2 34 5v-44c-12 -5 -25 -8 -45 -8c-57 0 -103 34 -103 93zM110 277h318c-2 89 -59 159 -159 159c-89 0 -153 -71 -159 -159z" />
    <glyph glyph-name="Ecaron" unicode="&#x11a;" horiz-adv-x="575" 
d="M161 878h59l97 -84l98 84h59l-116 -119h-82zM519 0h-418v709h418v-58h-354v-267h323v-58h-323v-268h354v-58z" />
    <glyph glyph-name="ecaron" unicode="&#x11b;" horiz-adv-x="535" 
d="M123 675h54l92 -99l92 99h54l-110 -137h-72zM110 277h318c-2 89 -59 159 -159 159c-89 0 -153 -71 -159 -159zM435 154l53 -19c-27 -81 -99 -148 -209 -148c-126 0 -232 93 -232 253c0 150 102 250 221 250c141 0 222 -100 223 -241c0 -8 0 -14 -1 -22h-382v-4
c1 -110 77 -182 171 -182c86 0 136 50 156 113z" />
    <glyph glyph-name="Gcircumflex" unicode="&#x11c;" horiz-adv-x="766" 
d="M298 759h-59l115 119h82l116 -119h-59l-98 84zM699 0h-50l-6 137c-27 -61 -103 -150 -257 -150c-166 0 -334 129 -334 368c0 238 169 367 343 367c152 0 267 -86 308 -213l-57 -24c-35 110 -127 179 -251 179c-143 0 -279 -105 -279 -309s138 -311 272 -311
c186 0 249 141 251 231h-262v58h322v-333z" />
    <glyph glyph-name="gcircumflex" unicode="&#x11d;" horiz-adv-x="562" 
d="M186 538h-54l110 137h72l110 -137h-54l-92 99zM48 -27l57 14c8 -75 68 -137 153 -137c126 0 164 85 164 184v88c-21 -49 -74 -97 -161 -97c-125 0 -213 99 -213 232c0 130 86 231 213 231c89 0 138 -44 162 -93v82h59v-442c0 -111 -49 -238 -225 -238
c-116 0 -197 76 -209 176zM268 77c94 0 156 76 156 180c0 103 -62 179 -156 179c-95 0 -160 -75 -160 -179s64 -180 160 -180z" />
    <glyph glyph-name="Gbreve" unicode="&#x11e;" horiz-adv-x="766" 
d="M396 754c-90 0 -140 62 -145 126h52c4 -38 32 -78 93 -78s89 40 92 78h52c-4 -64 -54 -126 -144 -126zM699 0h-50l-6 137c-27 -61 -103 -150 -257 -150c-166 0 -334 129 -334 368c0 238 169 367 343 367c152 0 267 -86 308 -213l-57 -24c-35 110 -127 179 -251 179
c-143 0 -279 -105 -279 -309s138 -311 272 -311c186 0 249 141 251 231h-262v58h322v-333z" />
    <glyph glyph-name="gbreve" unicode="&#x11f;" horiz-adv-x="562" 
d="M48 -27l57 14c8 -75 68 -137 153 -137c126 0 164 85 164 184v88c-21 -49 -74 -97 -161 -97c-125 0 -213 99 -213 232c0 130 86 231 213 231c89 0 138 -44 162 -93v82h59v-442c0 -111 -49 -238 -225 -238c-116 0 -197 76 -209 176zM268 77c94 0 156 76 156 180
c0 103 -62 179 -156 179c-95 0 -160 -75 -160 -179s64 -180 160 -180zM278 538c-91 0 -139 70 -140 138h47c2 -43 30 -89 93 -89s91 46 93 89h47c-1 -68 -49 -138 -140 -138z" />
    <glyph glyph-name="Gdotaccent" unicode="&#x120;" horiz-adv-x="766" 
d="M349 818c0 26 21 47 47 47s47 -21 47 -47s-21 -47 -47 -47s-47 21 -47 47zM699 0h-50l-6 137c-27 -61 -103 -150 -257 -150c-166 0 -334 129 -334 368c0 238 169 367 343 367c152 0 267 -86 308 -213l-57 -24c-35 110 -127 179 -251 179c-143 0 -279 -105 -279 -309
s138 -311 272 -311c186 0 249 141 251 231h-262v58h322v-333z" />
    <glyph glyph-name="gdotaccent" unicode="&#x121;" horiz-adv-x="562" 
d="M231 607c0 26 21 47 47 47s47 -21 47 -47s-21 -47 -47 -47s-47 21 -47 47zM48 -27l57 14c8 -75 68 -137 153 -137c126 0 164 85 164 184v88c-21 -49 -74 -97 -161 -97c-125 0 -213 99 -213 232c0 130 86 231 213 231c89 0 138 -44 162 -93v82h59v-442
c0 -111 -49 -238 -225 -238c-116 0 -197 76 -209 176zM268 77c94 0 156 76 156 180c0 103 -62 179 -156 179c-95 0 -160 -75 -160 -179s64 -180 160 -180z" />
    <glyph glyph-name="Gcommaaccent" unicode="&#x122;" horiz-adv-x="766" 
d="M351 -84c0 25 21 42 46 42c24 0 51 -17 51 -59c0 -68 -49 -104 -99 -107v30c34 3 61 28 63 58c-4 -4 -11 -6 -19 -6c-24 0 -42 16 -42 42zM699 0h-50l-6 137c-27 -61 -103 -150 -257 -150c-166 0 -334 129 -334 368c0 238 169 367 343 367c152 0 267 -86 308 -213
l-57 -24c-35 110 -127 179 -251 179c-143 0 -279 -105 -279 -309s138 -311 272 -311c186 0 249 141 251 231h-262v58h322v-333z" />
    <glyph glyph-name="gcommaaccent" unicode="&#x123;" horiz-adv-x="562" 
d="M326 573c0 -25 -21 -42 -46 -42c-24 0 -51 17 -51 59c0 68 49 104 99 107v-30c-34 -3 -61 -28 -63 -58c4 4 11 6 19 6c24 0 42 -16 42 -42zM48 -27l57 14c8 -75 68 -137 153 -137c126 0 164 85 164 184v88c-21 -49 -74 -97 -161 -97c-125 0 -213 99 -213 232
c0 130 86 231 213 231c89 0 138 -44 162 -93v82h59v-442c0 -111 -49 -238 -225 -238c-116 0 -197 76 -209 176zM268 77c94 0 156 76 156 180c0 103 -62 179 -156 179c-95 0 -160 -75 -160 -179s64 -180 160 -180z" />
    <glyph glyph-name="Hcircumflex" unicode="&#x124;" horiz-adv-x="736" 
d="M270 759h-59l115 119h82l116 -119h-59l-98 84zM635 0h-64v331h-406v-331h-64v709h64v-320h406v320h64v-709z" />
    <glyph glyph-name="hcircumflex" unicode="&#x125;" horiz-adv-x="537" 
d="M176 763h-59l115 119h82l116 -119h-59l-98 84zM140 287v-287h-60v722h60v-320c25 48 79 88 153 88c113 0 169 -80 169 -178v-312h-60v302c0 75 -39 134 -129 134c-81 0 -133 -71 -133 -149z" />
    <glyph glyph-name="Hbar" unicode="&#x126;" horiz-adv-x="736" 
d="M31 523v54h70v132h64v-132h406v132h64v-132h70v-54h-70v-523h-64v331h-406v-331h-64v523h-70zM165 389h406v134h-406v-134z" />
    <glyph glyph-name="hbar" unicode="&#x127;" horiz-adv-x="537" 
d="M140 287v-287h-60v570h-94v50h94v102h60v-102h132v-50h-132v-168c25 48 79 88 153 88c113 0 169 -80 169 -178v-312h-60v302c0 75 -39 134 -129 134c-81 0 -133 -71 -133 -149z" />
    <glyph glyph-name="Itilde" unicode="&#x128;" horiz-adv-x="266" 
d="M165 0h-64v709h64v-709zM288 871v-11c0 -63 -39 -97 -84 -97c-26 0 -48 10 -66 23l-21 15c-16 11 -31 20 -50 20c-26 0 -39 -18 -39 -55h-47v12c0 61 38 95 86 95c28 0 52 -12 72 -27l18 -13c15 -11 28 -18 45 -18c25 0 39 17 39 56h47z" />
    <glyph glyph-name="itilde" unicode="&#x129;" horiz-adv-x="220" 
d="M140 0h-60v477h60v-477zM262 659v-11c0 -63 -38 -97 -83 -97c-26 0 -47 10 -65 23l-21 15c-16 11 -30 20 -49 20c-26 0 -38 -18 -38 -55h-47v12c0 61 37 95 85 95c28 0 51 -12 71 -27l18 -13c15 -11 27 -18 44 -18c25 0 38 17 38 56h47z" />
    <glyph glyph-name="Imacron" unicode="&#x12a;" horiz-adv-x="266" 
d="M165 0h-64v709h64v-709zM269 793h-272v52h272v-52z" />
    <glyph glyph-name="imacron" unicode="&#x12b;" horiz-adv-x="220" 
d="M140 0h-60v477h60v-477zM237 583h-254v50h254v-50z" />
    <glyph glyph-name="Ibreve" unicode="&#x12c;" horiz-adv-x="266" 
d="M165 0h-64v709h64v-709zM134 754c-90 0 -140 62 -145 126h52c4 -38 32 -78 93 -78s89 40 92 78h52c-4 -64 -54 -126 -144 -126z" />
    <glyph glyph-name="ibreve" unicode="&#x12d;" horiz-adv-x="220" 
d="M140 0h-60v477h60v-477zM110 538c-91 0 -139 70 -140 138h47c2 -43 30 -89 93 -89s91 46 93 89h47c-1 -68 -49 -138 -140 -138z" />
    <glyph glyph-name="Iogonek" unicode="&#x12e;" horiz-adv-x="266" 
d="M31 -117c0 55 36 93 73 117h-3v709h64v-709c-37 -19 -83 -56 -83 -106c0 -38 29 -57 63 -57c14 0 25 2 34 5v-44c-12 -5 -25 -8 -45 -8c-57 0 -103 34 -103 93z" />
    <glyph glyph-name="iogonek" unicode="&#x12f;" horiz-adv-x="220" 
d="M6 -117c0 56 36 93 74 117v477h60v-477c-37 -19 -83 -56 -83 -106c0 -38 29 -57 63 -57c14 0 25 2 34 5v-44c-12 -5 -25 -8 -45 -8c-57 0 -103 34 -103 93zM60 675c0 29 22 50 50 50s50 -21 50 -50s-22 -50 -50 -50s-50 21 -50 50z" />
    <glyph glyph-name="Idotaccent" unicode="&#x130;" horiz-adv-x="266" 
d="M165 0h-64v709h64v-709zM87 818c0 26 21 47 47 47s47 -21 47 -47s-21 -47 -47 -47s-47 21 -47 47z" />
    <glyph glyph-name="IJ" unicode="&#x132;" horiz-adv-x="597" 
d="M157 300h-64v409h64v-409zM93 208v17l63 15v-29c0 -105 54 -166 144 -166s140 62 140 163v501h64v-500c0 -129 -76 -222 -204 -222c-129 0 -207 85 -207 221z" />
    <glyph glyph-name="ij" unicode="&#x133;" horiz-adv-x="440" 
d="M140 0h-60v477h60v-477zM60 675c0 29 22 50 50 50s50 -21 50 -50s-22 -50 -50 -50s-50 21 -50 50zM300 -63v540h60v-542c0 -87 -50 -138 -126 -138c-26 0 -43 4 -53 9v51c11 -4 25 -6 41 -6c53 0 78 27 78 86zM280 675c0 29 22 50 50 50s50 -21 50 -50s-22 -50 -50 -50
s-50 21 -50 50z" />
    <glyph glyph-name="Jcircumflex" unicode="&#x134;" horiz-adv-x="537" 
d="M315 759h-59l115 119h82l116 -119h-59l-98 84zM33 208v45l63 15v-57c0 -105 54 -166 144 -166s140 62 140 163v501h64v-500c0 -129 -76 -222 -204 -222c-129 0 -207 85 -207 221z" />
    <glyph glyph-name="jcircumflex" unicode="&#x135;" horiz-adv-x="220" 
d="M18 538h-54l110 137h72l110 -137h-54l-92 99zM80 -63v540h60v-542c0 -87 -50 -138 -126 -138c-26 0 -43 4 -53 9v51c11 -4 25 -6 41 -6c53 0 78 27 78 86z" />
    <glyph glyph-name="Kcommaaccent" unicode="&#x136;" horiz-adv-x="638" 
d="M548 0l-261 349l-122 -130v-219h-64v709h64v-406l376 406h83l-295 -315l299 -394h-80zM303 -84c0 25 21 42 46 42c24 0 51 -17 51 -59c0 -68 -49 -104 -99 -107v30c34 3 61 28 63 58c-4 -4 -11 -6 -19 -6c-24 0 -42 16 -42 42z" />
    <glyph glyph-name="kcommaaccent" unicode="&#x137;" horiz-adv-x="496" 
d="M473 477l-203 -203l207 -274h-75l-174 233l-88 -87v-146h-60v722h60v-497l250 252h83zM226 -84c0 25 21 42 46 42c24 0 51 -17 51 -59c0 -68 -49 -104 -99 -107v30c34 3 61 28 63 58c-4 -4 -11 -6 -19 -6c-24 0 -42 16 -42 42z" />
    <glyph glyph-name="kgreenlandic" unicode="&#x138;" horiz-adv-x="495" 
d="M472 477l-203 -203l207 -274h-75l-174 233l-88 -87v-146h-59v477h59v-252l250 252h83z" />
    <glyph glyph-name="Lacute" unicode="&#x139;" horiz-adv-x="544" 
d="M296 878l-134 -119h-57l107 119h84zM523 0h-422v709h64v-651h358v-58z" />
    <glyph glyph-name="lacute" unicode="&#x13a;" horiz-adv-x="220" 
d="M273 882l-134 -119h-57l107 119h84zM140 0h-60v722h60v-722z" />
    <glyph glyph-name="Lcommaaccent" unicode="&#x13b;" horiz-adv-x="544" 
d="M270 -84c0 25 21 42 46 42c24 0 51 -17 51 -59c0 -68 -49 -104 -99 -107v30c34 3 61 28 63 58c-4 -4 -11 -6 -19 -6c-24 0 -42 16 -42 42zM523 0h-422v709h64v-651h358v-58z" />
    <glyph glyph-name="lcommaaccent" unicode="&#x13c;" horiz-adv-x="220" 
d="M62 -84c0 25 21 42 46 42c24 0 51 -17 51 -59c0 -68 -49 -104 -99 -107v30c34 3 61 28 63 58c-4 -4 -11 -6 -19 -6c-24 0 -42 16 -42 42zM140 0h-60v722h60v-722z" />
    <glyph glyph-name="Lcaron" unicode="&#x13d;" horiz-adv-x="544" 
d="M385 759l-62 -186h-47l38 186h71zM523 0h-422v709h64v-651h358v-58z" />
    <glyph glyph-name="lcaron" unicode="&#x13e;" horiz-adv-x="220" 
d="M285 722l-58 -176h-46l36 176h68zM140 0h-60v722h60v-722z" />
    <glyph glyph-name="Ldot" unicode="&#x13f;" horiz-adv-x="544" 
d="M523 0h-422v709h64v-651h358v-58zM299 373c0 29 23 53 52 53c30 0 53 -24 53 -53s-23 -52 -53 -52c-29 0 -52 23 -52 52z" />
    <glyph glyph-name="ldot" unicode="&#x140;" horiz-adv-x="277" 
d="M140 0h-60v722h60v-722zM197 324c0 26 21 47 47 47s47 -21 47 -47s-21 -47 -47 -47s-47 21 -47 47z" />
    <glyph glyph-name="Nacute" unicode="&#x143;" horiz-adv-x="763" 
d="M662 0h-68l-429 630v-630h-64v709h88l409 -605v605h64v-709zM524 878l-134 -119h-57l107 119h84z" />
    <glyph glyph-name="nacute" unicode="&#x144;" horiz-adv-x="537" 
d="M396 676l-118 -139h-49l89 139h78zM140 285v-285h-60v477h58v-76c26 51 82 88 155 88c112 0 169 -80 169 -178v-311h-60v301c0 75 -37 134 -129 134c-82 0 -133 -69 -133 -150z" />
    <glyph glyph-name="Ncommaaccent" unicode="&#x145;" horiz-adv-x="763" 
d="M346 -84c0 25 21 42 46 42c24 0 51 -17 51 -59c0 -68 -49 -104 -99 -107v30c34 3 61 28 63 58c-4 -4 -11 -6 -19 -6c-24 0 -42 16 -42 42zM662 0h-68l-429 630v-630h-64v709h88l409 -605v605h64v-709z" />
    <glyph glyph-name="ncommaaccent" unicode="&#x146;" horiz-adv-x="537" 
d="M230 -84c0 25 21 42 46 42c24 0 51 -17 51 -59c0 -68 -49 -104 -99 -107v30c34 3 61 28 63 58c-4 -4 -11 -6 -19 -6c-24 0 -42 16 -42 42zM140 285v-285h-60v477h58v-76c26 51 82 88 155 88c112 0 169 -80 169 -178v-311h-60v301c0 75 -37 134 -129 134
c-82 0 -133 -69 -133 -150z" />
    <glyph glyph-name="Ncaron" unicode="&#x147;" horiz-adv-x="763" 
d="M227 878h59l97 -84l98 84h59l-116 -119h-82zM662 0h-68l-429 630v-630h-64v709h88l409 -605v605h64v-709z" />
    <glyph glyph-name="ncaron" unicode="&#x148;" horiz-adv-x="537" 
d="M117 675h54l92 -99l92 99h54l-110 -137h-72zM140 285v-285h-60v477h58v-76c26 51 82 88 155 88c112 0 169 -80 169 -178v-311h-60v301c0 75 -37 134 -129 134c-82 0 -133 -69 -133 -150z" />
    <glyph glyph-name="napostrophe" unicode="&#x149;" horiz-adv-x="537" 
d="M82 649c0 25 21 42 46 42c24 0 51 -17 51 -59c0 -68 -49 -104 -99 -107v30c34 3 61 28 63 58c-4 -4 -11 -6 -19 -6c-24 0 -42 16 -42 42zM140 285v-285h-60v477h58v-76c26 51 82 88 155 88c112 0 169 -80 169 -178v-311h-60v301c0 75 -37 134 -129 134
c-82 0 -133 -69 -133 -150z" />
    <glyph glyph-name="Eng" unicode="&#x14a;" horiz-adv-x="763" 
d="M662 709v-787c0 -74 -43 -125 -113 -125c-29 0 -47 4 -56 8v52c10 -4 26 -6 40 -6c48 0 66 27 66 72v70l-434 637v-630h-64v709h88l409 -605v605h64z" />
    <glyph glyph-name="eng" unicode="&#x14b;" horiz-adv-x="537" 
d="M140 286v-286h-60v477h59v-80c25 54 81 93 154 93c113 0 169 -80 169 -178v-391c0 -73 -41 -124 -112 -124c-28 0 -46 4 -56 8v52c11 -4 27 -6 41 -6c47 0 67 28 67 73v378c0 75 -39 134 -129 134c-82 0 -133 -71 -133 -150z" />
    <glyph glyph-name="Omacron" unicode="&#x14c;" horiz-adv-x="797" 
d="M116 354c0 -202 137 -309 282 -309s283 107 283 309c0 203 -138 310 -283 310s-282 -107 -282 -310zM52 354c0 237 172 368 346 368s347 -131 347 -368s-173 -367 -347 -367s-346 130 -346 367zM534 793h-272v52h272v-52z" />
    <glyph glyph-name="omacron" unicode="&#x14d;" horiz-adv-x="568" 
d="M408 583h-254v50h254v-50zM284 -13c-133 0 -237 102 -237 251c0 150 103 251 237 251c133 0 237 -101 237 -251c0 -149 -104 -251 -237 -251zM108 238c0 -124 82 -197 176 -197s176 73 176 197c0 125 -82 197 -176 197s-176 -72 -176 -197z" />
    <glyph glyph-name="Obreve" unicode="&#x14e;" horiz-adv-x="797" 
d="M399 754c-90 0 -140 62 -145 126h52c4 -38 32 -78 93 -78s89 40 92 78h52c-4 -64 -54 -126 -144 -126zM116 354c0 -202 137 -309 282 -309s283 107 283 309c0 203 -138 310 -283 310s-282 -107 -282 -310zM52 354c0 237 172 368 346 368s347 -131 347 -368
s-173 -367 -347 -367s-346 130 -346 367z" />
    <glyph glyph-name="obreve" unicode="&#x14f;" horiz-adv-x="568" 
d="M284 -13c-133 0 -237 102 -237 251c0 150 103 251 237 251c133 0 237 -101 237 -251c0 -149 -104 -251 -237 -251zM108 238c0 -124 82 -197 176 -197s176 73 176 197c0 125 -82 197 -176 197s-176 -72 -176 -197zM280 538c-91 0 -139 70 -140 138h47c2 -43 30 -89 93 -89
s91 46 93 89h47c-1 -68 -49 -138 -140 -138z" />
    <glyph glyph-name="Ohungarumlaut" unicode="&#x150;" horiz-adv-x="797" 
d="M571 878l-97 -119h-45l74 119h68zM456 878l-97 -119h-45l74 119h68zM116 354c0 -202 137 -309 282 -309s283 107 283 309c0 203 -138 310 -283 310s-282 -107 -282 -310zM52 354c0 237 172 368 346 368s347 -131 347 -368s-173 -367 -347 -367s-346 130 -346 367z" />
    <glyph glyph-name="ohungarumlaut" unicode="&#x151;" horiz-adv-x="568" 
d="M284 -13c-133 0 -237 102 -237 251c0 150 103 251 237 251c133 0 237 -101 237 -251c0 -149 -104 -251 -237 -251zM108 238c0 -124 82 -197 176 -197s176 73 176 197c0 125 -82 197 -176 197s-176 -72 -176 -197zM443 676l-90 -139h-44l67 139h67zM337 676l-90 -139h-44
l67 139h67z" />
    <glyph glyph-name="Racute" unicode="&#x154;" horiz-adv-x="613" 
d="M447 878l-134 -119h-57l107 119h84zM484 0l-171 307h-148v-307h-64v709h247c127 0 211 -88 211 -202c0 -103 -69 -182 -177 -196l176 -311h-74zM165 364h173c94 0 157 57 157 143c0 87 -63 145 -157 145h-173v-288z" />
    <glyph glyph-name="racute" unicode="&#x155;" horiz-adv-x="337" 
d="M317 676l-118 -139h-49l89 139h78zM323 478v-63c-11 3 -26 5 -42 5c-81 0 -141 -52 -141 -161v-259h-60v477h59v-89c29 66 84 95 147 95c16 0 29 -2 37 -5z" />
    <glyph glyph-name="Rcommaaccent" unicode="&#x156;" horiz-adv-x="613" 
d="M484 0l-171 307h-148v-307h-64v709h247c127 0 211 -88 211 -202c0 -103 -69 -182 -177 -196l176 -311h-74zM165 364h173c94 0 157 57 157 143c0 87 -63 145 -157 145h-173v-288zM284 -84c0 25 21 42 46 42c24 0 51 -17 51 -59c0 -68 -49 -104 -99 -107v30
c34 3 61 28 63 58c-4 -4 -11 -6 -19 -6c-24 0 -42 16 -42 42z" />
    <glyph glyph-name="rcommaaccent" unicode="&#x157;" horiz-adv-x="337" 
d="M323 478v-63c-11 3 -26 5 -42 5c-81 0 -141 -52 -141 -161v-259h-60v477h59v-89c29 66 84 95 147 95c16 0 29 -2 37 -5zM62 -84c0 25 21 42 46 42c24 0 51 -17 51 -59c0 -68 -49 -104 -99 -107v30c34 3 61 28 63 58c-4 -4 -11 -6 -19 -6c-24 0 -42 16 -42 42z" />
    <glyph glyph-name="Rcaron" unicode="&#x158;" horiz-adv-x="613" 
d="M145 878h59l97 -84l98 84h59l-116 -119h-82zM484 0l-171 307h-148v-307h-64v709h247c127 0 211 -88 211 -202c0 -103 -69 -182 -177 -196l176 -311h-74zM165 364h173c94 0 157 57 157 143c0 87 -63 145 -157 145h-173v-288z" />
    <glyph glyph-name="rcaron" unicode="&#x159;" horiz-adv-x="337" 
d="M52 675h54l92 -99l92 99h54l-110 -137h-72zM323 478v-63c-11 3 -26 5 -42 5c-81 0 -141 -52 -141 -161v-259h-60v477h59v-89c29 66 84 95 147 95c16 0 29 -2 37 -5z" />
    <glyph glyph-name="Sacute" unicode="&#x15a;" horiz-adv-x="582" 
d="M449 878l-134 -119h-57l107 119h84zM523 548l-56 -20c-15 73 -67 138 -173 138c-85 0 -162 -57 -162 -140c0 -64 40 -108 112 -125l108 -25c110 -26 178 -90 178 -190c0 -109 -92 -199 -235 -199c-156 0 -242 103 -254 211l59 19c9 -92 78 -173 195 -173
c109 0 172 60 172 137c0 66 -46 114 -127 133l-107 25c-95 22 -164 82 -164 183c0 110 106 200 223 200c145 0 211 -84 231 -174z" />
    <glyph glyph-name="sacute" unicode="&#x15b;" horiz-adv-x="439" 
d="M355 676l-118 -139h-49l89 139h78zM40 125l55 19c9 -58 53 -105 131 -105c59 0 106 35 106 85c0 44 -30 68 -81 80l-77 18c-70 16 -117 58 -117 127c0 77 74 140 161 140c111 0 158 -66 171 -123l-53 -20c-9 46 -42 91 -118 91c-54 0 -102 -34 -102 -84
c0 -41 26 -65 75 -76l76 -17c79 -18 124 -63 124 -132c0 -71 -60 -141 -166 -141c-117 0 -176 75 -185 138z" />
    <glyph glyph-name="Scircumflex" unicode="&#x15c;" horiz-adv-x="582" 
d="M208 759h-59l115 119h82l116 -119h-59l-98 84zM523 548l-56 -20c-15 73 -67 138 -173 138c-85 0 -162 -57 -162 -140c0 -64 40 -108 112 -125l108 -25c110 -26 178 -90 178 -190c0 -109 -92 -199 -235 -199c-156 0 -242 103 -254 211l59 19c9 -92 78 -173 195 -173
c109 0 172 60 172 137c0 66 -46 114 -127 133l-107 25c-95 22 -164 82 -164 183c0 110 106 200 223 200c145 0 211 -84 231 -174z" />
    <glyph glyph-name="scircumflex" unicode="&#x15d;" horiz-adv-x="439" 
d="M136 538h-54l110 137h72l110 -137h-54l-92 99zM40 125l55 19c9 -58 53 -105 131 -105c59 0 106 35 106 85c0 44 -30 68 -81 80l-77 18c-70 16 -117 58 -117 127c0 77 74 140 161 140c111 0 158 -66 171 -123l-53 -20c-9 46 -42 91 -118 91c-54 0 -102 -34 -102 -84
c0 -41 26 -65 75 -76l76 -17c79 -18 124 -63 124 -132c0 -71 -60 -141 -166 -141c-117 0 -176 75 -185 138z" />
    <glyph glyph-name="Scedilla" unicode="&#x15e;" horiz-adv-x="582" 
d="M272 -95l-24 29l34 53c-148 6 -230 106 -241 211l59 19c9 -92 78 -173 195 -173c109 0 172 60 172 137c0 66 -46 114 -127 133l-107 25c-95 22 -164 82 -164 183c0 110 106 200 223 200c145 0 211 -84 231 -174l-56 -20c-15 73 -67 138 -173 138
c-85 0 -162 -57 -162 -140c0 -64 40 -108 112 -125l108 -25c110 -26 178 -90 178 -190s-77 -184 -199 -197l-30 -45c8 3 15 4 24 4c53 0 88 -31 88 -76c0 -46 -37 -82 -108 -82c-47 0 -88 22 -108 47l27 32c15 -18 43 -39 80 -39c38 0 62 15 62 42c0 25 -20 41 -57 41
c-12 0 -25 -2 -37 -8z" />
    <glyph glyph-name="scedilla" unicode="&#x15f;" horiz-adv-x="439" 
d="M193 -95l-24 29l35 54c-103 8 -156 78 -164 137l55 19c9 -58 53 -105 131 -105c59 0 106 35 106 85c0 44 -30 68 -81 80l-77 18c-70 16 -117 58 -117 127c0 77 74 140 161 140c111 0 158 -66 171 -123l-53 -20c-9 46 -42 91 -118 91c-54 0 -102 -34 -102 -84
c0 -41 26 -65 75 -76l76 -17c79 -18 124 -63 124 -132c0 -65 -50 -128 -139 -139l-30 -45c8 3 15 4 24 4c53 0 88 -31 88 -76c0 -46 -37 -82 -108 -82c-47 0 -88 22 -108 47l27 32c15 -18 43 -39 80 -39c38 0 62 15 62 42c0 25 -20 41 -57 41c-12 0 -25 -2 -37 -8z" />
    <glyph glyph-name="Tcommaaccent" unicode="&#x162;" horiz-adv-x="603" 
d="M584 651h-251v-651h-7l-37 -56c8 3 15 4 24 4c53 0 88 -31 88 -76c0 -46 -37 -82 -108 -82c-47 0 -88 22 -108 47l27 32c15 -18 43 -39 80 -39c38 0 62 15 62 42c0 25 -20 41 -57 41c-12 0 -25 -2 -37 -8l-24 29l43 66h-10v651h-250v58h565v-58z" />
    <glyph glyph-name="tcommaaccent" unicode="&#x163;" horiz-adv-x="328" 
d="M170 -84c0 25 21 42 46 42c24 0 51 -17 51 -59c0 -68 -49 -104 -99 -107v30c34 3 61 28 63 58c-4 -4 -11 -6 -19 -6c-24 0 -42 16 -42 42zM177 628v-151h124v-54h-124v-288c0 -58 27 -86 81 -86c17 0 34 4 43 8v-53c-8 -4 -30 -9 -59 -9c-77 0 -125 47 -125 134v294h-101
v54h36c47 0 67 21 67 70v81h58z" />
    <glyph glyph-name="Tcaron" unicode="&#x164;" horiz-adv-x="603" 
d="M144 878h59l97 -84l98 84h59l-116 -119h-82zM584 651h-251v-651h-64v651h-250v58h565v-58z" />
    <glyph glyph-name="tcaron" unicode="&#x165;" horiz-adv-x="328" 
d="M322 722l-58 -176h-46l36 176h68zM177 628v-151h124v-54h-124v-288c0 -58 27 -86 81 -86c17 0 34 4 43 8v-53c-8 -4 -30 -9 -59 -9c-77 0 -125 47 -125 134v294h-101v54h36c47 0 67 21 67 70v81h58z" />
    <glyph glyph-name="Tbar" unicode="&#x166;" horiz-adv-x="613" 
d="M589 651h-251v-279h125v-54h-125v-318h-64v318h-125v54h125v279h-250v58h565v-58z" />
    <glyph glyph-name="tbar" unicode="&#x167;" horiz-adv-x="340" 
d="M186 628v-151h124v-54h-124v-145h124v-50h-124v-93c0 -58 27 -86 81 -86c17 0 34 4 43 8v-53c-8 -4 -30 -9 -59 -9c-77 0 -125 47 -125 134v99h-101v50h101v145h-101v54h36c47 0 67 21 67 70v81h58z" />
    <glyph glyph-name="Utilde" unicode="&#x168;" horiz-adv-x="672" 
d="M492 871v-11c0 -63 -39 -97 -84 -97c-26 0 -48 10 -66 23l-21 15c-16 11 -31 20 -50 20c-26 0 -39 -18 -39 -55h-47v12c0 61 38 95 86 95c28 0 52 -12 72 -27l18 -13c15 -11 28 -18 45 -18c25 0 39 17 39 56h47zM336 -13c-144 0 -243 87 -243 249v473h64v-470
c0 -125 63 -194 179 -194s179 69 179 194v470h64v-473c0 -161 -98 -249 -243 -249z" />
    <glyph glyph-name="utilde" unicode="&#x169;" horiz-adv-x="539" 
d="M402 74c-22 -46 -75 -87 -150 -87c-121 0 -178 90 -178 190v300h60v-290c0 -76 35 -146 129 -146c85 0 135 65 135 145v291h60v-386c0 -36 3 -70 6 -91h-57c-2 10 -5 37 -5 67v7zM418 659v-11c0 -63 -38 -97 -83 -97c-26 0 -47 10 -65 23l-21 15c-16 11 -30 20 -49 20
c-26 0 -38 -18 -38 -55h-47v12c0 61 37 95 85 95c28 0 51 -12 71 -27l18 -13c15 -11 27 -18 44 -18c25 0 38 17 38 56h47z" />
    <glyph glyph-name="Umacron" unicode="&#x16a;" horiz-adv-x="672" 
d="M336 -13c-144 0 -243 87 -243 249v473h64v-470c0 -125 63 -194 179 -194s179 69 179 194v470h64v-473c0 -161 -98 -249 -243 -249zM473 793h-272v52h272v-52z" />
    <glyph glyph-name="umacron" unicode="&#x16b;" horiz-adv-x="539" 
d="M393 583h-254v50h254v-50zM402 74c-22 -46 -75 -87 -150 -87c-121 0 -178 90 -178 190v300h60v-290c0 -76 35 -146 129 -146c85 0 135 65 135 145v291h60v-386c0 -36 3 -70 6 -91h-57c-2 10 -5 37 -5 67v7z" />
    <glyph glyph-name="Ubreve" unicode="&#x16c;" horiz-adv-x="672" 
d="M338 754c-90 0 -140 62 -145 126h52c4 -38 32 -78 93 -78s89 40 92 78h52c-4 -64 -54 -126 -144 -126zM336 -13c-144 0 -243 87 -243 249v473h64v-470c0 -125 63 -194 179 -194s179 69 179 194v470h64v-473c0 -161 -98 -249 -243 -249z" />
    <glyph glyph-name="ubreve" unicode="&#x16d;" horiz-adv-x="539" 
d="M402 74c-22 -46 -75 -87 -150 -87c-121 0 -178 90 -178 190v300h60v-290c0 -76 35 -146 129 -146c85 0 135 65 135 145v291h60v-386c0 -36 3 -70 6 -91h-57c-2 10 -5 37 -5 67v7zM264 538c-91 0 -139 70 -140 138h47c2 -43 30 -89 93 -89s91 46 93 89h47
c-1 -68 -49 -138 -140 -138z" />
    <glyph glyph-name="Uring" unicode="&#x16e;" horiz-adv-x="672" 
d="M336 -13c-144 0 -243 87 -243 249v473h64v-470c0 -125 63 -194 179 -194s179 69 179 194v470h64v-473c0 -161 -98 -249 -243 -249zM337 788c32 0 56 25 56 57c0 33 -24 59 -56 59s-56 -26 -56 -59c0 -32 24 -57 56 -57zM337 745c-55 0 -101 44 -101 100
c0 57 46 102 101 102s101 -45 101 -102c0 -56 -46 -100 -101 -100z" />
    <glyph glyph-name="uring" unicode="&#x16f;" horiz-adv-x="539" 
d="M368 635c0 -58 -47 -105 -105 -105c-57 0 -105 47 -105 105s48 105 105 105c58 0 105 -47 105 -105zM324 635c0 35 -26 63 -61 63s-61 -28 -61 -63s26 -63 61 -63s61 28 61 63zM402 74c-22 -46 -75 -87 -150 -87c-121 0 -178 90 -178 190v300h60v-290
c0 -76 35 -146 129 -146c85 0 135 65 135 145v291h60v-386c0 -36 3 -70 6 -91h-57c-2 10 -5 37 -5 67v7z" />
    <glyph glyph-name="Uhungarumlaut" unicode="&#x170;" horiz-adv-x="672" 
d="M497 878l-97 -119h-45l74 119h68zM382 878l-97 -119h-45l74 119h68zM336 -13c-144 0 -243 87 -243 249v473h64v-470c0 -125 63 -194 179 -194s179 69 179 194v470h64v-473c0 -161 -98 -249 -243 -249z" />
    <glyph glyph-name="uhungarumlaut" unicode="&#x171;" horiz-adv-x="539" 
d="M402 74c-22 -46 -75 -87 -150 -87c-121 0 -178 90 -178 190v300h60v-290c0 -76 35 -146 129 -146c85 0 135 65 135 145v291h60v-386c0 -36 3 -70 6 -91h-57c-2 10 -5 37 -5 67v7zM414 676l-90 -139h-44l67 139h67zM308 676l-90 -139h-44l67 139h67z" />
    <glyph glyph-name="Uogonek" unicode="&#x172;" horiz-adv-x="672" 
d="M279 -117c0 46 25 80 55 104c-143 1 -241 88 -241 249v473h64v-470c0 -125 63 -194 179 -194s179 69 179 194v470h64v-473c0 -133 -66 -216 -171 -240c-6 -1 -12 -5 -16 -8c-32 -23 -62 -52 -62 -94c0 -38 29 -57 63 -57c14 0 25 2 34 5v-44c-12 -5 -25 -8 -45 -8
c-57 0 -103 34 -103 93z" />
    <glyph glyph-name="uogonek" unicode="&#x173;" horiz-adv-x="539" 
d="M330 -117c0 57 38 95 76 119c-2 11 -4 37 -4 65v7c-22 -46 -75 -87 -150 -87c-121 0 -178 90 -178 190v300h60v-290c0 -76 35 -146 129 -146c85 0 135 65 135 145v291h60v-386c0 -36 3 -70 6 -91c-37 -19 -83 -56 -83 -106c0 -38 29 -57 63 -57c14 0 25 2 34 5v-44
c-12 -5 -25 -8 -45 -8c-57 0 -103 34 -103 93z" />
    <glyph glyph-name="Wcircumflex" unicode="&#x174;" horiz-adv-x="990" 
d="M397 759h-59l115 119h82l116 -119h-59l-98 84zM726 89l174 620h65l-204 -709h-69l-198 626l-198 -626h-66l-207 709h66l175 -620l196 620h69z" />
    <glyph glyph-name="wcircumflex" unicode="&#x175;" horiz-adv-x="795" 
d="M306 538h-54l110 137h72l110 -137h-54l-92 99zM366 477h65l142 -403l125 403h65l-156 -477h-67l-142 404l-142 -404h-67l-158 477h66l127 -403z" />
    <glyph glyph-name="Ycircumflex" unicode="&#x176;" horiz-adv-x="616" 
d="M277 303l-248 406h75l204 -347l205 347h74l-248 -406v-303h-62v303zM211 759h-59l115 119h82l116 -119h-59l-98 84z" />
    <glyph glyph-name="ycircumflex" unicode="&#x177;" horiz-adv-x="501" 
d="M160 538h-54l110 137h72l110 -137h-54l-92 99zM174 -190h-65l119 252l-203 415h67l167 -352l158 352h66z" />
    <glyph glyph-name="Zacute" unicode="&#x179;" horiz-adv-x="624" 
d="M450 878l-134 -119h-57l107 119h84zM583 0h-543v65l466 586h-460v58h534v-63l-467 -588h470v-58z" />
    <glyph glyph-name="zacute" unicode="&#x17a;" horiz-adv-x="464" 
d="M352 676l-118 -139h-49l89 139h78zM422 0h-379v53l302 370h-299v54h371v-53l-300 -370h305v-54z" />
    <glyph glyph-name="Zdotaccent" unicode="&#x17b;" horiz-adv-x="624" 
d="M583 0h-543v65l466 586h-460v58h534v-63l-467 -588h470v-58zM268 818c0 26 21 47 47 47s47 -21 47 -47s-21 -47 -47 -47s-47 21 -47 47z" />
    <glyph glyph-name="zdotaccent" unicode="&#x17c;" horiz-adv-x="464" 
d="M422 0h-379v53l302 370h-299v54h371v-53l-300 -370h305v-54zM181 607c0 26 21 47 47 47s47 -21 47 -47s-21 -47 -47 -47s-47 21 -47 47z" />
    <glyph glyph-name="uni018F" unicode="&#x18f;" horiz-adv-x="784" 
d="M384 664c-125 0 -235 -77 -270 -191l-57 20c43 135 176 229 327 229c174 0 348 -131 348 -368s-173 -367 -347 -367s-344 130 -344 367v7h627c-3 198 -141 303 -284 303zM385 45c132 0 258 89 279 258h-556c20 -169 144 -258 277 -258z" />
    <glyph glyph-name="uni01B5" unicode="&#x1b5;" horiz-adv-x="632" 
d="M587 0h-543v65l218 274h-164v54h207l205 258h-460v58h534v-63l-201 -253h155v-54h-198l-223 -281h470v-58z" />
    <glyph glyph-name="uni01B6" unicode="&#x1b6;" horiz-adv-x="475" 
d="M429 0h-379v53l140 172h-133v50h174l121 148h-299v54h371v-53l-121 -149h106v-50h-147l-138 -171h305v-54z" />
    <glyph glyph-name="Aringacute" unicode="&#x1fa;" horiz-adv-x="694" 
d="M346 646l-146 -369h293zM402 767c0 33 -24 58 -57 58c-31 0 -55 -25 -55 -58s24 -57 55 -57c33 0 57 24 57 57zM447 767c0 -38 -21 -70 -51 -86l276 -681h-68l-88 219h-339l-87 -219h-68l276 680c-31 17 -52 48 -52 87c0 57 45 101 100 101s101 -44 101 -101zM511 1021
l-134 -119h-57l107 119h84z" />
    <glyph glyph-name="aringacute" unicode="&#x1fb;" horiz-adv-x="500" 
d="M201 -12c-100 0 -156 66 -156 135c0 81 56 128 143 141l127 19c41 6 50 24 50 46c0 63 -42 108 -120 108c-76 0 -126 -42 -134 -111l-56 12c11 91 87 151 189 151c124 0 181 -75 181 -166v-241c0 -38 3 -62 7 -82h-59c-2 11 -6 43 -6 82c-22 -45 -79 -94 -166 -94z
M208 39c91 0 157 60 157 156v54c-3 -3 -16 -9 -35 -12l-133 -20c-56 -8 -91 -39 -91 -91c0 -44 36 -87 102 -87zM388 918l-118 -139h-49l89 139h78zM350 633c0 -58 -47 -105 -105 -105c-57 0 -105 47 -105 105s48 105 105 105c58 0 105 -47 105 -105zM306 633
c0 35 -26 63 -61 63s-61 -28 -61 -63s26 -63 61 -63s61 28 61 63z" />
    <glyph glyph-name="AEacute" unicode="&#x1fc;" horiz-adv-x="979" 
d="M695 878l-134 -119h-57l107 119h84zM923 0h-418v219h-283l-143 -219h-79l472 709h451v-58h-354v-267h323v-58h-323v-268h354v-58zM505 652l-245 -375h245v375z" />
    <glyph glyph-name="aeacute" unicode="&#x1fd;" horiz-adv-x="853" 
d="M558 676l-118 -139h-49l89 139h78zM209 38c91 0 157 60 157 157v58c-7 -8 -41 -17 -63 -20l-107 -16c-55 -8 -89 -39 -89 -91c0 -45 36 -88 102 -88zM428 277h318c-2 89 -59 159 -159 159c-89 0 -153 -71 -159 -159zM202 -13c-100 0 -157 67 -157 136
c0 81 56 127 144 141l127 19c38 6 50 25 50 47c0 63 -43 108 -120 108c-76 0 -126 -43 -133 -112l-58 13c11 92 88 151 190 151c88 0 143 -38 167 -93c40 59 104 93 174 93c141 0 222 -100 223 -241c0 -8 0 -14 -1 -22h-382v-12c4 -106 79 -174 171 -174
c86 0 136 50 156 113l53 -19c-27 -81 -99 -148 -209 -148c-86 0 -162 43 -202 123c-27 -65 -87 -123 -193 -123z" />
    <glyph glyph-name="Oslashacute" unicode="&#x1fe;" horiz-adv-x="798" 
d="M52 354c0 237 172 368 346 368c73 0 147 -24 207 -69l74 96l43 -32l-77 -99c60 -62 100 -151 100 -264c0 -237 -173 -367 -347 -367c-69 0 -138 21 -196 60l-70 -90l-43 32l71 92c-65 62 -108 154 -108 273zM116 354c0 -98 32 -173 81 -225l372 478
c-49 38 -110 57 -171 57c-145 0 -282 -107 -282 -310zM681 354c0 92 -29 164 -74 216l-369 -476c47 -33 103 -49 160 -49c145 0 283 107 283 309zM553 878l-134 -119h-57l107 119h84z" />
    <glyph glyph-name="oslashacute" unicode="&#x1ff;" 
d="M282 490c50 0 97 -15 135 -43l55 71l39 -31l-57 -73c39 -44 63 -104 63 -176c0 -149 -103 -251 -235 -251c-49 0 -94 14 -131 39l-52 -67l-38 31l53 68c-41 44 -66 106 -66 180c0 150 101 252 234 252zM108 238c0 -55 16 -101 42 -134l233 299c-29 22 -64 33 -101 33
c-93 0 -174 -73 -174 -198zM282 41c94 0 175 73 175 197c0 53 -15 97 -39 130l-232 -298c28 -19 61 -29 96 -29zM416 676l-118 -139h-49l89 139h78z" />
    <glyph glyph-name="Scommaaccent" unicode="&#x218;" horiz-adv-x="582" 
d="M523 548l-56 -20c-15 73 -67 138 -173 138c-85 0 -162 -57 -162 -140c0 -64 40 -108 112 -125l108 -25c110 -26 178 -90 178 -190c0 -109 -92 -199 -235 -199c-156 0 -242 103 -254 211l59 19c9 -92 78 -173 195 -173c109 0 172 60 172 137c0 66 -46 114 -127 133
l-107 25c-95 22 -164 82 -164 183c0 110 106 200 223 200c145 0 211 -84 231 -174zM253 -84c0 25 21 42 46 42c24 0 51 -17 51 -59c0 -68 -49 -104 -99 -107v30c34 3 61 28 63 58c-4 -4 -11 -6 -19 -6c-24 0 -42 16 -42 42z" />
    <glyph glyph-name="scommaaccent" unicode="&#x219;" horiz-adv-x="439" 
d="M40 125l55 19c9 -58 53 -105 131 -105c59 0 106 35 106 85c0 44 -30 68 -81 80l-77 18c-70 16 -117 58 -117 127c0 77 74 140 161 140c111 0 158 -66 171 -123l-53 -20c-9 46 -42 91 -118 91c-54 0 -102 -34 -102 -84c0 -41 26 -65 75 -76l76 -17
c79 -18 124 -63 124 -132c0 -71 -60 -141 -166 -141c-117 0 -176 75 -185 138zM177 -84c0 25 21 42 46 42c24 0 51 -17 51 -59c0 -68 -49 -104 -99 -107v30c34 3 61 28 63 58c-4 -4 -11 -6 -19 -6c-24 0 -42 16 -42 42z" />
    <glyph glyph-name="uni021A" unicode="&#x21a;" horiz-adv-x="603" 
d="M254 -84c0 25 21 42 46 42c24 0 51 -17 51 -59c0 -68 -49 -104 -99 -107v30c34 3 61 28 63 58c-4 -4 -11 -6 -19 -6c-24 0 -42 16 -42 42zM584 651h-251v-651h-64v651h-250v58h565v-58z" />
    <glyph glyph-name="uni021B" unicode="&#x21b;" horiz-adv-x="328" 
d="M177 628v-151h124v-54h-124v-288c0 -58 27 -86 81 -86c17 0 34 4 43 8v-53c-8 -4 -27 -8 -53 -9l-34 -51c8 3 15 4 24 4c53 0 88 -31 88 -76c0 -46 -37 -82 -108 -82c-47 0 -88 22 -108 47l27 32c15 -18 43 -39 80 -39c38 0 62 15 62 42c0 25 -20 41 -57 41
c-12 0 -25 -2 -37 -8l-24 29l42 66c-54 13 -86 57 -86 129v294h-101v54h36c47 0 67 21 67 70v81h58z" />
    <glyph glyph-name="dotlessj" unicode="&#x237;" horiz-adv-x="220" 
d="M80 -63v540h60v-542c0 -87 -50 -138 -126 -138c-26 0 -43 4 -53 9v51c11 -4 25 -6 41 -6c53 0 78 27 78 86z" />
    <glyph glyph-name="uni0259" unicode="&#x259;" horiz-adv-x="535" 
d="M425 200h-318c2 -89 59 -159 159 -159c89 0 153 71 159 159zM100 323l-53 19c27 81 99 148 209 148c126 0 232 -93 232 -253c0 -150 -102 -250 -221 -250c-141 0 -222 100 -223 241c0 8 0 14 1 22h382v4c-1 110 -77 182 -171 182c-86 0 -136 -50 -156 -113z" />
    <glyph glyph-name="uni02C9" unicode="&#x2c9;" horiz-adv-x="344" 
d="M299 583h-254v50h254v-50z" />
    <glyph glyph-name="uni0394" unicode="&#x394;" horiz-adv-x="686" 
d="M24 0l283 709h72l284 -709h-639zM343 642l-229 -584h458z" />
    <glyph glyph-name="uni03A9" unicode="&#x3a9;" horiz-adv-x="820" 
d="M410 665c-148 0 -289 -110 -289 -289c0 -161 118 -270 242 -293v-83h-296v55h222c-121 38 -232 155 -232 321c0 210 166 346 353 346c186 0 353 -136 353 -346c0 -166 -111 -283 -232 -321h222v-55h-296v83c124 23 242 132 242 293c0 179 -141 289 -289 289z" />
    <glyph glyph-name="uni03BC" unicode="&#x3bc;" horiz-adv-x="546" 
d="M259 -13c-54 0 -95 20 -119 54v-231h-60v667h60v-291c0 -76 36 -145 130 -145c85 0 135 65 135 145v291h60v-386c0 -36 3 -70 6 -91h-57c-2 10 -5 37 -5 67v7c-22 -46 -75 -87 -150 -87z" />
    <glyph glyph-name="Wgrave" unicode="&#x1e80;" horiz-adv-x="990" 
d="M466 759l-134 119h84l107 -119h-57zM726 89l174 620h65l-204 -709h-69l-198 626l-198 -626h-66l-207 709h66l175 -620l196 620h69z" />
    <glyph glyph-name="wgrave" unicode="&#x1e81;" horiz-adv-x="795" 
d="M374 537l-118 139h76l89 -139h-47zM366 477h65l142 -403l125 403h65l-156 -477h-67l-142 404l-142 -404h-67l-158 477h66l127 -403z" />
    <glyph glyph-name="Wacute" unicode="&#x1e82;" horiz-adv-x="990" 
d="M658 878l-134 -119h-57l107 119h84zM726 89l174 620h65l-204 -709h-69l-198 626l-198 -626h-66l-207 709h66l175 -620l196 620h69z" />
    <glyph glyph-name="wacute" unicode="&#x1e83;" horiz-adv-x="795" 
d="M542 676l-118 -139h-49l89 139h78zM366 477h65l142 -403l125 403h65l-156 -477h-67l-142 404l-142 -404h-67l-158 477h66l127 -403z" />
    <glyph glyph-name="Wdieresis" unicode="&#x1e84;" horiz-adv-x="990" 
d="M319 819c0 24 19 43 43 43s43 -19 43 -43s-19 -43 -43 -43s-43 19 -43 43zM583 819c0 24 19 43 43 43s43 -19 43 -43s-19 -43 -43 -43s-43 19 -43 43zM726 89l174 620h65l-204 -709h-69l-198 626l-198 -626h-66l-207 709h66l175 -620l196 620h69z" />
    <glyph glyph-name="wdieresis" unicode="&#x1e85;" horiz-adv-x="795" 
d="M250 610c0 23 19 43 42 43c24 0 43 -20 43 -43c0 -24 -19 -42 -43 -42c-23 0 -42 18 -42 42zM463 610c0 23 18 43 42 43c23 0 42 -20 42 -43c0 -24 -19 -42 -42 -42c-24 0 -42 18 -42 42zM366 477h65l142 -403l125 403h65l-156 -477h-67l-142 404l-142 -404h-67l-158 477
h66l127 -403z" />
    <glyph glyph-name="uni1E8A" unicode="&#x1e8a;" horiz-adv-x="591" 
d="M571 709l-239 -353l238 -356h-75l-199 305l-203 -305h-74l240 356l-238 353h76l199 -304l200 304h75zM250 818c0 26 21 47 47 47s47 -21 47 -47s-21 -47 -47 -47s-47 21 -47 47z" />
    <glyph glyph-name="uni1E8B" unicode="&#x1e8b;" horiz-adv-x="478" 
d="M20 0l182 243l-174 234h71l140 -191l140 191h71l-176 -234l183 -243h-72l-147 200l-146 -200h-72zM191 607c0 26 21 47 47 47s47 -21 47 -47s-21 -47 -47 -47s-47 21 -47 47z" />
    <glyph glyph-name="Ygrave" unicode="&#x1ef2;" horiz-adv-x="616" 
d="M277 303l-248 406h75l204 -347l205 347h74l-248 -406v-303h-62v303zM293 759l-134 119h84l107 -119h-57z" />
    <glyph glyph-name="ygrave" unicode="&#x1ef3;" horiz-adv-x="501" 
d="M174 -190h-65l119 252l-203 415h67l167 -352l158 352h66zM247 537l-118 139h76l89 -139h-47z" />
    <glyph glyph-name="uni2007" unicode="&#x2007;" horiz-adv-x="606" 
 />
    <glyph glyph-name="uni2008" unicode="&#x2008;" horiz-adv-x="229" 
 />
    <glyph glyph-name="uni200B" unicode="&#x200b;" horiz-adv-x="0" 
 />
    <glyph glyph-name="uni2042" unicode="&#x2042;" horiz-adv-x="822" 
d="M433 709v-132l125 43l14 -41l-126 -44l82 -110l-35 -27l-83 113l-79 -112l-36 27l80 109l-125 43l14 42l123 -44v133h46zM218 312v-132l125 43l14 -41l-126 -44l82 -110l-35 -27l-83 113l-79 -112l-36 27l80 109l-125 43l14 42l123 -44v133h46zM649 312v-132l125 43
l14 -41l-126 -44l82 -110l-35 -27l-83 113l-79 -112l-36 27l80 109l-125 43l14 42l123 -44v133h46z" />
    <glyph glyph-name="uni2051" unicode="&#x2051;" horiz-adv-x="444" 
d="M244 709v-132l125 43l14 -41l-126 -44l82 -110l-35 -27l-83 113l-79 -112l-36 27l80 109l-125 43l14 42l123 -44v133h46zM244 312v-132l125 43l14 -41l-126 -44l82 -110l-35 -27l-83 113l-79 -112l-36 27l80 109l-125 43l14 42l123 -44v133h46z" />
    <glyph glyph-name="uni2070" unicode="&#x2070;" horiz-adv-x="378" 
d="M93 528c0 -68 19 -144 96 -144s96 76 96 144c0 67 -19 143 -96 143s-96 -76 -96 -143zM41 528c0 46 9 96 36 134c22 30 58 54 112 54c55 0 90 -24 112 -54c28 -38 36 -88 36 -134c0 -47 -8 -97 -36 -134c-22 -30 -57 -54 -112 -54c-54 0 -90 24 -112 54
c-27 37 -36 87 -36 134z" />
    <glyph glyph-name="uni2074" unicode="&#x2074;" horiz-adv-x="367" 
d="M27 429v51l180 230h61v-236h71v-45h-71v-82h-51v82h-190zM217 474v179l-140 -179h140z" />
    <glyph glyph-name="uni2075" unicode="&#x2075;" horiz-adv-x="340" 
d="M30 439l45 20c7 -43 43 -75 90 -75c51 0 86 33 86 80c0 48 -36 79 -85 79c-31 0 -57 -12 -78 -34l-45 16l49 185h196v-44h-162l-30 -113c22 22 54 31 83 31c74 0 124 -48 124 -119c0 -68 -52 -125 -138 -125c-72 0 -126 47 -135 99z" />
    <glyph glyph-name="uni2076" unicode="&#x2076;" horiz-adv-x="362" 
d="M313 697l-13 -40c-18 10 -41 16 -69 16c-86 0 -134 -62 -140 -144c14 33 58 60 106 60c74 0 129 -48 129 -124c0 -74 -62 -125 -140 -125c-80 0 -146 59 -146 168c0 134 85 208 188 208c35 0 65 -7 85 -19zM100 465c0 -49 42 -81 87 -81c46 0 87 32 87 81
c0 50 -41 81 -87 81c-45 0 -87 -31 -87 -81z" />
    <glyph glyph-name="uni2077" unicode="&#x2077;" horiz-adv-x="329" 
d="M309 710v-47c-63 -51 -147 -143 -166 -316h-54c19 182 118 285 155 319h-220v44h285z" />
    <glyph glyph-name="uni2078" unicode="&#x2078;" horiz-adv-x="355" 
d="M178 554c45 0 76 24 76 60c0 35 -29 61 -76 61c-48 0 -76 -26 -76 -61c0 -36 30 -60 76 -60zM178 384c54 0 85 27 85 64s-30 65 -85 65s-86 -28 -86 -65s32 -64 86 -64zM178 340c-88 0 -138 46 -138 104c0 41 30 76 74 89c-37 13 -63 45 -63 83c0 58 51 100 127 100
c75 0 127 -42 127 -100c0 -38 -26 -70 -64 -83c45 -13 74 -48 74 -89c0 -58 -49 -104 -137 -104z" />
    <glyph glyph-name="uni2079" unicode="&#x2079;" horiz-adv-x="360" 
d="M48 361l13 40c20 -11 48 -18 73 -18c78 0 132 50 135 147c-15 -36 -58 -61 -104 -61c-72 0 -129 48 -129 123c0 72 62 124 139 124c80 0 145 -59 145 -166c0 -126 -64 -211 -184 -211c-32 0 -67 9 -88 22zM259 592c0 49 -40 80 -86 80s-85 -31 -85 -80s39 -80 85 -80
s86 31 86 80z" />
    <glyph glyph-name="uni2080" unicode="&#x2080;" horiz-adv-x="380" 
d="M94 100c0 -68 19 -144 96 -144s96 76 96 144c0 67 -19 143 -96 143s-96 -76 -96 -143zM42 100c0 46 9 96 36 134c22 30 58 54 112 54c55 0 90 -24 112 -54c28 -38 36 -88 36 -134c0 -47 -8 -97 -36 -134c-22 -30 -57 -54 -112 -54c-54 0 -90 24 -112 54
c-27 37 -36 87 -36 134z" />
    <glyph glyph-name="uni2081" unicode="&#x2081;" horiz-adv-x="219" 
d="M165 -81h-51v286c-17 -18 -50 -34 -87 -37v39c50 7 82 39 89 75h49v-363z" />
    <glyph glyph-name="uni2082" unicode="&#x2082;" horiz-adv-x="344" 
d="M96 147l-50 3c-1 7 -2 18 -2 24c0 62 49 114 128 114c77 0 125 -50 125 -110c0 -47 -29 -81 -72 -108l-74 -46c-23 -15 -42 -35 -46 -61h196v-44h-258v5c0 53 22 101 78 135l69 42c32 20 55 46 55 78c0 35 -28 66 -74 66c-45 0 -77 -29 -77 -75c0 -5 1 -15 2 -23z" />
    <glyph glyph-name="uni2083" unicode="&#x2083;" horiz-adv-x="356" 
d="M148 95l-22 39l114 104h-195v44h262v-42l-116 -104c2 0 7 1 9 1c60 -2 115 -37 115 -107c0 -65 -55 -118 -138 -118c-81 0 -134 47 -142 106l46 17c4 -49 47 -80 95 -80c50 0 87 32 87 75c0 47 -39 70 -83 70c-11 0 -23 -2 -32 -5z" />
    <glyph glyph-name="uni2084" unicode="&#x2084;" horiz-adv-x="368" 
d="M28 1v51l180 230h61v-236h71v-45h-71v-82h-51v82h-190zM218 46v179l-140 -179h140z" />
    <glyph glyph-name="uni2085" unicode="&#x2085;" horiz-adv-x="341" 
d="M31 11l45 20c7 -43 43 -75 90 -75c51 0 86 33 86 80c0 48 -36 79 -85 79c-31 0 -57 -12 -78 -34l-45 16l49 185h196v-44h-162l-30 -113c22 22 54 31 83 31c74 0 124 -48 124 -119c0 -68 -52 -125 -138 -125c-72 0 -126 47 -135 99z" />
    <glyph glyph-name="uni2086" unicode="&#x2086;" horiz-adv-x="364" 
d="M314 269l-13 -40c-18 10 -41 16 -69 16c-86 0 -134 -62 -140 -144c14 33 58 60 106 60c74 0 129 -48 129 -124c0 -74 -62 -125 -140 -125c-80 0 -146 59 -146 168c0 134 85 208 188 208c35 0 65 -7 85 -19zM101 37c0 -49 42 -81 87 -81c46 0 87 32 87 81
c0 50 -41 81 -87 81c-45 0 -87 -31 -87 -81z" />
    <glyph glyph-name="uni2087" unicode="&#x2087;" horiz-adv-x="329" 
d="M310 282v-47c-63 -51 -147 -143 -166 -316h-54c19 182 118 285 155 319h-220v44h285z" />
    <glyph glyph-name="uni2088" unicode="&#x2088;" horiz-adv-x="357" 
d="M179 126c45 0 76 24 76 60c0 35 -29 61 -76 61c-48 0 -76 -26 -76 -61c0 -36 30 -60 76 -60zM179 -44c54 0 85 27 85 64s-30 65 -85 65s-86 -28 -86 -65s32 -64 86 -64zM179 -88c-88 0 -138 46 -138 104c0 41 30 76 74 89c-37 13 -63 45 -63 83c0 58 51 100 127 100
c75 0 127 -42 127 -100c0 -38 -26 -70 -64 -83c45 -13 74 -48 74 -89c0 -58 -49 -104 -137 -104z" />
    <glyph glyph-name="uni2089" unicode="&#x2089;" horiz-adv-x="363" 
d="M50 -67l13 40c20 -11 48 -18 73 -18c78 0 132 50 135 147c-15 -36 -58 -61 -104 -61c-72 0 -129 48 -129 123c0 72 62 124 139 124c80 0 145 -59 145 -166c0 -126 -64 -211 -184 -211c-32 0 -67 9 -88 22zM261 164c0 49 -40 80 -86 80s-85 -31 -85 -80s39 -80 85 -80
s86 31 86 80z" />
    <glyph glyph-name="arrowleft" unicode="&#x2190;" horiz-adv-x="1019" 
d="M247 116l-206 174l206 173v-147h700v-53h-700v-147z" />
    <glyph glyph-name="arrowup" unicode="&#x2191;" horiz-adv-x="416" 
d="M208 796l169 -204h-142v-739h-54v739h-142z" />
    <glyph glyph-name="arrowright" unicode="&#x2192;" horiz-adv-x="1019" 
d="M978 290l-206 -174v147h-700v53h700v147z" />
    <glyph glyph-name="arrowdown" unicode="&#x2193;" horiz-adv-x="423" 
d="M385 48l-174 -206l-173 206h146v737h54v-737h147z" />
    <glyph glyph-name="uni2196" unicode="&#x2196;" horiz-adv-x="799" 
d="M54 709h250l-106 -106l574 -573l-38 -38l-573 573l-107 -108v252z" />
    <glyph glyph-name="uni2197" unicode="&#x2197;" horiz-adv-x="800" 
d="M495 709h251v-252l-107 108l-573 -573l-39 38l574 573z" />
    <glyph glyph-name="uni2198" unicode="&#x2198;" horiz-adv-x="801" 
d="M746 0h-250l106 106l-574 573l38 38l573 -573l107 108v-252z" />
    <glyph glyph-name="uni2199" unicode="&#x2199;" horiz-adv-x="802" 
d="M306 0h-251v252l107 -108l573 573l39 -38l-574 -573z" />
    <glyph glyph-name="uni21A9" unicode="&#x21a9;" horiz-adv-x="851" 
d="M432 601v53h168c112 0 203 -86 203 -197c0 -118 -98 -197 -206 -197h-369v-137l-195 164l195 164v-137h367c81 0 155 55 155 143c0 84 -69 144 -154 144h-164z" />
    <glyph glyph-name="uni21B0" unicode="&#x21b0;" horiz-adv-x="725" 
d="M225 395l-195 164l195 164v-137h418v-586h-53v532h-365v-137z" />
    <glyph glyph-name="uni21B1" unicode="&#x21b1;" horiz-adv-x="743" 
d="M135 0h-53v586h437v137l194 -164l-194 -164v137h-384v-532z" />
    <glyph glyph-name="uni21B2" unicode="&#x21b2;" horiz-adv-x="742" 
d="M607 717h53v-585h-437v-138l-194 164l194 164v-137h384v532z" />
    <glyph glyph-name="uni21B3" unicode="&#x21b3;" horiz-adv-x="743" 
d="M519 322l195 -164l-195 -164v138h-437v585h54v-532h383v137z" />
    <glyph glyph-name="uni21B4" unicode="&#x21b4;" horiz-adv-x="769" 
d="M34 656v53h565v-528h137l-164 -194l-164 194h137v475h-511z" />
    <glyph glyph-name="uni21B5" unicode="&#x21b5;" horiz-adv-x="1058" 
d="M189 164l-159 191h130c0 203 165 367 367 367c66 0 128 -18 181 -48l-23 -47c-47 26 -101 42 -158 42c-173 0 -313 -141 -313 -314h134zM894 355c0 -203 -165 -367 -367 -367c-66 0 -128 17 -181 47l23 48c47 -27 101 -42 158 -42c173 0 313 140 313 314h-132l159 191
l159 -191h-132z" />
    <glyph glyph-name="uni21C6" unicode="&#x21c6;" horiz-adv-x="1045" 
d="M247 376l-195 164l195 164v-137h721v-54h-721v-137zM995 170l-194 -164v137h-722v54h722v137z" />
    <glyph glyph-name="uni2215" unicode="&#x2215;" horiz-adv-x="367" 
d="M365 648l-314 -648h-59l314 648h59z" />
    <glyph glyph-name="uni2219" unicode="&#x2219;" horiz-adv-x="241" 
d="M69 284c0 29 22 52 51 52c30 0 52 -23 52 -52s-22 -51 -52 -51c-29 0 -51 22 -51 51z" />
    <glyph glyph-name="dotmath" unicode="&#x22c5;" horiz-adv-x="241" 
d="M69 284c0 29 22 52 51 52c30 0 52 -23 52 -52s-22 -51 -52 -51c-29 0 -51 22 -51 51z" />
    <glyph glyph-name="uni24C5" unicode="&#x24c5;" horiz-adv-x="824" 
d="M412 674c-174 0 -312 -140 -312 -320c0 -179 138 -319 312 -319s312 140 312 319c0 180 -138 320 -312 320zM412 -13c-202 0 -364 163 -364 367c0 205 162 368 364 368s364 -163 364 -368c0 -204 -162 -367 -364 -367zM351 357h84c52 0 86 30 86 77c0 48 -34 79 -86 79
h-84v-156zM443 314h-92v-158h-49v400h141c75 0 128 -53 128 -121s-53 -121 -128 -121z" />
    <glyph glyph-name="filledbox" unicode="&#x25a0;" horiz-adv-x="855" 
d="M77 0v709h701v-709h-701z" />
    <glyph glyph-name="H22073" unicode="&#x25a1;" horiz-adv-x="855" 
d="M778 0h-701v709h701v-709zM129 660v-611h596v611h-596z" />
    <glyph glyph-name="uni25AF" unicode="&#x25af;" horiz-adv-x="574" 
d="M497 0h-420v709h420v-709zM130 658v-607h315v607h-315z" />
    <glyph glyph-name="triagup" unicode="&#x25b2;" horiz-adv-x="892" 
d="M448 726l418 -726h-840z" />
    <glyph glyph-name="uni25B3" unicode="&#x25b3;" horiz-adv-x="892" 
d="M448 726l418 -726h-840zM776 49l-329 572l-331 -572h660z" />
    <glyph glyph-name="circle" unicode="&#x25cb;" horiz-adv-x="838" 
d="M50 354c0 204 165 369 368 369c204 0 370 -165 370 -369s-166 -368 -370 -368c-203 0 -368 164 -368 368zM104 354c0 -176 140 -317 314 -317c176 0 315 141 315 317s-139 317 -315 317c-174 0 -314 -141 -314 -317z" />
    <glyph glyph-name="H18533" unicode="&#x25cf;" horiz-adv-x="838" 
d="M50 354c0 204 165 369 368 369c204 0 370 -165 370 -369s-166 -368 -370 -368c-203 0 -368 164 -368 368z" />
    <glyph glyph-name="uni262E" unicode="&#x262e;" horiz-adv-x="828" 
d="M778 354c0 -201 -163 -367 -366 -367c-201 0 -362 166 -362 367c0 203 161 368 362 368c203 0 366 -165 366 -368zM725 354c0 170 -125 306 -286 319v-273l229 -229c36 52 57 114 57 183zM101 354c0 -68 20 -130 56 -182l228 228v273c-161 -13 -284 -149 -284 -319z
M439 36c77 5 145 40 196 92l-196 197v-289zM189 130c50 -54 119 -89 196 -94v289z" />
    <glyph glyph-name="uni2713" unicode="&#x2713;" horiz-adv-x="978" 
d="M952 671l-637 -687l-281 314l38 36l246 -270l596 644z" />
    <glyph glyph-name="uni2715" unicode="&#x2715;" horiz-adv-x="759" 
d="M684 -4l-305 311l-304 -311l-38 38l304 311l-303 311l38 38l303 -310l303 310l39 -38l-305 -311l305 -311z" />
    <glyph glyph-name="uni2780" unicode="&#x2780;" horiz-adv-x="830" 
d="M415 722c202 0 365 -165 365 -368c0 -201 -163 -367 -365 -367s-365 166 -365 367c0 203 163 368 365 368zM415 675c-174 0 -313 -141 -313 -321c0 -178 139 -320 313 -320s313 142 313 320c0 180 -139 321 -313 321zM450 174h-51v286c-17 -18 -50 -34 -87 -37v39
c50 7 82 39 89 75h49v-363z" />
    <glyph glyph-name="uni2781" unicode="&#x2781;" horiz-adv-x="830" 
d="M415 722c202 0 365 -165 365 -368c0 -201 -163 -367 -365 -367s-365 166 -365 367c0 203 163 368 365 368zM415 675c-174 0 -313 -141 -313 -321c0 -178 139 -320 313 -320s313 142 313 320c0 180 -139 321 -313 321zM337 404l-50 3c-1 7 -2 18 -2 24
c0 62 49 114 128 114c77 0 125 -50 125 -110c0 -47 -29 -81 -72 -108l-74 -46c-23 -15 -42 -35 -46 -61h196v-44h-258v5c0 53 22 101 78 135l69 42c32 20 55 46 55 78c0 35 -28 66 -74 66c-45 0 -77 -29 -77 -75c0 -5 1 -15 2 -23z" />
    <glyph glyph-name="uni2782" unicode="&#x2782;" horiz-adv-x="830" 
d="M415 722c202 0 365 -165 365 -368c0 -201 -163 -367 -365 -367s-365 166 -365 367c0 203 163 368 365 368zM415 675c-174 0 -313 -141 -313 -321c0 -178 139 -320 313 -320s313 142 313 320c0 180 -139 321 -313 321zM383 352l-22 39l114 104h-195v44h262v-42l-116 -104
c2 0 7 1 9 1c60 -2 115 -37 115 -107c0 -65 -55 -118 -138 -118c-81 0 -134 47 -142 106l46 17c4 -49 47 -80 95 -80c50 0 87 32 87 75c0 47 -39 70 -83 70c-11 0 -23 -2 -32 -5z" />
    <glyph glyph-name="uni2783" unicode="&#x2783;" horiz-adv-x="830" 
d="M415 722c202 0 365 -165 365 -368c0 -201 -163 -367 -365 -367s-365 166 -365 367c0 203 163 368 365 368zM415 675c-174 0 -313 -141 -313 -321c0 -178 139 -320 313 -320s313 142 313 320c0 180 -139 321 -313 321zM239 258v51l180 230h61v-236h71v-45h-71v-82h-51v82
h-190zM429 303v179l-140 -179h140z" />
    <glyph glyph-name="uni2784" unicode="&#x2784;" horiz-adv-x="830" 
d="M415 722c202 0 365 -165 365 -368c0 -201 -163 -367 -365 -367s-365 166 -365 367c0 203 163 368 365 368zM415 675c-174 0 -313 -141 -313 -321c0 -178 139 -320 313 -320s313 142 313 320c0 180 -139 321 -313 321zM271 265l45 20c7 -43 43 -75 90 -75
c51 0 86 33 86 80c0 48 -36 79 -85 79c-31 0 -57 -12 -78 -34l-45 16l49 185h196v-44h-162l-30 -113c22 22 54 31 83 31c74 0 124 -48 124 -119c0 -68 -52 -125 -138 -125c-72 0 -126 47 -135 99z" />
    <glyph glyph-name="uni2785" unicode="&#x2785;" horiz-adv-x="830" 
d="M415 722c202 0 365 -165 365 -368c0 -201 -163 -367 -365 -367s-365 166 -365 367c0 203 163 368 365 368zM415 675c-174 0 -313 -141 -313 -321c0 -178 139 -320 313 -320s313 142 313 320c0 180 -139 321 -313 321zM526 524l-13 -40c-18 10 -41 16 -69 16
c-86 0 -134 -62 -140 -144c14 33 58 60 106 60c74 0 129 -48 129 -124c0 -74 -62 -125 -140 -125c-80 0 -146 59 -146 168c0 134 85 208 188 208c35 0 65 -7 85 -19zM313 292c0 -49 42 -81 87 -81c46 0 87 32 87 81c0 50 -41 81 -87 81c-45 0 -87 -31 -87 -81z" />
    <glyph glyph-name="uni2786" unicode="&#x2786;" horiz-adv-x="830" 
d="M415 722c202 0 365 -165 365 -368c0 -201 -163 -367 -365 -367s-365 166 -365 367c0 203 163 368 365 368zM415 675c-174 0 -313 -141 -313 -321c0 -178 139 -320 313 -320s313 142 313 320c0 180 -139 321 -313 321zM553 536v-47c-63 -51 -147 -143 -166 -316h-54
c19 182 118 285 155 319h-220v44h285z" />
    <glyph glyph-name="uni2787" unicode="&#x2787;" horiz-adv-x="830" 
d="M415 722c202 0 365 -165 365 -368c0 -201 -163 -367 -365 -367s-365 166 -365 367c0 203 163 368 365 368zM415 675c-174 0 -313 -141 -313 -321c0 -178 139 -320 313 -320s313 142 313 320c0 180 -139 321 -313 321zM415 381c45 0 76 24 76 60c0 35 -29 61 -76 61
c-48 0 -76 -26 -76 -61c0 -36 30 -60 76 -60zM415 211c54 0 85 27 85 64s-30 65 -85 65s-86 -28 -86 -65s32 -64 86 -64zM415 167c-88 0 -138 46 -138 104c0 41 30 76 74 89c-37 13 -63 45 -63 83c0 58 51 100 127 100c75 0 127 -42 127 -100c0 -38 -26 -70 -64 -83
c45 -13 74 -48 74 -89c0 -58 -49 -104 -137 -104z" />
    <glyph glyph-name="uni2788" unicode="&#x2788;" horiz-adv-x="830" 
d="M415 722c202 0 365 -165 365 -368c0 -201 -163 -367 -365 -367s-365 166 -365 367c0 203 163 368 365 368zM415 675c-174 0 -313 -141 -313 -321c0 -178 139 -320 313 -320s313 142 313 320c0 180 -139 321 -313 321zM293 188l13 40c20 -11 48 -18 73 -18
c78 0 132 50 135 147c-15 -36 -58 -61 -104 -61c-72 0 -129 48 -129 123c0 72 62 124 139 124c80 0 145 -59 145 -166c0 -126 -64 -211 -184 -211c-32 0 -67 9 -88 22zM504 419c0 49 -40 80 -86 80s-85 -31 -85 -80s39 -80 85 -80s86 31 86 80z" />
    <glyph glyph-name="uniE000" unicode="&#xe000;" horiz-adv-x="769" 
d="M197 -13l-164 194h137v528h565v-53h-511v-475h137z" />
    <glyph glyph-name="uniE002" unicode="&#xe002;" horiz-adv-x="955" 
d="M606 355l159 191l159 -191h-129c0 -203 -165 -367 -368 -367s-367 164 -367 367s164 367 367 367c66 0 128 -18 181 -48l-23 -47c-46 26 -100 42 -158 42c-173 0 -313 -141 -313 -314c0 -174 140 -315 313 -315c174 0 314 141 314 315h-135z" />
    <glyph glyph-name="commaaccent" unicode="&#xf6c3;" horiz-adv-x="189" 
d="M47 649c0 25 21 42 46 42c24 0 51 -17 51 -59c0 -68 -49 -104 -99 -107v30c34 3 61 28 63 58c-4 -4 -11 -6 -19 -6c-24 0 -42 16 -42 42z" />
    <glyph glyph-name="uniFB00" unicode="&#xfb00;" horiz-adv-x="624" 
d="M606 477v-54h-133v-423h-60v423h-238v-423h-60v423h-98v54h98v99c0 101 62 154 142 154c25 0 43 -5 54 -10v-54c-9 4 -24 8 -45 8c-48 0 -91 -25 -91 -101v-96h238v99c0 101 62 154 142 154c25 0 43 -5 54 -10v-54c-9 4 -24 8 -45 8c-48 0 -91 -25 -91 -101v-96h133z" />
    <glyph glyph-name="uniFB03" unicode="&#xfb03;" horiz-adv-x="853" 
d="M773 477v-477h-60v423h-240v-423h-60v423h-238v-423h-60v423h-98v54h98v99c0 101 62 154 142 154c25 0 43 -5 54 -10v-54c-9 4 -24 8 -45 8c-48 0 -91 -25 -91 -101v-96h238v99c0 101 62 154 142 154c25 0 43 -5 54 -10v-54c-9 4 -24 8 -45 8c-48 0 -91 -25 -91 -101v-96
h300zM693 675c0 29 22 50 50 50s50 -21 50 -50s-22 -50 -50 -50s-50 21 -50 50z" />
    <glyph glyph-name="uniFB04" unicode="&#xfb04;" horiz-adv-x="853" 
d="M473 573v-96h240v245h60v-722h-60v423h-240v-423h-60v423h-238v-423h-60v423h-98v54h98v99c0 101 62 154 142 154c25 0 43 -5 54 -10v-54c-9 4 -24 8 -45 8c-48 0 -91 -25 -91 -101v-96h238v99c0 101 62 154 142 154c25 0 43 -5 54 -10v-54c-9 4 -24 8 -45 8
c-48 0 -91 -25 -91 -101z" />
    <glyph glyph-name="uniFEFF" unicode="&#xfeff;" horiz-adv-x="0" 
 />
    <glyph glyph-name="i.latn_TRK" horiz-adv-x="220" 
d="M140 0h-60v477h60v-477zM60 675c0 29 22 50 50 50s50 -21 50 -50s-22 -50 -50 -50s-50 21 -50 50z" />
    <glyph glyph-name="Ldot.latn_CAT" horiz-adv-x="549" 
d="M523 0h-422v709h64v-651h358v-58zM299 373c0 29 23 53 52 53c30 0 53 -24 53 -53s-23 -52 -53 -52c-29 0 -52 23 -52 52z" />
    <glyph glyph-name="ldot.latn_CAT" horiz-adv-x="277" 
d="M140 0h-60v722h60v-722zM197 324c0 26 21 47 47 47s47 -21 47 -47s-21 -47 -47 -47s-47 21 -47 47z" />
    <glyph glyph-name="zero.dnom" horiz-adv-x="380" 
d="M94 181c0 -68 19 -144 96 -144s96 76 96 144c0 67 -19 143 -96 143s-96 -76 -96 -143zM42 181c0 46 9 96 36 134c22 30 58 54 112 54c55 0 90 -24 112 -54c28 -38 36 -88 36 -134c0 -47 -8 -97 -36 -134c-22 -30 -57 -54 -112 -54c-54 0 -90 24 -112 54
c-27 37 -36 87 -36 134z" />
    <glyph glyph-name="one.dnom" horiz-adv-x="218" 
d="M165 0h-51v286c-17 -18 -50 -34 -87 -37v39c50 7 82 39 89 75h49v-363z" />
    <glyph glyph-name="two.dnom" horiz-adv-x="340" 
d="M94 228l-50 3c-1 7 -2 18 -2 24c0 62 49 114 128 114c77 0 125 -50 125 -110c0 -47 -29 -81 -72 -108l-74 -46c-23 -15 -42 -35 -46 -61h196v-44h-258v5c0 53 22 101 78 135l69 42c32 20 55 46 55 78c0 35 -28 66 -74 66c-45 0 -77 -29 -77 -75c0 -5 1 -15 2 -23z" />
    <glyph glyph-name="three.dnom" horiz-adv-x="356" 
d="M148 176l-22 39l114 104h-195v44h262v-42l-116 -104c2 0 7 1 9 1c60 -2 115 -37 115 -107c0 -65 -55 -118 -138 -118c-81 0 -134 47 -142 106l46 17c4 -49 47 -80 95 -80c50 0 87 32 87 75c0 47 -39 70 -83 70c-11 0 -23 -2 -32 -5z" />
    <glyph glyph-name="four.dnom" horiz-adv-x="368" 
d="M28 82v51l180 230h61v-236h71v-45h-71v-82h-51v82h-190zM218 127v179l-140 -179h140z" />
    <glyph glyph-name="five.dnom" horiz-adv-x="342" 
d="M31 92l45 20c7 -43 43 -75 90 -75c51 0 86 33 86 80c0 48 -36 79 -85 79c-31 0 -57 -12 -78 -34l-45 16l49 185h196v-44h-162l-30 -113c22 22 54 31 83 31c74 0 124 -48 124 -119c0 -68 -52 -125 -138 -125c-72 0 -126 47 -135 99z" />
    <glyph glyph-name="six.dnom" horiz-adv-x="364" 
d="M314 350l-13 -40c-18 10 -41 16 -69 16c-86 0 -134 -62 -140 -144c14 33 58 60 106 60c74 0 129 -48 129 -124c0 -74 -62 -125 -140 -125c-80 0 -146 59 -146 168c0 134 85 208 188 208c35 0 65 -7 85 -19zM101 118c0 -49 42 -81 87 -81c46 0 87 32 87 81
c0 50 -41 81 -87 81c-45 0 -87 -31 -87 -81z" />
    <glyph glyph-name="seven.dnom" horiz-adv-x="330" 
d="M310 363v-47c-63 -51 -147 -143 -166 -316h-54c19 182 118 285 155 319h-220v44h285z" />
    <glyph glyph-name="eight.dnom" horiz-adv-x="357" 
d="M179 207c45 0 76 24 76 60c0 35 -29 61 -76 61c-48 0 -76 -26 -76 -61c0 -36 30 -60 76 -60zM179 37c54 0 85 27 85 64s-30 65 -85 65s-86 -28 -86 -65s32 -64 86 -64zM179 -7c-88 0 -138 46 -138 104c0 41 30 76 74 89c-37 13 -63 45 -63 83c0 58 51 100 127 100
c75 0 127 -42 127 -100c0 -38 -26 -70 -64 -83c45 -13 74 -48 74 -89c0 -58 -49 -104 -137 -104z" />
    <glyph glyph-name="nine.dnom" horiz-adv-x="362" 
d="M49 15l13 40c20 -11 48 -18 73 -18c78 0 132 50 135 147c-15 -36 -58 -61 -104 -61c-72 0 -129 48 -129 123c0 72 62 124 139 124c80 0 145 -59 145 -166c0 -126 -64 -211 -184 -211c-32 0 -67 9 -88 22zM260 246c0 49 -40 80 -86 80s-85 -31 -85 -80s39 -80 85 -80
s86 31 86 80z" />
    <glyph glyph-name="space.frac" horiz-adv-x="51" 
 />
    <glyph glyph-name="space.tf" 
 />
    <glyph glyph-name="comma.tf" 
d="M227 48c0 27 23 50 54 50s59 -24 59 -71c0 -100 -60 -160 -119 -174v37c45 14 74 65 75 111c-3 -3 -10 -5 -19 -5c-28 0 -50 21 -50 52z" />
    <glyph glyph-name="period.tf" 
d="M230 48c0 29 23 53 52 53c30 0 53 -24 53 -53s-23 -52 -53 -52c-29 0 -52 23 -52 52z" />
    <glyph glyph-name="colon.tf" 
d="M230 428c0 29 23 53 52 53c30 0 53 -24 53 -53s-23 -52 -53 -52c-29 0 -52 23 -52 52zM230 48c0 29 23 53 52 53c30 0 53 -24 53 -53s-23 -52 -53 -52c-29 0 -52 23 -52 52z" />
    <glyph glyph-name="semicolon.tf" 
d="M228 428c0 29 23 53 52 53c30 0 53 -24 53 -53s-23 -52 -53 -52c-29 0 -52 23 -52 52zM229 48c0 27 23 50 54 50s59 -24 59 -71c0 -100 -60 -160 -119 -174v37c45 14 74 65 75 111c-3 -3 -10 -5 -19 -5c-28 0 -50 21 -50 52z" />
    <glyph glyph-name="section.tf" 
d="M101 284c0 60 41 107 87 125c-58 36 -89 84 -89 146c0 101 87 167 184 167c115 0 183 -75 186 -178l-58 -13c-1 85 -48 140 -129 140c-65 0 -124 -42 -124 -111c0 -51 29 -83 76 -108l105 -57c70 -37 125 -76 125 -154c0 -60 -41 -104 -90 -125c62 -37 94 -84 94 -146
c0 -100 -87 -167 -188 -167c-115 0 -183 73 -187 179l56 12c2 -82 51 -140 133 -140c72 0 126 43 126 110c0 52 -29 85 -77 111l-105 56c-73 38 -125 76 -125 153zM237 192l98 -54c37 13 70 49 70 94c0 46 -28 76 -77 103l-99 52c-37 -14 -69 -50 -69 -94
c0 -45 26 -74 77 -101z" />
    <glyph glyph-name="florin.tf" 
d="M156 11l82 412h-117v54h128l23 113c19 96 83 139 154 139c30 0 49 -4 64 -9v-54c-10 3 -29 7 -52 7c-46 0 -91 -23 -108 -103l-19 -93h133v-54h-143l-86 -432c-19 -96 -83 -139 -154 -139c-29 0 -50 4 -65 9v54c9 -2 27 -7 53 -7c46 0 91 23 107 103z" />
    <glyph glyph-name="uni2007.tf" 
 />
    <glyph glyph-name="uni2008.tf" 
 />
    <glyph glyph-name="parenleft.case" horiz-adv-x="299" 
d="M54 352c0 188 77 332 179 439l36 -32c-101 -111 -163 -239 -163 -407c0 -170 62 -296 163 -407l-36 -32c-102 107 -179 249 -179 439z" />
    <glyph glyph-name="parenright.case" horiz-adv-x="300" 
d="M245 352c0 -190 -77 -332 -179 -439l-36 32c101 111 162 237 162 407c0 168 -61 296 -162 407l36 32c102 -107 179 -251 179 -439z" />
    <glyph glyph-name="hyphen.case" horiz-adv-x="407" 
d="M335 310h-263v54h263v-54z" />
    <glyph glyph-name="bracketleft.case" horiz-adv-x="276" 
d="M233 -62h-154v856h154v-50h-100v-757h100v-49z" />
    <glyph glyph-name="bracketright.case" horiz-adv-x="276" 
d="M197 -62h-154v49h100v757h-100v50h154v-856z" />
    <glyph glyph-name="braceleft.case" horiz-adv-x="335" 
d="M31 337v56c58 6 108 39 108 108v137c0 104 48 155 147 155h9v-48h-9c-71 0 -95 -32 -95 -103v-154c0 -65 -40 -109 -101 -123c61 -13 101 -58 101 -123v-153c0 -70 24 -102 95 -102h9v-49h-9c-99 0 -147 51 -147 155v137c0 68 -50 102 -108 107z" />
    <glyph glyph-name="braceright.case" horiz-adv-x="335" 
d="M304 393v-56c-58 -5 -108 -39 -108 -107v-137c0 -104 -48 -155 -147 -155h-9v49h9c71 0 95 32 95 102v153c0 65 40 110 101 123c-61 14 -101 58 -101 123v154c0 71 -24 103 -95 103h-9v48h9c99 0 147 -51 147 -155v-137c0 -69 50 -102 108 -108z" />
    <glyph glyph-name="exclamdown.case" horiz-adv-x="237" 
d="M80 0l17 520h41l18 -520h-76zM120 713c28 0 50 -22 50 -49c0 -28 -22 -50 -50 -50s-50 22 -50 50c0 27 22 49 50 49z" />
    <glyph glyph-name="guillemotleft.case" horiz-adv-x="480" 
d="M248 147h-60l-133 191l133 191h60l-132 -191zM414 147h-60l-133 191l133 191h60l-132 -191z" />
    <glyph glyph-name="uni00AD.case" horiz-adv-x="399" 
d="M331 317h-263v53h263v-53z" />
    <glyph glyph-name="guillemotright.case" horiz-adv-x="480" 
d="M292 147h-60l132 191l-132 191h60l133 -191zM126 147h-60l133 191l-133 191h60l133 -191z" />
    <glyph glyph-name="questiondown.case" horiz-adv-x="487" 
d="M227 520h55c3 -10 3 -23 3 -38c0 -62 -21 -108 -72 -147l-44 -34c-42 -32 -69 -74 -69 -123c0 -71 49 -135 141 -135c101 0 148 72 148 147c0 17 -3 36 -8 54l61 -9c6 -17 8 -33 8 -51c0 -94 -66 -197 -209 -197c-129 0 -204 93 -204 190c0 73 41 128 100 172l45 33
c37 27 47 68 47 106c0 12 -1 23 -2 32zM254 713c28 0 50 -22 50 -49c0 -28 -22 -50 -50 -50s-50 22 -50 50c0 27 22 49 50 49z" />
    <glyph glyph-name="endash.case" horiz-adv-x="644" 
d="M572 310h-500v54h500v-54z" />
    <glyph glyph-name="emdash.case" horiz-adv-x="1063" 
d="M991 310h-919v54h919v-54z" />
    <glyph glyph-name="guilsinglleft.case" horiz-adv-x="314" 
d="M248 147h-60l-133 191l133 191h60l-132 -191z" />
    <glyph glyph-name="guilsinglright.case" horiz-adv-x="314" 
d="M126 147h-60l132 191l-132 191h60l133 -191z" />
    <glyph glyph-name="G.ss01" horiz-adv-x="765" 
d="M401 -13c-175 0 -349 134 -349 368s174 367 348 367c153 0 269 -87 307 -219l-58 -21c-34 115 -124 182 -249 182c-145 0 -284 -107 -284 -309s139 -310 285 -311c144 0 237 96 254 220h-297v56h362v-22c-10 -176 -132 -311 -319 -311z" />
    <glyph glyph-name="Gcircumflex.ss01" horiz-adv-x="765" 
d="M401 -13c-175 0 -349 134 -349 368s174 367 348 367c153 0 269 -87 307 -219l-58 -21c-34 115 -124 182 -249 182c-145 0 -284 -107 -284 -309s139 -310 285 -311c144 0 237 96 254 220h-297v56h362v-22c-10 -176 -132 -311 -319 -311zM305 759h-59l115 119h82l116 -119
h-59l-98 84z" />
    <glyph glyph-name="Gbreve.ss01" horiz-adv-x="765" 
d="M401 -13c-175 0 -349 134 -349 368s174 367 348 367c153 0 269 -87 307 -219l-58 -21c-34 115 -124 182 -249 182c-145 0 -284 -107 -284 -309s139 -310 285 -311c144 0 237 96 254 220h-297v56h362v-22c-10 -176 -132 -311 -319 -311zM401 754c-90 0 -140 62 -145 126
h52c4 -38 32 -78 93 -78s89 40 92 78h52c-4 -64 -54 -126 -144 -126z" />
    <glyph glyph-name="Gdotaccent.ss01" horiz-adv-x="765" 
d="M401 -13c-175 0 -349 134 -349 368s174 367 348 367c153 0 269 -87 307 -219l-58 -21c-34 115 -124 182 -249 182c-145 0 -284 -107 -284 -309s139 -310 285 -311c144 0 237 96 254 220h-297v56h362v-22c-10 -176 -132 -311 -319 -311zM354 818c0 26 21 47 47 47
s47 -21 47 -47s-21 -47 -47 -47s-47 21 -47 47z" />
    <glyph glyph-name="Gcommaaccent.ss01" horiz-adv-x="765" 
d="M401 -13c-175 0 -349 134 -349 368s174 367 348 367c153 0 269 -87 307 -219l-58 -21c-34 115 -124 182 -249 182c-145 0 -284 -107 -284 -309s139 -310 285 -311c144 0 237 96 254 220h-297v56h362v-22c-10 -176 -132 -311 -319 -311zM361 -84c0 25 21 42 46 42
c24 0 51 -17 51 -59c0 -68 -49 -104 -99 -107v30c34 3 61 28 63 58c-4 -4 -11 -6 -19 -6c-24 0 -42 16 -42 42z" />
    <glyph glyph-name="a.ss02" horiz-adv-x="574" 
d="M108 240c0 -112 63 -199 164 -199c99 0 162 86 162 199c0 112 -63 196 -161 196c-100 0 -165 -82 -165 -196zM434 75v19c-21 -49 -74 -106 -167 -106c-134 0 -220 110 -220 252c0 140 88 249 220 249c102 0 149 -61 166 -102v90h60v-386c0 -49 4 -86 5 -91h-59
c-2 12 -5 41 -5 75z" />
    <glyph glyph-name="agrave.ss02" horiz-adv-x="574" 
d="M108 240c0 -112 63 -199 164 -199c99 0 162 86 162 199c0 112 -63 196 -161 196c-100 0 -165 -82 -165 -196zM434 75v19c-21 -49 -74 -106 -167 -106c-134 0 -220 110 -220 252c0 140 88 249 220 249c102 0 149 -61 166 -102v90h60v-386c0 -49 4 -86 5 -91h-59
c-2 12 -5 41 -5 75zM261 537l-118 139h76l89 -139h-47z" />
    <glyph glyph-name="aacute.ss02" horiz-adv-x="574" 
d="M403 676l-118 -139h-49l89 139h78zM108 240c0 -112 63 -199 164 -199c99 0 162 86 162 199c0 112 -63 196 -161 196c-100 0 -165 -82 -165 -196zM434 75v19c-21 -49 -74 -106 -167 -106c-134 0 -220 110 -220 252c0 140 88 249 220 249c102 0 149 -61 166 -102v90h60
v-386c0 -49 4 -86 5 -91h-59c-2 12 -5 41 -5 75z" />
    <glyph glyph-name="acircumflex.ss02" horiz-adv-x="574" 
d="M187 538h-54l110 137h72l110 -137h-54l-92 99zM108 240c0 -112 63 -199 164 -199c99 0 162 86 162 199c0 112 -63 196 -161 196c-100 0 -165 -82 -165 -196zM434 75v19c-21 -49 -74 -106 -167 -106c-134 0 -220 110 -220 252c0 140 88 249 220 249
c102 0 149 -61 166 -102v90h60v-386c0 -49 4 -86 5 -91h-59c-2 12 -5 41 -5 75z" />
    <glyph glyph-name="atilde.ss02" horiz-adv-x="574" 
d="M108 240c0 -112 63 -199 164 -199c99 0 162 86 162 199c0 112 -63 196 -161 196c-100 0 -165 -82 -165 -196zM434 75v19c-21 -49 -74 -106 -167 -106c-134 0 -220 110 -220 252c0 140 88 249 220 249c102 0 149 -61 166 -102v90h60v-386c0 -49 4 -86 5 -91h-59
c-2 12 -5 41 -5 75zM428 659v-11c0 -63 -38 -97 -83 -97c-26 0 -47 10 -65 23l-21 15c-16 11 -30 20 -49 20c-26 0 -38 -18 -38 -55h-47v12c0 61 37 95 85 95c28 0 51 -12 71 -27l18 -13c15 -11 27 -18 44 -18c25 0 38 17 38 56h47z" />
    <glyph glyph-name="adieresis.ss02" horiz-adv-x="574" 
d="M328 611c0 23 19 42 42 42s42 -19 42 -42s-19 -42 -42 -42s-42 19 -42 42zM152 611c0 23 19 42 42 42s42 -19 42 -42s-19 -42 -42 -42s-42 19 -42 42zM108 240c0 -112 63 -199 164 -199c99 0 162 86 162 199c0 112 -63 196 -161 196c-100 0 -165 -82 -165 -196zM434 75
v19c-21 -49 -74 -106 -167 -106c-134 0 -220 110 -220 252c0 140 88 249 220 249c102 0 149 -61 166 -102v90h60v-386c0 -49 4 -86 5 -91h-59c-2 12 -5 41 -5 75z" />
    <glyph glyph-name="aring.ss02" horiz-adv-x="574" 
d="M380 635c0 -58 -47 -105 -105 -105c-57 0 -105 47 -105 105s48 105 105 105c58 0 105 -47 105 -105zM336 635c0 35 -26 63 -61 63s-61 -28 -61 -63s26 -63 61 -63s61 28 61 63zM108 240c0 -112 63 -199 164 -199c99 0 162 86 162 199c0 112 -63 196 -161 196
c-100 0 -165 -82 -165 -196zM434 75v19c-21 -49 -74 -106 -167 -106c-134 0 -220 110 -220 252c0 140 88 249 220 249c102 0 149 -61 166 -102v90h60v-386c0 -49 4 -86 5 -91h-59c-2 12 -5 41 -5 75z" />
    <glyph glyph-name="amacron.ss02" horiz-adv-x="574" 
d="M108 240c0 -112 63 -199 164 -199c99 0 162 86 162 199c0 112 -63 196 -161 196c-100 0 -165 -82 -165 -196zM434 75v19c-21 -49 -74 -106 -167 -106c-134 0 -220 110 -220 252c0 140 88 249 220 249c102 0 149 -61 166 -102v90h60v-386c0 -49 4 -86 5 -91h-59
c-2 12 -5 41 -5 75zM397 583h-254v50h254v-50z" />
    <glyph glyph-name="abreve.ss02" horiz-adv-x="574" 
d="M108 240c0 -112 63 -199 164 -199c99 0 162 86 162 199c0 112 -63 196 -161 196c-100 0 -165 -82 -165 -196zM434 75v19c-21 -49 -74 -106 -167 -106c-134 0 -220 110 -220 252c0 140 88 249 220 249c102 0 149 -61 166 -102v90h60v-386c0 -49 4 -86 5 -91h-59
c-2 12 -5 41 -5 75zM274 538c-91 0 -139 70 -140 138h47c2 -43 30 -89 93 -89s91 46 93 89h47c-1 -68 -49 -138 -140 -138z" />
    <glyph glyph-name="aogonek.ss02" horiz-adv-x="574" 
d="M364 -117c0 56 37 94 74 118c-2 12 -4 41 -4 74v19c-21 -49 -74 -106 -167 -106c-134 0 -220 110 -220 252c0 140 88 249 220 249c102 0 149 -61 166 -102v90h60v-386c0 -49 4 -86 5 -91c-37 -19 -83 -56 -83 -106c0 -38 29 -57 63 -57c14 0 25 2 34 5v-44
c-12 -5 -25 -8 -45 -8c-57 0 -103 34 -103 93zM108 240c0 -112 63 -199 164 -199c99 0 162 86 162 199c0 112 -63 196 -161 196c-100 0 -165 -82 -165 -196z" />
    <glyph glyph-name="aringacute.ss02" horiz-adv-x="574" 
d="M416 908l-118 -139h-49l89 139h78zM378 631c0 -58 -47 -105 -105 -105c-57 0 -105 47 -105 105s48 105 105 105c58 0 105 -47 105 -105zM334 631c0 35 -26 63 -61 63s-61 -28 -61 -63s26 -63 61 -63s61 28 61 63zM108 240c0 -112 63 -199 164 -199c99 0 162 86 162 199
c0 112 -63 196 -161 196c-100 0 -165 -82 -165 -196zM434 75v19c-21 -49 -74 -106 -167 -106c-134 0 -220 110 -220 252c0 140 88 249 220 249c102 0 149 -61 166 -102v90h60v-386c0 -49 4 -86 5 -91h-59c-2 12 -5 41 -5 75z" />
    <glyph glyph-name="r.ss03" horiz-adv-x="260" 
d="M140 0h-60v477h60v-38c3 26 23 44 50 44c28 0 50 -21 50 -50s-22 -50 -50 -50c-27 0 -47 17 -50 43v-426z" />
    <glyph glyph-name="racute.ss03" horiz-adv-x="260" 
d="M140 0h-60v477h60v-38c3 26 23 44 50 44c28 0 50 -21 50 -50s-22 -50 -50 -50c-27 0 -47 17 -50 43v-426zM267 676l-118 -139h-49l89 139h78z" />
    <glyph glyph-name="rcommaaccent.ss03" horiz-adv-x="260" 
d="M140 0h-60v477h60v-38c3 26 23 44 50 44c28 0 50 -21 50 -50s-22 -50 -50 -50c-27 0 -47 17 -50 43v-426zM62 -84c0 25 21 42 46 42c24 0 51 -17 51 -59c0 -68 -49 -104 -99 -107v30c34 3 61 28 63 58c-4 -4 -11 -6 -19 -6c-24 0 -42 16 -42 42z" />
    <glyph glyph-name="rcaron.ss03" horiz-adv-x="260" 
d="M140 0h-60v477h60v-38c3 26 23 44 50 44c28 0 50 -21 50 -50s-22 -50 -50 -50c-27 0 -47 17 -50 43v-426zM12 675h54l92 -99l92 99h54l-110 -137h-72z" />
    <glyph glyph-name="ampersand.ss04" horiz-adv-x="663" 
d="M378 258v58h253v-58h-84v-26c0 -138 -99 -245 -249 -245c-142 0 -244 89 -244 207c0 93 62 165 151 191c-74 22 -117 82 -117 158c0 97 88 179 196 179c139 0 207 -79 219 -187l-61 -12c-9 89 -59 144 -154 144c-74 0 -138 -55 -138 -126c0 -74 56 -125 148 -127v-56
c-98 -2 -181 -60 -181 -161c0 -84 71 -154 181 -154s187 79 187 189v26h-107z" />
    <glyph glyph-name="registered.ss06" horiz-adv-x="468" 
d="M49 528c0 103 82 186 185 186s185 -83 185 -186s-82 -186 -185 -186s-185 83 -185 186zM206 532h30c22 0 36 12 36 33c0 19 -13 32 -36 32h-30v-65zM268 431l-37 71h-25v-71h-36v196h72c39 0 67 -28 67 -62c0 -27 -17 -50 -43 -58l42 -76h-40zM234 374
c86 0 150 68 150 153c0 86 -64 154 -150 154s-150 -68 -150 -154c0 -85 64 -153 150 -153z" />
    <glyph glyph-name="Euro" unicode="&#x20ac;" horiz-adv-x="743" 
d="M703 64c-46 -41 -123 -77 -215 -77c-158 0 -306 96 -345 271h-99v50h90c-2 16 -3 29 -3 48c0 14 1 25 2 40h-89v49h97c39 178 196 276 354 276c76 0 138 -20 180 -50l-25 -49c-39 28 -94 43 -153 43c-128 0 -256 -75 -292 -220h348l-23 -49h-334c-2 -23 -2 -27 -2 -42
c0 -17 1 -32 2 -46h293l-23 -50h-259c36 -142 160 -213 279 -213c77 0 146 29 184 65z" />
    <glyph glyph-name="uni2113" unicode="&#x2113;" horiz-adv-x="378" 
d="M329 69v-52c-24 -14 -51 -22 -86 -22c-77 0 -127 48 -127 133v161c-22 -10 -46 -20 -70 -26v54c23 7 47 18 70 30v224c0 99 51 150 115 150c78 0 113 -55 113 -132c0 -121 -75 -213 -171 -273v-180c0 -58 30 -88 75 -88c32 0 57 8 81 21zM173 572v-191
c64 47 114 117 114 209c0 46 -16 79 -53 79c-38 0 -61 -29 -61 -97z" />
    <glyph glyph-name="uni2160" unicode="&#x2160;" horiz-adv-x="456" 
d="M422 709v-56h-164v-597h164v-56h-388v56h163v597h-163v56h388z" />
    <glyph glyph-name="uni2161" unicode="&#x2161;" horiz-adv-x="726" 
d="M692 709v-56h-162v-597h162v-56h-658v56h161v597h-161v56h658zM257 653v-597h212v597h-212z" />
    <glyph glyph-name="uni2162" unicode="&#x2162;" horiz-adv-x="994" 
d="M960 709v-56h-161v-597h161v-56h-926v56h161v597h-161v56h926zM257 653v-597h209v597h-209zM528 56h210v597h-210v-597z" />
    <glyph glyph-name="uni2163" unicode="&#x2163;" horiz-adv-x="971" 
d="M936 56v-56h-902v56h158v597h-158v56h902v-56h-113l-178 -597h291zM352 653h-98v-597h276zM588 76l170 577h-341z" />
    <glyph glyph-name="uni2164" unicode="&#x2164;" horiz-adv-x="751" 
d="M716 56v-56h-681v56h283l-178 597h-105v56h681v-56h-105l-178 -597h283zM375 76l171 577h-341z" />
    <glyph glyph-name="uni2165" unicode="&#x2165;" horiz-adv-x="970" 
d="M727 56v597h-108l-178 -597h286zM383 76l170 577h-340zM35 0v56h290l-178 597h-112v56h900v-56h-146v-597h146v-56h-900z" />
    <glyph glyph-name="uni2166" unicode="&#x2166;" horiz-adv-x="1257" 
d="M1224 709v-56h-164v-597h162v-56h-1187v56h290l-178 597h-112v56h1189zM619 653l-178 -597h286v597h-108zM789 653v-597h210v597h-210zM383 76l170 577h-340z" />
    <glyph glyph-name="uni2167" unicode="&#x2167;" horiz-adv-x="1511" 
d="M1479 709v-56h-164v-597h160v-56h-1440v56h290l-178 597h-112v56h1444zM619 653l-178 -597h285v597h-107zM787 653v-597h203v597h-203zM1051 653v-597h202v597h-202zM384 76l170 577h-341z" />
    <glyph glyph-name="uni2168" unicode="&#x2168;" horiz-adv-x="941" 
d="M804 653l-193 -299l192 -298h104v-56h-873v56h158v597h-158v56h872v-56h-102zM538 354l-192 299h-92v-597h93zM419 56h311l-155 244zM419 653l156 -246l157 246h-313z" />
    <glyph glyph-name="uni2169" unicode="&#x2169;" horiz-adv-x="722" 
d="M591 653l-196 -302l190 -295h103v-56h-654v56h100l189 293l-194 304h-95v56h654v-56h-97zM206 56h306l-153 241zM201 653l158 -250l160 250h-318z" />
    <glyph glyph-name="uni216C" unicode="&#x216c;" horiz-adv-x="613" 
d="M574 0h-539v56h144v597h-144v56h359v-56h-154v-597h274v222h60v-278z" />
    <glyph glyph-name="uni216D" unicode="&#x216d;" horiz-adv-x="744" 
d="M616 0v113c-36 -65 -106 -125 -229 -125c-182 0 -337 131 -337 366s157 367 335 367c122 0 190 -60 227 -122v110h61v-237h-61c-21 109 -91 195 -226 195c-145 0 -276 -109 -276 -313c0 -203 126 -311 277 -311c140 0 211 95 229 197h61v-240h-61z" />
    <glyph glyph-name="uni216E" unicode="&#x216e;" horiz-adv-x="726" 
d="M244 56h103c141 0 265 86 265 298c0 209 -120 299 -264 299h-104v-597zM34 709h317c176 0 324 -114 324 -355s-149 -354 -327 -354h-314v56h149v597h-149v56z" />
    <glyph glyph-name="uni216F" unicode="&#x216f;" horiz-adv-x="1020" 
d="M255 709l253 -622l250 622h225v-56h-135v-597h139v-56h-317v56h117v566l-252 -622h-55l-252 621v-565h122v-56h-315v56h133v597h-133v56h220z" />
    <glyph glyph-name="zero.numr" horiz-adv-x="378" 
d="M93 527c0 -68 19 -144 96 -144s96 76 96 144c0 67 -19 143 -96 143s-96 -76 -96 -143zM41 527c0 46 9 96 36 134c22 30 58 54 112 54c55 0 90 -24 112 -54c28 -38 36 -88 36 -134c0 -47 -8 -97 -36 -134c-22 -30 -57 -54 -112 -54c-54 0 -90 24 -112 54
c-27 37 -36 87 -36 134z" />
    <glyph glyph-name="one.numr" horiz-adv-x="217" 
d="M165 346h-51v286c-17 -18 -50 -34 -87 -37v39c50 7 82 39 89 75h49v-363z" />
    <glyph glyph-name="two.numr" horiz-adv-x="337" 
d="M93 575l-50 3c-1 7 -2 18 -2 24c0 62 49 114 128 114c77 0 125 -50 125 -110c0 -47 -29 -81 -72 -108l-74 -46c-23 -15 -42 -35 -46 -61h196v-44h-258v5c0 53 22 101 78 135l69 42c32 20 55 46 55 78c0 35 -28 66 -74 66c-45 0 -77 -29 -77 -75c0 -5 1 -15 2 -23z" />
    <glyph glyph-name="three.numr" horiz-adv-x="355" 
d="M148 522l-22 39l114 104h-195v44h262v-42l-116 -104c2 0 7 1 9 1c60 -2 115 -37 115 -107c0 -65 -55 -118 -138 -118c-81 0 -134 47 -142 106l46 17c4 -49 47 -80 95 -80c50 0 87 32 87 75c0 47 -39 70 -83 70c-11 0 -23 -2 -32 -5z" />
    <glyph glyph-name="four.numr" horiz-adv-x="369" 
d="M28 428v51l180 230h61v-236h71v-45h-71v-82h-51v82h-190zM218 473v179l-140 -179h140z" />
    <glyph glyph-name="five.numr" horiz-adv-x="341" 
d="M31 438l45 20c7 -43 43 -75 90 -75c51 0 86 33 86 80c0 48 -36 79 -85 79c-31 0 -57 -12 -78 -34l-45 16l49 185h196v-44h-162l-30 -113c22 22 54 31 83 31c74 0 124 -48 124 -119c0 -68 -52 -125 -138 -125c-72 0 -126 47 -135 99z" />
    <glyph glyph-name="six.numr" horiz-adv-x="362" 
d="M313 696l-13 -40c-18 10 -41 16 -69 16c-86 0 -134 -62 -140 -144c14 33 58 60 106 60c74 0 129 -48 129 -124c0 -74 -62 -125 -140 -125c-80 0 -146 59 -146 168c0 134 85 208 188 208c35 0 65 -7 85 -19zM100 464c0 -49 42 -81 87 -81c46 0 87 32 87 81
c0 50 -41 81 -87 81c-45 0 -87 -31 -87 -81z" />
    <glyph glyph-name="seven.numr" horiz-adv-x="329" 
d="M309 709v-47c-63 -51 -147 -143 -166 -316h-54c19 182 118 285 155 319h-220v44h285z" />
    <glyph glyph-name="eight.numr" horiz-adv-x="355" 
d="M178 554c45 0 76 24 76 60c0 35 -29 61 -76 61c-48 0 -76 -26 -76 -61c0 -36 30 -60 76 -60zM178 384c54 0 85 27 85 64s-30 65 -85 65s-86 -28 -86 -65s32 -64 86 -64zM178 340c-88 0 -138 46 -138 104c0 41 30 76 74 89c-37 13 -63 45 -63 83c0 58 51 100 127 100
c75 0 127 -42 127 -100c0 -38 -26 -70 -64 -83c45 -13 74 -48 74 -89c0 -58 -49 -104 -137 -104z" />
    <glyph glyph-name="nine.numr" horiz-adv-x="360" 
d="M48 361l13 40c20 -11 48 -18 73 -18c78 0 132 50 135 147c-15 -36 -58 -61 -104 -61c-72 0 -129 48 -129 123c0 72 62 124 139 124c80 0 145 -59 145 -166c0 -126 -64 -211 -184 -211c-32 0 -67 9 -88 22zM259 592c0 49 -40 80 -86 80s-85 -31 -85 -80s39 -80 85 -80
s86 31 86 80z" />
    <glyph glyph-name="a.ordn" horiz-adv-x="370" 
d="M38 463c0 56 40 90 99 98l93 14c24 4 32 16 32 31c0 40 -29 71 -82 71c-51 0 -84 -31 -90 -77l-46 12c7 62 60 108 135 108c94 0 133 -55 133 -120v-169c0 -24 2 -46 4 -57h-49c-2 10 -4 27 -4 53c-16 -31 -55 -62 -112 -62c-73 0 -113 47 -113 98zM158 407
c68 0 104 45 104 119v23c-4 -5 -27 -10 -40 -12l-74 -12c-36 -6 -59 -25 -59 -60c0 -30 23 -58 69 -58z" />
    <glyph glyph-name="b.ordn" horiz-adv-x="423" 
d="M111 374h-49v509h50v-232c14 32 54 69 118 69c98 0 154 -76 154 -176c0 -101 -60 -179 -156 -179c-61 0 -99 36 -117 72v-63zM332 544c0 78 -44 131 -110 131s-111 -54 -111 -131c0 -78 45 -134 111 -134s110 56 110 134z" />
    <glyph glyph-name="c.ordn" horiz-adv-x="387" 
d="M205 674c-64 0 -116 -50 -116 -131c0 -83 52 -132 116 -132c62 0 94 42 105 78l44 -18c-16 -53 -66 -106 -149 -106c-96 0 -167 74 -167 178c0 103 72 177 167 177c83 0 132 -51 147 -107l-45 -19c-11 39 -40 80 -102 80z" />
    <glyph glyph-name="d.ordn" horiz-adv-x="421" 
d="M90 544c0 -76 43 -134 110 -134s110 57 110 134c0 76 -43 130 -110 130c-66 0 -110 -53 -110 -130zM359 883v-445c0 -23 2 -52 4 -64h-49c-2 10 -4 28 -4 54v8c-15 -32 -52 -71 -114 -71c-96 0 -157 78 -157 179c0 98 62 175 156 175c70 0 103 -39 114 -66v230h50z" />
    <glyph glyph-name="e.ordn" horiz-adv-x="393" 
d="M92 571h211c0 58 -38 105 -105 105c-61 0 -102 -48 -106 -105zM310 485l44 -14c-19 -59 -72 -106 -149 -106c-90 0 -166 66 -166 179c0 106 74 176 158 176c101 0 159 -70 159 -171c0 -8 -1 -13 -2 -17h-264v-2c0 -73 54 -121 115 -121c58 0 91 35 105 76z" />
    <glyph glyph-name="f.ordn" horiz-adv-x="246" 
d="M229 665h-90v-293h-51v293h-67v45h67v62c0 73 43 111 105 111c17 0 31 -3 39 -7v-43c-8 3 -17 5 -32 5c-31 0 -61 -17 -61 -68v-60h90v-45z" />
    <glyph glyph-name="g.ordn" horiz-adv-x="412" 
d="M39 356l48 12c6 -52 45 -93 103 -93c85 0 110 55 110 125v55c-14 -33 -50 -63 -110 -63c-89 0 -151 69 -151 163c0 91 61 164 151 164c61 0 97 -31 111 -65v57h49v-310c0 -81 -33 -170 -159 -170c-84 0 -143 55 -152 125zM197 435c63 0 106 50 106 120
c0 69 -43 119 -106 119c-64 0 -107 -50 -107 -119c0 -71 43 -120 107 -120z" />
    <glyph glyph-name="h.ordn" horiz-adv-x="396" 
d="M112 577v-203h-50v509h50v-221c19 33 56 58 105 58c81 0 121 -57 121 -128v-218h-51v209c0 51 -26 91 -86 91c-54 0 -87 -45 -89 -97z" />
    <glyph glyph-name="i.ordn" horiz-adv-x="174" 
d="M112 374h-50v337h50v-337zM49 846c0 22 16 39 38 39c21 0 38 -17 38 -39c0 -21 -17 -38 -38 -38c-22 0 -38 17 -38 38z" />
    <glyph glyph-name="j.ordn" horiz-adv-x="174" 
d="M62 334v377h50v-380c0 -62 -37 -100 -92 -100c-19 0 -34 4 -40 6v43c9 -3 18 -4 29 -4c36 0 53 19 53 58zM49 847c0 22 16 38 38 38c21 0 38 -16 38 -38s-17 -38 -38 -38c-22 0 -38 16 -38 38z" />
    <glyph glyph-name="k.ordn" horiz-adv-x="361" 
d="M347 711l-141 -140l147 -197h-63l-119 162l-59 -60v-102h-50v509h50v-339l166 167h69z" />
    <glyph glyph-name="l.ordn" horiz-adv-x="174" 
d="M112 374h-50v509h50v-509z" />
    <glyph glyph-name="m.ordn" horiz-adv-x="612" 
d="M62 374v276c0 14 -1 58 -1 61h47c0 -5 2 -38 2 -54c17 35 57 63 107 63s91 -29 105 -74c20 47 62 74 114 74c65 0 118 -45 118 -124v-222h-50v214c0 49 -28 87 -83 87c-52 0 -88 -45 -88 -96v-205h-50v214c0 49 -28 87 -82 87c-53 0 -89 -44 -89 -97v-204h-50z" />
    <glyph glyph-name="n.ordn" horiz-adv-x="396" 
d="M112 575v-201h-50v280c0 15 -2 49 -2 57h49c0 -5 2 -35 2 -54c18 36 58 63 107 63c80 0 120 -57 120 -128v-218h-50v210c0 50 -27 90 -87 90c-55 0 -88 -45 -89 -99z" />
    <glyph glyph-name="o.ordn" horiz-adv-x="415" 
d="M207 410c63 0 118 48 118 133c0 84 -55 132 -118 132s-118 -48 -118 -132c0 -85 55 -133 118 -133zM207 720c95 0 169 -72 169 -177c0 -106 -73 -178 -169 -178c-95 0 -168 72 -168 178c0 105 73 177 168 177z" />
    <glyph glyph-name="p.ordn" horiz-adv-x="422" 
d="M112 240h-50v471h49v-63c16 34 55 71 119 71c96 0 153 -77 153 -176c0 -101 -60 -178 -155 -178c-61 0 -100 35 -116 67v-192zM333 543c0 75 -45 131 -111 131s-111 -56 -111 -131c0 -77 45 -133 111 -133s111 57 111 133z" />
    <glyph glyph-name="q.ordn" horiz-adv-x="422" 
d="M360 240h-50v193c-17 -33 -55 -68 -116 -68c-94 0 -155 78 -155 179c0 97 58 175 154 175c66 0 103 -39 117 -71v63h50v-471zM89 544c0 -77 45 -134 111 -134s111 56 111 134c0 74 -45 130 -111 130s-111 -55 -111 -130z" />
    <glyph glyph-name="r.ordn" horiz-adv-x="257" 
d="M240 713v-54c-9 2 -19 4 -30 4c-56 0 -97 -35 -97 -112v-177h-51v337h48c1 -10 1 -42 1 -61c20 46 61 65 103 65c10 0 19 -1 26 -2z" />
    <glyph glyph-name="s.ordn" horiz-adv-x="325" 
d="M35 465l45 14c5 -41 35 -72 87 -72c42 0 71 23 71 55c0 28 -21 47 -54 54l-55 11c-51 11 -84 44 -84 92c0 56 52 101 116 101c82 0 114 -51 123 -91l-44 -15c-6 31 -28 64 -79 64c-36 0 -67 -23 -67 -56c0 -27 18 -43 49 -50l54 -11c57 -12 90 -46 90 -95
c0 -52 -42 -101 -120 -101c-86 0 -126 53 -132 100z" />
    <glyph glyph-name="t.ordn" horiz-adv-x="251" 
d="M138 820v-109h85v-45h-85v-193c0 -39 19 -58 55 -58c11 0 23 3 30 5v-43c-5 -3 -23 -7 -44 -7c-55 0 -91 34 -91 96v200h-69v45h24c33 0 49 17 49 50v59h46z" />
    <glyph glyph-name="u.ordn" horiz-adv-x="398" 
d="M289 424c-16 -33 -55 -59 -105 -59c-85 0 -126 63 -126 134v212h50v-204c0 -51 25 -97 87 -97c57 0 90 43 90 96v205h51v-274c0 -25 2 -53 4 -63h-48c-2 12 -3 33 -3 50z" />
    <glyph glyph-name="v.ordn" horiz-adv-x="344" 
d="M332 711l-134 -337h-51l-136 337h56l106 -278l105 278h54z" />
    <glyph glyph-name="w.ordn" horiz-adv-x="560" 
d="M254 711h53l97 -274l84 274h53l-110 -337h-54l-97 277l-96 -277h-55l-111 337h54l86 -274z" />
    <glyph glyph-name="x.ordn" horiz-adv-x="347" 
d="M16 374l128 171l-123 166h60l93 -129l93 129h59l-122 -165c9 -13 118 -160 128 -172h-60l-99 135c-1 -3 -96 -133 -98 -135h-59z" />
    <glyph glyph-name="y.ordn" horiz-adv-x="348" 
d="M123 237h-54l83 180l-144 294h57l115 -241l106 241h54z" />
    <glyph glyph-name="z.ordn" horiz-adv-x="343" 
d="M307 374h-270v44l203 248h-200v45h263v-44l-204 -249h208v-44z" />
    <glyph glyph-name="numbersign.tf" 
d="M332 260l43 198h-148l-44 -198h149zM276 0l45 210h-148l-46 -210h-56l45 210h-101v50h112l43 198h-103v50h114l43 201h57l-43 -201h148l43 201h57l-43 -201h109v-50h-120l-44 -198h106v-50h-116l-45 -210h-57z" />
    <glyph glyph-name="dollar.tf" 
d="M234 400l29 -7v261c-73 -8 -136 -59 -136 -131c0 -64 38 -106 107 -123zM334 316l-21 5v-267c90 8 142 64 142 133c0 67 -43 111 -121 129zM313 -113h-50v114c-135 10 -210 105 -221 205l55 17c8 -83 67 -157 166 -169v279l-41 10c-94 23 -154 79 -154 175
c0 104 88 181 195 190v115h50v-116c115 -10 175 -84 194 -168l-54 -18c-14 66 -58 121 -140 132v-271l32 -7c106 -24 171 -86 171 -184c0 -100 -80 -181 -203 -191v-113z" />
    <glyph glyph-name="percent.tf" 
d="M527 553v-59l-482 -328v58zM70 581c0 -50 37 -86 85 -86c49 0 86 36 86 86c0 49 -37 85 -86 85c-48 0 -85 -36 -85 -85zM21 581c0 74 60 133 134 133c75 0 135 -59 135 -133c0 -76 -60 -134 -135 -134c-74 0 -134 58 -134 134zM319 126c0 -49 37 -86 85 -86
c49 0 85 37 85 86s-36 86 -85 86c-48 0 -85 -37 -85 -86zM270 126c0 75 59 133 134 133c74 0 134 -58 134 -133s-60 -133 -134 -133c-75 0 -134 58 -134 133z" />
    <glyph glyph-name="plus.tf" 
d="M308 580v-207h195v-50h-195v-210h-53v210h-193v50h193v207h53z" />
    <glyph glyph-name="zero.tf" 
d="M26 354c0 84 13 176 51 246c39 71 103 121 205 121s166 -50 205 -121c38 -70 51 -162 51 -246c0 -83 -12 -175 -51 -245c-38 -71 -102 -121 -205 -121s-167 50 -205 121s-51 163 -51 245zM476 354c0 158 -45 311 -194 311c-150 0 -193 -153 -193 -311
c0 -157 44 -310 193 -310s194 153 194 310z" />
    <glyph glyph-name="one.tf" 
d="M76 56h198v540c-18 -38 -98 -87 -179 -92v53c98 9 164 76 182 152h58v-653h184v-56h-443v56z" />
    <glyph glyph-name="two.tf" 
d="M514 0h-462c2 92 41 188 141 253l136 89c74 49 115 101 115 172c0 83 -58 152 -158 152c-104 0 -171 -68 -171 -174c0 -12 1 -24 3 -37l-60 5c-2 10 -4 30 -4 40c0 121 85 221 230 221c140 0 222 -92 222 -205c0 -92 -57 -160 -135 -212l-147 -96
c-49 -32 -90 -87 -98 -150h388v-58z" />
    <glyph glyph-name="three.tf" 
d="M525 209c0 -123 -102 -221 -243 -221c-145 0 -239 94 -246 220l60 13c4 -108 86 -178 186 -178c104 0 180 69 180 166c0 100 -68 165 -173 165c-22 0 -48 -5 -68 -12l-28 47l236 243h-376v57h453v-56l-231 -236c12 4 29 6 37 6c114 -2 213 -80 213 -214z" />
    <glyph glyph-name="four.tf" 
d="M15 174v71l322 464h84v-479h127v-56h-127v-174h-61v174h-345zM360 230v416l-287 -416h287z" />
    <glyph glyph-name="five.tf" 
d="M39 194l56 15c10 -92 79 -166 182 -166c110 0 181 78 181 179c0 110 -74 181 -180 181c-66 0 -123 -30 -159 -79l-60 23l75 362h357v-57h-314l-53 -264c40 47 108 69 166 69c139 0 230 -93 230 -234c0 -131 -95 -235 -243 -235c-135 0 -228 91 -238 206z" />
    <glyph glyph-name="six.tf" 
d="M308 464c130 0 229 -96 229 -239c0 -139 -112 -237 -244 -237c-152 0 -262 119 -262 325c0 278 158 408 344 408c66 0 118 -18 151 -40l-19 -52c-31 19 -75 36 -135 36c-192 0 -278 -157 -282 -344v-13c18 78 94 156 218 156zM110 225c0 -108 85 -183 182 -183
c100 0 183 75 183 183c0 113 -78 185 -179 185c-103 0 -186 -80 -186 -185z" />
    <glyph glyph-name="seven.tf" 
d="M540 709v-59c-151 -142 -284 -338 -317 -650h-64c33 334 188 536 310 652h-430v57h501z" />
    <glyph glyph-name="eight.tf" 
d="M283 337c-115 0 -176 -66 -176 -148s65 -148 176 -148s176 66 176 148s-61 148 -176 148zM283 -12c-149 0 -237 85 -237 196c0 87 59 158 149 179c-80 20 -135 89 -135 169c0 108 89 189 223 189s223 -81 223 -189c0 -80 -55 -149 -136 -169c91 -21 150 -92 150 -179
c0 -111 -88 -196 -237 -196zM283 388c98 0 162 60 162 141c0 79 -60 139 -162 139s-162 -60 -162 -139c0 -81 64 -141 162 -141z" />
    <glyph glyph-name="nine.tf" 
d="M33 484c0 140 101 237 237 237c159 0 257 -121 257 -342c0 -265 -113 -391 -290 -391c-86 0 -162 35 -194 75l32 49c32 -39 87 -69 163 -69c144 0 227 107 229 314c0 7 0 19 -1 33c-23 -84 -103 -136 -200 -136c-124 0 -233 85 -233 230zM446 488c0 104 -79 178 -177 178
c-99 0 -176 -70 -176 -178c0 -113 77 -180 177 -180c102 0 176 68 176 180z" />
    <glyph glyph-name="less.tf" 
d="M120 348l343 -174v-61l-402 207v55l402 207v-60z" />
    <glyph glyph-name="equal.tf" 
d="M506 420h-447v50h447v-50zM506 226h-447v51h447v-51z" />
    <glyph glyph-name="greater.tf" 
d="M102 174l344 174l-344 174v60l402 -207v-55l-402 -207v61z" />
    <glyph glyph-name="cent.tf" 
d="M322 98v-98h-51v99c-121 12 -207 111 -207 249c0 137 87 237 207 250v111h51v-111c98 -8 161 -71 182 -150l-53 -21c-14 52 -53 106 -129 116v-390c75 10 118 65 134 116l51 -20c-21 -74 -86 -142 -185 -151zM123 348c0 -108 62 -181 148 -194v388
c-85 -13 -148 -87 -148 -194z" />
    <glyph glyph-name="sterling.tf" 
d="M532 181c-6 -108 -71 -181 -177 -181h-311v56c58 37 114 104 114 193c0 22 -4 41 -9 61h-95v53h79c-21 47 -43 95 -43 156c0 115 82 202 209 202c124 0 190 -84 197 -180l-57 -13c-5 78 -55 138 -141 138c-82 0 -146 -57 -146 -149c0 -59 26 -103 45 -154h192v-53h-177
c4 -18 7 -36 7 -59c0 -90 -47 -157 -98 -196h224c79 0 124 55 130 134z" />
    <glyph glyph-name="currency.tf" 
d="M481 106l-70 71c-35 -27 -79 -42 -126 -42c-49 0 -95 17 -131 46l-72 -75l-38 38l73 75c-28 35 -45 80 -45 129c0 50 18 97 47 132l-74 77l39 37l73 -76c36 27 81 43 128 43c46 0 89 -14 123 -40l72 73l38 -37l-70 -73c31 -36 51 -84 51 -136c0 -51 -18 -99 -49 -134
l69 -70zM126 348c0 -91 71 -161 159 -161c89 0 159 70 159 161c0 92 -70 161 -159 161c-88 0 -159 -69 -159 -161z" />
    <glyph glyph-name="yen.tf" 
d="M504 175h-191v-175h-62v175h-189v50h189v84h-189v50h160l-207 350h71l198 -339l197 339h67l-206 -350h162v-50h-191v-84h191v-50z" />
    <glyph glyph-name="logicalnot.tf" 
d="M494 218h-55v201h-385v53h440v-254z" />
    <glyph glyph-name="plusminus.tf" 
d="M497 384h-189v-145h-53v145h-188v50h188v145h53v-145h189v-50zM497 125h-430v51h430v-51z" />
    <glyph glyph-name="multiply.tf" 
d="M105 569l178 -184l177 184l36 -36l-179 -185l180 -186l-36 -37l-179 186l-178 -185l-36 36l178 186l-177 184z" />
    <glyph glyph-name="divide.tf" 
d="M235 170c0 26 21 47 48 47c26 0 47 -21 47 -47s-21 -48 -47 -48c-27 0 -48 22 -48 48zM235 525c0 27 21 48 48 48c26 0 47 -21 47 -48c0 -26 -21 -48 -47 -48c-27 0 -48 22 -48 48zM503 322h-441v53h441v-53z" />
    <glyph glyph-name="perthousand.tf" 
d="M524 646v-60l-482 -371v58zM18 599c0 65 52 115 115 115c64 0 116 -50 116 -115s-52 -115 -116 -115c-63 0 -115 50 -115 115zM63 599c0 -41 31 -71 70 -71c40 0 70 30 70 71s-30 71 -70 71c-39 0 -70 -30 -70 -71zM164 104c0 -40 31 -70 70 -70c40 0 71 30 71 70
c0 41 -31 71 -71 71c-39 0 -70 -30 -70 -71zM349 104c0 -40 31 -70 71 -70s70 30 70 70c0 41 -30 71 -70 71s-71 -30 -71 -71zM119 104c0 65 52 115 115 115c39 0 73 -18 93 -49c20 31 54 49 93 49c63 0 116 -50 116 -115c0 -64 -53 -114 -116 -114c-39 0 -73 18 -93 49
c-20 -31 -54 -49 -93 -49c-63 0 -115 50 -115 114z" />
    <glyph glyph-name="Euro.tf" 
d="M539 9c-34 -12 -71 -20 -117 -20c-164 0 -281 107 -315 263h-90v49h83c-2 15 -3 30 -3 46c0 19 2 37 4 55h-84v49h92c39 164 168 269 326 269c47 0 85 -9 114 -19l-17 -52c-22 7 -57 15 -97 15c-131 0 -229 -85 -263 -213h296l-14 -49h-292c-2 -18 -4 -37 -4 -56
c0 -15 1 -30 3 -45h265l-14 -49h-243c31 -130 129 -208 255 -208c38 0 76 7 101 16z" />
    <glyph glyph-name="minus.tf" 
d="M493 323h-421v50h421v-50z" />
    <glyph glyph-name="approxequal.tf" 
d="M487 285l33 -29c-34 -47 -76 -73 -131 -73c-31 0 -63 11 -97 30l-47 25c-23 12 -48 20 -69 20c-40 0 -69 -16 -96 -49l-34 30c34 48 75 74 129 74c31 0 61 -11 96 -29l46 -25c25 -13 53 -22 77 -22c39 0 66 15 93 48zM487 479l33 -30c-34 -47 -76 -72 -131 -72
c-31 0 -63 11 -97 29l-47 25c-23 13 -48 20 -69 20c-40 0 -69 -16 -96 -49l-34 31c34 48 75 74 129 74c31 0 61 -12 96 -30l46 -24c25 -14 53 -23 77 -23c39 0 66 15 93 49z" />
    <glyph glyph-name="notequal.tf" 
d="M504 226h-277l-85 -110h-62l85 110h-107v51h145l110 143h-255v50h292l83 107h62l-83 -107h92v-50h-129l-110 -143h239v-51z" />
    <glyph glyph-name="lessequal.tf" 
d="M480 234l-404 147v53l404 147v-54l-336 -120l336 -118v-55zM480 125h-404v51h404v-51z" />
    <glyph glyph-name="greaterequal.tf" 
d="M85 234v55l336 118l-336 120v54l404 -147v-53zM489 125h-404v51h404v-51z" />
    <glyph glyph-name="one.ss05" horiz-adv-x="492" 
d="M472 0h-418v56h185v540c-18 -38 -96 -87 -177 -92v53c96 9 162 76 180 152h59v-653h171v-56z" />
    <glyph glyph-name="florin.ss09" horiz-adv-x="393" 
d="M69 11l82 412h-117v54h128l23 113c19 96 83 139 154 139c30 0 49 -4 64 -9v-54c-10 3 -29 7 -52 7c-46 0 -91 -23 -108 -103l-19 -93h133v-54h-143l-86 -432c-19 -96 -83 -139 -154 -139c-29 0 -50 4 -65 9v54c9 -2 27 -7 53 -7c46 0 91 23 107 103z" />
    <glyph glyph-name="daggerdbl.ss09" horiz-adv-x="426" 
d="M51 212h136v285h-136v51h136v161h53v-161h135v-51h-135v-285h135v-51h-135v-161h-53v161h-136v51z" />
    <glyph glyph-name="caron.alt" horiz-adv-x="194" 
d="M149 709l-58 -176h-46l36 176h68z" />
    <glyph glyph-name="commaturn" horiz-adv-x="189" 
d="M142 573c0 -25 -21 -42 -46 -42c-24 0 -51 17 -51 59c0 68 49 104 99 107v-30c-34 -3 -61 -28 -63 -58c4 4 11 6 19 6c24 0 42 -16 42 -42z" />
    <glyph glyph-name="f_f" horiz-adv-x="624" 
d="M606 477v-54h-133v-423h-60v423h-238v-423h-60v423h-98v54h98v99c0 101 62 154 142 154c25 0 43 -5 54 -10v-54c-9 4 -24 8 -45 8c-48 0 -91 -25 -91 -101v-96h238v99c0 101 62 154 142 154c25 0 43 -5 54 -10v-54c-9 4 -24 8 -45 8c-48 0 -91 -25 -91 -101v-96h133z" />
    <glyph glyph-name="f_f_i" horiz-adv-x="853" 
d="M773 477v-477h-60v423h-240v-423h-60v423h-238v-423h-60v423h-98v54h98v99c0 101 62 154 142 154c25 0 43 -5 54 -10v-54c-9 4 -24 8 -45 8c-48 0 -91 -25 -91 -101v-96h238v99c0 101 62 154 142 154c25 0 43 -5 54 -10v-54c-9 4 -24 8 -45 8c-48 0 -91 -25 -91 -101v-96
h300zM693 675c0 29 22 50 50 50s50 -21 50 -50s-22 -50 -50 -50s-50 21 -50 50z" />
    <glyph glyph-name="f_f_l" horiz-adv-x="853" 
d="M473 573v-96h240v245h60v-722h-60v423h-240v-423h-60v423h-238v-423h-60v423h-98v54h98v99c0 101 62 154 142 154c25 0 43 -5 54 -10v-54c-9 4 -24 8 -45 8c-48 0 -91 -25 -91 -101v-96h238v99c0 101 62 154 142 154c25 0 43 -5 54 -10v-54c-9 4 -24 8 -45 8
c-48 0 -91 -25 -91 -101z" />
    <glyph glyph-name="f_i" horiz-adv-x="555" 
d="M395 675c0 29 22 50 50 50s50 -21 50 -50s-22 -50 -50 -50s-50 21 -50 50zM415 423h-240v-423h-60v423h-98v54h98v99c0 101 62 154 142 154c25 0 43 -5 54 -10v-54c-9 4 -24 8 -45 8c-48 0 -91 -25 -91 -101v-96h300v-477h-60v423z" />
    <glyph glyph-name="f_l" horiz-adv-x="555" 
d="M415 477v245h60v-722h-60v423h-240v-423h-60v423h-98v54h98v99c0 101 62 154 142 154c25 0 43 -5 54 -10v-54c-9 4 -24 8 -45 8c-48 0 -91 -25 -91 -101v-96h240z" />
    <glyph glyph-name="f_y" horiz-adv-x="807" 
d="M480 -190h-65l119 252l-177 361h-182v-423h-60v423h-98v54h98v99c0 101 62 154 142 154c25 0 43 -5 54 -10v-54c-9 4 -24 8 -45 8c-48 0 -91 -25 -91 -101v-96h223l167 -352l158 352h66z" />
    <glyph glyph-name="dieresis.narrow" horiz-adv-x="296" 
d="M45 610c0 22 18 40 40 40s40 -18 40 -40s-18 -40 -40 -40s-40 18 -40 40zM171 610c0 22 18 40 40 40s40 -18 40 -40s-18 -40 -40 -40s-40 18 -40 40z" />
    <glyph glyph-name="dieresis.uc.narrow" horiz-adv-x="303" 
d="M45 819c0 22 18 40 40 40s40 -18 40 -40s-18 -40 -40 -40s-40 18 -40 40zM178 819c0 22 18 40 40 40s40 -18 40 -40s-18 -40 -40 -40s-40 18 -40 40z" />
    <glyph glyph-name="grave.uc" horiz-adv-x="281" 
d="M179 759l-134 119h84l107 -119h-57z" />
    <glyph glyph-name="dieresis.uc" horiz-adv-x="380" 
d="M45 819c0 24 19 43 43 43s43 -19 43 -43s-19 -43 -43 -43s-43 19 -43 43zM249 819c0 24 19 43 43 43s43 -19 43 -43s-19 -43 -43 -43s-43 19 -43 43z" />
    <glyph glyph-name="macron.uc" horiz-adv-x="362" 
d="M317 793h-272v52h272v-52z" />
    <glyph glyph-name="acute.uc" horiz-adv-x="281" 
d="M236 878l-134 -119h-57l107 119h84z" />
    <glyph glyph-name="circumflex.uc" horiz-adv-x="390" 
d="M98 759h-59l115 119h82l116 -119h-59l-98 84z" />
    <glyph glyph-name="caron.uc" horiz-adv-x="390" 
d="M39 878h59l97 -84l98 84h59l-116 -119h-82z" />
    <glyph glyph-name="breve.uc" horiz-adv-x="379" 
d="M190 754c-90 0 -140 62 -145 126h52c4 -38 32 -78 93 -78s89 40 92 78h52c-4 -64 -54 -126 -144 -126z" />
    <glyph glyph-name="dotaccent.uc" horiz-adv-x="184" 
d="M45 818c0 26 21 47 47 47s47 -21 47 -47s-21 -47 -47 -47s-47 21 -47 47z" />
    <glyph glyph-name="ring.uc" horiz-adv-x="292" 
d="M146 788c32 0 56 25 56 57c0 33 -24 59 -56 59s-56 -26 -56 -59c0 -32 24 -57 56 -57zM146 745c-55 0 -101 44 -101 100c0 57 46 102 101 102s101 -45 101 -102c0 -56 -46 -100 -101 -100z" />
    <glyph glyph-name="tilde.uc" horiz-adv-x="397" 
d="M352 871v-11c0 -63 -39 -97 -84 -97c-26 0 -48 10 -66 23l-21 15c-16 11 -31 20 -50 20c-26 0 -39 -18 -39 -55h-47v12c0 61 38 95 86 95c28 0 52 -12 72 -27l18 -13c15 -11 28 -18 45 -18c25 0 39 17 39 56h47z" />
    <glyph glyph-name="hungarumlaut.uc" horiz-adv-x="347" 
d="M302 878l-97 -119h-45l74 119h68zM187 878l-97 -119h-45l74 119h68z" />
    <glyph glyph-name="caron.alt.uc" horiz-adv-x="188" 
d="M150 709l-62 -186h-47l38 186h71z" />
    <glyph glyph-name="undercommaaccent" horiz-adv-x="189" 
d="M47 -84c0 25 21 42 46 42c24 0 51 -17 51 -59c0 -68 -49 -104 -99 -107v30c34 3 61 28 63 58c-4 -4 -11 -6 -19 -6c-24 0 -42 16 -42 42z" />
    </font>
</defs>
</svg>
