<?xml version="1.0" encoding="UTF-8"?>
<svg width="200px" height="98px" viewBox="0 0 200 98" version="1.1" xmlns="http://www.w3.org/2000/svg" xmlns:xlink="http://www.w3.org/1999/xlink">
    <title>dfinity.svg</title>
    <defs>
        <linearGradient x1="26.0312475%" y1="31.5132725%" x2="81.7316689%" y2="78.4196391%" id="linearGradient-1">
            <stop stop-color="#F15A24" offset="21%"></stop>
            <stop stop-color="#FBB03B" offset="68.41%"></stop>
        </linearGradient>
        <linearGradient x1="73.9142576%" y1="68.4666308%" x2="18.2134529%" y2="21.5599774%" id="linearGradient-2">
            <stop stop-color="#ED1E79" offset="21%"></stop>
            <stop stop-color="#522785" offset="89.29%"></stop>
        </linearGradient>
    </defs>
    <g id="dfinity.svg" stroke="none" stroke-width="1" fill="none" fill-rule="evenodd">
        <g id="dfinity-logo" transform="translate(0.000000, 0.000000)">
            <path d="M151.425008,0 C140.253323,0 128.066822,5.95135784 115.203535,17.684042 C109.110284,23.2103754 103.778781,29.1617333 99.8858106,33.9228341 C99.8858106,33.9228341 106.148257,40.9793061 113.003255,48.5463084 C116.727029,43.9551303 122.058533,37.748598 128.236018,32.1374122 C139.660772,21.6799827 147.107594,19.5545341 151.425008,19.5545341 C167.50339,19.5545341 180.536237,32.7324318 180.536237,49.0564394 C180.536237,65.2103428 167.50339,78.3876959 151.425008,78.5579816 C150.661809,78.5579816 149.730865,78.4730202 148.631088,78.2181363 C153.28508,80.3436213 158.363151,81.874014 163.10283,81.874014 C192.552452,81.874014 198.30622,61.9792716 198.644976,60.5334771 C199.490958,56.8779625 200,53.0521622 200,49.1414007 C199.915039,22.0199732 178.166397,0 151.425008,0 Z" id="Path" fill="url(#linearGradient-1)" fill-rule="nonzero"></path>
            <path d="M48.5760812,98.0326375 C59.7470404,98.0326375 71.9328152,92.0809892 84.7961019,80.3487044 C90.8893524,74.8218626 96.2208558,68.8709405 100.113826,64.1094766 C100.113826,64.1094766 93.8513794,57.0529683 86.996745,49.486329 C83.2729709,54.0775072 77.9414675,60.2836764 71.7636188,65.8951164 C60.339228,76.2676572 52.8070816,78.4781034 48.5760812,78.4781034 C32.4967186,78.4781034 19.4641265,65.3000241 19.4641265,48.9761981 C19.4641265,32.8224763 32.4967186,19.6446149 48.5760812,19.4745107 C49.3374652,19.4745107 50.2680457,19.559472 51.3685487,19.8145012 C46.7141942,17.6890888 41.6364854,16.1587687 36.8975327,16.1587687 C7.4471488,16.1587687 1.69241829,36.0533659 1.35402177,37.4987973 C0.507807181,41.154675 0,44.9804752 0,48.8912368 C0,76.0127732 21.7491499,98.0326375 48.5760812,98.0326375 Z" id="Path" fill="url(#linearGradient-2)" fill-rule="nonzero"></path>
            <path d="M70.9677419,32.5625455 C67.7522833,29.5017237 52.0115678,17.0038795 36.9480011,16.5787825 C10.1033877,15.9190253 2.21217452,35.0203962 1.53180875,37.4839109 C6.67378308,16.0643673 25.8406177,0.0847833941 48.6265497,0 C67.2022134,0 85.9735785,17.8271691 99.8429668,33.9160807 C99.865841,33.8890311 99.8872629,33.8627076 99.9090478,33.8373645 C99.9090478,33.8373645 106.170769,40.8939817 113.025766,48.460621 C113.025766,48.460621 120.811344,57.4730547 129.104875,65.3795392 C132.321059,68.4403247 147.97645,80.7680647 163.040017,81.1935974 C190.629204,81.9586122 198.245948,61.8089859 198.66785,60.2782301 C193.591957,81.7886896 174.380899,97.8569056 151.530665,97.9418669 C132.949555,97.9418669 114.171291,80.1028976 100.243447,64.009992 C100.215853,64.0426695 100.189348,64.0746207 100.164295,64.1051196 C100.164295,64.1051196 93.902211,57.0482482 87.0472134,49.481609 C87.0472134,49.481609 79.2612723,40.4691752 70.9677419,32.5625455 Z" id="Path" fill="#29ABE2"></path>
        </g>
    </g>
</svg>